g GoldBar
v -8.204894 -1.390474 3.569327
v -6.944587 1.390475 2.497945
v 6.944587 1.390475 2.497945
v 8.204894 -1.390474 3.569327
v 8.204894 -1.390475 -3.569326
v 6.944587 1.390474 -2.497946
v -6.944587 1.390474 -2.497946
v -8.204894 -1.390475 -3.569326
v 8.204894 -1.390474 3.569327
v 6.944587 1.390475 2.497945
v 7.255985 1.390475 2.233227
v 8.516292 -1.390474 3.304609
v 7.255985 1.390474 -2.233228
v 8.516292 -1.390475 -3.304608
v 6.944587 1.390474 -2.497946
v 8.204894 -1.390475 -3.569326
v -6.944587 1.390475 2.497945
v -8.204894 -1.390474 3.569327
v -8.516292 -1.390474 3.304609
v -7.255985 1.390475 2.233227
v -8.516292 -1.390475 -3.304608
v -7.255985 1.390474 -2.233228
v -8.204894 -1.390475 -3.569326
v -6.944587 1.390474 -2.497946
v -8.204894 -1.390474 3.569327
v -8.347267 -1.652647 3.42564
v -8.516292 -1.390474 3.304609
v -8.516292 -1.390475 -3.304608
v 8.347267 -1.652647 3.42564
v 8.204894 -1.390474 3.569327
v 8.516292 -1.390474 3.304609
v 8.347267 -1.652648 -3.425639
v 8.516292 -1.390475 -3.304608
v 8.204894 -1.390475 -3.569326
v -8.347267 -1.652648 -3.425639
v -8.204894 -1.390475 -3.569326
v -6.944587 1.390475 2.497945
v -7.255985 1.390475 2.233227
v -6.84933 1.652648 2.15225
v 6.944587 1.390475 2.497945
v -6.84933 1.652647 -2.152251
v -7.255985 1.390474 -2.233228
v -6.944587 1.390474 -2.497946
v 6.84933 1.652647 -2.152251
v 6.944587 1.390474 -2.497946
v 7.255985 1.390474 -2.233228
v 6.84933 1.652648 2.15225
v 7.255985 1.390475 2.233227
vt 0.01554871 0.5649414
vt 0.07470703 0.703125
vt 0.71875 0.699707
vt 0.7763672 0.5610352
vt 0.0224762 0.3935547
vt 0.08013916 0.5322266
vt 0.7241211 0.5356445
vt 0.7832031 0.3977051
vt 0.9638672 0.3352051
vt 0.8208008 0.3808594
vt 0.828125 0.3984375
vt 0.9707031 0.3527832
vt 0.8222656 0.6054688
vt 0.9624023 0.6591797
vt 0.8139648 0.6225586
vt 0.9541016 0.6762695
vt 0.9121094 0.6943359
vt 0.7719727 0.640625
vt 0.7641602 0.6577148
vt 0.9042969 0.7114258
vt 0.7553711 0.9643555
vt 0.8979492 0.918457
vt 0.7626953 0.9814453
vt 0.9052734 0.9360352
vt 0.04104614 0.3674316
vt 0.0380249 0.3540039
vt 0.02432251 0.3518066
vt 0.02432251 0.04019165
vt 0.8110352 0.3540039
vt 0.8081055 0.3674316
vt 0.824707 0.3518066
vt 0.8110352 0.03811646
vt 0.824707 0.04019165
vt 0.8081055 0.02470398
vt 0.0380249 0.03811646
vt 0.04104614 0.02470398
vt 0.6860352 0.9711914
vt 0.7016602 0.9575195
vt 0.6801758 0.9521484
vt 0.04000854 0.9711914
vt 0.6801758 0.753418
vt 0.7016602 0.7485352
vt 0.6860352 0.734375
vt 0.04589844 0.753418
vt 0.04000854 0.734375
vt 0.02432251 0.7485352
vt 0.04589844 0.9521484
vt 0.02432251 0.9575195
vn -0.3100586 0.04684448 0.949707
vn -0.2357178 0.6196289 0.7485352
vn 0.2357178 0.6196289 0.7485352
vn 0.3100586 0.04684448 0.949707
vn 0.3100586 0.04684448 -0.949707
vn 0.2357178 0.6196289 -0.7485352
vn -0.2357178 0.6196289 -0.7485352
vn -0.3100586 0.04684448 -0.949707
vn 0.3100586 0.04684448 0.949707
vn 0.2357178 0.6196289 0.7485352
vn 0.6987305 0.6552734 0.2866211
vn 0.9282227 0.03375244 0.3706055
vn 0.6987305 0.6552734 -0.2866211
vn 0.9282227 0.03375244 -0.3706055
vn 0.2357178 0.6196289 -0.7485352
vn 0.3100586 0.04684448 -0.949707
vn -0.2357178 0.6196289 0.7485352
vn -0.3100586 0.04684448 0.949707
vn -0.9282227 0.03375244 0.3706055
vn -0.6987305 0.6552734 0.2866211
vn -0.9282227 0.03375244 -0.3706055
vn -0.6987305 0.6552734 -0.2866211
vn -0.3100586 0.04684448 -0.949707
vn -0.2357178 0.6196289 -0.7485352
vn -0.3100586 0.04684448 0.949707
vn -0.4724121 -0.722168 0.5053711
vn -0.9282227 0.03375244 0.3706055
vn -0.9282227 0.03375244 -0.3706055
vn 0.4724121 -0.722168 0.5053711
vn 0.3100586 0.04684448 0.949707
vn 0.9282227 0.03375244 0.3706055
vn 0.4724121 -0.722168 -0.5053711
vn 0.9282227 0.03375244 -0.3706055
vn 0.3100586 0.04684448 -0.949707
vn -0.4724121 -0.722168 -0.5053711
vn -0.3100586 0.04684448 -0.949707
vn -0.2357178 0.6196289 0.7485352
vn -0.6987305 0.6552734 0.2866211
vn -0.2364502 0.9326172 0.2731934
vn 0.2357178 0.6196289 0.7485352
vn -0.2364502 0.9326172 -0.2731934
vn -0.6987305 0.6552734 -0.2866211
vn -0.2357178 0.6196289 -0.7485352
vn 0.2364502 0.9326172 -0.2731934
vn 0.2357178 0.6196289 -0.7485352
vn 0.6987305 0.6552734 -0.2866211
vn 0.2364502 0.9326172 0.2731934
vn 0.6987305 0.6552734 0.2866211
g GoldBar_0
f 3/3/3 2/2/2 1/1/1
f 4/4/4 3/3/3 1/1/1
f 7/7/7 6/6/6 5/5/5
f 8/8/8 7/7/7 5/5/5
f 11/11/11 10/10/10 9/9/9
f 12/12/12 11/11/11 9/9/9
f 13/13/13 11/11/11 12/12/12
f 14/14/14 13/13/13 12/12/12
f 15/15/15 13/13/13 14/14/14
f 16/16/16 15/15/15 14/14/14
f 19/19/19 18/18/18 17/17/17
f 20/20/20 19/19/19 17/17/17
f 19/19/19 20/20/20 21/21/21
f 20/20/20 22/22/22 21/21/21
f 21/21/21 22/22/22 23/23/23
f 22/22/22 24/24/24 23/23/23
f 27/27/27 26/26/26 25/25/25
f 27/27/27 28/28/28 26/26/26
f 25/25/25 26/26/26 29/29/29
f 30/30/30 25/25/25 29/29/29
f 31/31/31 30/30/30 29/29/29
f 31/31/31 29/29/29 32/32/32
f 32/32/32 29/29/29 26/26/26
f 33/33/33 31/31/31 32/32/32
f 34/34/34 33/33/33 32/32/32
f 28/28/28 35/35/35 26/26/26
f 35/35/35 32/32/32 26/26/26
f 34/34/34 32/32/32 35/35/35
f 36/36/36 35/35/35 28/28/28
f 36/36/36 34/34/34 35/35/35
f 39/39/39 38/38/38 37/37/37
f 37/37/37 40/40/40 39/39/39
f 38/38/38 39/39/39 41/41/41
f 42/42/42 38/38/38 41/41/41
f 41/41/41 43/43/43 42/42/42
f 43/43/43 41/41/41 44/44/44
f 44/44/44 41/41/41 39/39/39
f 45/45/45 43/43/43 44/44/44
f 44/44/44 46/46/46 45/45/45
f 40/40/40 47/47/47 39/39/39
f 47/47/47 44/44/44 39/39/39
f 46/46/46 44/44/44 47/47/47
f 47/47/47 40/40/40 48/48/48
f 48/48/48 46/46/46 47/47/47
