g kirik_tirnak2
v -1.604988 0.1662469 0.8260024
v -1.983782 -0.7077628 0.8259901
v -2.253821 -0.4333158 0.8259901
v -1.412688 -0.1609699 0.8260024
v -0.8024943 0.5777766 0.8260046
v -0.7063442 0.214339 0.8260046
v 1.26285E-07 0.7189401 0.8260069
v 1.22823E-07 0.3430781 0.8260069
v 0.8024937 0.5777766 0.8260046
v 0.7063436 0.214339 0.8260046
v 2.253821 -0.4333158 0.8259901
v 1.983782 -0.7077628 0.8259901
v 1.412688 -0.1609699 0.8260024
v 1.604988 0.1662469 0.8260024
v 0.7063436 0.214339 0.8260046
v 0.8024937 0.5777766 0.8260046
v -1.983782 -0.7077628 0.8259901
v -1.983782 -0.7076454 0.3029586
v -2.253821 -0.4331879 0.3068152
v -2.253821 -0.4333158 0.8259901
v -2.253821 -0.4331879 0.3068152
v -1.604988 0.1662469 0.8260024
v -2.253821 -0.4333158 0.8259901
v -1.604988 0.166619 -0.6835412
v -0.8024942 0.5779269 0.2147269
v -0.8024943 0.5777766 0.8260046
v 1.26285E-07 0.7189401 0.8260069
v 1.209974E-07 0.7193469 -0.8260064
v 0.8024937 0.5777766 0.8260046
v 0.8024937 0.5777766 0.8260046
v 1.604988 0.1665215 -0.2882592
v 1.604988 0.1662469 0.8260024
v 2.253821 -0.4333158 0.8259901
v -2.253821 -0.4331879 0.3068152
v -1.986338 -0.7192262 0.3068152
v -1.414508 -0.1642603 -0.6835412
v -1.604988 0.166619 -0.6835412
v -1.604988 0.166619 -0.6835412
v -1.414508 -0.1642603 -0.6835412
v -0.7072539 0.2162988 0.2147269
v -0.8024942 0.5779269 0.2147269
v -0.8024942 0.5779269 0.2147269
v -0.7072539 0.2162988 0.2147269
v 1.009782E-07 0.3471463 -0.8260056
v 1.209974E-07 0.7193469 -0.8260064
v 1.209974E-07 0.7193469 -0.8260064
v 1.009782E-07 0.3471463 -0.8260056
v 0.7072536 0.2161597 0.8260046
v 0.8024937 0.5777766 0.8260046
v 0.8024937 0.5777766 0.8260046
v 0.7072536 0.2161597 0.8260046
v 1.414508 -0.1643505 -0.2882592
v 1.604988 0.1665215 -0.2882592
v 1.604988 0.1665215 -0.2882592
v 1.414508 -0.1643505 -0.2882592
v 1.986337 -0.7193445 0.8259909
v 2.253821 -0.4333158 0.8259901
vt 0.05154419 0.03570557
vt 0.04324341 0.02607727
vt 0.04437256 0.04272461
vt 0.05197144 0.0005054474
vt 0.06021118 0.03588867
vt 0.06063843 0.003967285
vt 0.06866455 0.0362854
vt 0.06866455 0.005664825
vt 0.0770874 0.03588867
vt 0.07666016 0.003967285
vt 0.09295654 0.04272461
vt 0.09405518 0.02607727
vt 0.08532715 0.0005054474
vt 0.08575439 0.03570557
vt 0.07666016 0.003967285
vt 0.0770874 0.03588867
vt 0.04324341 0.02607727
vt 0.04324341 0.07666016
vt 0.04437256 0.09118652
vt 0.04437256 0.04272461
vt 0.206665 0.09118652
vt 0.2910156 0.03570557
vt 0.206665 0.04272461
vt 0.2910156 0.1787109
vt 0.3935547 0.09375
vt 0.3935547 0.03588867
vt 0.4926758 0.0362854
vt 0.4926758 0.1925049
vt 0.5917969 0.03588867
vt 0.5917969 0.03588867
vt 0.6943359 0.1412354
vt 0.6943359 0.03570557
vt 0.7788086 0.04272461
vt 0.04437256 0.09118652
vt 0.04437256 0.09118652
vt 0.05154419 0.1787109
vt 0.05154419 0.1787109
vt 0.05154419 0.1787109
vt 0.05154419 0.1787109
vt 0.06021118 0.09375
vt 0.06021118 0.09375
vt 0.06021118 0.09375
vt 0.06021118 0.09375
vt 0.06866455 0.1925049
vt 0.06866455 0.1925049
vt 0.06866455 0.1925049
vt 0.06866455 0.1925049
vt 0.0770874 0.03588867
vt 0.0770874 0.03588867
vt 0.0770874 0.03588867
vt 0.0770874 0.03588867
vt 0.08575439 0.1412354
vt 0.08575439 0.1412354
vt 0.08575439 0.1412354
vt 0.08575439 0.1412354
vt 0.09295654 0.04272461
vt 0.09295654 0.04272461
vn -6.973743E-06 -4.947186E-06 1
vn -1.15633E-05 -9.119511E-06 1
vn -1.15633E-05 -9.119511E-06 1
vn -7.450581E-06 -5.364418E-06 1
vn -3.039837E-06 0 1
vn -3.039837E-06 0 1
vn 0 0 1
vn 0 0 1
vn 2.145767E-06 0 1
vn 2.145767E-06 0 1
vn 1.257658E-05 -9.119511E-06 1
vn 1.257658E-05 -9.119511E-06 1
vn 7.510185E-06 -5.364418E-06 1
vn 6.914139E-06 -4.947186E-06 1
vn 1.907349E-06 -1.192093E-06 1
vn 1.907349E-06 -1.192093E-06 1
vn -0.7128906 -0.7011719 -0.0001652241
vn -0.7128906 -0.7011719 -0.0001652241
vn -0.7128906 -0.7011719 -0.0001652241
vn -0.7128906 -0.7011719 -0.0001652241
vn -0.6787109 0.734375 0.0001810789
vn -0.5693359 0.8222656 0.0002026558
vn -0.6787109 0.734375 0.0001810789
vn -0.5649414 0.8251953 0.000203371
vn -0.3173828 0.9482422 0.0002336502
vn -0.3210449 0.9472656 0.0002332926
vn -0.02745056 0.9995117 0.0002462864
vn -0.0579834 0.9985352 0.0002458096
vn 0.1732178 0.9848633 0.0002424717
vn 0.4562988 0.8896484 0.0002194643
vn 0.5708008 0.8212891 0.0002024174
vn 0.5717773 0.8203125 0.0002022982
vn 0.6787109 0.734375 0.0001809597
vn -0.6142578 -0.4558105 -0.644043
vn -0.6142578 -0.4558105 -0.644043
vn -0.6142578 -0.4558105 -0.644043
vn -0.6142578 -0.4558105 -0.644043
vn 0.671875 0.2770996 -0.6870117
vn 0.671875 0.2770996 -0.6870117
vn 0.671875 0.2770996 -0.6870117
vn 0.671875 0.2770996 -0.6870117
vn -0.7988281 -0.1036377 -0.5927734
vn -0.7988281 -0.1036377 -0.5927734
vn -0.7988281 -0.1036377 -0.5927734
vn -0.7988281 -0.1036377 -0.5927734
vn 0.8994141 -0.1167603 -0.4206543
vn 0.8994141 -0.1167603 -0.4206543
vn 0.8994141 -0.1167603 -0.4206543
vn 0.8994141 -0.1167603 -0.4206543
vn -0.7353516 0.3034668 -0.605957
vn -0.7353516 0.3034668 -0.605957
vn -0.7353516 0.3034668 -0.605957
vn -0.7353516 0.3034668 -0.605957
vn 0.6425781 -0.4770508 -0.5991211
vn 0.6425781 -0.4770508 -0.5991211
vn 0.6425781 -0.4770508 -0.5991211
vn 0.6425781 -0.4770508 -0.5991211
g kirik_tirnak2_0
f 3/3/3 2/2/2 1/1/1
f 2/2/2 4/4/4 1/1/1
f 1/1/1 4/4/4 5/5/5
f 4/4/4 6/6/6 5/5/5
f 5/5/5 6/6/6 7/7/7
f 6/6/6 8/8/8 7/7/7
f 7/7/7 8/8/8 9/9/9
f 8/8/8 10/10/10 9/9/9
f 13/13/13 12/12/12 11/11/11
f 14/14/14 13/13/13 11/11/11
f 15/15/15 13/13/13 14/14/14
f 16/16/16 15/15/15 14/14/14
f 19/19/19 18/18/18 17/17/17
f 20/20/20 19/19/19 17/17/17
f 23/23/23 22/22/22 21/21/21
f 22/22/22 24/24/24 21/21/21
f 25/25/25 24/24/24 22/22/22
f 26/26/26 25/25/25 22/22/22
f 26/26/26 27/27/27 25/25/25
f 27/27/27 28/28/28 25/25/25
f 27/27/27 29/29/29 28/28/28
f 32/32/32 31/31/31 30/30/30
f 32/32/32 33/33/33 31/31/31
f 36/36/36 35/35/35 34/34/34
f 37/37/37 36/36/36 34/34/34
f 40/40/40 39/39/39 38/38/38
f 41/41/41 40/40/40 38/38/38
f 44/44/44 43/43/43 42/42/42
f 45/45/45 44/44/44 42/42/42
f 48/48/48 47/47/47 46/46/46
f 49/49/49 48/48/48 46/46/46
f 52/52/52 51/51/51 50/50/50
f 53/53/53 52/52/52 50/50/50
f 56/56/56 55/55/55 54/54/54
f 57/57/57 56/56/56 54/54/54
