g kirik_tirnak_eklenen
v -2.253821 0.2107068 -4.344177E-05
v -1.604988 0.8082259 8.293965
v -2.253822 0.2084189 9.284322
v -1.604988 0.8102698 -3.224891E-05
v -0.8024943 1.221799 -2.98707E-05
v -0.8024943 1.219534 9.192233
v 2.562995E-08 1.360954 8.151501
v -4.606533E-10 1.362963 -2.793269E-05
v 0.8024937 1.221799 -2.98707E-05
v 0.8024936 1.219383 9.803512
v 1.604988 0.8102698 -3.224891E-05
v 1.604988 0.8081283 8.689247
v 2.253821 0.2107068 -4.344177E-05
v 2.253821 0.208291 9.803496
v -2.253821 0.2107068 -4.344177E-05
v -1.983782 -0.06395268 -4.350144E-05
v -1.412688 0.4828402 -3.232004E-05
v -1.604988 0.8102698 -3.224891E-05
v -0.7063443 0.8581496 -2.994969E-05
v -0.8024943 1.221799 -2.98707E-05
v -3.925658E-09 0.9868883 -2.801438E-05
v -4.606533E-10 1.362963 -2.793269E-05
v 0.7063436 0.8581496 -2.994969E-05
v 0.8024937 1.221799 -2.98707E-05
v 1.412688 0.4828402 -3.232004E-05
v 1.604988 0.8102698 -3.224891E-05
v 1.983782 -0.06395268 -4.350144E-05
v 2.253821 0.2107068 -4.344177E-05
v -2.253821 0.2107068 -4.344177E-05
v -2.253822 0.2084189 9.284322
v -1.983782 -0.0660385 9.280465
v -1.983782 -0.06395268 -4.350144E-05
v 2.253821 0.2107068 -4.344177E-05
v 1.983782 -0.06395268 -4.350144E-05
v 1.983782 -0.06615605 9.803496
v 2.253821 0.208291 9.803496
v -1.604988 0.8082259 8.293965
v -1.41748 0.4772056 8.293965
v -1.990511 -0.06983287 9.284322
v -2.253822 0.2084189 9.284322
v -0.8024943 1.219534 9.192233
v -0.7087401 0.8523287 9.192233
v -1.41748 0.4772056 8.293965
v -1.604988 0.8082259 8.293965
v 2.562995E-08 1.360954 8.151501
v 2.799459E-09 0.9813071 8.151501
v -0.7087401 0.8523287 9.192233
v -0.8024943 1.219534 9.192233
v 0.8024936 1.219383 9.803512
v 0.7087395 0.8521915 9.803512
v 2.799459E-09 0.9813071 8.151501
v 2.562995E-08 1.360954 8.151501
v 1.604988 0.8081283 8.689247
v 1.41748 0.4771167 8.689247
v 0.7087395 0.8521915 9.803512
v 0.8024936 1.219383 9.803512
v 2.253821 0.208291 9.803496
v 1.990511 -0.06994931 9.803496
v 1.41748 0.4771167 8.689247
v 1.604988 0.8081283 8.689247
vt 0.2067871 0.9570313
vt 0.2910156 0.1787109
vt 0.206665 0.09118652
vt 0.2912598 0.9643555
vt 0.3935547 0.9638672
vt 0.3935547 0.09375
vt 0.4926758 0.1925049
vt 0.4926758 0.9633789
vt 0.5917969 0.9638672
vt 0.5917969 0.03588867
vt 0.6943359 0.9643555
vt 0.6943359 0.1412354
vt 0.7788086 0.9570313
vt 0.7788086 0.04272461
vt 0.2067871 0.9570313
vt 0.1937256 0.9736328
vt 0.2963867 0.9995117
vt 0.2912598 0.9643555
vt 0.3986816 0.9960938
vt 0.3935547 0.9638672
vt 0.4926758 0.9941406
vt 0.4926758 0.9633789
vt 0.5869141 0.9960938
vt 0.5917969 0.9638672
vt 0.6889648 0.9995117
vt 0.6943359 0.9643555
vt 0.7919922 0.9736328
vt 0.7788086 0.9570313
vt 0.2067871 0.9570313
vt 0.206665 0.09118652
vt 0.1937256 0.07666016
vt 0.1937256 0.9736328
vt 0.7788086 0.9570313
vt 0.7919922 0.9736328
vt 0.7919922 0.02607727
vt 0.7788086 0.04272461
vt 0.2910156 0.1787109
vt 0.2910156 0.1787109
vt 0.206665 0.09118652
vt 0.206665 0.09118652
vt 0.3935547 0.09375
vt 0.3935547 0.09375
vt 0.2910156 0.1787109
vt 0.2910156 0.1787109
vt 0.4926758 0.1925049
vt 0.4926758 0.1925049
vt 0.3935547 0.09375
vt 0.3935547 0.09375
vt 0.5917969 0.03588867
vt 0.5917969 0.03588867
vt 0.4926758 0.1925049
vt 0.4926758 0.1925049
vt 0.6943359 0.1412354
vt 0.6943359 0.1412354
vt 0.5917969 0.03588867
vt 0.5917969 0.03588867
vt 0.7788086 0.04272461
vt 0.7788086 0.04272461
vt 0.6943359 0.1412354
vt 0.6943359 0.1412354
vn -0.6787109 0.734375 0.0001809597
vn -0.5732422 0.8193359 0.0002019405
vn -0.6787109 0.734375 0.0001809597
vn -0.5717773 0.8203125 0.000202179
vn -0.3261719 0.9453125 0.000232935
vn -0.3361816 0.9418945 0.0002321005
vn 0.01113129 1 0.0002465248
vn 0.003046036 1 0.0002465248
vn 0.3276367 0.9448242 0.0002328157
vn 0.3518066 0.9360352 0.00023067
vn 0.5717773 0.8203125 0.000202179
vn 0.5717773 0.8203125 0.000202179
vn 0.6787109 0.734375 0.0001809597
vn 0.6787109 0.734375 0.0001809597
vn 1.055002E-05 8.285046E-06 -1
vn 1.055002E-05 8.285046E-06 -1
vn 6.735325E-06 4.947186E-06 -1
vn 6.258488E-06 4.589558E-06 -1
vn 2.503395E-06 0 -1
vn 2.503395E-06 0 -1
vn 0 0 -1
vn 0 0 -1
vn -2.503395E-06 0 -1
vn -2.503395E-06 0 -1
vn -6.735325E-06 4.947186E-06 -1
vn -6.258488E-06 4.589558E-06 -1
vn -1.055002E-05 8.285046E-06 -1
vn -1.055002E-05 8.285046E-06 -1
vn -0.7128906 -0.7011719 -0.0001652241
vn -0.7128906 -0.7011719 -0.0001652241
vn -0.7128906 -0.7011719 -0.0001652241
vn -0.7128906 -0.7011719 -0.0001652241
vn 0.7128906 -0.7011719 -0.0001652241
vn 0.7128906 -0.7011719 -0.0001652241
vn 0.7128906 -0.7011719 -0.0001652241
vn 0.7128906 -0.7011719 -0.0001652241
vn 0.6152344 0.4553223 0.6435547
vn 0.6152344 0.4553223 0.6435547
vn 0.6152344 0.4553223 0.6435547
vn 0.6152344 0.4553223 0.6435547
vn -0.6748047 -0.2717285 0.6865234
vn -0.6748047 -0.2717285 0.6865234
vn -0.6748047 -0.2717285 0.6865234
vn -0.6748047 -0.2717285 0.6865234
vn 0.7988281 0.1002808 0.5932617
vn 0.7988281 0.1002808 0.5932617
vn 0.7988281 0.1002808 0.5932617
vn 0.7988281 0.1002808 0.5932617
vn -0.8999023 0.1129761 0.4208984
vn -0.8999023 0.1129761 0.4208984
vn -0.8999023 0.1129761 0.4208984
vn -0.8999023 0.1129761 0.4208984
vn 0.7382813 -0.2973633 0.6054688
vn 0.7382813 -0.2973633 0.6054688
vn 0.7382813 -0.2973633 0.6054688
vn 0.7382813 -0.2973633 0.6054688
vn -0.644043 0.4765625 0.5986328
vn -0.644043 0.4765625 0.5986328
vn -0.644043 0.4765625 0.5986328
vn -0.644043 0.4765625 0.5986328
g kirik_tirnak_eklenen_0
f 3/3/3 2/2/2 1/1/1
f 2/2/2 4/4/4 1/1/1
f 4/4/4 2/2/2 5/5/5
f 2/2/2 6/6/6 5/5/5
f 6/6/6 7/7/7 5/5/5
f 7/7/7 8/8/8 5/5/5
f 8/8/8 7/7/7 9/9/9
f 7/7/7 10/10/10 9/9/9
f 9/9/9 10/10/10 11/11/11
f 10/10/10 12/12/12 11/11/11
f 11/11/11 12/12/12 13/13/13
f 12/12/12 14/14/14 13/13/13
f 17/17/17 16/16/16 15/15/15
f 18/18/18 17/17/17 15/15/15
f 19/19/19 17/17/17 18/18/18
f 20/20/20 19/19/19 18/18/18
f 21/21/21 19/19/19 20/20/20
f 22/22/22 21/21/21 20/20/20
f 23/23/23 21/21/21 22/22/22
f 24/24/24 23/23/23 22/22/22
f 25/25/25 23/23/23 24/24/24
f 26/26/26 25/25/25 24/24/24
f 27/27/27 25/25/25 26/26/26
f 28/28/28 27/27/27 26/26/26
f 31/31/31 30/30/30 29/29/29
f 32/32/32 31/31/31 29/29/29
f 35/35/35 34/34/34 33/33/33
f 36/36/36 35/35/35 33/33/33
f 39/39/39 38/38/38 37/37/37
f 40/40/40 39/39/39 37/37/37
f 43/43/43 42/42/42 41/41/41
f 44/44/44 43/43/43 41/41/41
f 47/47/47 46/46/46 45/45/45
f 48/48/48 47/47/47 45/45/45
f 51/51/51 50/50/50 49/49/49
f 52/52/52 51/51/51 49/49/49
f 55/55/55 54/54/54 53/53/53
f 56/56/56 55/55/55 53/53/53
f 59/59/59 58/58/58 57/57/57
f 60/60/60 59/59/59 57/57/57
