g kirik_tirnak4
v -0.4808191 0.1621502 1.670598
v -0.2933107 -0.1688702 1.670598
v -0.8663421 -0.7159086 2.660955
v -1.129653 -0.4376568 2.660955
v 0.3216748 0.5734579 2.568866
v 0.415429 0.2062528 2.568866
v -0.2933107 -0.1688702 1.670598
v -0.4808191 0.1621502 1.670598
v 1.124169 0.714878 1.528134
v 1.124169 0.3352314 1.528134
v 0.415429 0.2062528 2.568866
v 0.3216748 0.5734579 2.568866
v -0.859613 -0.7115418 0.1100066
v -1.129652 -0.4370148 0.05533818
v -1.129653 -0.4376568 2.660955
v -0.8596132 -0.7121143 2.657099
v -1.129652 -0.4370148 0.05533818
v -0.4808191 0.1621502 1.670598
v -1.129653 -0.4376568 2.660955
v -0.4808189 0.1627529 -0.7757031
v 0.3216748 0.5734579 2.568866
v 0.3216748 0.5745208 -1.743094
v 1.124169 0.714878 1.528134
v 1.124169 0.7159105 -2.660954
v -1.129652 -0.4370148 0.05533818
v -0.859613 -0.7115418 0.1100066
v -0.2773994 -0.1731104 -0.7757027
v -0.4808189 0.1627529 -0.7757031
v -0.4808189 0.1627529 -0.7757031
v -0.2773994 -0.1731104 -0.7757027
v 0.4316571 0.1856832 -1.743094
v 0.3216748 0.5745208 -1.743094
v 1.124169 0.7159105 -2.660954
v 1.129652 0.3088828 -2.660954
v 1.124169 0.3352314 1.528134
v 1.124169 0.714878 1.528134
v 0.3216748 0.5745208 -1.743094
v 0.4316571 0.1856832 -1.743094
v 1.129652 0.3088828 -2.660954
v 1.124169 0.7159105 -2.660954
vt 0.05154419 0.1787109
vt 0.05154419 0.1787109
vt 0.04437256 0.09118652
vt 0.04437256 0.09118652
vt 0.06021118 0.09375
vt 0.06021118 0.09375
vt 0.05154419 0.1787109
vt 0.05154419 0.1787109
vt 0.06866455 0.1925049
vt 0.06866455 0.1925049
vt 0.06021118 0.09375
vt 0.06021118 0.09375
vt 0.04324341 0.3227539
vt 0.04437256 0.3342285
vt 0.04437256 0.09118652
vt 0.04324341 0.07666016
vt 0.2067871 0.3342285
vt 0.2910156 0.1787109
vt 0.206665 0.09118652
vt 0.2912598 0.4104004
vt 0.3935547 0.09375
vt 0.3935547 0.5019531
vt 0.4926758 0.1925049
vt 0.4926758 0.5888672
vt 0.04437256 0.3342285
vt 0.04437256 0.3342285
vt 0.05154419 0.4104004
vt 0.05154419 0.4104004
vt 0.05154419 0.4104004
vt 0.05154419 0.4104004
vt 0.06021118 0.5019531
vt 0.06021118 0.5019531
vt 0.06866455 0.5888672
vt 0.06866455 0.5888672
vt 0.06866455 0.1925049
vt 0.06866455 0.1925049
vt 0.06021118 0.5019531
vt 0.06021118 0.5019531
vt 0.06866455 0.5888672
vt 0.06866455 0.5888672
vn 0.6152344 0.4553223 0.6435547
vn 0.6152344 0.4553223 0.6435547
vn 0.6152344 0.4553223 0.6435547
vn 0.6152344 0.4553223 0.6435547
vn -0.6748047 -0.2717285 0.6865234
vn -0.6748047 -0.2717285 0.6865234
vn -0.6748047 -0.2717285 0.6865234
vn -0.6748047 -0.2717285 0.6865234
vn 0.7988281 0.1002808 0.5932617
vn 0.7988281 0.1002808 0.5932617
vn 0.7988281 0.1002808 0.5932617
vn 0.7988281 0.1002808 0.5932617
vn -0.7128906 -0.7011719 -0.0001653433
vn -0.7128906 -0.7011719 -0.0001653433
vn -0.7128906 -0.7011719 -0.0001653433
vn -0.7128906 -0.7011719 -0.0001653433
vn -0.6787109 0.734375 0.0001809597
vn -0.5566406 0.8305664 0.0002046824
vn -0.6787109 0.734375 0.0001809597
vn -0.5039063 0.8637695 0.0002129078
vn -0.3212891 0.9467773 0.0002334118
vn -0.2358398 0.9716797 0.0002394915
vn -0.1732178 0.9848633 0.0002427101
vn -0.1732178 0.9848633 0.0002427101
vn -0.5336914 -0.4765625 -0.6987305
vn -0.5336914 -0.4765625 -0.6987305
vn -0.5336914 -0.4765625 -0.6987305
vn -0.5336914 -0.4765625 -0.6987305
vn -0.690918 -0.298584 -0.6586914
vn -0.690918 -0.298584 -0.6586914
vn -0.690918 -0.298584 -0.6586914
vn -0.690918 -0.298584 -0.6586914
vn 1 0.006969452 0.0006332397
vn 1 0.006969452 0.0006332397
vn 1 0.006969452 0.0006332397
vn 1 0.006969452 0.0006332397
vn -0.7617188 -0.1104736 -0.6386719
vn -0.7617188 -0.1104736 -0.6386719
vn -0.7617188 -0.1104736 -0.6386719
vn -0.7617188 -0.1104736 -0.6386719
g kirik_tirnak4_0
f 3/3/3 2/2/2 1/1/1
f 4/4/4 3/3/3 1/1/1
f 7/7/7 6/6/6 5/5/5
f 8/8/8 7/7/7 5/5/5
f 11/11/11 10/10/10 9/9/9
f 12/12/12 11/11/11 9/9/9
f 15/15/15 14/14/14 13/13/13
f 16/16/16 15/15/15 13/13/13
f 19/19/19 18/18/18 17/17/17
f 18/18/18 20/20/20 17/17/17
f 18/18/18 21/21/21 20/20/20
f 21/21/21 22/22/22 20/20/20
f 21/21/21 23/23/23 22/22/22
f 23/23/23 24/24/24 22/22/22
f 27/27/27 26/26/26 25/25/25
f 28/28/28 27/27/27 25/25/25
f 31/31/31 30/30/30 29/29/29
f 32/32/32 31/31/31 29/29/29
f 35/35/35 34/34/34 33/33/33
f 36/36/36 35/35/35 33/33/33
f 39/39/39 38/38/38 37/37/37
f 40/40/40 39/39/39 37/37/37
