g kirik_tirnak1
v -2.253821 -0.438798 -1.269796
v -1.604988 0.160765 -1.269785
v -1.604988 0.1601393 1.269795
v -0.8024943 0.5718774 0.4224419
v -0.8024943 0.5722946 -1.269782
v 2.693804E-09 0.713215 -0.2842281
v -4.606533E-10 0.7134578 -1.26978
v 0.8024937 0.5722946 -1.269782
v 0.8024937 0.5719346 0.1902878
v 1.604988 0.160765 -1.269785
v 1.604988 0.1602983 0.6236495
v 2.253821 -0.438798 -1.269795
v 2.253821 -0.438798 -1.269796
v -2.253821 -0.438798 -1.269796
v -1.983782 -0.7134575 -1.269796
v -1.412688 -0.1666646 -1.269785
v -1.604988 0.160765 -1.269785
v -0.7063443 0.2086448 -1.269782
v -0.8024943 0.5722946 -1.269782
v -3.925658E-09 0.3373836 -1.26978
v -4.606533E-10 0.7134578 -1.26978
v 0.7063436 0.2086448 -1.269782
v 0.8024937 0.5722946 -1.269782
v 1.412688 -0.1666646 -1.269785
v 1.604988 0.160765 -1.269785
v 1.983782 -0.7134575 -1.269796
v 2.253821 -0.438798 -1.269796
v -1.604988 0.1601393 1.269795
v -1.39599 -0.1893145 1.269796
v -1.960334 -0.7111978 -1.269796
v -2.253821 -0.438798 -1.269796
v -0.8024943 0.5718774 0.4224419
v -0.6979954 0.1694532 0.4224418
v -1.39599 -0.1893145 1.269796
v -1.604988 0.1601393 1.269795
v 2.693804E-09 0.713215 -0.2842281
v -1.421501E-08 0.2926073 -0.2842278
v -0.6979954 0.1694532 0.4224418
v -0.8024943 0.5718774 0.4224419
v 0.8024937 0.5719346 0.1902878
v 0.6979948 0.169503 0.1902879
v -1.421501E-08 0.2926073 -0.2842278
v 2.693804E-09 0.713215 -0.2842281
v 1.604988 0.1602983 0.6236495
v 1.39599 -0.1891757 0.6236495
v 0.6979948 0.169503 0.1902879
v 0.8024937 0.5719346 0.1902878
v 2.253821 -0.438798 -1.269795
v 1.960334 -0.7111978 -1.269795
v 1.39599 -0.1891757 0.6236495
v 1.604988 0.1602983 0.6236495
vt 0.2067871 0.9570313
vt 0.2912598 0.9643555
vt 0.2912598 0.7236328
vt 0.3935547 0.8037109
vt 0.3935547 0.9638672
vt 0.4926758 0.8701172
vt 0.4926758 0.9633789
vt 0.5917969 0.9638672
vt 0.5917969 0.8256836
vt 0.6943359 0.9643555
vt 0.6943359 0.784668
vt 0.7788086 0.9570313
vt 0.7788086 0.9570313
vt 0.04437256 0.9570313
vt 0.04327393 0.9736328
vt 0.05197144 0.9995117
vt 0.05154419 0.9643555
vt 0.06063843 0.9960938
vt 0.06021118 0.9638672
vt 0.06866455 0.9941406
vt 0.06866455 0.9633789
vt 0.07666016 0.9960938
vt 0.0770874 0.9638672
vt 0.08532715 0.9995117
vt 0.08575439 0.9643555
vt 0.09405518 0.9736328
vt 0.09289551 0.9570313
vt 0.05154419 0.7236328
vt 0.05154419 0.7236328
vt 0.04437256 0.9570313
vt 0.04437256 0.9570313
vt 0.06021118 0.8037109
vt 0.06021118 0.8037109
vt 0.05154419 0.7236328
vt 0.05154419 0.7236328
vt 0.06866455 0.8701172
vt 0.06866455 0.8701172
vt 0.06021118 0.8037109
vt 0.06021118 0.8037109
vt 0.0770874 0.8256836
vt 0.0770874 0.8256836
vt 0.06866455 0.8701172
vt 0.06866455 0.8701172
vt 0.08575439 0.784668
vt 0.08575439 0.784668
vt 0.0770874 0.8256836
vt 0.0770874 0.8256836
vt 0.09289551 0.9570313
vt 0.09289551 0.9570313
vt 0.08575439 0.784668
vt 0.08575439 0.784668
vn -0.6787109 0.734375 0.0001809597
vn -0.543457 0.8393555 0.0002069473
vn -0.5024414 0.8647461 0.0002131462
vn -0.409668 0.9121094 0.0002248287
vn -0.3569336 0.934082 0.0002301931
vn -0.01544952 1 0.0002465248
vn -0.007972717 1 0.0002465248
vn 0.3476563 0.9375 0.0002311468
vn 0.3876953 0.921875 0.0002272129
vn 0.5400391 0.8417969 0.0002074242
vn 0.498291 0.8671875 0.0002137423
vn 0.6787109 0.734375 0.0001809597
vn 0.6787109 0.734375 0.0001809597
vn 1.060963E-05 8.285046E-06 -1
vn 1.060963E-05 8.285046E-06 -1
vn 6.735325E-06 5.00679E-06 -1
vn 6.318092E-06 4.589558E-06 -1
vn 2.44379E-06 0 -1
vn 2.44379E-06 0 -1
vn 0 0 -1
vn 0 0 -1
vn -2.44379E-06 0 -1
vn -2.44379E-06 0 -1
vn -6.735325E-06 5.00679E-06 -1
vn -6.318092E-06 4.589558E-06 -1
vn -1.060963E-05 8.285046E-06 -1
vn -1.060963E-05 8.285046E-06 -1
vn -0.7397461 -0.5976563 0.3085938
vn -0.7397461 -0.5976563 0.3085938
vn -0.7397461 -0.5976563 0.3085938
vn -0.7397461 -0.5976563 0.3085938
vn 0.6552734 0.2731934 0.7041016
vn 0.6552734 0.2731934 0.7041016
vn 0.6552734 0.2731934 0.7041016
vn 0.6552734 0.2731934 0.7041016
vn 0.675293 0.08569336 0.7329102
vn 0.675293 0.08569336 0.7329102
vn 0.675293 0.08569336 0.7329102
vn 0.675293 0.08569336 0.7329102
vn -0.5249023 0.06665039 0.8486328
vn -0.5249023 0.06665039 0.8486328
vn -0.5249023 0.06665039 0.8486328
vn -0.5249023 0.06665039 0.8486328
vn -0.4228516 0.1762695 0.8886719
vn -0.4228516 0.1762695 0.8886719
vn -0.4228516 0.1762695 0.8886719
vn -0.4228516 0.1762695 0.8886719
vn 0.7133789 -0.5761719 0.3991699
vn 0.7133789 -0.5761719 0.3991699
vn 0.7133789 -0.5761719 0.3991699
vn 0.7133789 -0.5761719 0.3991699
g kirik_tirnak1_0
f 3/3/3 2/2/2 1/1/1
f 3/3/3 4/4/4 2/2/2
f 4/4/4 5/5/5 2/2/2
f 4/4/4 6/6/6 5/5/5
f 6/6/6 7/7/7 5/5/5
f 7/7/7 6/6/6 8/8/8
f 6/6/6 9/9/9 8/8/8
f 8/8/8 9/9/9 10/10/10
f 9/9/9 11/11/11 10/10/10
f 11/11/11 12/12/12 10/10/10
f 12/12/12 13/13/13 10/10/10
f 16/16/16 15/15/15 14/14/14
f 17/17/17 16/16/16 14/14/14
f 18/18/18 16/16/16 17/17/17
f 19/19/19 18/18/18 17/17/17
f 20/20/20 18/18/18 19/19/19
f 21/21/21 20/20/20 19/19/19
f 22/22/22 20/20/20 21/21/21
f 23/23/23 22/22/22 21/21/21
f 24/24/24 22/22/22 23/23/23
f 25/25/25 24/24/24 23/23/23
f 26/26/26 24/24/24 25/25/25
f 27/27/27 26/26/26 25/25/25
f 30/30/30 29/29/29 28/28/28
f 31/31/31 30/30/30 28/28/28
f 34/34/34 33/33/33 32/32/32
f 35/35/35 34/34/34 32/32/32
f 38/38/38 37/37/37 36/36/36
f 39/39/39 38/38/38 36/36/36
f 42/42/42 41/41/41 40/40/40
f 43/43/43 42/42/42 40/40/40
f 46/46/46 45/45/45 44/44/44
f 47/47/47 46/46/46 44/44/44
f 50/50/50 49/49/49 48/48/48
f 51/51/51 50/50/50 48/48/48
