g kirik_tirnak5
v 0.8568712 -0.7129546 -3.027204
v 0.856871 -0.7137169 0.36356
v 1.126911 -0.439139 0.3967795
v 1.126911 -0.4382953 -3.027204
v 1.126911 -0.4382953 -3.027203
v -1.126911 0.7129841 0.9352522
v -1.126911 0.7137178 -2.041636
v -0.324417 0.5724375 -1.56712
v -0.3244171 0.5713052 3.027204
v 0.4780773 0.1601311 1.584951
v 0.4780773 0.1608011 -1.133758
v 1.126911 -0.439139 0.3967795
v 1.126911 -0.4382953 -3.027203
v -1.126911 0.7129841 0.9352522
v -0.9954134 0.3002028 0.9352515
v -0.9954134 0.3008421 -2.041636
v -1.126911 0.7137178 -2.041636
v -1.126911 0.7137178 -2.041636
v -0.9954134 0.3008421 -2.041636
v -0.3140145 0.1777376 -1.56712
v -0.324417 0.5724375 -1.56712
v -0.324417 0.5724375 -1.56712
v -0.3140145 0.1777376 -1.56712
v 0.2686572 -0.1809412 -1.133759
v 0.4780773 0.1608011 -1.133758
v 0.4780773 0.1608011 -1.133758
v 0.2686572 -0.1809412 -1.133759
v 0.8568712 -0.7129546 -3.027204
v 1.126911 -0.4382953 -3.027203
v -0.3244171 0.5713052 3.027204
v -0.3140146 0.1767511 3.027204
v -0.9954134 0.3002028 0.9352515
v -1.126911 0.7129841 0.9352522
v 0.4780773 0.1601311 1.584951
v 0.2686572 -0.181525 1.58495
v -0.3140146 0.1767511 3.027204
v -0.3244171 0.5713052 3.027204
v 1.126911 -0.439139 0.3967795
v 0.8495971 -0.7036983 0.3967791
v 0.2686572 -0.181525 1.58495
v 0.4780773 0.1601311 1.584951
vt 0.09405518 0.9736328
vt 0.09405518 0.6459961
vt 0.09289551 0.6376953
vt 0.09289551 0.9570313
vt 0.09289551 0.9570313
vt 0.4926758 0.5888672
vt 0.4926758 0.8701172
vt 0.5917969 0.8256836
vt 0.5917969 0.3908691
vt 0.6943359 0.5273438
vt 0.6943359 0.784668
vt 0.7788086 0.6376953
vt 0.7788086 0.9570313
vt 0.06866455 0.5888672
vt 0.06866455 0.5888672
vt 0.06866455 0.8701172
vt 0.06866455 0.8701172
vt 0.06866455 0.8701172
vt 0.06866455 0.8701172
vt 0.0770874 0.8256836
vt 0.0770874 0.8256836
vt 0.0770874 0.8256836
vt 0.0770874 0.8256836
vt 0.08575439 0.784668
vt 0.08575439 0.784668
vt 0.08575439 0.784668
vt 0.08575439 0.784668
vt 0.09289551 0.9570313
vt 0.09289551 0.9570313
vt 0.0770874 0.3908691
vt 0.0770874 0.3908691
vt 0.06866455 0.5888672
vt 0.06866455 0.5888672
vt 0.08575439 0.5273438
vt 0.08575439 0.5273438
vt 0.0770874 0.3908691
vt 0.0770874 0.3908691
vt 0.09289551 0.6376953
vt 0.09289551 0.6376953
vt 0.08575439 0.5273438
vt 0.08575439 0.5273438
vn 0.7128906 -0.7011719 -0.0001652241
vn 0.7128906 -0.7011719 -0.0001652241
vn 0.7128906 -0.7011719 -0.0001652241
vn 0.7128906 -0.7011719 -0.0001652241
vn 0.7128906 -0.7011719 -0.0001652241
vn 0.1732178 0.9848633 0.0002427101
vn 0.1732178 0.9848633 0.0002427101
vn 0.2790527 0.9604492 0.0002366304
vn 0.3515625 0.9360352 0.00023067
vn 0.496582 0.8681641 0.0002139807
vn 0.578125 0.815918 0.0002011061
vn 0.6787109 0.734375 0.0001809597
vn 0.6787109 0.734375 0.0001809597
vn -0.9526367 -0.3034668 -6.997585E-05
vn -0.9526367 -0.3034668 -6.997585E-05
vn -0.9526367 -0.3034668 -6.997585E-05
vn -0.9526367 -0.3034668 -6.997585E-05
vn 0.5483398 0.09637451 -0.8305664
vn 0.5483398 0.09637451 -0.8305664
vn 0.5483398 0.09637451 -0.8305664
vn 0.5483398 0.09637451 -0.8305664
vn 0.473877 -0.1280518 -0.8710938
vn 0.473877 -0.1280518 -0.8710938
vn 0.473877 -0.1280518 -0.8710938
vn 0.473877 -0.1280518 -0.8710938
vn -0.722168 0.5615234 -0.4035645
vn -0.722168 0.5615234 -0.4035645
vn -0.722168 0.5615234 -0.4035645
vn -0.722168 0.5615234 -0.4035645
vn -0.9331055 -0.1639404 0.3205566
vn -0.9331055 -0.1639404 0.3205566
vn -0.9331055 -0.1639404 0.3205566
vn -0.9331055 -0.1639404 0.3205566
vn 0.8520508 -0.2302246 0.470459
vn 0.8520508 -0.2302246 0.470459
vn 0.8520508 -0.2302246 0.470459
vn 0.8520508 -0.2302246 0.470459
vn 0.6391602 -0.5131836 0.5727539
vn 0.6391602 -0.5131836 0.5727539
vn 0.6391602 -0.5131836 0.5727539
vn 0.6391602 -0.5131836 0.5727539
g kirik_tirnak5_0
f 3/3/3 2/2/2 1/1/1
f 1/1/1 4/4/4 3/3/3
f 4/4/4 5/5/5 3/3/3
f 8/8/8 7/7/7 6/6/6
f 9/9/9 8/8/8 6/6/6
f 9/9/9 10/10/10 8/8/8
f 10/10/10 11/11/11 8/8/8
f 10/10/10 12/12/12 11/11/11
f 12/12/12 13/13/13 11/11/11
f 16/16/16 15/15/15 14/14/14
f 17/17/17 16/16/16 14/14/14
f 20/20/20 19/19/19 18/18/18
f 21/21/21 20/20/20 18/18/18
f 24/24/24 23/23/23 22/22/22
f 25/25/25 24/24/24 22/22/22
f 28/28/28 27/27/27 26/26/26
f 29/29/29 28/28/28 26/26/26
f 32/32/32 31/31/31 30/30/30
f 33/33/33 32/32/32 30/30/30
f 36/36/36 35/35/35 34/34/34
f 37/37/37 36/36/36 34/34/34
f 40/40/40 39/39/39 38/38/38
f 41/41/41 40/40/40 38/38/38
