g PileOfCash003
v -4.837459 0 -0.6105956
v 2.947521 0 3.884064
v 4.837459 0 0.6105956
v -2.947521 0 -3.884064
v -4.837459 2.053752 -0.6105956
v -2.947521 2.053752 -3.884064
v 4.837459 2.053752 0.6105953
v 2.947521 2.053752 3.884064
v -4.837459 0 -0.6105956
v -4.837459 2.053752 -0.6105956
v 2.947521 2.053752 3.884064
v 2.947521 0 3.884064
v 2.947521 0 3.884064
v 2.947521 2.053752 3.884064
v 4.837459 2.053752 0.6105953
v 4.837459 0 0.6105956
v 4.837459 0 0.6105956
v 4.837459 2.053752 0.6105953
v -2.947521 2.053752 -3.884064
v -2.947521 0 -3.884064
v -2.947521 0 -3.884064
v -2.947521 2.053752 -3.884064
v -4.837459 2.053752 -0.6105956
v -4.837459 0 -0.6105956
vt 0.02313232 0.9760742
vt 0.6865234 0.9760742
vt 0.6865234 0.6972656
vt 0.02313232 0.6972656
vt 0.02313232 0.4050293
vt 0.02313232 0.684082
vt 0.6865234 0.684082
vt 0.6865234 0.4050293
vt 0.02313232 0.0239563
vt 0.02313232 0.1989746
vt 0.6538086 0.1989746
vt 0.6538086 0.0239563
vt 0.6538086 0.0239563
vt 0.6538086 0.1989746
vt 0.9189453 0.1989746
vt 0.9189453 0.0239563
vt 0.02313232 0.2144775
vt 0.02313232 0.3894043
vt 0.6538086 0.3894043
vt 0.6538086 0.2144775
vt 0.6538086 0.2144775
vt 0.6538086 0.3894043
vt 0.9189453 0.3894043
vt 0.9189453 0.2144775
vn 0 -1 0
vn 0 -1 0
vn 0 -1 0
vn 0 -1 0
vn 0 1 0
vn 0 1 0
vn 0 1 0
vn 0 1 0
vn -0.5 0 0.8662109
vn -0.5 0 0.8662109
vn -0.5 0 0.8662109
vn -0.5 0 0.8662109
vn 0.8662109 0 0.5
vn 0.8662109 0 0.5
vn 0.8662109 0 0.5
vn 0.8662109 0 0.5
vn 0.5 0 -0.8662109
vn 0.5 0 -0.8662109
vn 0.5 0 -0.8662109
vn 0.5 0 -0.8662109
vn -0.8662109 0 -0.5
vn -0.8662109 0 -0.5
vn -0.8662109 0 -0.5
vn -0.8662109 0 -0.5
g PileOfCash003_0
f 3/3/3 2/2/2 1/1/1
f 4/4/4 3/3/3 1/1/1
f 7/7/7 6/6/6 5/5/5
f 8/8/8 7/7/7 5/5/5
f 11/11/11 10/10/10 9/9/9
f 12/12/12 11/11/11 9/9/9
f 15/15/15 14/14/14 13/13/13
f 16/16/16 15/15/15 13/13/13
f 19/19/19 18/18/18 17/17/17
f 20/20/20 19/19/19 17/17/17
f 23/23/23 22/22/22 21/21/21
f 24/24/24 23/23/23 21/21/21
