g RollCash
v -1.80223 2.001972 -0.5855801
v -1.850634 2.001972 0.215793
v -1.750806 0.67808 0.2042949
v -1.705012 0.6780201 -0.55379
v -1.533068 2.001972 -1.113839
v -1.750806 -0.6780807 0.2042949
v -1.45039 0.6780178 -1.053514
v -1.113839 2.001972 -1.533068
v -1.705012 -0.6780201 -0.55379
v -1.053807 0.6780155 -1.450096
v -0.5855795 2.001972 -1.80223
v -1.80223 -2.001972 -0.5855799
v -1.850634 -2.001973 0.2157932
v -1.533068 -2.001972 -1.113839
v -1.45039 -0.6780182 -1.053513
v -1.11384 -2.001972 -1.533068
v -1.053807 -0.6780156 -1.450096
v -0.5855795 -2.001972 -1.80223
v -0.5540826 0.6780137 -1.704718
v 5.722046E-07 2.001972 -1.894976
v -0.5540826 -0.6780135 -1.704718
v 5.722046E-07 -2.001972 -1.894976
v -0.0001346588 0.6780117 -1.792455
v 0.5855808 2.001972 -1.802229
v -0.0001348495 -0.678012 -1.792454
v 0.5855806 -2.001972 -1.802229
v 0.5538132 0.6780105 -1.704718
v 1.11384 2.001972 -1.533067
v 0.5538133 -0.6780112 -1.704717
v 1.11384 -2.001972 -1.533067
v 1.053537 0.6780102 -1.450095
v 1.533069 2.001972 -1.113838
v 1.053537 -0.6780105 -1.450095
v 1.533069 -2.001972 -1.113838
v 1.450119 0.6780105 -1.053512
v 1.80223 2.001972 -0.5855786
v 1.450119 -0.6780107 -1.053512
v 1.80223 -2.001972 -0.5855783
v 1.704741 0.6780113 -0.5537884
v 1.894976 2.001972 1.740456E-06
v 1.704741 -0.6780113 -0.5537884
v 1.894976 -2.001972 1.93119E-06
v 1.792477 0.6780128 0.0001597166
v 1.802229 2.001972 0.5855817
v 1.792477 -0.6780124 0.0001597881
v 1.802229 -2.001972 0.585582
v 1.70474 0.6780143 0.5541076
v 1.533067 2.001972 1.113841
v 1.70474 -0.6780142 0.5541077
v 1.533067 -2.001972 1.113841
v 1.450118 0.6780168 1.053831
v 1.113837 2.001972 1.533069
v 1.450118 -0.6780168 1.053831
v 1.113837 -2.001972 1.533069
v 1.053534 0.6780189 1.450414
v 0.5855774 2.001972 1.802231
v 1.053534 -0.678019 1.450414
v 0.5855772 -2.001972 1.802231
v 0.5538103 0.6780212 1.705036
v 0 2.001972 1.894976
v 0.5538103 -0.678021 1.705036
v -1.907349E-07 -2.001972 1.894976
v -0.000135231 0.6780226 1.792772
v -0.5855798 2.001972 1.80223
v -0.000135231 -0.6780228 1.792772
v -0.5855798 -2.001972 1.80223
v -0.5540834 0.6780235 1.705035
v -1.113839 2.001972 1.533068
v -0.5540834 -0.6780235 1.705035
v -1.113839 -2.001972 1.533068
v -1.053807 0.6780245 1.450413
v -1.533068 2.001972 1.113839
v -1.053807 -0.6780242 1.450413
v -1.533068 -2.001972 1.113839
v -1.45039 0.6780241 1.05383
v -1.89666 2.001972 0.4282779
v -1.45039 -0.6780237 1.05383
v -1.896659 -2.001972 0.4282782
v -1.794335 0.6779312 0.4052998
v -1.850634 2.001972 0.215793
v -1.750806 0.67808 0.2042949
v -1.794335 -0.6779312 0.4052998
v -1.850634 -2.001973 0.2157932
v -1.750806 -0.6780807 0.2042949
v 0.6538131 2.001972 0.4750241
v 0.7686037 -2.001972 0.2497356
v 0.7686039 2.001972 0.2497354
v 0.6538133 -2.001972 0.4750243
v 0.4750227 2.001972 0.6538141
v 0.4750227 -2.001972 0.6538144
v 0.249733 2.001972 0.7686044
v 0.2497332 -2.001972 0.7686046
v 3.814697E-07 2.001972 0.808158
v 1.907349E-07 -2.001972 0.8081583
v -0.1675365 2.001972 0.7622839
v -0.1675367 -2.001972 0.7622839
v -0.3428663 2.001972 0.6628978
v -0.3428663 -2.001972 0.662898
v -0.4500189 2.001972 0.4930777
v -0.4500189 -2.001972 0.493078
v -0.5175996 2.001972 0.2738882
v -0.5175996 -2.001972 0.2738884
v -0.5583322 2.001972 0.02189829
v -0.5583326 -2.001972 0.02189853
v -0.5626363 2.001972 -0.2235462
v -0.5626367 -2.001972 -0.223546
v -0.535684 2.001972 -0.4530988
v -0.535684 -2.001972 -0.4530987
v -0.4411283 2.001972 -0.6390415
v -0.4411287 -2.001972 -0.6390413
v -0.2497343 2.001972 -0.7686042
v -0.2497343 -2.001972 -0.7686039
v 1.907349E-07 2.001972 -0.8081583
v 1.907349E-07 -2.001972 -0.808158
v 0.2497349 2.001972 -0.7686039
v 0.2497347 -2.001972 -0.7686037
v 0.4750238 2.001972 -0.6538133
v 0.4750238 -2.001972 -0.6538132
v 0.6538139 2.001972 -0.4750231
v 0.6538137 -2.001972 -0.4750229
v 0.7686042 2.001972 -0.2497341
v 0.768604 -2.001972 -0.2497339
v 0.8081583 2.001972 6.67572E-07
v 0.8081583 -2.001972 8.583069E-07
v 0.7686039 2.001972 0.2497354
v 0.7686037 -2.001972 0.2497356
v -1.907349E-07 -2.001972 1.894976
v 1.907349E-07 -2.001972 0.8081583
v -0.1675367 -2.001972 0.7622839
v -0.5855798 -2.001972 1.80223
v 0.5855772 -2.001972 1.802231
v -0.3428663 -2.001972 0.662898
v 0.2497332 -2.001972 0.7686046
v -1.113839 -2.001972 1.533068
v 1.113837 -2.001972 1.533069
v -0.4500189 -2.001972 0.493078
v 0.4750227 -2.001972 0.6538144
v -1.533068 -2.001972 1.113839
v 1.533067 -2.001972 1.113841
v -0.5175996 -2.001972 0.2738884
v 0.6538133 -2.001972 0.4750243
v -1.896659 -2.001972 0.4282782
v 1.802229 -2.001972 0.585582
v -0.5583326 -2.001972 0.02189853
v 0.7686037 -2.001972 0.2497356
v -1.850634 -2.001973 0.2157932
v 1.894976 -2.001972 1.93119E-06
v -0.5626367 -2.001972 -0.223546
v 0.8081583 -2.001972 8.583069E-07
v -1.80223 -2.001972 -0.5855799
v 1.80223 -2.001972 -0.5855783
v -0.535684 -2.001972 -0.4530987
v 0.768604 -2.001972 -0.2497339
v -1.533068 -2.001972 -1.113839
v 1.533069 -2.001972 -1.113838
v -0.4411287 -2.001972 -0.6390413
v 0.6538137 -2.001972 -0.4750229
v -1.11384 -2.001972 -1.533068
v 1.11384 -2.001972 -1.533067
v -0.2497343 -2.001972 -0.7686039
v 0.4750238 -2.001972 -0.6538132
v -0.5855795 -2.001972 -1.80223
v 0.5855806 -2.001972 -1.802229
v 1.907349E-07 -2.001972 -0.808158
v 0.2497347 -2.001972 -0.7686037
v 5.722046E-07 -2.001972 -1.894976
v -0.5855798 2.001972 1.80223
v -0.1675365 2.001972 0.7622839
v 3.814697E-07 2.001972 0.808158
v 0 2.001972 1.894976
v -1.113839 2.001972 1.533068
v 0.249733 2.001972 0.7686044
v -0.3428663 2.001972 0.6628978
v 0.5855774 2.001972 1.802231
v -1.533068 2.001972 1.113839
v 0.4750227 2.001972 0.6538141
v -0.4500189 2.001972 0.4930777
v 1.113837 2.001972 1.533069
v -1.89666 2.001972 0.4282779
v 0.6538131 2.001972 0.4750241
v -0.5175996 2.001972 0.2738882
v 1.533067 2.001972 1.113841
v -1.850634 2.001972 0.215793
v 0.7686039 2.001972 0.2497354
v -0.5583322 2.001972 0.02189829
v 1.802229 2.001972 0.5855817
v -1.80223 2.001972 -0.5855801
v 0.8081583 2.001972 6.67572E-07
v -0.5626363 2.001972 -0.2235462
v 1.894976 2.001972 1.740456E-06
v -1.533068 2.001972 -1.113839
v 0.7686042 2.001972 -0.2497341
v -0.535684 2.001972 -0.4530988
v 1.80223 2.001972 -0.5855786
v -1.113839 2.001972 -1.533068
v 0.6538139 2.001972 -0.4750231
v -0.4411283 2.001972 -0.6390415
v 1.533069 2.001972 -1.113838
v -0.5855795 2.001972 -1.80223
v 0.4750238 2.001972 -0.6538133
v -0.2497343 2.001972 -0.7686042
v 1.11384 2.001972 -1.533067
v 5.722046E-07 2.001972 -1.894976
v 0.2497349 2.001972 -0.7686039
v 1.907349E-07 2.001972 -0.8081583
v 0.5855808 2.001972 -1.802229
vt 0.376709 0.09063721
vt 0.3747559 0.0246582
vt 0.2573242 0.03030396
vt 0.2583008 0.09326172
vt 0.3769531 0.1386719
vt 0.1380615 0.03070068
vt 0.2585449 0.1401367
vt 0.3769531 0.1862793
vt 0.1374512 0.09368896
vt 0.2587891 0.1872559
vt 0.3769531 0.2337646
vt 0.01924133 0.09179688
vt 0.02078247 0.02583313
vt 0.01934814 0.1397705
vt 0.1375732 0.1405029
vt 0.01956177 0.1875
vt 0.1378174 0.1876221
vt 0.01979065 0.2349854
vt 0.2587891 0.234375
vt 0.3771973 0.2810059
vt 0.1379395 0.2347412
vt 0.01998901 0.2822266
vt 0.2590332 0.2814941
vt 0.3771973 0.3283691
vt 0.1381836 0.2819824
vt 0.02017212 0.3295898
vt 0.2590332 0.3288574
vt 0.3774414 0.3757324
vt 0.1383057 0.3293457
vt 0.02033997 0.3769531
vt 0.2592773 0.3759766
vt 0.3776855 0.4228516
vt 0.1385498 0.3764648
vt 0.02050781 0.4240723
vt 0.2592773 0.4233398
vt 0.3776855 0.4702148
vt 0.1386719 0.4238281
vt 0.0206604 0.4714355
vt 0.2595215 0.4707031
vt 0.3779297 0.5175781
vt 0.1387939 0.4709473
vt 0.02082825 0.5185547
vt 0.2597656 0.5180664
vt 0.3779297 0.5644531
vt 0.1390381 0.5180664
vt 0.02099609 0.565918
vt 0.2597656 0.5649414
vt 0.3781738 0.6118164
vt 0.1391602 0.5654297
vt 0.02114868 0.6132813
vt 0.2600098 0.6123047
vt 0.378418 0.6591797
vt 0.1392822 0.612793
vt 0.02131653 0.6606445
vt 0.2602539 0.659668
vt 0.3786621 0.706543
vt 0.1395264 0.6601563
vt 0.02146912 0.7080078
vt 0.260498 0.7070313
vt 0.3789063 0.7539063
vt 0.1396484 0.7075195
vt 0.02160645 0.7548828
vt 0.260498 0.7539063
vt 0.3791504 0.8012695
vt 0.1397705 0.7543945
vt 0.02172852 0.8027344
vt 0.2607422 0.8012695
vt 0.3793945 0.8486328
vt 0.1400146 0.8017578
vt 0.02182007 0.8500977
vt 0.2609863 0.8481445
vt 0.3796387 0.8964844
vt 0.1401367 0.8486328
vt 0.02197266 0.8979492
vt 0.2612305 0.8955078
vt 0.3791504 0.9604492
vt 0.1402588 0.8955078
vt 0.02276611 0.9614258
vt 0.2612305 0.9560547
vt 0.378418 0.9780273
vt 0.2609863 0.9731445
vt 0.1407471 0.956543
vt 0.02372742 0.9794922
vt 0.1412354 0.9736328
vt 0.7827148 0.02069092
vt 0.8066406 0.3706055
vt 0.8032227 0.02047729
vt 0.7861328 0.3708496
vt 0.762207 0.02090454
vt 0.765625 0.3710938
vt 0.7412109 0.02110291
vt 0.7451172 0.3713379
vt 0.7207031 0.02131653
vt 0.7246094 0.371582
vt 0.706543 0.02145386
vt 0.7104492 0.371582
vt 0.6904297 0.0216217
vt 0.6938477 0.3718262
vt 0.6743164 0.02178955
vt 0.6777344 0.3720703
vt 0.6552734 0.02198792
vt 0.6591797 0.3720703
vt 0.6347656 0.02220154
vt 0.6381836 0.3723145
vt 0.6147461 0.0223999
vt 0.6181641 0.3725586
vt 0.5961914 0.02259827
vt 0.5996094 0.3728027
vt 0.5791016 0.02276611
vt 0.5825195 0.3728027
vt 0.5600586 0.02296448
vt 0.5639648 0.3730469
vt 0.5395508 0.0231781
vt 0.543457 0.373291
vt 0.519043 0.02337646
vt 0.5229492 0.3735352
vt 0.4987793 0.02359009
vt 0.5024414 0.3737793
vt 0.4780273 0.02380371
vt 0.4816895 0.3740234
vt 0.4575195 0.02401733
vt 0.4611816 0.3742676
vt 0.4370117 0.0242157
vt 0.4406738 0.3742676
vt 0.4165039 0.02442932
vt 0.420166 0.3745117
vt 0.5341797 0.7202148
vt 0.5546875 0.6279297
vt 0.5415039 0.6206055
vt 0.486084 0.7011719
vt 0.5854492 0.7236328
vt 0.5283203 0.6088867
vt 0.5766602 0.6293945
vt 0.4462891 0.668457
vt 0.6357422 0.7104492
vt 0.5224609 0.5922852
vt 0.5981445 0.6235352
vt 0.4187012 0.6245117
vt 0.6791992 0.6831055
vt 0.5209961 0.5727539
vt 0.6166992 0.6118164
vt 0.4006348 0.5595703
vt 0.7124023 0.6430664
vt 0.5219727 0.550293
vt 0.6308594 0.5947266
vt 0.4086914 0.5424805
vt 0.730957 0.5952148
vt 0.5263672 0.5292969
vt 0.6386719 0.5742188
vt 0.4279785 0.4750977
vt 0.734375 0.543457
vt 0.5332031 0.5102539
vt 0.6401367 0.5522461
vt 0.4609375 0.4353027
vt 0.7216797 0.4934082
vt 0.5449219 0.4963379
vt 0.6347656 0.53125
vt 0.5043945 0.4077148
vt 0.6938477 0.4499512
vt 0.5634766 0.4890137
vt 0.6230469 0.5126953
vt 0.5546875 0.3947754
vt 0.6542969 0.4169922
vt 0.5854492 0.4904785
vt 0.605957 0.4985352
vt 0.605957 0.3979492
vt 0.9785156 0.8442383
vt 0.8813477 0.8344727
vt 0.8779297 0.8491211
vt 0.9619141 0.8930664
vt 0.9790039 0.7924805
vt 0.8647461 0.8666992
vt 0.8803711 0.8168945
vt 0.9306641 0.9345703
vt 0.9633789 0.7431641
vt 0.8466797 0.8793945
vt 0.8720703 0.8017578
vt 0.8886719 0.9643555
vt 0.925293 0.6875
vt 0.8256836 0.8862305
vt 0.8579102 0.7875977
vt 0.8393555 0.9799805
vt 0.9072266 0.6826172
vt 0.8037109 0.8857422
vt 0.8398438 0.7744141
vt 0.7875977 0.9790039
vt 0.8432617 0.6538086
vt 0.7827148 0.8789063
vt 0.8212891 0.7641602
vt 0.7387695 0.9624023
vt 0.7915039 0.652832
vt 0.7651367 0.8657227
vt 0.8022461 0.7568359
vt 0.6972656 0.9316406
vt 0.7421875 0.668457
vt 0.7524414 0.8476563
vt 0.7841797 0.7563477
vt 0.6674805 0.8896484
vt 0.7001953 0.6982422
vt 0.7460938 0.8266602
vt 0.7666016 0.7661133
vt 0.6523438 0.840332
vt 0.6694336 0.7397461
vt 0.7460938 0.8046875
vt 0.753418 0.7836914
vt 0.652832 0.7885742
vn -0.9619141 -0.0769043 -0.2624512
vn -0.987793 -0.07330322 -0.1369629
vn -0.9902344 -0.03662109 -0.1358643
vn -0.9643555 -0.03869629 -0.262207
vn -0.8066406 -0.0770874 -0.5859375
vn -0.9902344 0.03662109 -0.1358643
vn -0.8085938 -0.03872681 -0.5874023
vn -0.5859375 -0.07714844 -0.8066406
vn -0.9643555 0.03869629 -0.262207
vn -0.5874023 -0.03872681 -0.8085938
vn -0.3081055 -0.07714844 -0.9482422
vn -0.9619141 0.0769043 -0.2624512
vn -0.987793 0.07330322 -0.1369629
vn -0.8066406 0.0770874 -0.5859375
vn -0.8085938 0.03872681 -0.5874023
vn -0.5859375 0.07714844 -0.8066406
vn -0.5874023 0.03872681 -0.8085938
vn -0.3081055 0.07714844 -0.9482422
vn -0.3088379 -0.03875732 -0.9501953
vn 1.055002E-05 -0.07720947 -0.9970703
vn -0.3088379 0.03875732 -0.9501953
vn 1.055002E-05 0.07720947 -0.9970703
vn -4.410744E-06 -0.03878784 -0.9990234
vn 0.3081055 -0.07720947 -0.9482422
vn -4.410744E-06 0.03878784 -0.9990234
vn 0.3081055 0.07720947 -0.9482422
vn 0.3088379 -0.03878784 -0.9501953
vn 0.5859375 -0.07727051 -0.8066406
vn 0.3088379 0.03878784 -0.9501953
vn 0.5859375 0.07727051 -0.8066406
vn 0.5874023 -0.03878784 -0.8085938
vn 0.8066406 -0.07720947 -0.5859375
vn 0.5874023 0.03878784 -0.8085938
vn 0.8066406 0.07720947 -0.5859375
vn 0.8085938 -0.03878784 -0.5874023
vn 0.9482422 -0.07720947 -0.3081055
vn 0.8085938 0.03878784 -0.5874023
vn 0.9482422 0.07720947 -0.3081055
vn 0.9501953 -0.03878784 -0.3088379
vn 0.9970703 -0.07720947 -1.055002E-05
vn 0.9501953 0.03878784 -0.3088379
vn 0.9970703 0.07720947 -1.055002E-05
vn 0.9990234 -0.03875732 7.033348E-06
vn 0.9482422 -0.07714844 0.3081055
vn 0.9990234 0.03875732 7.033348E-06
vn 0.9482422 0.07714844 0.3081055
vn 0.9501953 -0.03875732 0.3088379
vn 0.8066406 -0.0770874 0.5859375
vn 0.9501953 0.03875732 0.3088379
vn 0.8066406 0.0770874 0.5859375
vn 0.8085938 -0.03872681 0.5874023
vn 0.5859375 -0.07702637 0.8066406
vn 0.8085938 0.03872681 0.5874023
vn 0.5859375 0.07702637 0.8066406
vn 0.5874023 -0.03869629 0.8085938
vn 0.3081055 -0.07702637 0.9482422
vn 0.5874023 0.03869629 0.8085938
vn 0.3081055 0.07702637 0.9482422
vn 0.3088379 -0.03866577 0.9501953
vn 9.417534E-06 -0.07696533 0.9970703
vn 0.3088379 0.03866577 0.9501953
vn 9.536743E-06 0.07696533 0.9970703
vn -5.662441E-06 -0.03866577 0.9990234
vn -0.3081055 -0.07696533 0.9482422
vn -5.602837E-06 0.03866577 0.9990234
vn -0.3081055 0.07696533 0.9482422
vn -0.3088379 -0.03863525 0.9501953
vn -0.5859375 -0.0769043 0.8066406
vn -0.3088379 0.03863525 0.9501953
vn -0.5859375 0.0769043 0.8066406
vn -0.5874023 -0.03863525 0.8085938
vn -0.8017578 -0.0769043 0.5927734
vn -0.5874023 0.03863525 0.8085938
vn -0.8017578 0.0769043 0.5927734
vn -0.8037109 -0.03863525 0.59375
vn -0.9873047 -0.07867432 0.1376953
vn -0.8037109 0.03863525 0.59375
vn -0.9873047 0.07867432 0.1376953
vn -0.9897461 -0.03970337 0.1358643
vn -0.987793 -0.07330322 -0.1369629
vn -0.9902344 -0.03662109 -0.1358643
vn -0.9897461 0.03970337 0.1358643
vn -0.987793 0.07330322 -0.1369629
vn -0.9902344 0.03662109 -0.1358643
vn -0.809082 0 -0.5878906
vn -0.9511719 0 -0.309082
vn -0.9511719 0 -0.309082
vn -0.809082 0 -0.5878906
vn -0.5878906 0 -0.809082
vn -0.5878906 0 -0.809082
vn -0.309082 0 -0.9511719
vn -0.309082 0 -0.9511719
vn 0.05505371 0 -0.9985352
vn 0.05505371 0 -0.9985352
vn 0.3815918 0 -0.9243164
vn 0.3815918 0 -0.9243164
vn 0.6904297 0 -0.7236328
vn 0.6904297 0 -0.7236328
vn 0.9086914 0 -0.4177246
vn 0.9086914 0 -0.4177246
vn 0.9736328 0 -0.2276611
vn 0.9736328 0 -0.2276611
vn 0.9960938 0 -0.08880615
vn 0.9960938 0 -0.08880615
vn 0.9985352 0 0.0496521
vn 0.9985352 0 0.0496521
vn 0.9570313 0 0.2895508
vn 0.9570313 0 0.2895508
vn 0.75 0 0.6616211
vn 0.75 0 0.6616211
vn 0.3671875 0 0.9301758
vn 0.3671875 0 0.9301758
vn 0 0 1
vn 0 0 1
vn -0.309082 0 0.9511719
vn -0.309082 0 0.9511719
vn -0.5878906 0 0.809082
vn -0.5878906 0 0.809082
vn -0.809082 0 0.5878906
vn -0.809082 0 0.5878906
vn -0.9511719 0 0.309082
vn -0.9511719 0 0.309082
vn -1 0 0
vn -1 0 0
vn -0.9511719 0 -0.309082
vn -0.9511719 0 -0.309082
vn 0 -1 0
vn 0 -1 0
vn 0 -1 0
vn 0 -1 0
vn 0 -1 0
vn 0 -1 0
vn 0 -1 0
vn 0 -1 0
vn 0 -1 0
vn 0 -1 0
vn 0 -1 0
vn 0 -1 0
vn 0 -1 0
vn 0 -1 0
vn 0 -1 0
vn 0 -1 0
vn 0 -1 0
vn 0 -1 0
vn 0 -1 0
vn 0 -1 0
vn 0 -1 0
vn 0 -1 0
vn 0 -1 0
vn 0 -1 0
vn 0 -1 0
vn 0 -1 0
vn 0 -1 0
vn 0 -1 0
vn 0 -1 0
vn 0 -1 0
vn 0 -1 0
vn 0 -1 0
vn 0 -1 0
vn 0 -1 0
vn 0 -1 0
vn 0 -1 0
vn 0 -1 0
vn 0 -1 0
vn 0 -1 0
vn 0 -1 0
vn 0 1 0
vn 0 1 0
vn 0 1 0
vn 0 1 0
vn 0 1 0
vn 0 1 0
vn 0 1 0
vn 0 1 0
vn 0 1 0
vn 0 1 0
vn 0 1 0
vn 0 1 0
vn 0 1 0
vn 0 1 0
vn 0 1 0
vn 0 1 0
vn 0 1 0
vn 0 1 0
vn 0 1 0
vn 0 1 0
vn 0 1 0
vn 0 1 0
vn 0 1 0
vn 0 1 0
vn 0 1 0
vn 0 1 0
vn 0 1 0
vn 0 1 0
vn 0 1 0
vn 0 1 0
vn 0 1 0
vn 0 1 0
vn 0 1 0
vn 0 1 0
vn 0 1 0
vn 0 1 0
vn 0 1 0
vn 0 1 0
vn 0 1 0
vn 0 1 0
g RollCash_0
f 3/3/3 2/2/2 1/1/1
f 4/4/4 3/3/3 1/1/1
f 4/4/4 1/1/1 5/5/5
f 6/6/6 3/3/3 4/4/4
f 7/7/7 4/4/4 5/5/5
f 7/7/7 5/5/5 8/8/8
f 9/9/9 6/6/6 4/4/4
f 9/9/9 4/4/4 7/7/7
f 10/10/10 7/7/7 8/8/8
f 10/10/10 8/8/8 11/11/11
f 6/6/6 9/9/9 12/12/12
f 13/13/13 6/6/6 12/12/12
f 12/12/12 9/9/9 14/14/14
f 15/15/15 9/9/9 7/7/7
f 9/9/9 15/15/15 14/14/14
f 15/15/15 7/7/7 10/10/10
f 14/14/14 15/15/15 16/16/16
f 15/15/15 17/17/17 16/16/16
f 17/17/17 15/15/15 10/10/10
f 16/16/16 17/17/17 18/18/18
f 19/19/19 10/10/10 11/11/11
f 17/17/17 10/10/10 19/19/19
f 19/19/19 11/11/11 20/20/20
f 17/17/17 21/21/21 18/18/18
f 21/21/21 17/17/17 19/19/19
f 18/18/18 21/21/21 22/22/22
f 23/23/23 19/19/19 20/20/20
f 21/21/21 19/19/19 23/23/23
f 23/23/23 20/20/20 24/24/24
f 21/21/21 25/25/25 22/22/22
f 25/25/25 21/21/21 23/23/23
f 22/22/22 25/25/25 26/26/26
f 27/27/27 23/23/23 24/24/24
f 25/25/25 23/23/23 27/27/27
f 27/27/27 24/24/24 28/28/28
f 25/25/25 29/29/29 26/26/26
f 29/29/29 25/25/25 27/27/27
f 26/26/26 29/29/29 30/30/30
f 31/31/31 27/27/27 28/28/28
f 29/29/29 27/27/27 31/31/31
f 31/31/31 28/28/28 32/32/32
f 29/29/29 33/33/33 30/30/30
f 33/33/33 29/29/29 31/31/31
f 30/30/30 33/33/33 34/34/34
f 35/35/35 31/31/31 32/32/32
f 33/33/33 31/31/31 35/35/35
f 35/35/35 32/32/32 36/36/36
f 33/33/33 37/37/37 34/34/34
f 37/37/37 33/33/33 35/35/35
f 34/34/34 37/37/37 38/38/38
f 39/39/39 35/35/35 36/36/36
f 37/37/37 35/35/35 39/39/39
f 39/39/39 36/36/36 40/40/40
f 37/37/37 41/41/41 38/38/38
f 41/41/41 37/37/37 39/39/39
f 38/38/38 41/41/41 42/42/42
f 43/43/43 39/39/39 40/40/40
f 41/41/41 39/39/39 43/43/43
f 43/43/43 40/40/40 44/44/44
f 41/41/41 45/45/45 42/42/42
f 45/45/45 41/41/41 43/43/43
f 42/42/42 45/45/45 46/46/46
f 47/47/47 43/43/43 44/44/44
f 45/45/45 43/43/43 47/47/47
f 47/47/47 44/44/44 48/48/48
f 45/45/45 49/49/49 46/46/46
f 49/49/49 45/45/45 47/47/47
f 46/46/46 49/49/49 50/50/50
f 51/51/51 47/47/47 48/48/48
f 49/49/49 47/47/47 51/51/51
f 51/51/51 48/48/48 52/52/52
f 49/49/49 53/53/53 50/50/50
f 53/53/53 49/49/49 51/51/51
f 50/50/50 53/53/53 54/54/54
f 55/55/55 51/51/51 52/52/52
f 53/53/53 51/51/51 55/55/55
f 55/55/55 52/52/52 56/56/56
f 53/53/53 57/57/57 54/54/54
f 57/57/57 53/53/53 55/55/55
f 54/54/54 57/57/57 58/58/58
f 59/59/59 55/55/55 56/56/56
f 57/57/57 55/55/55 59/59/59
f 59/59/59 56/56/56 60/60/60
f 57/57/57 61/61/61 58/58/58
f 61/61/61 57/57/57 59/59/59
f 58/58/58 61/61/61 62/62/62
f 63/63/63 59/59/59 60/60/60
f 61/61/61 59/59/59 63/63/63
f 63/63/63 60/60/60 64/64/64
f 61/61/61 65/65/65 62/62/62
f 65/65/65 61/61/61 63/63/63
f 62/62/62 65/65/65 66/66/66
f 67/67/67 63/63/63 64/64/64
f 65/65/65 63/63/63 67/67/67
f 67/67/67 64/64/64 68/68/68
f 65/65/65 69/69/69 66/66/66
f 69/69/69 65/65/65 67/67/67
f 66/66/66 69/69/69 70/70/70
f 71/71/71 67/67/67 68/68/68
f 69/69/69 67/67/67 71/71/71
f 71/71/71 68/68/68 72/72/72
f 69/69/69 73/73/73 70/70/70
f 73/73/73 69/69/69 71/71/71
f 70/70/70 73/73/73 74/74/74
f 75/75/75 71/71/71 72/72/72
f 73/73/73 71/71/71 75/75/75
f 75/75/75 72/72/72 76/76/76
f 73/73/73 77/77/77 74/74/74
f 77/77/77 73/73/73 75/75/75
f 74/74/74 77/77/77 78/78/78
f 79/79/79 75/75/75 76/76/76
f 77/77/77 75/75/75 79/79/79
f 79/79/79 76/76/76 80/80/80
f 81/81/81 79/79/79 80/80/80
f 77/77/77 82/82/82 78/78/78
f 82/82/82 77/77/77 79/79/79
f 82/82/82 79/79/79 81/81/81
f 78/78/78 82/82/82 83/83/83
f 84/84/84 82/82/82 81/81/81
f 82/82/82 84/84/84 83/83/83
f 87/87/87 86/86/86 85/85/85
f 86/86/86 88/88/88 85/85/85
f 85/85/85 88/88/88 89/89/89
f 88/88/88 90/90/90 89/89/89
f 89/89/89 90/90/90 91/91/91
f 90/90/90 92/92/92 91/91/91
f 91/91/91 92/92/92 93/93/93
f 92/92/92 94/94/94 93/93/93
f 93/93/93 94/94/94 95/95/95
f 94/94/94 96/96/96 95/95/95
f 95/95/95 96/96/96 97/97/97
f 96/96/96 98/98/98 97/97/97
f 97/97/97 98/98/98 99/99/99
f 98/98/98 100/100/100 99/99/99
f 99/99/99 100/100/100 101/101/101
f 100/100/100 102/102/102 101/101/101
f 101/101/101 102/102/102 103/103/103
f 102/102/102 104/104/104 103/103/103
f 103/103/103 104/104/104 105/105/105
f 104/104/104 106/106/106 105/105/105
f 105/105/105 106/106/106 107/107/107
f 106/106/106 108/108/108 107/107/107
f 107/107/107 108/108/108 109/109/109
f 108/108/108 110/110/110 109/109/109
f 109/109/109 110/110/110 111/111/111
f 110/110/110 112/112/112 111/111/111
f 111/111/111 112/112/112 113/113/113
f 112/112/112 114/114/114 113/113/113
f 113/113/113 114/114/114 115/115/115
f 114/114/114 116/116/116 115/115/115
f 115/115/115 116/116/116 117/117/117
f 116/116/116 118/118/118 117/117/117
f 117/117/117 118/118/118 119/119/119
f 118/118/118 120/120/120 119/119/119
f 119/119/119 120/120/120 121/121/121
f 120/120/120 122/122/122 121/121/121
f 121/121/121 122/122/122 123/123/123
f 122/122/122 124/124/124 123/123/123
f 123/123/123 124/124/124 125/125/125
f 124/124/124 126/126/126 125/125/125
f 129/129/129 128/128/128 127/127/127
f 130/130/130 129/129/129 127/127/127
f 127/127/127 128/128/128 131/131/131
f 132/132/132 129/129/129 130/130/130
f 128/128/128 133/133/133 131/131/131
f 134/134/134 132/132/132 130/130/130
f 131/131/131 133/133/133 135/135/135
f 136/136/136 132/132/132 134/134/134
f 133/133/133 137/137/137 135/135/135
f 138/138/138 136/136/136 134/134/134
f 135/135/135 137/137/137 139/139/139
f 140/140/140 136/136/136 138/138/138
f 137/137/137 141/141/141 139/139/139
f 142/142/142 140/140/140 138/138/138
f 139/139/139 141/141/141 143/143/143
f 144/144/144 140/140/140 142/142/142
f 141/141/141 145/145/145 143/143/143
f 146/146/146 144/144/144 142/142/142
f 143/143/143 145/145/145 147/147/147
f 148/148/148 144/144/144 146/146/146
f 145/145/145 149/149/149 147/147/147
f 150/150/150 148/148/148 146/146/146
f 147/147/147 149/149/149 151/151/151
f 152/152/152 148/148/148 150/150/150
f 149/149/149 153/153/153 151/151/151
f 154/154/154 152/152/152 150/150/150
f 151/151/151 153/153/153 155/155/155
f 156/156/156 152/152/152 154/154/154
f 153/153/153 157/157/157 155/155/155
f 158/158/158 156/156/156 154/154/154
f 155/155/155 157/157/157 159/159/159
f 160/160/160 156/156/156 158/158/158
f 157/157/157 161/161/161 159/159/159
f 162/162/162 160/160/160 158/158/158
f 159/159/159 161/161/161 163/163/163
f 164/164/164 160/160/160 162/162/162
f 161/161/161 165/165/165 163/163/163
f 166/166/166 164/164/164 162/162/162
f 163/163/163 165/165/165 166/166/166
f 165/165/165 164/164/164 166/166/166
f 169/169/169 168/168/168 167/167/167
f 170/170/170 169/169/169 167/167/167
f 167/167/167 168/168/168 171/171/171
f 172/172/172 169/169/169 170/170/170
f 168/168/168 173/173/173 171/171/171
f 174/174/174 172/172/172 170/170/170
f 171/171/171 173/173/173 175/175/175
f 176/176/176 172/172/172 174/174/174
f 173/173/173 177/177/177 175/175/175
f 178/178/178 176/176/176 174/174/174
f 175/175/175 177/177/177 179/179/179
f 180/180/180 176/176/176 178/178/178
f 177/177/177 181/181/181 179/179/179
f 182/182/182 180/180/180 178/178/178
f 179/179/179 181/181/181 183/183/183
f 184/184/184 180/180/180 182/182/182
f 181/181/181 185/185/185 183/183/183
f 186/186/186 184/184/184 182/182/182
f 183/183/183 185/185/185 187/187/187
f 188/188/188 184/184/184 186/186/186
f 185/185/185 189/189/189 187/187/187
f 190/190/190 188/188/188 186/186/186
f 187/187/187 189/189/189 191/191/191
f 192/192/192 188/188/188 190/190/190
f 189/189/189 193/193/193 191/191/191
f 194/194/194 192/192/192 190/190/190
f 191/191/191 193/193/193 195/195/195
f 196/196/196 192/192/192 194/194/194
f 193/193/193 197/197/197 195/195/195
f 198/198/198 196/196/196 194/194/194
f 195/195/195 197/197/197 199/199/199
f 200/200/200 196/196/196 198/198/198
f 197/197/197 201/201/201 199/199/199
f 202/202/202 200/200/200 198/198/198
f 199/199/199 201/201/201 203/203/203
f 204/204/204 200/200/200 202/202/202
f 201/201/201 205/205/205 203/203/203
f 206/206/206 204/204/204 202/202/202
f 203/203/203 205/205/205 206/206/206
f 205/205/205 204/204/204 206/206/206
