g uzun_metre_loop
v 3.809519 9.096216E-06 -4.547704
v 3.809519 0.3825666 -4.547698
v -3.809519 0.3825666 -4.547698
v -3.809519 9.096216E-06 -4.547704
v -3.809519 9.096216E-06 -4.547704
v 3.809519 8.021266E-06 -1.263247
v 3.809519 9.096216E-06 -4.547704
v -3.809519 8.021266E-06 -1.263247
v 3.809519 6.958589E-06 2.021201
v -3.809519 6.958589E-06 2.021201
v -3.809519 6.958589E-06 2.021201
v -3.809519 5.883642E-06 5.305642
v 3.809519 5.883642E-06 5.305642
v 3.809519 6.958589E-06 2.021201
v 3.809519 0.3825666 -4.547698
v -3.809519 0.3825656 -1.263248
v -3.809519 0.3825666 -4.547698
v 3.809519 0.3825656 -1.263248
v -3.809519 0.3825645 2.021201
v 3.809519 0.3825645 2.021201
v 3.809519 0.3825645 2.021201
v 3.809519 0.3825634 5.305642
v -3.809519 0.3825634 5.305642
v -3.809519 0.3825645 2.021201
v 3.809519 9.096216E-06 -4.547704
v 3.809519 0.3825656 -1.263248
v 3.809519 0.3825666 -4.547698
v 3.809519 8.021266E-06 -1.263247
v 3.809519 0.3825645 2.021201
v 3.809519 6.958589E-06 2.021201
v 3.809519 0.3825634 5.305642
v 3.809519 5.883642E-06 5.305642
v -3.809519 0.3825666 -4.547698
v -3.809519 8.021266E-06 -1.263247
v -3.809519 9.096216E-06 -4.547704
v -3.809519 0.3825656 -1.263248
v -3.809519 6.958589E-06 2.021201
v -3.809519 0.3825645 2.021201
v -3.809519 5.883642E-06 5.305642
v -3.809519 0.3825634 5.305642
vt 0.6948242 0.291748
vt 0.6948242 0.291748
vt 0.006778717 0.291748
vt 0.006778717 0.291748
vt 0.006778717 0.291748
vt 0.6948242 0.5810547
vt 0.6948242 0.291748
vt 0.006778717 0.5810547
vt 0.6948242 0.8701172
vt 0.006778717 0.8701172
vt 0.006778717 0.8701172
vt 0.006778717 0.5805664
vt 0.6948242 0.5805664
vt 0.6948242 0.8701172
vt 0.6948242 0.291748
vt 0.006778717 0.5810547
vt 0.006778717 0.291748
vt 0.6948242 0.5810547
vt 0.006778717 0.8701172
vt 0.6948242 0.8701172
vt 0.6948242 0.8701172
vt 0.6948242 0.5805664
vt 0.006778717 0.5805664
vt 0.006778717 0.8701172
vt 0.6948242 0.291748
vt 0.6948242 0.5810547
vt 0.6948242 0.291748
vt 0.6948242 0.5810547
vt 0.6948242 0.8701172
vt 0.6948242 0.8701172
vt 0.6948242 0.5805664
vt 0.6948242 0.5805664
vt 0.006778717 0.291748
vt 0.006778717 0.5810547
vt 0.006778717 0.291748
vt 0.006778717 0.5810547
vt 0.006778717 0.8701172
vt 0.006778717 0.8701172
vt 0.006778717 0.5805664
vt 0.006778717 0.5805664
vn 0 1.454353E-05 -1
vn 0 1.454353E-05 -1
vn 0 1.454353E-05 -1
vn 0 1.454353E-05 -1
vn 0 -1 0
vn 0 -1 0
vn 0 -1 0
vn 0 -1 0
vn 0 -1 0
vn 0 -1 0
vn 0 -1 0
vn 0 -1 0
vn 0 -1 0
vn 0 -1 0
vn 0 1 0
vn 0 1 0
vn 0 1 0
vn 0 1 0
vn 0 1 0
vn 0 1 0
vn 0 1 0
vn 0 1 0
vn 0 1 0
vn 0 1 0
vn 1 0 0
vn 1 0 0
vn 1 0 0
vn 1 0 0
vn 1 0 0
vn 1 0 0
vn 1 0 0
vn 1 0 0
vn -1 0 0
vn -1 0 0
vn -1 0 0
vn -1 0 0
vn -1 0 0
vn -1 0 0
vn -1 0 0
vn -1 0 0
g uzun_metre_loop_0
f 3/3/3 2/2/2 1/1/1
f 4/4/4 3/3/3 1/1/1
f 7/7/7 6/6/6 5/5/5
f 6/6/6 8/8/8 5/5/5
f 6/6/6 9/9/9 8/8/8
f 9/9/9 10/10/10 8/8/8
f 13/13/13 12/12/12 11/11/11
f 14/14/14 13/13/13 11/11/11
f 17/17/17 16/16/16 15/15/15
f 16/16/16 18/18/18 15/15/15
f 16/16/16 19/19/19 18/18/18
f 19/19/19 20/20/20 18/18/18
f 23/23/23 22/22/22 21/21/21
f 24/24/24 23/23/23 21/21/21
f 27/27/27 26/26/26 25/25/25
f 26/26/26 28/28/28 25/25/25
f 26/26/26 29/29/29 28/28/28
f 29/29/29 30/30/30 28/28/28
f 29/29/29 31/31/31 30/30/30
f 31/31/31 32/32/32 30/30/30
f 35/35/35 34/34/34 33/33/33
f 34/34/34 36/36/36 33/33/33
f 34/34/34 37/37/37 36/36/36
f 37/37/37 38/38/38 36/36/36
f 37/37/37 39/39/39 38/38/38
f 39/39/39 40/40/40 38/38/38
