g yildiz
v 0.4076217 0.1396884 0.4580937
v 0.4076217 0.03144188 0.4580937
v 0.3783183 0.03144188 0.4806525
v 0.3783183 0.1396884 0.4806525
v 0.3025695 0.03144188 0.4763689
v 0.3025695 0.1396884 0.4763689
v 0.3644806 0.1711303 0.4610359
v 0.3927122 0.1711303 0.4393023
v 0.2915025 0.1711303 0.456909
v -8.689596E-11 0.1396884 0.3620437
v 0.4073884 0.1711303 0.3676961
v 0.3754673 0.1711303 0.0577181
v 0.4228551 0.1396884 0.383769
v 0.4076217 0.03144188 0.4580937
v 0 0.1711303 0.3467655
v -0.3754673 0.1711303 0.0577181
v 0.2020877 0.1711303 -0.3467655
v 0.389722 0.1396884 0.06202253
v 0.4228551 0.03144188 0.383769
v 0.389722 0.03144189 0.06202253
v 0.4228551 0.03144188 0.383769
v 0.5591897 0.1711303 -0.1865446
v 0.5804195 0.1396884 -0.1915136
v 0.389722 0.03144189 0.06202253
v 0.3927122 0 0.4393023
v 0.4073884 0 0.3676961
v 0.3754673 0 0.0577181
v 0.3644806 0 0.4610359
v 0.3783183 0.03144188 0.4806525
v 0.2915025 0 0.4569091
v 0.3025695 0.03144188 0.4763689
v 0 0 0.3467655
v -0.3754673 0 0.0577181
v 0.2020877 0 -0.3467655
v -8.689596E-11 0.03144188 0.3620437
v 0.3025695 0.1396884 0.4763689
v -8.689596E-11 0.1396884 0.3620437
v -0.2915025 0 0.4569091
v 0.5804195 0.03144188 -0.1915136
v 0.5591897 0 -0.1865446
v 0.6050032 0.03144188 -0.2600623
v 0.5056769 0 -0.3113862
v 0.5828741 0 -0.2525859
v 0.5914717 0.03144188 -0.2916302
v 0.5698376 0 -0.2829992
v 0.5248751 0.03144188 -0.321095
v 0.20976 0.03144188 -0.3578174
v 0.06474128 0.03144188 -0.6329786
v 0.06237325 0 -0.6118621
v -0.06237325 0 -0.6118621
v -0.2020877 0 -0.3467655
v 0.01577197 0.03144188 -0.6825805
v 0.01577197 0.1396884 -0.6825805
v 0.06474128 0.1396884 -0.6329786
v 0.01519508 0 -0.6596497
v -0.01577197 0.03144188 -0.6825805
v -0.01519508 0 -0.6596497
v -0.06474128 0.03144188 -0.6329786
v -0.20976 0.03144188 -0.3578174
v -0.06474128 0.1396884 -0.6329786
v -0.01577197 0.1396884 -0.6825805
v 0.01577197 0.03144188 -0.6825805
v -0.01577197 0.03144188 -0.6825805
v -0.01519508 0.1711303 -0.6596497
v 0.01519508 0.1711303 -0.6596497
v -0.06237325 0.1711303 -0.6118622
v 0.06237325 0.1711303 -0.6118622
v -0.2020877 0.1711303 -0.3467655
v -0.20976 0.1396884 -0.3578174
v -0.06474128 0.03144188 -0.6329786
v -0.20976 0.03144188 -0.3578174
v 0.20976 0.1396884 -0.3578174
v 0.20976 0.03144188 -0.3578174
v 0.06474128 0.03144188 -0.6329786
v 0.5248751 0.03144188 -0.321095
v 0.5248751 0.1396884 -0.321095
v 0.5914717 0.03144188 -0.2916302
v 0.5914717 0.1396884 -0.2916303
v 0.6050032 0.03144188 -0.2600623
v 0.5056769 0.1711303 -0.3113862
v 0.6050032 0.1396884 -0.2600623
v 0.5804195 0.03144188 -0.1915136
v 0.5828741 0.1711303 -0.2525859
v 0.5698376 0.1711303 -0.2829992
v -0.5056769 0.1711303 -0.3113862
v -0.5248751 0.1396884 -0.321095
v -0.5248751 0.03144188 -0.321095
v -0.5056769 0 -0.3113862
v -0.5914717 0.03144188 -0.2916302
v -0.5591897 0 -0.1865446
v -0.5698376 0 -0.2829992
v -0.6050032 0.03144188 -0.2600623
v -0.5828741 0 -0.2525859
v -0.5804195 0.03144188 -0.1915136
v -0.389722 0.03144189 0.06202253
v -0.5698376 0.1711303 -0.2829992
v -0.5591897 0.1711303 -0.1865446
v -0.5914717 0.1396884 -0.2916303
v -0.5248751 0.03144188 -0.321095
v -0.5914717 0.03144188 -0.2916302
v -0.5828741 0.1711303 -0.2525859
v -0.6050032 0.1396884 -0.2600623
v -0.6050032 0.03144188 -0.2600623
v -0.5804195 0.1396884 -0.1915136
v -0.5804195 0.03144188 -0.1915136
v -0.389722 0.1396884 0.06202253
v -0.389722 0.03144189 0.06202253
v -0.4073884 0.1711303 0.3676961
v -0.4228551 0.1396884 0.383769
v -0.4228551 0.03144188 0.383769
v -0.4073884 0 0.3676961
v -0.4076217 0.03144188 0.4580937
v -0.3927122 0 0.4393023
v -0.3783183 0.03144188 0.4806525
v -0.3644806 0 0.4610359
v -0.3025695 0.03144188 0.4763689
v -0.3025695 0.1396884 0.4763689
v -0.3783183 0.1396884 0.4806525
v -0.2915025 0.1711303 0.456909
v -0.3927122 0.1711303 0.4393023
v -0.3644806 0.1711303 0.4610359
v -0.4076217 0.1396884 0.4580937
v -0.4228551 0.03144188 0.383769
v -0.4076217 0.03144188 0.4580937
v -0.3783183 0.03144188 0.4806525
vt 0.8365387 0.01987368
vt 0.8365387 0.01987368
vt 0.8123453 0.0005
vt 0.8123453 0.0005
vt 0.749806 0.004178604
vt 0.749806 0.004178604
vt 0.7633057 0.07767849
vt 0.7837005 0.09401046
vt 0.7105852 0.08077967
vt 0.4999998 0.1023628
vt 0.7943028 0.1478198
vt 0.7712425 0.3807564
vt 0.8491156 0.0837047
vt 0.8365387 0.01987368
vt 0.4999999 0.1635484
vt 0.2287573 0.3807565
vt 0.6459908 0.6847104
vt 0.8217605 0.3600249
vt 0.8491156 0.0837047
vt 0.8217605 0.3600249
vt 0.8491156 0.0837047
vt 0.9039661 0.5643104
vt 0.9792034 0.5777651
vt 0.8217605 0.3600249
vt 0.7837005 0.09401046
vt 0.7943028 0.1478198
vt 0.7712425 0.3807564
vt 0.7633057 0.07767849
vt 0.8123453 0.0005
vt 0.7105852 0.08077967
vt 0.749806 0.004178604
vt 0.4999999 0.1635484
vt 0.2287573 0.3807565
vt 0.6459908 0.6847104
vt 0.4999998 0.1023628
vt 0.749806 0.004178604
vt 0.4999998 0.1023628
vt 0.2894144 0.08077978
vt 0.9792034 0.5777651
vt 0.9039661 0.5643104
vt 0.9995 0.6366357
vt 0.8653079 0.6581241
vt 0.9210762 0.613938
vt 0.9883283 0.6637467
vt 0.9116585 0.6367924
vt 0.933345 0.6890513
vt 0.6731812 0.720589
vt 0.5534514 0.9569012
vt 0.5450593 0.8839204
vt 0.4549407 0.8839204
vt 0.3540091 0.6847104
vt 0.5130216 0.9994999
vt 0.5130216 0.9994999
vt 0.5534514 0.9569012
vt 0.5109771 0.9198309
vt 0.4869784 0.9994999
vt 0.4890229 0.9198309
vt 0.4465486 0.9569012
vt 0.3268189 0.7205891
vt 0.4465486 0.9569012
vt 0.4869784 0.9994999
vt 0.5130216 0.9994999
vt 0.4869784 0.9994999
vt 0.4890229 0.9198309
vt 0.5109771 0.9198309
vt 0.4549407 0.8839204
vt 0.5450593 0.8839204
vt 0.3540091 0.6847104
vt 0.3268189 0.7205891
vt 0.4465486 0.9569012
vt 0.3268189 0.7205891
vt 0.6731812 0.720589
vt 0.6731812 0.720589
vt 0.5534514 0.9569012
vt 0.933345 0.6890513
vt 0.933345 0.6890513
vt 0.9883283 0.6637467
vt 0.9883283 0.6637467
vt 0.9995 0.6366357
vt 0.8653079 0.6581241
vt 0.9995 0.6366357
vt 0.9792034 0.5777651
vt 0.9210762 0.613938
vt 0.9116585 0.6367924
vt 0.1346921 0.6581243
vt 0.0666549 0.6890515
vt 0.0666549 0.6890515
vt 0.1346921 0.6581243
vt 0.01167169 0.6637468
vt 0.09603376 0.5643106
vt 0.08834153 0.6367926
vt 0.0005 0.6366358
vt 0.07892381 0.6139382
vt 0.02079656 0.5777653
vt 0.1782393 0.360025
vt 0.08834153 0.6367926
vt 0.09603376 0.5643106
vt 0.01167169 0.6637468
vt 0.0666549 0.6890515
vt 0.01167169 0.6637468
vt 0.07892381 0.6139382
vt 0.0005 0.6366358
vt 0.0005 0.6366358
vt 0.02079656 0.5777653
vt 0.02079656 0.5777653
vt 0.1782393 0.360025
vt 0.1782393 0.360025
vt 0.2056969 0.14782
vt 0.1508841 0.08370485
vt 0.1508841 0.08370485
vt 0.2056969 0.14782
vt 0.163461 0.01987378
vt 0.2162992 0.09401059
vt 0.1876544 0.0005001042
vt 0.2366941 0.07767864
vt 0.2501937 0.004178812
vt 0.2501937 0.004178812
vt 0.1876544 0.0005001042
vt 0.2894144 0.08077978
vt 0.2162992 0.09401059
vt 0.2366941 0.07767864
vt 0.163461 0.01987378
vt 0.1508841 0.08370485
vt 0.163461 0.01987378
vt 0.1876544 0.0005001042
vn 0.8968541 0.1312192 0.4224147
vn 0.8968541 -0.1312191 0.4224147
vn 0.1782314 -0.1329543 0.974965
vn 0.1782314 0.1329545 0.9749649
vn -0.2927209 -0.09237184 0.9517258
vn -0.292721 0.09237197 0.9517258
vn 0.05363232 0.9239431 0.3787516
vn 0.3547382 0.9230757 0.1486342
vn -0.03862269 0.9925798 0.1152985
vn 0 0.1151523 0.9933478
vn 0.121955 0.9925038 -0.007953718
vn 0.04822013 0.9987477 0.01333547
vn 0.9952441 0.08909052 -0.03939635
vn 0.8968541 -0.1312191 0.4224147
vn 0 0.99757 0.06967041
vn -0.04822013 0.9987477 0.01333548
vn 0.02126223 0.9992834 -0.03131509
vn 0.9585027 0.1123158 0.2620263
vn 0.9952441 -0.08909052 -0.03939635
vn 0.9585027 -0.1123158 0.2620263
vn 0.9952441 -0.08909052 -0.03939635
vn 0.1059069 0.9916434 0.07366835
vn 0.8308379 0.09029018 0.5491411
vn 0.9585027 -0.1123158 0.2620263
vn 0.3547383 -0.9230757 0.1486344
vn 0.1219549 -0.9925038 -0.007953679
vn 0.0482201 -0.9987477 0.01333546
vn 0.05363238 -0.923943 0.3787519
vn 0.1782314 -0.1329543 0.974965
vn -0.03862269 -0.9925798 0.1152986
vn -0.2927209 -0.09237184 0.9517258
vn 0 -0.9975701 0.0696703
vn -0.0482201 -0.9987477 0.01333545
vn 0.02126221 -0.9992834 -0.03131501
vn 0 -0.1151522 0.9933478
vn -0.292721 0.09237197 0.9517258
vn 0 0.1151523 0.9933478
vn 0.03862269 -0.9925798 0.1152986
vn 0.8308379 -0.09029022 0.5491412
vn 0.1059069 -0.9916434 0.07366833
vn 0.9864828 -0.1292603 0.1007141
vn 0.0198109 -0.991314 -0.1300164
vn 0.3890954 -0.9195624 0.05486055
vn 0.6100218 -0.1225314 -0.7828534
vn 0.2303885 -0.9158205 -0.3289286
vn 0.1760077 -0.0778334 -0.9813069
vn 0.5579695 -0.102842 -0.8234644
vn 0.8530889 -0.07785722 -0.515924
vn 0.1224547 -0.9900056 -0.0699553
vn -0.1224547 -0.9900056 -0.0699553
vn -0.02126221 -0.9992834 -0.031315
vn 0.5117857 -0.120714 -0.8505901
vn 0.5117857 0.1207138 -0.8505901
vn 0.853089 0.07785708 -0.515924
vn 0.2297833 -0.9107326 -0.3431701
vn -0.5117857 -0.120714 -0.8505901
vn -0.2297833 -0.9107326 -0.3431701
vn -0.8530889 -0.07785724 -0.515924
vn -0.5579695 -0.1028421 -0.8234643
vn -0.853089 0.07785706 -0.515924
vn -0.5117857 0.1207138 -0.8505902
vn 0.5117857 -0.120714 -0.8505901
vn -0.5117857 -0.120714 -0.8505901
vn -0.2297832 0.9107326 -0.3431703
vn 0.2297832 0.9107326 -0.3431702
vn -0.1224548 0.9900056 -0.06995537
vn 0.1224548 0.9900056 -0.06995539
vn -0.02126224 0.9992834 -0.03131508
vn -0.5579695 0.1028418 -0.8234644
vn -0.8530889 -0.07785724 -0.515924
vn -0.5579695 -0.1028421 -0.8234643
vn 0.5579695 0.1028418 -0.8234644
vn 0.5579695 -0.102842 -0.8234644
vn 0.8530889 -0.07785722 -0.515924
vn 0.1760077 -0.0778334 -0.9813069
vn 0.1760077 0.07783331 -0.9813069
vn 0.6100218 -0.1225314 -0.7828534
vn 0.6100218 0.1225314 -0.7828534
vn 0.9864828 -0.1292603 0.1007141
vn 0.01981093 0.9913139 -0.1300166
vn 0.9864828 0.1292601 0.1007141
vn 0.8308379 -0.09029022 0.5491412
vn 0.389096 0.9195622 0.05486075
vn 0.2303888 0.9158203 -0.3289288
vn -0.01981093 0.9913139 -0.1300165
vn -0.1760077 0.07783328 -0.9813069
vn -0.1760077 -0.07783341 -0.9813069
vn -0.01981091 -0.991314 -0.1300164
vn -0.6100218 -0.1225314 -0.7828534
vn -0.1059069 -0.9916434 0.07366832
vn -0.2303886 -0.9158205 -0.3289286
vn -0.9864828 -0.1292603 0.100714
vn -0.3890956 -0.9195623 0.05486056
vn -0.8308379 -0.09029026 0.5491412
vn -0.9585027 -0.1123158 0.2620263
vn -0.2303888 0.9158203 -0.3289288
vn -0.105907 0.9916434 0.07366841
vn -0.6100218 0.1225313 -0.7828534
vn -0.1760077 -0.07783341 -0.9813069
vn -0.6100218 -0.1225314 -0.7828534
vn -0.389096 0.9195622 0.05486069
vn -0.9864828 0.1292601 0.1007141
vn -0.9864828 -0.1292603 0.100714
vn -0.8308379 0.09029014 0.5491411
vn -0.8308379 -0.09029026 0.5491412
vn -0.9585027 0.1123158 0.2620263
vn -0.9585027 -0.1123158 0.2620263
vn -0.121955 0.9925038 -0.007953718
vn -0.9952441 0.08909052 -0.03939635
vn -0.9952441 -0.0890905 -0.03939635
vn -0.1219549 -0.9925038 -0.007953681
vn -0.8968541 -0.1312191 0.4224147
vn -0.3547382 -0.9230757 0.1486344
vn -0.1782314 -0.1329542 0.974965
vn -0.05363238 -0.923943 0.3787519
vn 0.2927209 -0.09237182 0.9517258
vn 0.2927209 0.09237198 0.9517258
vn -0.1782314 0.1329545 0.9749649
vn 0.03862268 0.9925798 0.1152986
vn -0.3547383 0.9230757 0.1486344
vn -0.05363237 0.923943 0.3787519
vn -0.8968541 0.1312192 0.4224148
vn -0.9952441 -0.0890905 -0.03939635
vn -0.8968541 -0.1312191 0.4224147
vn -0.1782314 -0.1329542 0.974965
g yildiz_0
f 3/3/3 2/2/2 1/1/1
f 4/4/4 3/3/3 1/1/1
f 3/3/3 4/4/4 5/5/5
f 4/4/4 6/6/6 5/5/5
f 6/6/6 4/4/4 7/7/7
f 4/4/4 1/1/1 8/8/8
f 7/7/7 4/4/4 8/8/8
f 9/9/9 6/6/6 7/7/7
f 10/10/10 6/6/6 9/9/9
f 7/7/7 8/8/8 11/11/11
f 8/8/8 1/1/1 11/11/11
f 9/9/9 7/7/7 11/11/11
f 9/9/9 11/11/11 12/12/12
f 1/1/1 13/13/13 11/11/11
f 11/11/11 13/13/13 12/12/12
f 1/1/1 14/14/14 13/13/13
f 15/15/15 10/10/10 9/9/9
f 15/15/15 9/9/9 12/12/12
f 12/12/12 16/16/16 15/15/15
f 12/12/12 17/17/17 16/16/16
f 13/13/13 18/18/18 12/12/12
f 13/13/13 19/19/19 18/18/18
f 19/19/19 20/20/20 18/18/18
f 14/14/14 21/21/21 13/13/13
f 12/12/12 18/18/18 22/22/22
f 12/12/12 22/22/22 17/17/17
f 18/18/18 23/23/23 22/22/22
f 23/23/23 18/18/18 24/24/24
f 21/21/21 14/14/14 25/25/25
f 24/24/24 21/21/21 26/26/26
f 26/26/26 21/21/21 25/25/25
f 27/27/27 24/24/24 26/26/26
f 25/25/25 14/14/14 28/28/28
f 14/14/14 29/29/29 28/28/28
f 25/25/25 28/28/28 30/30/30
f 28/28/28 29/29/29 30/30/30
f 26/26/26 25/25/25 30/30/30
f 29/29/29 31/31/31 30/30/30
f 26/26/26 30/30/30 32/32/32
f 30/30/30 31/31/31 32/32/32
f 27/27/27 26/26/26 32/32/32
f 27/27/27 32/32/32 33/33/33
f 34/34/34 27/27/27 33/33/33
f 31/31/31 35/35/35 32/32/32
f 31/31/31 36/36/36 35/35/35
f 36/36/36 37/37/37 35/35/35
f 32/32/32 35/35/35 38/38/38
f 32/32/32 38/38/38 33/33/33
f 39/39/39 24/24/24 27/27/27
f 39/39/39 23/23/23 24/24/24
f 40/40/40 39/39/39 27/27/27
f 41/41/41 39/39/39 40/40/40
f 34/34/34 42/42/42 27/27/27
f 42/42/42 40/40/40 27/27/27
f 43/43/43 41/41/41 40/40/40
f 44/44/44 41/41/41 43/43/43
f 45/45/45 43/43/43 40/40/40
f 45/45/45 44/44/44 43/43/43
f 42/42/42 45/45/45 40/40/40
f 46/46/46 44/44/44 45/45/45
f 42/42/42 46/46/46 45/45/45
f 47/47/47 46/46/46 42/42/42
f 34/34/34 47/47/47 42/42/42
f 48/48/48 47/47/47 34/34/34
f 49/49/49 48/48/48 34/34/34
f 50/50/50 49/49/49 34/34/34
f 51/51/51 50/50/50 34/34/34
f 51/51/51 34/34/34 33/33/33
f 52/52/52 48/48/48 49/49/49
f 52/52/52 53/53/53 48/48/48
f 53/53/53 54/54/54 48/48/48
f 55/55/55 52/52/52 49/49/49
f 56/56/56 52/52/52 55/55/55
f 57/57/57 55/55/55 49/49/49
f 50/50/50 57/57/57 49/49/49
f 57/57/57 56/56/56 55/55/55
f 50/50/50 58/58/58 57/57/57
f 58/58/58 56/56/56 57/57/57
f 59/59/59 58/58/58 50/50/50
f 51/51/51 59/59/59 50/50/50
f 56/56/56 58/58/58 60/60/60
f 61/61/61 56/56/56 60/60/60
f 53/53/53 62/62/62 61/61/61
f 62/62/62 63/63/63 61/61/61
f 53/53/53 61/61/61 64/64/64
f 65/65/65 53/53/53 64/64/64
f 54/54/54 53/53/53 65/65/65
f 64/64/64 61/61/61 66/66/66
f 65/65/65 64/64/64 66/66/66
f 61/61/61 60/60/60 66/66/66
f 67/67/67 65/65/65 66/66/66
f 67/67/67 54/54/54 65/65/65
f 66/66/66 60/60/60 68/68/68
f 67/67/67 66/66/66 68/68/68
f 60/60/60 69/69/69 68/68/68
f 60/60/60 70/70/70 69/69/69
f 70/70/70 71/71/71 69/69/69
f 72/72/72 54/54/54 67/67/67
f 54/54/54 72/72/72 73/73/73
f 74/74/74 54/54/54 73/73/73
f 75/75/75 73/73/73 72/72/72
f 17/17/17 72/72/72 67/67/67
f 17/17/17 67/67/67 68/68/68
f 76/76/76 75/75/75 72/72/72
f 76/76/76 72/72/72 17/17/17
f 77/77/77 75/75/75 76/76/76
f 78/78/78 77/77/77 76/76/76
f 79/79/79 77/77/77 78/78/78
f 80/80/80 76/76/76 17/17/17
f 78/78/78 76/76/76 80/80/80
f 17/17/17 68/68/68 16/16/16
f 22/22/22 80/80/80 17/17/17
f 81/81/81 79/79/79 78/78/78
f 79/79/79 81/81/81 82/82/82
f 81/81/81 23/23/23 82/82/82
f 22/22/22 23/23/23 83/83/83
f 22/22/22 83/83/83 80/80/80
f 23/23/23 81/81/81 83/83/83
f 81/81/81 78/78/78 84/84/84
f 84/84/84 78/78/78 80/80/80
f 83/83/83 84/84/84 80/80/80
f 83/83/83 81/81/81 84/84/84
f 68/68/68 85/85/85 16/16/16
f 68/68/68 69/69/69 85/85/85
f 69/69/69 86/86/86 85/85/85
f 86/86/86 69/69/69 59/59/59
f 87/87/87 86/86/86 59/59/59
f 87/87/87 59/59/59 51/51/51
f 88/88/88 87/87/87 51/51/51
f 89/89/89 87/87/87 88/88/88
f 90/90/90 88/88/88 51/51/51
f 33/33/33 90/90/90 51/51/51
f 91/91/91 89/89/89 88/88/88
f 92/92/92 89/89/89 91/91/91
f 93/93/93 91/91/91 88/88/88
f 93/93/93 92/92/92 91/91/91
f 90/90/90 93/93/93 88/88/88
f 94/94/94 92/92/92 93/93/93
f 90/90/90 94/94/94 93/93/93
f 95/95/95 94/94/94 90/90/90
f 33/33/33 95/95/95 90/90/90
f 85/85/85 86/86/86 96/96/96
f 85/85/85 96/96/96 97/97/97
f 85/85/85 97/97/97 16/16/16
f 86/86/86 98/98/98 96/96/96
f 98/98/98 86/86/86 99/99/99
f 100/100/100 98/98/98 99/99/99
f 96/96/96 98/98/98 101/101/101
f 96/96/96 101/101/101 97/97/97
f 98/98/98 100/100/100 102/102/102
f 98/98/98 102/102/102 101/101/101
f 101/101/101 102/102/102 97/97/97
f 100/100/100 103/103/103 102/102/102
f 102/102/102 104/104/104 97/97/97
f 102/102/102 103/103/103 104/104/104
f 97/97/97 104/104/104 16/16/16
f 103/103/103 105/105/105 104/104/104
f 104/104/104 105/105/105 106/106/106
f 104/104/104 106/106/106 16/16/16
f 105/105/105 107/107/107 106/106/106
f 16/16/16 106/106/106 108/108/108
f 16/16/16 108/108/108 15/15/15
f 106/106/106 109/109/109 108/108/108
f 109/109/109 106/106/106 95/95/95
f 110/110/110 109/109/109 95/95/95
f 110/110/110 95/95/95 33/33/33
f 111/111/111 110/110/110 33/33/33
f 112/112/112 110/110/110 111/111/111
f 38/38/38 111/111/111 33/33/33
f 113/113/113 112/112/112 111/111/111
f 114/114/114 112/112/112 113/113/113
f 115/115/115 113/113/113 111/111/111
f 38/38/38 115/115/115 111/111/111
f 115/115/115 114/114/114 113/113/113
f 38/38/38 116/116/116 115/115/115
f 116/116/116 114/114/114 115/115/115
f 35/35/35 116/116/116 38/38/38
f 116/116/116 35/35/35 10/10/10
f 114/114/114 116/116/116 117/117/117
f 117/117/117 116/116/116 10/10/10
f 117/117/117 10/10/10 15/15/15
f 118/118/118 114/114/114 117/117/117
f 119/119/119 117/117/117 15/15/15
f 118/118/118 117/117/117 119/119/119
f 108/108/108 119/119/119 15/15/15
f 108/108/108 120/120/120 119/119/119
f 108/108/108 109/109/109 120/120/120
f 120/120/120 121/121/121 119/119/119
f 121/121/121 118/118/118 119/119/119
f 109/109/109 122/122/122 120/120/120
f 120/120/120 122/122/122 121/121/121
f 122/122/122 118/118/118 121/121/121
f 122/122/122 109/109/109 123/123/123
f 124/124/124 122/122/122 123/123/123
f 122/122/122 124/124/124 118/118/118
f 124/124/124 125/125/125 118/118/118
