g zemin
v -20 -19.99998 -100
v -20 1.478278E-05 -99.99999
v -20 6.490007E-06 -50
v -20 -19.99999 -50
v 20 -20.00001 99.99998
v 20 -6.490007E-06 50
v 20 -20.00001 49.99999
v 20 -1.478278E-05 99.99999
v 20 0.3134324 99.99999
v 20 0.3134407 50
v 19.28067 0.7498031 99.99999
v 19.28067 0.7498114 50
v 18.56577 0.3134323 99.99999
v 18.56577 0.3134406 50
v 18.31522 -1.493464E-05 99.99999
v 18.31522 -6.641871E-06 50
v 18.31522 -6.641871E-06 50
v 18.31522 -1.493464E-05 99.99999
v -18.3152 -1.823645E-05 99.99999
v -18.3152 -9.943676E-06 50
v 18.31522 9.943677E-06 -50
v 18.31522 1.823645E-05 -99.99999
v 18.56577 0.3134654 -99.99999
v 18.56577 0.3134572 -50
v 19.28067 0.7498363 -99.99999
v 19.28067 0.749828 -50
v 20 0.3134656 -99.99999
v 20 0.3134573 -50
v 20 1.838831E-05 -99.99999
v 20 1.009554E-05 -50
v 20 -19.99998 -100
v 20 -19.99999 -50
v -18.3152 -9.943676E-06 50
v -18.3152 -1.823645E-05 99.99999
v -18.56575 0.3134289 99.99999
v -18.56575 0.3134372 50
v -19.28066 0.7497997 99.99999
v -19.28066 0.749808 50
v -20 0.3134288 99.99999
v -20 0.3134371 50
v -20 -1.838831E-05 99.99999
v -20 -1.009554E-05 50
v -20 6.490007E-06 -50
v -20 1.478278E-05 -99.99999
v -20 0.313462 -99.99999
v -20 0.3134537 -50
v -19.28066 0.7498329 -99.99999
v -19.28066 0.7498246 -50
v -18.56575 0.3134538 -50
v -18.56575 0.3134621 -99.99999
v -18.3152 1.493465E-05 -99.99999
v -18.3152 6.641872E-06 -50
v -20 -20.00001 49.99999
v -20 -20 -6.103515E-06
v -20 -1.802767E-06 0
v -20 -1.009554E-05 50
v 20 -19.99999 -50
v 20 -20 -6.103515E-06
v 20 1.802767E-06 0
v 20 1.009554E-05 -50
v 20 0.313449 0
v 20 0.3134573 -50
v 19.28067 0.7498197 0
v 19.28067 0.749828 -50
v 18.56577 0.3134489 0
v 18.56577 0.3134572 -50
v 18.31522 1.650903E-06 0
v 18.31522 9.943677E-06 -50
v 18.31522 9.943677E-06 -50
v 18.31522 1.650903E-06 0
v -18.3152 -1.650902E-06 0
v -18.3152 6.641872E-06 -50
v 18.31522 -6.641871E-06 50
v 18.31522 1.650903E-06 0
v 18.56577 0.3134489 0
v 18.56577 0.3134406 50
v 19.28067 0.7498197 0
v 19.28067 0.7498114 50
v 20 0.313449 0
v 20 0.3134407 50
v 20 1.802767E-06 0
v 20 -6.490007E-06 50
v 20 -20 -6.103515E-06
v 20 -20.00001 49.99999
v -18.3152 6.641872E-06 -50
v -18.3152 -1.650902E-06 0
v -18.56575 0.3134455 0
v -18.56575 0.3134538 -50
v -19.28066 0.7498163 0
v -19.28066 0.7498246 -50
v -20 0.3134454 0
v -20 0.3134537 -50
v -20 -1.802767E-06 0
v -20 6.490007E-06 -50
v -20 -1.009554E-05 50
v -20 -1.802767E-06 0
v -20 0.3134454 0
v -20 0.3134371 50
v -19.28066 0.7498163 0
v -19.28066 0.749808 50
v -18.56575 0.3134455 0
v -18.56575 0.3134372 50
v -18.3152 -1.650902E-06 0
v -18.3152 -9.943676E-06 50
v -20 -20 -6.103515E-06
v -20 -19.99999 -50
v -20 6.490007E-06 -50
v -20 -1.802767E-06 0
v 18.31522 1.650903E-06 0
v 18.31522 -6.641871E-06 50
v -18.3152 -9.943676E-06 50
v -18.3152 -1.650902E-06 0
v -20 -20.00002 99.99998
v -20 -20.00001 49.99999
v -20 -1.009554E-05 50
v -20 -1.838831E-05 99.99999
v 18.31522 1.823645E-05 -99.99999
v 18.31522 9.943677E-06 -50
v -18.3152 6.641872E-06 -50
v -18.3152 1.493465E-05 -99.99999
vt 0.9980469 0.02555847
vt 0.9296875 0.02555847
vt 0.9296875 0.9604492
vt 0.9980469 0.9604492
vt 0.004104614 0.9604492
vt 0.07263184 0.02555847
vt 0.004104614 0.02555847
vt 0.07263184 0.9604492
vt 0.07263184 0.9604492
vt 0.07263184 0.02555847
vt 0.09234619 0.9604492
vt 0.09234619 0.02555847
vt 0.1140747 0.9604492
vt 0.1140747 0.02555847
vt 0.1373291 0.9604492
vt 0.1373291 0.02555847
vt 0.1542969 0.02555847
vt 0.1542969 0.9604492
vt 0.8452148 0.9604492
vt 0.8452148 0.02555847
vt 0.1373291 0.9604492
vt 0.1373291 0.02555847
vt 0.1140747 0.02555847
vt 0.1140747 0.9604492
vt 0.09234619 0.02555847
vt 0.09234619 0.9604492
vt 0.07263184 0.02555847
vt 0.07263184 0.9604492
vt 0.07263184 0.02555847
vt 0.07263184 0.9604492
vt 0.004104614 0.02555847
vt 0.004104614 0.9604492
vt 0.8647461 0.02555847
vt 0.8647461 0.9604492
vt 0.8881836 0.9604492
vt 0.8881836 0.02555847
vt 0.909668 0.9604492
vt 0.909668 0.02555847
vt 0.9296875 0.9604492
vt 0.9296875 0.02555847
vt 0.9296875 0.9604492
vt 0.9296875 0.02555847
vt 0.9296875 0.9604492
vt 0.9296875 0.02555847
vt 0.9296875 0.02555847
vt 0.9296875 0.9604492
vt 0.909668 0.02555847
vt 0.909668 0.9604492
vt 0.8881836 0.9604492
vt 0.8881836 0.02555847
vt 0.8647461 0.02555847
vt 0.8647461 0.9604492
vt 0.9980469 0.9604492
vt 0.9980469 0.02555847
vt 0.9296875 0.02555847
vt 0.9296875 0.9604492
vt 0.004104614 0.02555847
vt 0.004104614 0.9604492
vt 0.07263184 0.9604492
vt 0.07263184 0.02555847
vt 0.07263184 0.9604492
vt 0.07263184 0.02555847
vt 0.09234619 0.9604492
vt 0.09234619 0.02555847
vt 0.1140747 0.9604492
vt 0.1140747 0.02555847
vt 0.1373291 0.9604492
vt 0.1373291 0.02555847
vt 0.1542969 0.02555847
vt 0.1542969 0.9604492
vt 0.8452148 0.9604492
vt 0.8452148 0.02555847
vt 0.1373291 0.9604492
vt 0.1373291 0.02555847
vt 0.1140747 0.02555847
vt 0.1140747 0.9604492
vt 0.09234619 0.02555847
vt 0.09234619 0.9604492
vt 0.07263184 0.02555847
vt 0.07263184 0.9604492
vt 0.07263184 0.02555847
vt 0.07263184 0.9604492
vt 0.004104614 0.02555847
vt 0.004104614 0.9604492
vt 0.8647461 0.02555847
vt 0.8647461 0.9604492
vt 0.8881836 0.9604492
vt 0.8881836 0.02555847
vt 0.909668 0.9604492
vt 0.909668 0.02555847
vt 0.9296875 0.9604492
vt 0.9296875 0.02555847
vt 0.9296875 0.9604492
vt 0.9296875 0.02555847
vt 0.9296875 0.9604492
vt 0.9296875 0.02555847
vt 0.9296875 0.02555847
vt 0.9296875 0.9604492
vt 0.909668 0.02555847
vt 0.909668 0.9604492
vt 0.8881836 0.02555847
vt 0.8881836 0.9604492
vt 0.8647461 0.02555847
vt 0.8647461 0.9604492
vt 0.9980469 0.9604492
vt 0.9980469 0.02555847
vt 0.9296875 0.02555847
vt 0.9296875 0.9604492
vt 0.1542969 0.02555847
vt 0.1542969 0.9604492
vt 0.8452148 0.9604492
vt 0.8452148 0.02555847
vt 0.9980469 0.9604492
vt 0.9980469 0.02555847
vt 0.9296875 0.02555847
vt 0.9296875 0.9604492
vt 0.1542969 0.02555847
vt 0.1542969 0.9604492
vt 0.8452148 0.9604492
vt 0.8452148 0.02555847
vn -1 0 0
vn -1 0 0
vn -1 0 0
vn -1 0 0
vn 1 0 0
vn 1 0 0
vn 1 0 0
vn 1 0 0
vn 0.7216797 0.6923828 0
vn 0.7216797 0.6923828 0
vn 0 1 0
vn 0 1 0
vn -0.6132813 0.7895508 0
vn -0.6132813 0.7895508 0
vn -0.78125 0.6245117 0
vn -0.78125 0.6245117 0
vn 0 1 0
vn 0 1 0
vn 0 1 0
vn 0 1 0
vn -0.78125 0.6245117 0
vn -0.78125 0.6245117 0
vn -0.6132813 0.7895508 0
vn -0.6132813 0.7895508 0
vn 0 1 0
vn 0 1 0
vn 0.7216797 0.6923828 0
vn 0.7216797 0.6923828 0
vn 1 0 0
vn 1 0 0
vn 1 0 0
vn 1 0 0
vn 0.78125 0.6245117 0
vn 0.78125 0.6245117 0
vn 0.6132813 0.7895508 0
vn 0.6132813 0.7895508 0
vn 0 1 0
vn 0 1 0
vn -0.7216797 0.6923828 0
vn -0.7216797 0.6923828 0
vn -1 0 0
vn -1 0 0
vn -1 0 0
vn -1 0 0
vn -0.7216797 0.6923828 0
vn -0.7216797 0.6923828 0
vn 0 1 0
vn 0 1 0
vn 0.6132813 0.7895508 0
vn 0.6132813 0.7895508 0
vn 0.78125 0.6245117 0
vn 0.78125 0.6245117 0
vn -1 0 0
vn -1 0 0
vn -1 0 0
vn -1 0 0
vn 1 0 0
vn 1 0 0
vn 1 0 0
vn 1 0 0
vn 0.7216797 0.6923828 0
vn 0.7216797 0.6923828 0
vn 0 1 0
vn 0 1 0
vn -0.6132813 0.7895508 0
vn -0.6132813 0.7895508 0
vn -0.78125 0.6245117 0
vn -0.78125 0.6245117 0
vn 0 1 0
vn 0 1 0
vn 0 1 0
vn 0 1 0
vn -0.78125 0.6245117 0
vn -0.78125 0.6245117 0
vn -0.6132813 0.7895508 0
vn -0.6132813 0.7895508 0
vn 0 1 0
vn 0 1 0
vn 0.7216797 0.6923828 0
vn 0.7216797 0.6923828 0
vn 1 0 0
vn 1 0 0
vn 1 0 0
vn 1 0 0
vn 0.78125 0.6245117 0
vn 0.78125 0.6245117 0
vn 0.6132813 0.7895508 0
vn 0.6132813 0.7895508 0
vn 0 1 0
vn 0 1 0
vn -0.7216797 0.6923828 0
vn -0.7216797 0.6923828 0
vn -1 0 0
vn -1 0 0
vn -1 0 0
vn -1 0 0
vn -0.7216797 0.6923828 0
vn -0.7216797 0.6923828 0
vn 0 1 0
vn 0 1 0
vn 0.6132813 0.7895508 0
vn 0.6132813 0.7895508 0
vn 0.78125 0.6245117 0
vn 0.78125 0.6245117 0
vn -1 0 0
vn -1 0 0
vn -1 0 0
vn -1 0 0
vn 0 1 0
vn 0 1 0
vn 0 1 0
vn 0 1 0
vn -1 0 0
vn -1 0 0
vn -1 0 0
vn -1 0 0
vn 0 1 0
vn 0 1 0
vn 0 1 0
vn 0 1 0
g zemin_0
f 3/3/3 2/2/2 1/1/1
f 4/4/4 3/3/3 1/1/1
f 7/7/7 6/6/6 5/5/5
f 6/6/6 8/8/8 5/5/5
f 9/9/9 8/8/8 6/6/6
f 10/10/10 9/9/9 6/6/6
f 9/9/9 10/10/10 11/11/11
f 10/10/10 12/12/12 11/11/11
f 11/11/11 12/12/12 13/13/13
f 12/12/12 14/14/14 13/13/13
f 13/13/13 14/14/14 15/15/15
f 14/14/14 16/16/16 15/15/15
f 19/19/19 18/18/18 17/17/17
f 20/20/20 19/19/19 17/17/17
f 23/23/23 22/22/22 21/21/21
f 24/24/24 23/23/23 21/21/21
f 25/25/25 23/23/23 24/24/24
f 26/26/26 25/25/25 24/24/24
f 27/27/27 25/25/25 26/26/26
f 28/28/28 27/27/27 26/26/26
f 27/27/27 28/28/28 29/29/29
f 28/28/28 30/30/30 29/29/29
f 29/29/29 30/30/30 31/31/31
f 30/30/30 32/32/32 31/31/31
f 35/35/35 34/34/34 33/33/33
f 36/36/36 35/35/35 33/33/33
f 35/35/35 36/36/36 37/37/37
f 36/36/36 38/38/38 37/37/37
f 37/37/37 38/38/38 39/39/39
f 38/38/38 40/40/40 39/39/39
f 39/39/39 40/40/40 41/41/41
f 40/40/40 42/42/42 41/41/41
f 45/45/45 44/44/44 43/43/43
f 46/46/46 45/45/45 43/43/43
f 47/47/47 45/45/45 46/46/46
f 48/48/48 47/47/47 46/46/46
f 48/48/48 49/49/49 47/47/47
f 49/49/49 50/50/50 47/47/47
f 50/50/50 49/49/49 51/51/51
f 49/49/49 52/52/52 51/51/51
f 55/55/55 54/54/54 53/53/53
f 56/56/56 55/55/55 53/53/53
f 59/59/59 58/58/58 57/57/57
f 60/60/60 59/59/59 57/57/57
f 61/61/61 59/59/59 60/60/60
f 62/62/62 61/61/61 60/60/60
f 61/61/61 62/62/62 63/63/63
f 62/62/62 64/64/64 63/63/63
f 63/63/63 64/64/64 65/65/65
f 64/64/64 66/66/66 65/65/65
f 65/65/65 66/66/66 67/67/67
f 66/66/66 68/68/68 67/67/67
f 71/71/71 70/70/70 69/69/69
f 72/72/72 71/71/71 69/69/69
f 75/75/75 74/74/74 73/73/73
f 76/76/76 75/75/75 73/73/73
f 77/77/77 75/75/75 76/76/76
f 78/78/78 77/77/77 76/76/76
f 79/79/79 77/77/77 78/78/78
f 80/80/80 79/79/79 78/78/78
f 79/79/79 80/80/80 81/81/81
f 80/80/80 82/82/82 81/81/81
f 81/81/81 82/82/82 83/83/83
f 82/82/82 84/84/84 83/83/83
f 87/87/87 86/86/86 85/85/85
f 88/88/88 87/87/87 85/85/85
f 87/87/87 88/88/88 89/89/89
f 88/88/88 90/90/90 89/89/89
f 89/89/89 90/90/90 91/91/91
f 90/90/90 92/92/92 91/91/91
f 91/91/91 92/92/92 93/93/93
f 92/92/92 94/94/94 93/93/93
f 97/97/97 96/96/96 95/95/95
f 98/98/98 97/97/97 95/95/95
f 99/99/99 97/97/97 98/98/98
f 100/100/100 99/99/99 98/98/98
f 101/101/101 99/99/99 100/100/100
f 102/102/102 101/101/101 100/100/100
f 101/101/101 102/102/102 103/103/103
f 102/102/102 104/104/104 103/103/103
f 107/107/107 106/106/106 105/105/105
f 108/108/108 107/107/107 105/105/105
f 111/111/111 110/110/110 109/109/109
f 112/112/112 111/111/111 109/109/109
f 115/115/115 114/114/114 113/113/113
f 116/116/116 115/115/115 113/113/113
f 119/119/119 118/118/118 117/117/117
f 120/120/120 119/119/119 117/117/117
