g Bandeau-2
v -0.07259562 -0.02585501 0.3613074
v -0.06935897 0.02585501 -0.05285725
v -0.07259562 0.02585501 0.3613074
v -0.06935897 -0.02585501 -0.05285725
v -0.07321861 -0.1118214 -0.4981692
v -0.07342843 -0.1635315 -0.4981692
v -0.08736179 -0.3690358 -1.008043
v -0.0870651 -0.4115999 -0.9786797
v 0.06935897 -0.02585501 -0.05285725
v 0.07259562 -0.02585501 0.3613074
v 0.07259562 0.02585501 0.3613074
v 0.06935897 0.02585501 -0.05285725
v 0.07342843 -0.1635315 -0.4981692
v 0.07321861 -0.1118214 -0.4981692
v 0.0870651 -0.4115999 -0.9786797
v 0.08736179 -0.3690358 -1.008043
v 0.07259562 -0.02585501 0.3613074
v -0.07259562 -0.02585501 0.3613074
v -0.07259562 0.02585501 0.3613074
v 0.07259562 0.02585501 0.3613074
v -0.06935897 -0.02585501 -0.05285725
v -0.07259562 -0.02585501 0.3613074
v 0.07259562 -0.02585501 0.3613074
v 0.06935897 -0.02585501 -0.05285725
v -0.07342843 -0.1635315 -0.4981692
v 0.07342843 -0.1635315 -0.4981692
v -0.0870651 -0.4115999 -0.9786797
v 0.0870651 -0.4115999 -0.9786797
v -0.1146483 -0.8947807 -1.451051
v 0.1146483 -0.8947807 -1.451051
v -0.1472523 -1.415599 -1.837839
v 0.1472523 -1.415599 -1.837839
v -0.1755818 -1.760604 -2.340488
v 0.1755818 -1.760604 -2.340488
v 0.06935897 0.02585501 -0.05285725
v 0.07259562 0.02585501 0.3613074
v -0.07259562 0.02585501 0.3613074
v -0.06935897 0.02585501 -0.05285725
v 0.07321861 -0.1118214 -0.4981692
v -0.07321861 -0.1118214 -0.4981692
v 0.08736179 -0.3690358 -1.008043
v -0.08736179 -0.3690358 -1.008043
v 0.1150894 -0.864287 -1.492813
v -0.1150894 -0.864287 -1.492813
v 0.1457437 -1.366074 -1.852713
v -0.1457437 -1.366074 -1.852713
v 0.1748468 -1.711079 -2.355362
v -0.1748468 -1.711079 -2.355362
v -0.0870651 -0.4115999 -0.9786797
v -0.1150894 -0.864287 -1.492813
v -0.08736179 -0.3690358 -1.008043
v -0.1146483 -0.8947807 -1.451051
v -0.1457437 -1.366074 -1.852713
v -0.1472523 -1.415599 -1.837839
v 0.08736179 -0.3690358 -1.008043
v 0.1146483 -0.8947807 -1.451051
v 0.0870651 -0.4115999 -0.9786797
v 0.1150894 -0.864287 -1.492813
v 0.1472523 -1.415599 -1.837839
v 0.1457437 -1.366074 -1.852713
v 0.1457437 -1.366074 -1.852713
v 0.1748468 -1.711079 -2.355362
v 0.1755818 -1.760604 -2.340488
v 0.1472523 -1.415599 -1.837839
v -0.1755818 -1.760604 -2.340488
v 0.1755818 -1.760604 -2.340488
v 0.1748468 -1.711079 -2.355362
v -0.1748468 -1.711079 -2.355362
v -0.1472523 -1.415599 -1.837839
v -0.1755818 -1.760604 -2.340488
v -0.1748468 -1.711079 -2.355362
v -0.1457437 -1.366074 -1.852713
vt 0.2758789 0.8447266
vt 0.2805176 0.8364258
vt 0.2758789 0.8447266
vt 0.2805176 0.8364258
vt 0.2856445 0.8276367
vt 0.2856445 0.8276367
vt 0.2912598 0.8178711
vt 0.2910156 0.8183594
vt 0.2805176 0.8364258
vt 0.2758789 0.8447266
vt 0.2758789 0.8447266
vt 0.2805176 0.8364258
vt 0.2856445 0.8276367
vt 0.2856445 0.8276367
vt 0.2910156 0.8183594
vt 0.2912598 0.8178711
vt 0.2758789 0.8447266
vt 0.2758789 0.8447266
vt 0.2758789 0.8447266
vt 0.2758789 0.8447266
vt 0.2805176 0.8364258
vt 0.2758789 0.8447266
vt 0.2758789 0.8447266
vt 0.2805176 0.8364258
vt 0.2856445 0.8276367
vt 0.2856445 0.8276367
vt 0.2910156 0.8183594
vt 0.2910156 0.8183594
vt 0.2963867 0.809082
vt 0.2963867 0.809082
vt 0.3007813 0.8017578
vt 0.3007813 0.8017578
vt 0.3063965 0.7919922
vt 0.3063965 0.7919922
vt 0.2805176 0.8364258
vt 0.2758789 0.8447266
vt 0.2758789 0.8447266
vt 0.2805176 0.8364258
vt 0.2856445 0.8276367
vt 0.2856445 0.8276367
vt 0.2912598 0.8178711
vt 0.2912598 0.8178711
vt 0.296875 0.8085938
vt 0.296875 0.8085938
vt 0.3010254 0.8012695
vt 0.3010254 0.8012695
vt 0.3066406 0.7915039
vt 0.3066406 0.7915039
vt 0.2910156 0.8183594
vt 0.296875 0.8085938
vt 0.2912598 0.8178711
vt 0.2963867 0.809082
vt 0.3010254 0.8012695
vt 0.3007813 0.8017578
vt 0.2912598 0.8178711
vt 0.2963867 0.809082
vt 0.2910156 0.8183594
vt 0.296875 0.8085938
vt 0.3007813 0.8017578
vt 0.3010254 0.8012695
vt 0.3010254 0.8012695
vt 0.3066406 0.7915039
vt 0.3063965 0.7919922
vt 0.3007813 0.8017578
vt 0.3063965 0.7919922
vt 0.3063965 0.7919922
vt 0.3066406 0.7915039
vt 0.3066406 0.7915039
vt 0.3007813 0.8017578
vt 0.3063965 0.7919922
vt 0.3066406 0.7915039
vt 0.3010254 0.8012695
vn -0.9999695 0 -0.007814663
vn -0.9999994 0.0009073873 -0.0006185375
vn -0.9999695 0 -0.007814663
vn -0.999999 0.001102801 0.0009312665
vn -0.9998901 0.003777546 0.01433353
vn -0.9998195 0.004936573 0.01834871
vn -0.9994627 0.01476916 0.02926291
vn -0.9994525 0.01508309 0.02944518
vn 0.999999 0.001102801 0.0009312665
vn 0.9999695 0 -0.007814663
vn 0.9999695 0 -0.007814663
vn 0.9999994 0.0009073873 -0.0006185375
vn 0.9998195 0.004936573 0.01834871
vn 0.9998901 0.003777546 0.01433353
vn 0.9994525 0.01508309 0.02944518
vn 0.9994627 0.01476916 0.02926291
vn 0 0 1
vn 0 0 1
vn 0 0 1
vn 0 0 1
vn 0 -0.988776 0.1494057
vn 0 -1 0
vn 0 -1 0
vn 0 -0.988776 0.1494057
vn 0 -0.9252276 0.3794125
vn 0 -0.9252276 0.3794125
vn 0 -0.8020863 0.5972082
vn 0 -0.8020863 0.5972082
vn 0 -0.6476361 0.7619498
vn 0 -0.6476361 0.7619498
vn 0 -0.7237114 0.6901028
vn 0 -0.7237114 0.6901028
vn 0 -0.8244753 0.5658981
vn 0 -0.8244753 0.5658981
vn 0 0.9887792 -0.1493845
vn 0 1 0
vn 0 1 0
vn 0 0.9887792 -0.1493845
vn 0 0.9270205 -0.3750107
vn 0 0.9270205 -0.3750107
vn 0 0.8050379 -0.5932234
vn 0 0.8050379 -0.5932234
vn 0 0.6413679 -0.7672335
vn 0 0.6413679 -0.7672335
vn 0 0.7181707 -0.6958669
vn 0 0.7181707 -0.6958669
vn 0 0.8244754 -0.5658977
vn 0 0.8244754 -0.5658977
vn -0.9994525 0.01508309 0.02944518
vn -0.998961 0.03046682 0.033895
vn -0.9994627 0.01476916 0.02926291
vn -0.9989797 0.02982021 0.03391383
vn -0.9987867 0.03565574 0.03396541
vn -0.9988244 0.03435976 0.03419264
vn 0.9994627 0.01476916 0.02926291
vn 0.9989797 0.02982021 0.03391377
vn 0.9994525 0.01508309 0.02944518
vn 0.998961 0.03046682 0.03389494
vn 0.9988244 0.03435976 0.0341926
vn 0.9987867 0.03565574 0.03396533
vn 0.9987867 0.03565574 0.03396533
vn 0.998863 0.03296781 0.03443663
vn 0.998863 0.03296781 0.03443663
vn 0.9988244 0.03435976 0.0341926
vn 0 -0.2876462 -0.9577367
vn 0 -0.2876462 -0.9577367
vn 0 -0.2876462 -0.9577367
vn 0 -0.2876462 -0.9577367
vn -0.9988244 0.03435976 0.03419264
vn -0.998863 0.03296781 0.03443663
vn -0.998863 0.03296781 0.03443663
vn -0.9987867 0.03565574 0.03396541
g Bandeau-2_0
f 3/3/3 2/2/2 1/1/1
f 2/2/2 4/4/4 1/1/1
f 2/2/2 5/5/5 4/4/4
f 5/5/5 6/6/6 4/4/4
f 5/5/5 7/7/7 6/6/6
f 7/7/7 8/8/8 6/6/6
f 11/11/11 10/10/10 9/9/9
f 12/12/12 11/11/11 9/9/9
f 9/9/9 13/13/13 12/12/12
f 13/13/13 14/14/14 12/12/12
f 13/13/13 15/15/15 14/14/14
f 15/15/15 16/16/16 14/14/14
f 19/19/19 18/18/18 17/17/17
f 20/20/20 19/19/19 17/17/17
f 23/23/23 22/22/22 21/21/21
f 24/24/24 23/23/23 21/21/21
f 21/21/21 25/25/25 24/24/24
f 25/25/25 26/26/26 24/24/24
f 25/25/25 27/27/27 26/26/26
f 27/27/27 28/28/28 26/26/26
f 27/27/27 29/29/29 28/28/28
f 29/29/29 30/30/30 28/28/28
f 29/29/29 31/31/31 30/30/30
f 31/31/31 32/32/32 30/30/30
f 31/31/31 33/33/33 32/32/32
f 33/33/33 34/34/34 32/32/32
f 37/37/37 36/36/36 35/35/35
f 38/38/38 37/37/37 35/35/35
f 35/35/35 39/39/39 38/38/38
f 39/39/39 40/40/40 38/38/38
f 39/39/39 41/41/41 40/40/40
f 41/41/41 42/42/42 40/40/40
f 41/41/41 43/43/43 42/42/42
f 43/43/43 44/44/44 42/42/42
f 43/43/43 45/45/45 44/44/44
f 45/45/45 46/46/46 44/44/44
f 45/45/45 47/47/47 46/46/46
f 47/47/47 48/48/48 46/46/46
f 51/51/51 50/50/50 49/49/49
f 50/50/50 52/52/52 49/49/49
f 50/50/50 53/53/53 52/52/52
f 53/53/53 54/54/54 52/52/52
f 57/57/57 56/56/56 55/55/55
f 56/56/56 58/58/58 55/55/55
f 56/56/56 59/59/59 58/58/58
f 59/59/59 60/60/60 58/58/58
f 63/63/63 62/62/62 61/61/61
f 64/64/64 63/63/63 61/61/61
f 67/67/67 66/66/66 65/65/65
f 68/68/68 67/67/67 65/65/65
f 71/71/71 70/70/70 69/69/69
f 72/72/72 71/71/71 69/69/69
