g eye
v -0.9464518 0.1444006 0.7997715
v -0.8520241 0.2194013 0.8068544
v -0.8496937 0.08361848 0.973125
v -0.7459004 0.2038805 0.8848454
v -0.6902465 0.1156661 0.9887009
v -0.7176637 0.008110434 1.048456
v -0.9820114 0.1733938 0.5907906
v -0.8520241 0.2194013 0.8068544
v -0.9464518 0.1444006 0.7997715
v -0.8184578 0.3028732 0.6030585
v -0.9468445 0.1344606 0.4184566
v -0.7459004 0.2038805 0.8848454
v -0.7579892 0.2839247 0.4326222
v -0.850374 0.04806019 0.3191935
v -0.6346461 0.2722946 0.7364417
v -0.6902465 0.1156661 0.9887009
v -0.6868203 0.1774998 0.3314615
v -0.7184492 -0.05896682 0.3195989
v -0.5457416 0.24795 0.5930556
v -0.5382507 0.1020369 0.9271933
v -0.7176637 0.008110434 1.048456
v -0.5857388 -0.08514072 1.025548
v -0.4344337 0.04586064 0.8143582
v -0.4892684 -0.1715411 0.9262851
v -0.6240214 0.01587944 0.3266818
v -0.586419 -0.1684097 0.4293166
v -0.5030087 0.1492032 0.4666966
v -0.4066133 -0.03138065 0.6611002
v -0.4541014 -0.2279398 0.775221
v -0.5178977 0.001032066 0.402265
v -0.4622438 -0.105056 0.5152993
v -0.489661 -0.2337222 0.5978909
v 0.9464518 0.1444006 0.7997715
v 0.8496937 0.08361848 0.973125
v 0.8520241 0.2194013 0.8068544
v 0.7459004 0.2038805 0.8848454
v 0.6902465 0.1156661 0.9887009
v 0.7176637 0.008110434 1.048456
v 0.9820114 0.1733938 0.5907906
v 0.9464518 0.1444006 0.7997715
v 0.8520241 0.2194013 0.8068544
v 0.8184578 0.3028732 0.6030585
v 0.9468445 0.1344606 0.4184566
v 0.7459004 0.2038805 0.8848454
v 0.7579892 0.2839247 0.4326222
v 0.850374 0.04806019 0.3191935
v 0.6346461 0.2722946 0.7364417
v 0.6902465 0.1156661 0.9887009
v 0.6868203 0.1774998 0.3314615
v 0.7184492 -0.05896682 0.3195989
v 0.5457416 0.24795 0.5930556
v 0.5382507 0.1020369 0.9271933
v 0.7176637 0.008110434 1.048456
v 0.5857388 -0.08514072 1.025548
v 0.4344337 0.04586064 0.8143582
v 0.4892684 -0.1715411 0.9262851
v 0.6240214 0.01587944 0.3266818
v 0.586419 -0.1684097 0.4293166
v 0.5030087 0.1492032 0.4666966
v 0.4066133 -0.03138065 0.6611002
v 0.4541014 -0.2279398 0.775221
v 0.5178977 0.001032066 0.402265
v 0.4622438 -0.105056 0.5152993
v 0.489661 -0.2337222 0.5978909
v -1.030248 -0.001420666 0.7263171
v -0.9949457 0.08952188 0.7519704
v -0.9731125 -0.002607953 0.8502157
v 1.030248 -0.001420666 0.7263171
v 0.9731125 -0.002607953 0.8502157
v 0.9949457 0.08952188 0.7519704
v -0.9949457 0.08952188 0.7519704
v -0.9310958 0.1240986 0.8219886
v -0.9731125 -0.002607953 0.8502157
v -0.8761009 0.08205473 0.8953561
v -0.8621761 -0.01198081 0.929095
v -0.8974783 -0.1029232 0.9034415
v -0.9613281 -0.1374999 0.833423
v -1.016323 -0.095456 0.760056
v -1.030248 -0.001420666 0.7263171
v 0.9949457 0.08952188 0.7519704
v 0.9731125 -0.002607953 0.8502157
v 0.9310958 0.1240986 0.8219886
v 0.8761009 0.08205473 0.8953561
v 0.8621761 -0.01198081 0.929095
v 0.8974783 -0.1029232 0.9034415
v 0.9613281 -0.1374999 0.833423
v 1.016323 -0.095456 0.760056
v 1.030248 -0.001420666 0.7263171
v -0.957127 0.1487802 0.6350305
v -0.846536 0.2086687 0.7563055
v -0.9310958 0.1240986 0.8219886
v -0.9949457 0.08952188 0.7519704
v -0.8761009 0.08205473 0.8953561
v -1.018273 -0.008736957 0.5905975
v -1.030248 -0.001420666 0.7263171
v -0.7512819 0.1358467 0.8833817
v -0.8621761 -0.01198081 0.929095
v -0.994154 -0.1716112 0.6490349
v -1.016323 -0.095456 0.760056
v -0.7271634 -0.02702769 0.9418191
v -0.8974783 -0.1029232 0.9034415
v -0.8988998 -0.2444332 0.7761109
v -0.9613281 -0.1374999 0.833423
v -0.7883087 -0.1845448 0.8973861
v -0.9403951 -0.02259656 0.4794233
v -0.8697906 0.1592887 0.5307299
v -0.7420909 0.228442 0.6707664
v -0.9125454 -0.2106676 0.5469009
v -0.6321009 0.1443543 0.8175012
v -0.6042514 -0.04371684 0.8849788
v -0.6748558 -0.2256018 0.8336719
v -0.8025555 -0.2947552 0.6936355
v -0.8174831 -0.03928564 0.4225828
v -0.7563376 0.1182315 0.4670158
v -0.6457465 0.17812 0.588291
v -0.5504924 0.1052979 0.715367
v -0.7933645 -0.2021599 0.4810203
v -0.5263739 -0.05757637 0.7738044
v -0.5875193 -0.2150934 0.7293713
v -0.6981104 -0.2749818 0.6080964
v -0.6824703 -0.05433252 0.435307
v -0.647168 0.03660996 0.4609604
v -0.5715338 -0.06370531 0.5141861
v -0.6685457 -0.148368 0.4690458
v -0.5833183 0.07118665 0.5309788
v -0.6135506 -0.1904119 0.5424132
v -0.5283232 0.02914281 0.604346
v -0.5497008 -0.1558352 0.6124315
v -0.5143986 -0.06489266 0.6380848
v 0.957127 0.1487802 0.6350305
v 0.9949457 0.08952188 0.7519704
v 0.9310958 0.1240986 0.8219886
v 1.018273 -0.008736957 0.5905975
v 1.030248 -0.001420666 0.7263171
v 0.846536 0.2086687 0.7563055
v 0.8761009 0.08205473 0.8953561
v 0.994154 -0.1716112 0.6490349
v 1.016323 -0.095456 0.760056
v 0.7512819 0.1358467 0.8833817
v 0.8621761 -0.01198081 0.929095
v 0.8988998 -0.2444332 0.7761109
v 0.9613281 -0.1374999 0.833423
v 0.7271634 -0.02702769 0.9418191
v 0.8974783 -0.1029232 0.9034415
v 0.7883087 -0.1845448 0.8973861
v 0.9403951 -0.02259656 0.4794233
v 0.8697906 0.1592887 0.5307299
v 0.9125454 -0.2106676 0.5469009
v 0.7420909 0.228442 0.6707664
v 0.8025555 -0.2947552 0.6936355
v 0.6321009 0.1443543 0.8175012
v 0.6042514 -0.04371684 0.8849788
v 0.6748558 -0.2256018 0.8336719
v 0.8174831 -0.03928564 0.4225828
v 0.7933645 -0.2021599 0.4810203
v 0.7563376 0.1182315 0.4670158
v 0.6457465 0.17812 0.588291
v 0.6981104 -0.2749818 0.6080964
v 0.5504924 0.1052979 0.715367
v 0.5263739 -0.05757637 0.7738044
v 0.5875193 -0.2150934 0.7293713
v 0.6824703 -0.05433252 0.435307
v 0.6685457 -0.148368 0.4690458
v 0.5715338 -0.06370531 0.5141861
v 0.647168 0.03660996 0.4609604
v 0.6135506 -0.1904119 0.5424132
v 0.5833183 0.07118665 0.5309788
v 0.5497008 -0.1558352 0.6124315
v 0.5283232 0.02914281 0.604346
v 0.5143986 -0.06489266 0.6380848
vt 0.1542969 0.6367188
vt 0.1542969 0.6367188
vt 0.1542969 0.6367188
vt 0.1542969 0.6367188
vt 0.1542969 0.6367188
vt 0.1542969 0.6367188
vt 0.1542969 0.640625
vt 0.1542969 0.640625
vt 0.1542969 0.640625
vt 0.1542969 0.640625
vt 0.1542969 0.640625
vt 0.1542969 0.640625
vt 0.1542969 0.640625
vt 0.1542969 0.640625
vt 0.1542969 0.640625
vt 0.1542969 0.640625
vt 0.1542969 0.640625
vt 0.1542969 0.640625
vt 0.1542969 0.640625
vt 0.1542969 0.640625
vt 0.1542969 0.640625
vt 0.1542969 0.640625
vt 0.1542969 0.640625
vt 0.1542969 0.640625
vt 0.1542969 0.640625
vt 0.1542969 0.640625
vt 0.1542969 0.640625
vt 0.1542969 0.640625
vt 0.1542969 0.640625
vt 0.1542969 0.640625
vt 0.1542969 0.640625
vt 0.1542969 0.640625
vt 0.1542969 0.6367188
vt 0.1542969 0.6367188
vt 0.1542969 0.6367188
vt 0.1542969 0.6367188
vt 0.1542969 0.6367188
vt 0.1542969 0.6367188
vt 0.1542969 0.640625
vt 0.1542969 0.640625
vt 0.1542969 0.640625
vt 0.1542969 0.640625
vt 0.1542969 0.640625
vt 0.1542969 0.640625
vt 0.1542969 0.640625
vt 0.1542969 0.640625
vt 0.1542969 0.640625
vt 0.1542969 0.640625
vt 0.1542969 0.640625
vt 0.1542969 0.640625
vt 0.1542969 0.640625
vt 0.1542969 0.640625
vt 0.1542969 0.640625
vt 0.1542969 0.640625
vt 0.1542969 0.640625
vt 0.1542969 0.640625
vt 0.1542969 0.640625
vt 0.1542969 0.640625
vt 0.1542969 0.640625
vt 0.1542969 0.640625
vt 0.1542969 0.640625
vt 0.1542969 0.640625
vt 0.1542969 0.640625
vt 0.1542969 0.640625
vt 0.9746094 0.263916
vt 0.9746094 0.263916
vt 0.9746094 0.263916
vt 0.9746094 0.263916
vt 0.9746094 0.263916
vt 0.9746094 0.263916
vt 0.9609375 0.2578125
vt 0.9609375 0.2578125
vt 0.9609375 0.2578125
vt 0.9609375 0.2578125
vt 0.9609375 0.2578125
vt 0.9609375 0.2578125
vt 0.9609375 0.2578125
vt 0.9609375 0.2578125
vt 0.9609375 0.2578125
vt 0.9609375 0.2578125
vt 0.9609375 0.2578125
vt 0.9609375 0.2578125
vt 0.9609375 0.2578125
vt 0.9609375 0.2578125
vt 0.9609375 0.2578125
vt 0.9609375 0.2578125
vt 0.9609375 0.2578125
vt 0.9609375 0.2578125
vt 0.01171875 0.2617188
vt 0.01171875 0.2617188
vt 0.01171875 0.2617188
vt 0.01171875 0.2617188
vt 0.01171875 0.2617188
vt 0.01171875 0.2617188
vt 0.01171875 0.2617188
vt 0.01171875 0.2617188
vt 0.01171875 0.2617188
vt 0.01171875 0.2617188
vt 0.01171875 0.2617188
vt 0.01171875 0.2617188
vt 0.01171875 0.2617188
vt 0.01171875 0.2617188
vt 0.01171875 0.2617188
vt 0.01171875 0.2617188
vt 0.01171875 0.2617188
vt 0.01171875 0.2617188
vt 0.01171875 0.2617188
vt 0.01171875 0.2617188
vt 0.01171875 0.2617188
vt 0.01171875 0.2617188
vt 0.01171875 0.2617188
vt 0.01171875 0.2617188
vt 0.01171875 0.2617188
vt 0.01171875 0.2617188
vt 0.01171875 0.2617188
vt 0.01171875 0.2617188
vt 0.01171875 0.2617188
vt 0.01171875 0.2617188
vt 0.01171875 0.2617188
vt 0.01171875 0.2617188
vt 0.01171875 0.2617188
vt 0.01171875 0.2617188
vt 0.01171875 0.2617188
vt 0.01171875 0.2617188
vt 0.01171875 0.2617188
vt 0.01171875 0.2617188
vt 0.01171875 0.2617188
vt 0.01171875 0.2617188
vt 0.01171875 0.2617188
vt 0.01171875 0.2617188
vt 0.01171875 0.2617188
vt 0.01171875 0.2617188
vt 0.01171875 0.2617188
vt 0.01171875 0.2617188
vt 0.01171875 0.2617188
vt 0.01171875 0.2617188
vt 0.01171875 0.2617188
vt 0.01171875 0.2617188
vt 0.01171875 0.2617188
vt 0.01171875 0.2617188
vt 0.01171875 0.2617188
vt 0.01171875 0.2617188
vt 0.01171875 0.2617188
vt 0.01171875 0.2617188
vt 0.01171875 0.2617188
vt 0.01171875 0.2617188
vt 0.01171875 0.2617188
vt 0.01171875 0.2617188
vt 0.01171875 0.2617188
vt 0.01171875 0.2617188
vt 0.01171875 0.2617188
vt 0.01171875 0.2617188
vt 0.01171875 0.2617188
vt 0.01171875 0.2617188
vt 0.01171875 0.2617188
vt 0.01171875 0.2617188
vt 0.01171875 0.2617188
vt 0.01171875 0.2617188
vt 0.01171875 0.2617188
vt 0.01171875 0.2617188
vt 0.01171875 0.2617188
vt 0.01171875 0.2617188
vt 0.01171875 0.2617188
vt 0.01171875 0.2617188
vt 0.01171875 0.2617188
vt 0.01171875 0.2617188
vt 0.01171875 0.2617188
vt 0.01171875 0.2617188
vt 0.01171875 0.2617188
vt 0.01171875 0.2617188
vn -0.5966797 0.7182617 0.3586426
vn -0.4055176 0.8208008 0.4023438
vn -0.3046875 0.6538086 0.6923828
vn -0.04934692 0.8266602 0.5605469
vn 0.1251221 0.6152344 0.7783203
vn 0.1745605 0.435791 0.8828125
vn -0.6176758 0.784668 -0.05352783
vn -0.4055176 0.8208008 0.4023438
vn -0.5966797 0.7182617 0.3586426
vn -0.2897949 0.9570313 0.01483154
vn -0.4887695 0.6704102 -0.5581055
vn -0.04934692 0.8266602 0.5605469
vn -0.08062744 0.8759766 -0.4760742
vn -0.1842041 0.3208008 -0.9291992
vn 0.2976074 0.9106445 0.2866211
vn 0.1251221 0.6152344 0.7783203
vn 0.1854248 0.4960938 -0.8481445
vn 0.1918945 -0.1502686 -0.9697266
vn 0.6083984 0.7895508 -0.07879639
vn 0.5864258 0.5234375 0.6181641
vn 0.1745605 0.435791 0.8828125
vn 0.6137695 0.2416992 0.7514648
vn 0.8979492 0.3120117 0.3110352
vn 0.8881836 0.0199585 0.4589844
vn 0.3928223 -0.03796387 -0.9189453
vn 0.5761719 -0.4084473 -0.7080078
vn 0.7724609 0.4521484 -0.4462891
vn 0.9960938 0.0406189 -0.08007813
vn 0.9775391 -0.1958008 0.08007813
vn 0.7304688 -0.0430603 -0.6816406
vn 0.8525391 -0.2573242 -0.4550781
vn 0.8671875 -0.3898926 -0.3093262
vn 0.5966797 0.7182617 0.3586426
vn 0.3046875 0.6538086 0.6923828
vn 0.4055176 0.8208008 0.4023438
vn 0.04934692 0.8266602 0.5605469
vn -0.1251221 0.6152344 0.7783203
vn -0.1745605 0.435791 0.8828125
vn 0.6176758 0.784668 -0.05352783
vn 0.5966797 0.7182617 0.3586426
vn 0.4055176 0.8208008 0.4023438
vn 0.2897949 0.9570313 0.01483154
vn 0.4887695 0.6704102 -0.5581055
vn 0.04934692 0.8266602 0.5605469
vn 0.08068848 0.8759766 -0.4760742
vn 0.1842041 0.3208008 -0.9291992
vn -0.2976074 0.9106445 0.2866211
vn -0.1251221 0.6152344 0.7783203
vn -0.1854248 0.4960938 -0.8481445
vn -0.1918945 -0.1502686 -0.9697266
vn -0.6083984 0.7895508 -0.07879639
vn -0.5864258 0.5234375 0.6181641
vn -0.1745605 0.435791 0.8828125
vn -0.6137695 0.2416992 0.7514648
vn -0.8979492 0.3120117 0.3110352
vn -0.8881836 0.0199585 0.4589844
vn -0.3928223 -0.03796387 -0.9189453
vn -0.5761719 -0.4084473 -0.7080078
vn -0.7724609 0.4521484 -0.4462891
vn -0.9960938 0.0406189 -0.08007813
vn -0.9775391 -0.1958008 0.08007813
vn -0.7304688 -0.0430603 -0.6816406
vn -0.8525391 -0.2573242 -0.4550781
vn -0.8671875 -0.3898926 -0.3093262
vn -0.9863281 0.1190186 0.1149902
vn -0.840332 0.4951172 0.2210693
vn -0.7617188 0.1159058 0.637207
vn 0.9863281 0.1190186 0.1149902
vn 0.7617188 0.1159058 0.637207
vn 0.840332 0.4951172 0.2210693
vn -0.840332 0.4951172 0.2210693
vn -0.5761719 0.6381836 0.5107422
vn -0.7617188 0.1159058 0.637207
vn -0.3486328 0.4643555 0.8139648
vn -0.2910156 0.07531738 0.9536133
vn -0.4370117 -0.3007813 0.8476563
vn -0.7011719 -0.4438477 0.5581055
vn -0.9287109 -0.2700195 0.2546387
vn -0.9863281 0.1190186 0.1149902
vn 0.840332 0.4951172 0.2210693
vn 0.7617188 0.1159058 0.637207
vn 0.5761719 0.6381836 0.5107422
vn 0.3486328 0.4643555 0.8139648
vn 0.2910156 0.07531738 0.9536133
vn 0.4370117 -0.3007813 0.8476563
vn 0.7011719 -0.4438477 0.5581055
vn 0.9287109 -0.2700195 0.2546387
vn 0.9863281 0.1190186 0.1149902
vn -0.6870117 0.6977539 -0.2034912
vn -0.260498 0.9287109 0.2641602
vn -0.5761719 0.6381836 0.5107422
vn -0.840332 0.4951172 0.2210693
vn -0.3486328 0.4643555 0.8139648
vn -0.9228516 0.090271 -0.3747559
vn -0.9863281 0.1190186 0.1149902
vn 0.1069336 0.6479492 0.7543945
vn -0.2910156 0.07531738 0.9536133
vn -0.8295898 -0.5380859 -0.1495361
vn -0.9287109 -0.2700195 0.2546387
vn 0.1999512 0.01968384 0.9794922
vn -0.4370117 -0.3007813 0.8476563
vn -0.4624023 -0.8188477 0.3405762
vn -0.7011719 -0.4438477 0.5581055
vn -0.03582764 -0.5878906 0.8081055
vn -0.6376953 0.04003906 -0.7695313
vn -0.369873 0.7299805 -0.574707
vn 0.1146851 0.9926758 -0.04336548
vn -0.5317383 -0.6733398 -0.5131836
vn 0.5317383 0.6733398 0.5131836
vn 0.6376953 -0.04003906 0.7695313
vn 0.369873 -0.7299805 0.574707
vn -0.1146851 -0.9926758 0.04336548
vn -0.1999512 -0.01968384 -0.9794922
vn 0.03582764 0.5878906 -0.8081055
vn 0.4624023 0.8188477 -0.3405762
vn 0.8295898 0.5380859 0.1495361
vn -0.1069336 -0.6479492 -0.7543945
vn 0.9228516 -0.090271 0.3747559
vn 0.6870117 -0.6977539 0.2034912
vn 0.260498 -0.9287109 -0.2641602
vn 0.2910156 -0.07531738 -0.9536133
vn 0.4370117 0.3007813 -0.8476563
vn 0.7617188 -0.1159058 -0.637207
vn 0.3486328 -0.4643555 -0.8139648
vn 0.7011719 0.4438477 -0.5581055
vn 0.5761719 -0.6381836 -0.5107422
vn 0.9287109 0.2700195 -0.2546387
vn 0.840332 -0.4951172 -0.2210693
vn 0.9863281 -0.1190186 -0.1149902
vn 0.6870117 0.6977539 -0.2034912
vn 0.840332 0.4951172 0.2210693
vn 0.5761719 0.6381836 0.5107422
vn 0.9228516 0.090271 -0.3747559
vn 0.9863281 0.1190186 0.1149902
vn 0.260498 0.9287109 0.2641602
vn 0.3486328 0.4643555 0.8139648
vn 0.8295898 -0.5380859 -0.1495361
vn 0.9287109 -0.2700195 0.2546387
vn -0.1069336 0.6479492 0.7543945
vn 0.2910156 0.07531738 0.9536133
vn 0.4624023 -0.8188477 0.3405762
vn 0.7011719 -0.4438477 0.5581055
vn -0.1999512 0.01968384 0.9794922
vn 0.4370117 -0.3007813 0.8476563
vn 0.03582764 -0.5878906 0.8081055
vn 0.6376953 0.04003906 -0.7695313
vn 0.369873 0.7299805 -0.574707
vn 0.5317383 -0.6733398 -0.5131836
vn -0.1146851 0.9926758 -0.04336548
vn 0.1146851 -0.9926758 0.04336548
vn -0.5317383 0.6733398 0.5131836
vn -0.6376953 -0.04003906 0.7695313
vn -0.369873 -0.7299805 0.574707
vn 0.1999512 -0.01968384 -0.9794922
vn 0.1069336 -0.6479492 -0.7543945
vn -0.03582764 0.5878906 -0.8081055
vn -0.4624023 0.8188477 -0.3405762
vn -0.260498 -0.9287109 -0.2641602
vn -0.8295898 0.5380859 0.1495361
vn -0.9228516 -0.090271 0.3747559
vn -0.6870117 -0.6977539 0.2034912
vn -0.2910156 -0.07531738 -0.9536133
vn -0.3486328 -0.4643555 -0.8139648
vn -0.7617188 -0.1159058 -0.637207
vn -0.4370117 0.3007813 -0.8476563
vn -0.5761719 -0.6381836 -0.5107422
vn -0.7011719 0.4438477 -0.5581055
vn -0.840332 -0.4951172 -0.2210693
vn -0.9287109 0.2700195 -0.2546387
vn -0.9863281 -0.1190186 -0.1149902
g eye_0
f 3/3/3 2/2/2 1/1/1
f 3/3/3 4/4/4 2/2/2
f 3/3/3 5/5/5 4/4/4
f 3/3/3 6/6/6 5/5/5
f 9/9/9 8/8/8 7/7/7
f 8/8/8 10/10/10 7/7/7
f 7/7/7 10/10/10 11/11/11
f 8/8/8 12/12/12 10/10/10
f 10/10/10 13/13/13 11/11/11
f 11/11/11 13/13/13 14/14/14
f 12/12/12 15/15/15 10/10/10
f 10/10/10 15/15/15 13/13/13
f 12/12/12 16/16/16 15/15/15
f 13/13/13 17/17/17 14/14/14
f 14/14/14 17/17/17 18/18/18
f 15/15/15 19/19/19 13/13/13
f 13/13/13 19/19/19 17/17/17
f 16/16/16 20/20/20 15/15/15
f 15/15/15 20/20/20 19/19/19
f 16/16/16 21/21/21 20/20/20
f 21/21/21 22/22/22 20/20/20
f 20/20/20 22/22/22 23/23/23
f 20/20/20 23/23/23 19/19/19
f 22/22/22 24/24/24 23/23/23
f 17/17/17 25/25/25 18/18/18
f 18/18/18 25/25/25 26/26/26
f 19/19/19 27/27/27 17/17/17
f 19/19/19 23/23/23 27/27/27
f 17/17/17 27/27/27 25/25/25
f 23/23/23 24/24/24 28/28/28
f 23/23/23 28/28/28 27/27/27
f 24/24/24 29/29/29 28/28/28
f 27/27/27 30/30/30 25/25/25
f 25/25/25 30/30/30 26/26/26
f 27/27/27 28/28/28 30/30/30
f 28/28/28 29/29/29 31/31/31
f 28/28/28 31/31/31 30/30/30
f 30/30/30 31/31/31 26/26/26
f 29/29/29 32/32/32 31/31/31
f 31/31/31 32/32/32 26/26/26
f 35/35/35 34/34/34 33/33/33
f 36/36/36 34/34/34 35/35/35
f 37/37/37 34/34/34 36/36/36
f 38/38/38 34/34/34 37/37/37
f 41/41/41 40/40/40 39/39/39
f 42/42/42 41/41/41 39/39/39
f 42/42/42 39/39/39 43/43/43
f 44/44/44 41/41/41 42/42/42
f 45/45/45 42/42/42 43/43/43
f 45/45/45 43/43/43 46/46/46
f 47/47/47 44/44/44 42/42/42
f 47/47/47 42/42/42 45/45/45
f 48/48/48 44/44/44 47/47/47
f 49/49/49 45/45/45 46/46/46
f 49/49/49 46/46/46 50/50/50
f 51/51/51 47/47/47 45/45/45
f 51/51/51 45/45/45 49/49/49
f 52/52/52 48/48/48 47/47/47
f 52/52/52 47/47/47 51/51/51
f 53/53/53 48/48/48 52/52/52
f 54/54/54 53/53/53 52/52/52
f 54/54/54 52/52/52 55/55/55
f 55/55/55 52/52/52 51/51/51
f 56/56/56 54/54/54 55/55/55
f 57/57/57 49/49/49 50/50/50
f 57/57/57 50/50/50 58/58/58
f 59/59/59 51/51/51 49/49/49
f 55/55/55 51/51/51 59/59/59
f 59/59/59 49/49/49 57/57/57
f 56/56/56 55/55/55 60/60/60
f 60/60/60 55/55/55 59/59/59
f 61/61/61 56/56/56 60/60/60
f 62/62/62 59/59/59 57/57/57
f 62/62/62 57/57/57 58/58/58
f 60/60/60 59/59/59 62/62/62
f 61/61/61 60/60/60 63/63/63
f 63/63/63 60/60/60 62/62/62
f 63/63/63 62/62/62 58/58/58
f 64/64/64 61/61/61 63/63/63
f 64/64/64 63/63/63 58/58/58
g eye_1
f 67/67/67 66/66/66 65/65/65
f 70/70/70 69/69/69 68/68/68
f 73/73/73 72/72/72 71/71/71
f 73/73/73 74/74/74 72/72/72
f 73/73/73 75/75/75 74/74/74
f 73/73/73 76/76/76 75/75/75
f 73/73/73 77/77/77 76/76/76
f 73/73/73 78/78/78 77/77/77
f 73/73/73 79/79/79 78/78/78
f 82/82/82 81/81/81 80/80/80
f 83/83/83 81/81/81 82/82/82
f 84/84/84 81/81/81 83/83/83
f 85/85/85 81/81/81 84/84/84
f 86/86/86 81/81/81 85/85/85
f 87/87/87 81/81/81 86/86/86
f 88/88/88 81/81/81 87/87/87
f 91/91/91 90/90/90 89/89/89
f 92/92/92 91/91/91 89/89/89
f 91/91/91 93/93/93 90/90/90
f 92/92/92 89/89/89 94/94/94
f 95/95/95 92/92/92 94/94/94
f 93/93/93 96/96/96 90/90/90
f 93/93/93 97/97/97 96/96/96
f 95/95/95 94/94/94 98/98/98
f 99/99/99 95/95/95 98/98/98
f 97/97/97 100/100/100 96/96/96
f 97/97/97 101/101/101 100/100/100
f 99/99/99 98/98/98 102/102/102
f 103/103/103 99/99/99 102/102/102
f 101/101/101 103/103/103 104/104/104
f 101/101/101 104/104/104 100/100/100
f 103/103/103 102/102/102 104/104/104
f 94/94/94 89/89/89 105/105/105
f 89/89/89 90/90/90 106/106/106
f 89/89/89 106/106/106 105/105/105
f 90/90/90 96/96/96 107/107/107
f 90/90/90 107/107/107 106/106/106
f 98/98/98 94/94/94 108/108/108
f 94/94/94 105/105/105 108/108/108
f 96/96/96 100/100/100 109/109/109
f 96/96/96 109/109/109 107/107/107
f 100/100/100 104/104/104 110/110/110
f 100/100/100 110/110/110 109/109/109
f 104/104/104 102/102/102 111/111/111
f 104/104/104 111/111/111 110/110/110
f 102/102/102 98/98/98 112/112/112
f 98/98/98 108/108/108 112/112/112
f 102/102/102 112/112/112 111/111/111
f 105/105/105 106/106/106 113/113/113
f 106/106/106 107/107/107 114/114/114
f 106/106/106 114/114/114 113/113/113
f 107/107/107 109/109/109 115/115/115
f 107/107/107 115/115/115 114/114/114
f 109/109/109 110/110/110 116/116/116
f 109/109/109 116/116/116 115/115/115
f 108/108/108 105/105/105 117/117/117
f 105/105/105 113/113/113 117/117/117
f 110/110/110 111/111/111 118/118/118
f 110/110/110 118/118/118 116/116/116
f 111/111/111 112/112/112 119/119/119
f 111/111/111 119/119/119 118/118/118
f 112/112/112 108/108/108 120/120/120
f 108/108/108 117/117/117 120/120/120
f 112/112/112 120/120/120 119/119/119
f 113/113/113 114/114/114 121/121/121
f 114/114/114 115/115/115 122/122/122
f 114/114/114 122/122/122 121/121/121
f 121/121/121 122/122/122 123/123/123
f 113/113/113 121/121/121 124/124/124
f 117/117/117 113/113/113 124/124/124
f 124/124/124 121/121/121 123/123/123
f 115/115/115 125/125/125 122/122/122
f 122/122/122 125/125/125 123/123/123
f 115/115/115 116/116/116 125/125/125
f 117/117/117 124/124/124 126/126/126
f 120/120/120 117/117/117 126/126/126
f 126/126/126 124/124/124 123/123/123
f 116/116/116 127/127/127 125/125/125
f 125/125/125 127/127/127 123/123/123
f 116/116/116 118/118/118 127/127/127
f 120/120/120 126/126/126 128/128/128
f 128/128/128 126/126/126 123/123/123
f 119/119/119 120/120/120 128/128/128
f 127/127/127 129/129/129 123/123/123
f 118/118/118 129/129/129 127/127/127
f 129/129/129 128/128/128 123/123/123
f 119/119/119 128/128/128 129/129/129
f 118/118/118 119/119/119 129/129/129
f 132/132/132 131/131/131 130/130/130
f 130/130/130 131/131/131 133/133/133
f 131/131/131 134/134/134 133/133/133
f 135/135/135 132/132/132 130/130/130
f 136/136/136 132/132/132 135/135/135
f 133/133/133 134/134/134 137/137/137
f 134/134/134 138/138/138 137/137/137
f 139/139/139 136/136/136 135/135/135
f 140/140/140 136/136/136 139/139/139
f 137/137/137 138/138/138 141/141/141
f 138/138/138 142/142/142 141/141/141
f 143/143/143 140/140/140 139/139/139
f 144/144/144 140/140/140 143/143/143
f 142/142/142 144/144/144 145/145/145
f 141/141/141 142/142/142 145/145/145
f 145/145/145 144/144/144 143/143/143
f 130/130/130 133/133/133 146/146/146
f 135/135/135 130/130/130 147/147/147
f 147/147/147 130/130/130 146/146/146
f 133/133/133 137/137/137 148/148/148
f 146/146/146 133/133/133 148/148/148
f 139/139/139 135/135/135 149/149/149
f 149/149/149 135/135/135 147/147/147
f 137/137/137 141/141/141 150/150/150
f 148/148/148 137/137/137 150/150/150
f 143/143/143 139/139/139 151/151/151
f 151/151/151 139/139/139 149/149/149
f 145/145/145 143/143/143 152/152/152
f 152/152/152 143/143/143 151/151/151
f 141/141/141 145/145/145 153/153/153
f 150/150/150 141/141/141 153/153/153
f 153/153/153 145/145/145 152/152/152
f 147/147/147 146/146/146 154/154/154
f 146/146/146 148/148/148 155/155/155
f 154/154/154 146/146/146 155/155/155
f 149/149/149 147/147/147 156/156/156
f 156/156/156 147/147/147 154/154/154
f 151/151/151 149/149/149 157/157/157
f 157/157/157 149/149/149 156/156/156
f 148/148/148 150/150/150 158/158/158
f 155/155/155 148/148/148 158/158/158
f 152/152/152 151/151/151 159/159/159
f 159/159/159 151/151/151 157/157/157
f 153/153/153 152/152/152 160/160/160
f 160/160/160 152/152/152 159/159/159
f 150/150/150 153/153/153 161/161/161
f 158/158/158 150/150/150 161/161/161
f 161/161/161 153/153/153 160/160/160
f 156/156/156 154/154/154 162/162/162
f 154/154/154 155/155/155 163/163/163
f 162/162/162 154/154/154 163/163/163
f 162/162/162 163/163/163 164/164/164
f 165/165/165 156/156/156 162/162/162
f 157/157/157 156/156/156 165/165/165
f 165/165/165 162/162/162 164/164/164
f 163/163/163 155/155/155 166/166/166
f 155/155/155 158/158/158 166/166/166
f 163/163/163 166/166/166 164/164/164
f 167/167/167 157/157/157 165/165/165
f 167/167/167 165/165/165 164/164/164
f 159/159/159 157/157/157 167/167/167
f 166/166/166 158/158/158 168/168/168
f 158/158/158 161/161/161 168/168/168
f 166/166/166 168/168/168 164/164/164
f 169/169/169 159/159/159 167/167/167
f 169/169/169 167/167/167 164/164/164
f 160/160/160 159/159/159 169/169/169
f 161/161/161 160/160/160 170/170/170
f 168/168/168 161/161/161 170/170/170
f 168/168/168 170/170/170 164/164/164
f 170/170/170 169/169/169 164/164/164
f 170/170/170 160/160/160 169/169/169
