g Glove01
v -2.469667E-07 -0.4124106 -5.084889E-09
v 0.1336313 -0.3711696 -5.084889E-09
v 0.1336313 -0.3214422 -0.1855848
v -2.547706E-07 -0.3571581 -0.2062053
v 0.1336313 -0.1855848 -0.3214422
v -2.760909E-07 -0.2062053 -0.357158
v 0.1336313 -1.245E-07 -0.3711695
v -3.052151E-07 -1.330066E-07 -0.4124105
v 0.1336312 0.1855846 -0.3214422
v -3.343392E-07 0.2062051 -0.357158
v 0.1336312 0.3214421 -0.1855848
v -3.556595E-07 0.3571578 -0.2062054
v 0.1336313 -1.245E-07 -0.3711695
v 0.1336313 0.1443436 -0.2500106
v 0.1336313 -1.182727E-07 -0.2886873
v 0.1336313 -0.1855848 -0.3214422
v 0.1336313 -1.245E-07 -0.3711695
v 0.1336313 -0.1443438 -0.2500106
v 0.1336313 -0.3214422 -0.1855848
v 0.1336313 -0.2500107 -0.1443437
v 0.1336313 -0.3711696 -5.084889E-09
v 0.1336313 -0.2500107 -0.1443437
v 0.1336313 -0.3214422 -0.1855848
v 0.1336313 -0.2886875 -5.084889E-09
v -2.702661E-07 -0.2474464 -5.084889E-09
v -2.749484E-07 -0.2142949 -0.1237232
v 0.1336313 -0.2500107 -0.1443437
v -2.702661E-07 -0.2474464 -5.084889E-09
v -0.1336319 -0.2500107 -0.1443437
v -2.749484E-07 -0.2142949 -0.1237232
v -0.1336319 -0.2886875 -5.084889E-09
v -0.1336318 -0.3711696 -5.084889E-09
v -0.1336318 -0.3214422 -0.1855848
v -0.1336319 -0.2500107 -0.1443437
v -0.1336318 -0.3711696 -5.084889E-09
v -2.469667E-07 -0.4124106 -5.084889E-09
v -2.547706E-07 -0.3571581 -0.2062053
v -0.1336318 -0.3214422 -0.1855848
v -2.760909E-07 -0.2062053 -0.357158
v -0.1336319 -0.1855848 -0.3214422
v -0.1336319 -0.1855848 -0.3214422
v -3.052151E-07 -1.330066E-07 -0.4124105
v -0.1336319 -1.352859E-07 -0.3711695
v -3.343392E-07 0.2062051 -0.357158
v -0.1336319 0.1855846 -0.3214422
v -3.556595E-07 0.3571578 -0.2062054
v -0.1336319 0.3214421 -0.1855848
v 0.1336313 -0.2500107 -0.1443437
v -2.749484E-07 -0.2142949 -0.1237232
v -2.877406E-07 -0.1237233 -0.2142948
v 0.1336313 -0.1443438 -0.2500106
v -3.052151E-07 -1.205522E-07 -0.2474463
v 0.1336313 -1.182727E-07 -0.2886873
v -0.1336319 -1.290587E-07 -0.2886873
v -0.1336319 0.1443435 -0.2500106
v -3.226895E-07 0.123723 -0.2142949
v -0.1336319 0.2500105 -0.1443438
v -3.354818E-07 0.2142947 -0.1237232
v -0.1336319 0.3214421 -0.1855848
v -0.1336319 0.1855846 -0.3214422
v -0.133632 0.3711694 -3.753356E-08
v -0.1336319 0.2886873 -3.032275E-08
v -3.634634E-07 0.4124104 -4.113897E-08
v -3.556595E-07 0.3571578 -0.2062054
v -2.877406E-07 -0.1237233 -0.2142948
v -0.1336319 -1.290587E-07 -0.2886873
v -0.1336319 -0.1443438 -0.2500106
v 0.1336313 -1.182727E-07 -0.2886873
v -3.226895E-07 0.123723 -0.2142949
v 0.1336313 0.1443436 -0.2500106
v -2.749484E-07 -0.2142949 -0.1237232
v -0.1336319 -0.2500107 -0.1443437
v -2.877406E-07 -0.1237233 -0.2142948
v -3.226895E-07 0.123723 -0.2142949
v -3.354818E-07 0.2142947 -0.1237232
v 0.1336312 0.2500105 -0.1443438
v 0.1336312 0.1855846 -0.3214422
v 0.1336312 0.3214421 -0.1855848
v 0.1336312 0.2886873 -3.032275E-08
v 0.1336312 0.3711694 -3.753356E-08
v -3.556595E-07 0.3571578 -0.2062054
v -3.634634E-07 0.4124104 -4.113897E-08
v -0.1336319 -0.2500107 -0.1443437
v -0.1336318 -0.3214422 -0.1855848
v -0.1336319 -0.1855848 -0.3214422
v -0.1336319 -0.1443438 -0.2500106
v -0.1336319 -0.1443438 -0.2500106
v -0.1336319 -1.352859E-07 -0.3711695
v -0.1336319 -1.290587E-07 -0.2886873
v -0.1336319 -1.352859E-07 -0.3711695
v -0.1336319 0.1855846 -0.3214422
v -0.1336319 0.1443435 -0.2500106
v 0.1336312 0.2500105 -0.1443438
v -3.354818E-07 0.2142947 -0.1237232
v -3.40164E-07 0.2474462 -2.671733E-08
v 0.1336312 0.2886873 -3.032275E-08
v -3.354818E-07 0.2142947 -0.1237232
v -0.1336319 0.2500105 -0.1443438
v -0.1336319 0.2886873 -3.032275E-08
v -3.40164E-07 0.2474462 -2.671733E-08
v -3.634634E-07 0.4124104 -4.113897E-08
v 0.1336312 0.3214421 0.1855846
v -3.556596E-07 0.3571579 0.2062052
v 0.1336312 0.3711694 -3.753356E-08
v 0.1336312 0.2886873 -3.032275E-08
v 0.1336312 0.2500105 0.1443436
v 0.1336312 0.3214421 0.1855846
v 0.1336312 0.2886873 -3.032275E-08
v -3.40164E-07 0.2474462 -2.671733E-08
v -3.354818E-07 0.2142947 0.1237231
v 0.1336312 0.2500105 0.1443436
v -3.40164E-07 0.2474462 -2.671733E-08
v -0.1336319 0.2886873 -3.032275E-08
v -0.1336319 0.2500105 0.1443436
v -3.354818E-07 0.2142947 0.1237231
v -0.1336319 0.2886873 -3.032275E-08
v -0.1336319 0.3214421 0.1855846
v -0.1336319 0.2500105 0.1443436
v -0.133632 0.3711694 -3.753356E-08
v -3.634634E-07 0.4124104 -4.113897E-08
v -3.556596E-07 0.3571579 0.2062052
v -0.1336319 0.3214421 0.1855846
v -3.556596E-07 0.3571579 0.2062052
v 0.1336312 0.3214421 0.1855846
v 0.1336312 0.1855846 0.3214422
v -3.343392E-07 0.2062051 0.357158
v 0.1336313 -1.245E-07 0.3711695
v -3.052151E-07 -1.330066E-07 0.4124105
v 0.1336313 -0.1855848 0.3214422
v -2.760909E-07 -0.2062053 0.357158
v 0.1336313 -0.3214422 0.1855848
v -2.547706E-07 -0.3571581 0.2062053
v 0.1336313 -0.3711696 -5.084889E-09
v -2.469667E-07 -0.4124106 -5.084889E-09
v 0.1336313 0.1443436 0.2500106
v 0.1336313 -1.182727E-07 0.2886874
v 0.1336313 -1.245E-07 0.3711695
v 0.1336313 -1.245E-07 0.3711695
v 0.1336313 -0.1443438 0.2500106
v 0.1336313 -0.1855848 0.3214422
v 0.1336313 -0.2500107 0.1443437
v 0.1336313 -0.3214422 0.1855848
v 0.1336313 0.1443436 0.2500106
v -3.052151E-07 -1.205522E-07 0.2474463
v -3.226895E-07 0.123723 0.2142948
v 0.1336312 0.2500105 0.1443436
v -3.354818E-07 0.2142947 0.1237231
v 0.1336312 0.3214421 0.1855846
v 0.1336312 0.2500105 0.1443436
v 0.1336312 0.1855846 0.3214422
v -0.1336319 -1.290587E-07 0.2886874
v -0.1336319 -0.1443438 0.2500106
v -2.877406E-07 -0.1237233 0.2142948
v -0.1336319 -0.2500107 0.1443437
v -2.749484E-07 -0.2142949 0.1237232
v -3.226895E-07 0.123723 0.2142948
v -0.1336319 -1.290587E-07 0.2886874
v -0.1336319 0.1443435 0.2500106
v 0.1336313 -1.182727E-07 0.2886874
v -2.877406E-07 -0.1237233 0.2142948
v 0.1336313 -0.1443438 0.2500106
v -2.877406E-07 -0.1237233 0.2142948
v -2.749484E-07 -0.2142949 0.1237232
v 0.1336313 -0.2500107 0.1443437
v -3.354818E-07 0.2142947 0.1237231
v -0.1336319 0.2500105 0.1443436
v -3.226895E-07 0.123723 0.2142948
v -0.1336319 0.2500105 0.1443436
v -0.1336319 0.1855846 0.3214422
v -0.1336319 0.3214421 0.1855846
v -0.1336319 0.3214421 0.1855846
v -3.556596E-07 0.3571579 0.2062052
v -3.343392E-07 0.2062051 0.357158
v -0.1336319 0.1855846 0.3214422
v -3.052151E-07 -1.330066E-07 0.4124105
v -0.1336319 -1.352859E-07 0.3711695
v -2.760909E-07 -0.2062053 0.357158
v -0.1336319 -0.1855848 0.3214422
v -2.547706E-07 -0.3571581 0.2062053
v -0.1336318 -0.3214422 0.1855848
v -2.469667E-07 -0.4124106 -5.084889E-09
v -0.1336318 -0.3711696 -5.084889E-09
v -0.1336319 0.1443435 0.2500106
v -0.1336319 -1.352859E-07 0.3711695
v -0.1336319 -1.290587E-07 0.2886874
v -0.1336319 -1.352859E-07 0.3711695
v -0.1336319 -0.1855848 0.3214422
v -0.1336319 -0.1443438 0.2500106
v -0.1336318 -0.3214422 0.1855848
v -0.1336319 -0.2500107 0.1443437
v 0.1336313 -0.3214422 0.1855848
v 0.1336313 -0.2500107 0.1443437
v 0.1336313 -0.2886875 -5.084889E-09
v 0.1336313 -0.3711696 -5.084889E-09
v 0.1336313 -0.2500107 0.1443437
v -2.702661E-07 -0.2474464 -5.084889E-09
v -2.749484E-07 -0.2142949 0.1237232
v -2.749484E-07 -0.2142949 0.1237232
v -0.1336319 -0.2500107 0.1443437
v -0.1336319 -0.2886875 -5.084889E-09
v -2.702661E-07 -0.2474464 -5.084889E-09
v -0.1336319 -0.2500107 0.1443437
v -0.1336318 -0.3711696 -5.084889E-09
v -0.1336318 -0.3214422 0.1855848
vt 0.06219482 0.8222656
vt 0.06262207 0.824707
vt 0.06311035 0.8276367
vt 0.06274414 0.8251953
vt 0.0645752 0.8354492
vt 0.06433105 0.8339844
vt 0.06646729 0.8461914
vt 0.06646729 0.8461914
vt 0.06842041 0.8569336
vt 0.06860352 0.8583984
vt 0.06982422 0.8647461
vt 0.07019043 0.8671875
vt 0.06646729 0.8461914
vt 0.06799316 0.8544922
vt 0.06646729 0.8461914
vt 0.0645752 0.8354492
vt 0.06646729 0.8461914
vt 0.06500244 0.8378906
vt 0.06311035 0.8276367
vt 0.06390381 0.831543
vt 0.06262207 0.824707
vt 0.06390381 0.831543
vt 0.06311035 0.8276367
vt 0.06347656 0.8295898
vt 0.06390381 0.831543
vt 0.06427002 0.8334961
vt 0.06390381 0.831543
vt 0.06390381 0.831543
vt 0.06390381 0.831543
vt 0.06427002 0.8334961
vt 0.06347656 0.8295898
vt 0.06262207 0.824707
vt 0.06311035 0.8276367
vt 0.06390381 0.831543
vt 0.06262207 0.824707
vt 0.06219482 0.8222656
vt 0.06274414 0.8251953
vt 0.06311035 0.8276367
vt 0.06433105 0.8339844
vt 0.0645752 0.8354492
vt 0.0645752 0.8354492
vt 0.06646729 0.8461914
vt 0.06646729 0.8461914
vt 0.06860352 0.8583984
vt 0.06842041 0.8569336
vt 0.07019043 0.8671875
vt 0.06982422 0.8647461
vt 0.06390381 0.831543
vt 0.06427002 0.8334961
vt 0.06518555 0.8388672
vt 0.06500244 0.8378906
vt 0.06646729 0.8461914
vt 0.06646729 0.8461914
vt 0.06646729 0.8461914
vt 0.06799316 0.8544922
vt 0.06774902 0.8535156
vt 0.0690918 0.8608398
vt 0.06872559 0.8588867
vt 0.06982422 0.8647461
vt 0.06842041 0.8569336
vt 0.0703125 0.8676758
vt 0.06945801 0.862793
vt 0.07080078 0.8701172
vt 0.07019043 0.8671875
vt 0.06518555 0.8388672
vt 0.06646729 0.8461914
vt 0.06500244 0.8378906
vt 0.06646729 0.8461914
vt 0.06774902 0.8535156
vt 0.06799316 0.8544922
vt 0.06427002 0.8334961
vt 0.06390381 0.831543
vt 0.06518555 0.8388672
vt 0.06774902 0.8535156
vt 0.06872559 0.8588867
vt 0.0690918 0.8608398
vt 0.06842041 0.8569336
vt 0.06982422 0.8647461
vt 0.06945801 0.862793
vt 0.0703125 0.8676758
vt 0.07019043 0.8671875
vt 0.07080078 0.8701172
vt 0.06390381 0.831543
vt 0.06311035 0.8276367
vt 0.0645752 0.8354492
vt 0.06500244 0.8378906
vt 0.06500244 0.8378906
vt 0.06646729 0.8461914
vt 0.06646729 0.8461914
vt 0.06646729 0.8461914
vt 0.06842041 0.8569336
vt 0.06799316 0.8544922
vt 0.0690918 0.8608398
vt 0.06872559 0.8588867
vt 0.06903076 0.8608398
vt 0.06945801 0.862793
vt 0.06872559 0.8588867
vt 0.0690918 0.8608398
vt 0.06945801 0.862793
vt 0.06903076 0.8608398
vt 0.07080078 0.8701172
vt 0.06982422 0.8647461
vt 0.07019043 0.8671875
vt 0.0703125 0.8676758
vt 0.06945801 0.862793
vt 0.0690918 0.8608398
vt 0.06982422 0.8647461
vt 0.06945801 0.862793
vt 0.06903076 0.8608398
vt 0.06872559 0.8588867
vt 0.0690918 0.8608398
vt 0.06903076 0.8608398
vt 0.06945801 0.862793
vt 0.0690918 0.8608398
vt 0.06872559 0.8588867
vt 0.06945801 0.862793
vt 0.06982422 0.8647461
vt 0.0690918 0.8608398
vt 0.0703125 0.8676758
vt 0.07080078 0.8701172
vt 0.07019043 0.8671875
vt 0.06982422 0.8647461
vt 0.07019043 0.8671875
vt 0.06982422 0.8647461
vt 0.06842041 0.8569336
vt 0.06860352 0.8583984
vt 0.06646729 0.8461914
vt 0.06646729 0.8461914
vt 0.0645752 0.8354492
vt 0.06433105 0.8339844
vt 0.06311035 0.8276367
vt 0.06274414 0.8251953
vt 0.06262207 0.824707
vt 0.06219482 0.8222656
vt 0.06799316 0.8544922
vt 0.06646729 0.8461914
vt 0.06646729 0.8461914
vt 0.06646729 0.8461914
vt 0.06500244 0.8378906
vt 0.0645752 0.8354492
vt 0.06390381 0.831543
vt 0.06311035 0.8276367
vt 0.06799316 0.8544922
vt 0.06646729 0.8461914
vt 0.06774902 0.8535156
vt 0.0690918 0.8608398
vt 0.06872559 0.8588867
vt 0.06982422 0.8647461
vt 0.0690918 0.8608398
vt 0.06842041 0.8569336
vt 0.06646729 0.8461914
vt 0.06500244 0.8378906
vt 0.06518555 0.8388672
vt 0.06390381 0.831543
vt 0.06427002 0.8334961
vt 0.06774902 0.8535156
vt 0.06646729 0.8461914
vt 0.06799316 0.8544922
vt 0.06646729 0.8461914
vt 0.06518555 0.8388672
vt 0.06500244 0.8378906
vt 0.06518555 0.8388672
vt 0.06427002 0.8334961
vt 0.06390381 0.831543
vt 0.06872559 0.8588867
vt 0.0690918 0.8608398
vt 0.06774902 0.8535156
vt 0.0690918 0.8608398
vt 0.06842041 0.8569336
vt 0.06982422 0.8647461
vt 0.06982422 0.8647461
vt 0.07019043 0.8671875
vt 0.06860352 0.8583984
vt 0.06842041 0.8569336
vt 0.06646729 0.8461914
vt 0.06646729 0.8461914
vt 0.06433105 0.8339844
vt 0.0645752 0.8354492
vt 0.06274414 0.8251953
vt 0.06311035 0.8276367
vt 0.06219482 0.8222656
vt 0.06262207 0.824707
vt 0.06799316 0.8544922
vt 0.06646729 0.8461914
vt 0.06646729 0.8461914
vt 0.06646729 0.8461914
vt 0.0645752 0.8354492
vt 0.06500244 0.8378906
vt 0.06311035 0.8276367
vt 0.06390381 0.831543
vt 0.06311035 0.8276367
vt 0.06390381 0.831543
vt 0.06347656 0.8295898
vt 0.06262207 0.824707
vt 0.06390381 0.831543
vt 0.06390381 0.831543
vt 0.06427002 0.8334961
vt 0.06427002 0.8334961
vt 0.06390381 0.831543
vt 0.06347656 0.8295898
vt 0.06390381 0.831543
vt 0.06390381 0.831543
vt 0.06262207 0.824707
vt 0.06311035 0.8276367
vn 0 -1 0
vn 0.7592773 -0.6508789 0
vn 0.7592773 -0.5634766 -0.3251953
vn 0 -0.8662109 -0.5
vn 0.7592773 -0.3251953 -0.5634766
vn 0 -0.5 -0.8662109
vn 0.7592773 0 -0.6508789
vn 0 0 -1
vn 0.7592773 0.3251953 -0.5634766
vn 0 0.5 -0.8662109
vn 0.7592773 0.5634766 -0.3251953
vn 0 0.8662109 -0.5
vn 0.7592773 0 -0.6508789
vn 0.8530273 -0.2609863 0.4521484
vn 0.8530273 0 0.5219727
vn 0.7592773 -0.3251953 -0.5634766
vn 0.7592773 0 -0.6508789
vn 0.8530273 0.2609863 0.4521484
vn 0.7592773 -0.5634766 -0.3251953
vn 0.8530273 0.4521484 0.2609863
vn 0.7592773 -0.6508789 0
vn 0.8530273 0.4521484 0.2609863
vn 0.7592773 -0.5634766 -0.3251953
vn 0.8530273 0.5219727 0
vn 0 1 0
vn 0 0.8662109 0.5
vn 0.8530273 0.4521484 0.2609863
vn 0 1 0
vn -0.8530273 0.4521484 0.2609863
vn 0 0.8662109 0.5
vn -0.8530273 0.5219727 0
vn -0.7592773 -0.6508789 0
vn -0.7592773 -0.5634766 -0.3251953
vn -0.8530273 0.4521484 0.2609863
vn -0.7592773 -0.6508789 0
vn 0 -1 0
vn 0 -0.8662109 -0.5
vn -0.7592773 -0.5634766 -0.3251953
vn 0 -0.5 -0.8662109
vn -0.7592773 -0.3251953 -0.5634766
vn -0.7592773 -0.3251953 -0.5634766
vn 0 0 -1
vn -0.7592773 0 -0.6508789
vn 0 0.5 -0.8662109
vn -0.7592773 0.3251953 -0.5634766
vn 0 0.8662109 -0.5
vn -0.7592773 0.5634766 -0.3251953
vn 0.8530273 0.4521484 0.2609863
vn 0 0.8662109 0.5
vn 0 0.5 0.8662109
vn 0.8530273 0.2609863 0.4521484
vn 0 0 1
vn 0.8530273 0 0.5219727
vn -0.8530273 0 0.5219727
vn -0.8530273 -0.2609863 0.4521484
vn 0 -0.5 0.8662109
vn -0.8530273 -0.4521484 0.2609863
vn 0 -0.8662109 0.5
vn -0.7592773 0.5634766 -0.3251953
vn -0.7592773 0.3251953 -0.5634766
vn -0.7592773 0.6508789 0
vn -0.8530273 -0.5219727 0
vn 0 1 0
vn 0 0.8662109 -0.5
vn 0 0.5 0.8662109
vn -0.8530273 0 0.5219727
vn -0.8530273 0.2609863 0.4521484
vn 0.8530273 0 0.5219727
vn 0 -0.5 0.8662109
vn 0.8530273 -0.2609863 0.4521484
vn 0 0.8662109 0.5
vn -0.8530273 0.4521484 0.2609863
vn 0 0.5 0.8662109
vn 0 -0.5 0.8662109
vn 0 -0.8662109 0.5
vn 0.8530273 -0.4521484 0.2609863
vn 0.7592773 0.3251953 -0.5634766
vn 0.7592773 0.5634766 -0.3251953
vn 0.8530273 -0.5219727 0
vn 0.7592773 0.6508789 0
vn 0 0.8662109 -0.5
vn 0 1 0
vn -0.8530273 0.4521484 0.2609863
vn -0.7592773 -0.5634766 -0.3251953
vn -0.7592773 -0.3251953 -0.5634766
vn -0.8530273 0.2609863 0.4521484
vn -0.8530273 0.2609863 0.4521484
vn -0.7592773 0 -0.6508789
vn -0.8530273 0 0.5219727
vn -0.7592773 0 -0.6508789
vn -0.7592773 0.3251953 -0.5634766
vn -0.8530273 -0.2609863 0.4521484
vn 0.8530273 -0.4521484 0.2609863
vn 0 -0.8662109 0.5
vn 0 -1 0
vn 0.8530273 -0.5219727 0
vn 0 -0.8662109 0.5
vn -0.8530273 -0.4521484 0.2609863
vn -0.8530273 -0.5219727 0
vn 0 -1 0
vn 0 1 0
vn 0.7592773 0.5634766 0.3251953
vn 0 0.8662109 0.5
vn 0.7592773 0.6508789 0
vn 0.8530273 -0.5219727 0
vn 0.8530273 -0.4521484 -0.2609863
vn 0.7592773 0.5634766 0.3251953
vn 0.8530273 -0.5219727 0
vn 0 -1 0
vn 0 -0.8662109 -0.5
vn 0.8530273 -0.4521484 -0.2609863
vn 0 -1 0
vn -0.8530273 -0.5219727 0
vn -0.8530273 -0.4521484 -0.2609863
vn 0 -0.8662109 -0.5
vn -0.8530273 -0.5219727 0
vn -0.7592773 0.5634766 0.3251953
vn -0.8530273 -0.4521484 -0.2609863
vn -0.7592773 0.6508789 0
vn 0 1 0
vn 0 0.8662109 0.5
vn -0.7592773 0.5634766 0.3251953
vn 0 0.8662109 0.5
vn 0.7592773 0.5634766 0.3251953
vn 0.7592773 0.3251953 0.5634766
vn 0 0.5 0.8662109
vn 0.7592773 0 0.6508789
vn 0 0 1
vn 0.7592773 -0.3251953 0.5634766
vn 0 -0.5 0.8662109
vn 0.7592773 -0.5634766 0.3251953
vn 0 -0.8662109 0.5
vn 0.7592773 -0.6508789 0
vn 0 -1 0
vn 0.8530273 -0.2609863 -0.4521484
vn 0.8530273 0 -0.5219727
vn 0.7592773 0 0.6508789
vn 0.7592773 0 0.6508789
vn 0.8530273 0.2609863 -0.4521484
vn 0.7592773 -0.3251953 0.5634766
vn 0.8530273 0.4521484 -0.2609863
vn 0.7592773 -0.5634766 0.3251953
vn 0.8530273 -0.2609863 -0.4521484
vn 0 0 -1
vn 0 -0.5 -0.8662109
vn 0.8530273 -0.4521484 -0.2609863
vn 0 -0.8662109 -0.5
vn 0.7592773 0.5634766 0.3251953
vn 0.8530273 -0.4521484 -0.2609863
vn 0.7592773 0.3251953 0.5634766
vn -0.8530273 0 -0.5219727
vn -0.8530273 0.2609863 -0.4521484
vn 0 0.5 -0.8662109
vn -0.8530273 0.4521484 -0.2609863
vn 0 0.8662109 -0.5
vn 0 -0.5 -0.8662109
vn -0.8530273 0 -0.5219727
vn -0.8530273 -0.2609863 -0.4521484
vn 0.8530273 0 -0.5219727
vn 0 0.5 -0.8662109
vn 0.8530273 0.2609863 -0.4521484
vn 0 0.5 -0.8662109
vn 0 0.8662109 -0.5
vn 0.8530273 0.4521484 -0.2609863
vn 0 -0.8662109 -0.5
vn -0.8530273 -0.4521484 -0.2609863
vn 0 -0.5 -0.8662109
vn -0.8530273 -0.4521484 -0.2609863
vn -0.7592773 0.3251953 0.5634766
vn -0.7592773 0.5634766 0.3251953
vn -0.7592773 0.5634766 0.3251953
vn 0 0.8662109 0.5
vn 0 0.5 0.8662109
vn -0.7592773 0.3251953 0.5634766
vn 0 0 1
vn -0.7592773 0 0.6508789
vn 0 -0.5 0.8662109
vn -0.7592773 -0.3251953 0.5634766
vn 0 -0.8662109 0.5
vn -0.7592773 -0.5634766 0.3251953
vn 0 -1 0
vn -0.7592773 -0.6508789 0
vn -0.8530273 -0.2609863 -0.4521484
vn -0.7592773 0 0.6508789
vn -0.8530273 0 -0.5219727
vn -0.7592773 0 0.6508789
vn -0.7592773 -0.3251953 0.5634766
vn -0.8530273 0.2609863 -0.4521484
vn -0.7592773 -0.5634766 0.3251953
vn -0.8530273 0.4521484 -0.2609863
vn 0.7592773 -0.5634766 0.3251953
vn 0.8530273 0.4521484 -0.2609863
vn 0.8530273 0.5219727 0
vn 0.7592773 -0.6508789 0
vn 0.8530273 0.4521484 -0.2609863
vn 0 1 0
vn 0 0.8662109 -0.5
vn 0 0.8662109 -0.5
vn -0.8530273 0.4521484 -0.2609863
vn -0.8530273 0.5219727 0
vn 0 1 0
vn -0.8530273 0.4521484 -0.2609863
vn -0.7592773 -0.6508789 0
vn -0.7592773 -0.5634766 0.3251953
g Glove01_0
f 3/3/3 2/2/2 1/1/1
f 4/4/4 3/3/3 1/1/1
f 5/5/5 3/3/3 4/4/4
f 6/6/6 5/5/5 4/4/4
f 7/7/7 5/5/5 6/6/6
f 8/8/8 7/7/7 6/6/6
f 9/9/9 7/7/7 8/8/8
f 10/10/10 9/9/9 8/8/8
f 11/11/11 9/9/9 10/10/10
f 12/12/12 11/11/11 10/10/10
f 9/9/9 14/14/14 13/13/13
f 14/14/14 15/15/15 13/13/13
f 17/17/17 15/15/15 16/16/16
f 15/15/15 18/18/18 16/16/16
f 16/16/16 18/18/18 19/19/19
f 18/18/18 20/20/20 19/19/19
f 23/23/23 22/22/22 21/21/21
f 22/22/22 24/24/24 21/21/21
f 26/26/26 25/25/25 24/24/24
f 27/27/27 26/26/26 24/24/24
f 30/30/30 29/29/29 28/28/28
f 29/29/29 31/31/31 28/28/28
f 33/33/33 32/32/32 31/31/31
f 34/34/34 33/33/33 31/31/31
f 37/37/37 36/36/36 35/35/35
f 38/38/38 37/37/37 35/35/35
f 39/39/39 37/37/37 38/38/38
f 40/40/40 39/39/39 38/38/38
f 42/42/42 39/39/39 41/41/41
f 43/43/43 42/42/42 41/41/41
f 44/44/44 42/42/42 43/43/43
f 45/45/45 44/44/44 43/43/43
f 46/46/46 44/44/44 45/45/45
f 47/47/47 46/46/46 45/45/45
f 50/50/50 49/49/49 48/48/48
f 51/51/51 50/50/50 48/48/48
f 52/52/52 50/50/50 51/51/51
f 53/53/53 52/52/52 51/51/51
f 55/55/55 54/54/54 52/52/52
f 56/56/56 55/55/55 52/52/52
f 57/57/57 55/55/55 56/56/56
f 58/58/58 57/57/57 56/56/56
f 57/57/57 59/59/59 55/55/55
f 59/59/59 60/60/60 55/55/55
f 61/61/61 59/59/59 57/57/57
f 62/62/62 61/61/61 57/57/57
f 61/61/61 63/63/63 59/59/59
f 63/63/63 64/64/64 59/59/59
f 52/52/52 66/66/66 65/65/65
f 66/66/66 67/67/67 65/65/65
f 69/69/69 52/52/52 68/68/68
f 70/70/70 69/69/69 68/68/68
f 67/67/67 72/72/72 71/71/71
f 73/73/73 67/67/67 71/71/71
f 75/75/75 74/74/74 70/70/70
f 76/76/76 75/75/75 70/70/70
f 76/76/76 70/70/70 77/77/77
f 78/78/78 76/76/76 77/77/77
f 79/79/79 76/76/76 78/78/78
f 80/80/80 79/79/79 78/78/78
f 80/80/80 78/78/78 81/81/81
f 82/82/82 80/80/80 81/81/81
f 85/85/85 84/84/84 83/83/83
f 86/86/86 85/85/85 83/83/83
f 88/88/88 85/85/85 87/87/87
f 89/89/89 88/88/88 87/87/87
f 91/91/91 90/90/90 89/89/89
f 92/92/92 91/91/91 89/89/89
f 95/95/95 94/94/94 93/93/93
f 96/96/96 95/95/95 93/93/93
f 99/99/99 98/98/98 97/97/97
f 100/100/100 99/99/99 97/97/97
f 103/103/103 102/102/102 101/101/101
f 102/102/102 104/104/104 101/101/101
f 106/106/106 105/105/105 104/104/104
f 107/107/107 106/106/106 104/104/104
f 110/110/110 109/109/109 108/108/108
f 111/111/111 110/110/110 108/108/108
f 114/114/114 113/113/113 112/112/112
f 115/115/115 114/114/114 112/112/112
f 118/118/118 117/117/117 116/116/116
f 117/117/117 119/119/119 116/116/116
f 121/121/121 120/120/120 119/119/119
f 122/122/122 121/121/121 119/119/119
f 125/125/125 124/124/124 123/123/123
f 126/126/126 125/125/125 123/123/123
f 127/127/127 125/125/125 126/126/126
f 128/128/128 127/127/127 126/126/126
f 129/129/129 127/127/127 128/128/128
f 130/130/130 129/129/129 128/128/128
f 131/131/131 129/129/129 130/130/130
f 132/132/132 131/131/131 130/130/130
f 133/133/133 131/131/131 132/132/132
f 134/134/134 133/133/133 132/132/132
f 136/136/136 135/135/135 125/125/125
f 137/137/137 136/136/136 125/125/125
f 139/139/139 136/136/136 138/138/138
f 140/140/140 139/139/139 138/138/138
f 141/141/141 139/139/139 140/140/140
f 142/142/142 141/141/141 140/140/140
f 136/136/136 144/144/144 143/143/143
f 144/144/144 145/145/145 143/143/143
f 143/143/143 145/145/145 146/146/146
f 145/145/145 147/147/147 146/146/146
f 143/143/143 149/149/149 148/148/148
f 150/150/150 143/143/143 148/148/148
f 152/152/152 151/151/151 144/144/144
f 153/153/153 152/152/152 144/144/144
f 154/154/154 152/152/152 153/153/153
f 155/155/155 154/154/154 153/153/153
f 144/144/144 157/157/157 156/156/156
f 157/157/157 158/158/158 156/156/156
f 160/160/160 144/144/144 159/159/159
f 161/161/161 160/160/160 159/159/159
f 163/163/163 162/162/162 161/161/161
f 164/164/164 163/163/163 161/161/161
f 158/158/158 166/166/166 165/165/165
f 167/167/167 158/158/158 165/165/165
f 158/158/158 169/169/169 168/168/168
f 169/169/169 170/170/170 168/168/168
f 173/173/173 172/172/172 171/171/171
f 174/174/174 173/173/173 171/171/171
f 175/175/175 173/173/173 174/174/174
f 176/176/176 175/175/175 174/174/174
f 177/177/177 175/175/175 176/176/176
f 178/178/178 177/177/177 176/176/176
f 179/179/179 177/177/177 178/178/178
f 180/180/180 179/179/179 178/178/178
f 181/181/181 179/179/179 180/180/180
f 182/182/182 181/181/181 180/180/180
f 184/184/184 174/174/174 183/183/183
f 185/185/185 184/184/184 183/183/183
f 187/187/187 186/186/186 185/185/185
f 188/188/188 187/187/187 185/185/185
f 189/189/189 187/187/187 188/188/188
f 190/190/190 189/189/189 188/188/188
f 193/193/193 192/192/192 191/191/191
f 194/194/194 193/193/193 191/191/191
f 193/193/193 196/196/196 195/195/195
f 196/196/196 197/197/197 195/195/195
f 200/200/200 199/199/199 198/198/198
f 201/201/201 200/200/200 198/198/198
f 200/200/200 203/203/203 202/202/202
f 203/203/203 204/204/204 202/202/202
