g Katana_01
v -0.1264564 -0.7973901 0.3003738
v -0.1264564 -0.7973901 -0.3003739
v -0.4682064 -0.7973901 -0.157973
v 0.1264564 -0.7973901 0.3003738
v 0.5438436 -0.7973901 0.0445158
v 0.5438436 -0.7973901 -0.0445158
v 0.1264564 -0.7973901 0.3003738
v 0.4682064 -0.7973901 0.157973
v 0.5438436 -0.7973901 0.0445158
v -0.1264564 -0.7973901 -0.3003739
v -0.1264564 -0.7973901 0.3003738
v 0.1264564 -0.7973901 -0.3003739
v 0.4682064 -0.7973901 -0.157973
v 0.5438436 -0.7973901 -0.0445158
v 0.1264564 -0.5597823 -0.05228194
v 0.4682064 -0.5597822 -0.157973
v 0.5438436 -0.5597822 -0.0445158
v 0.5438436 -0.5597822 -0.0445158
v 0.1264564 -0.5597823 0.05228196
v 0.1264564 -0.5597823 -0.05228194
v 0.5438436 -0.5597822 -0.0445158
v 0.5438436 -0.5597822 0.0445158
v 0.1264564 -0.5597823 0.05228196
v 0.5438436 -0.5597822 0.0445158
v 0.4682064 -0.5597822 0.157973
v 0.1264564 -0.5597823 0.05228196
v -0.1264564 -0.5597821 0.3003739
v 0.1264564 -0.5597821 0.3003739
v 0.1264564 -0.7973901 0.3003738
v -0.1264564 -0.7973901 0.3003738
v 0.5438436 -0.5597822 0.0445158
v 0.5438436 -0.5597822 -0.0445158
v 0.5438436 -0.7973901 -0.0445158
v 0.5438436 -0.7973901 0.0445158
v 0.1264564 -0.5597822 -0.3003738
v -0.1264564 -0.5597822 -0.3003738
v -0.1264564 -0.7973901 -0.3003739
v 0.1264564 -0.7973901 -0.3003739
v 0.4682064 -0.5597822 -0.157973
v 0.4682064 -0.7973901 -0.157973
v 0.5438436 -0.7973901 -0.0445158
v 0.5438436 -0.5597822 -0.0445158
v 0.4682064 -0.5597822 -0.157973
v -0.1264564 0.1304406 -0.05228195
v -0.1264564 -0.5597823 0.05228196
v -0.1264564 -0.5597823 -0.05228194
v -0.1264564 0.1304406 0.05228196
v -0.05228196 -0.5597823 0.1264564
v -0.05228196 0.1304406 0.1264564
v -0.1264564 -0.5597822 -0.3003738
v -0.4682064 -0.5597822 -0.157973
v -0.4682064 -0.7973901 -0.157973
v -0.1264564 -0.7973901 -0.3003739
v -0.4682064 -0.7973901 -0.157973
v -0.5438436 -0.7973901 -0.0445158
v -0.1264564 -0.7973901 0.3003738
v -0.5438436 -0.7973901 0.0445158
v -0.4682064 -0.7973901 0.157973
v 0.1264564 -0.5597821 0.3003739
v 0.4682064 -0.5597822 0.157973
v 0.4682064 -0.7973901 0.157973
v 0.1264564 -0.7973901 0.3003738
v -0.1264564 -0.7973901 0.3003738
v -0.4682064 -0.5597822 0.157973
v -0.1264564 -0.5597821 0.3003739
v -0.4682064 -0.7973901 0.157973
v -0.5438436 -0.5597822 0.0445158
v -0.5438436 -0.7973901 0.0445158
v -0.05228196 0.1304406 0.1264564
v 0.05228195 -0.5597823 0.1264564
v -0.05228196 -0.5597823 0.1264564
v 0.05228196 0.1304406 0.1264564
v 0.1264564 -0.5597823 0.05228196
v 0.1264564 0.1304406 0.05228195
v 0.1264564 0.1304406 0.05228195
v 0.1264564 0.1304406 -0.05228196
v 0.1264564 -0.5597823 -0.05228194
v 0.1264564 -0.5597823 0.05228196
v -0.1264564 0.1304406 -0.05228195
v -0.05228196 0.1304406 -0.1264564
v 0.05228195 0.1304406 -0.1264564
v 0.1264564 0.1304406 -0.05228196
v 0.1264564 0.1304406 0.05228195
v 0.1264564 0.1304406 0.05228195
v -0.1264564 0.1304406 0.05228196
v -0.1264564 0.1304406 -0.05228195
v 0.05228196 0.1304406 0.1264564
v -0.05228196 0.1304406 0.1264564
v -0.1264564 -0.5597823 -0.05228194
v -0.05228195 -0.5597823 -0.1264564
v -0.05228196 0.1304406 -0.1264564
v -0.1264564 0.1304406 -0.05228195
v 0.1264564 0.1304406 -0.05228196
v 0.05228195 0.1304406 -0.1264564
v 0.05228196 -0.5597823 -0.1264564
v 0.1264564 -0.5597823 -0.05228194
v 0.05228195 0.1304406 -0.1264564
v -0.05228196 0.1304406 -0.1264564
v -0.05228195 -0.5597823 -0.1264564
v 0.05228196 -0.5597823 -0.1264564
v -0.5438436 -0.7973901 -0.0445158
v -0.4682064 -0.7973901 -0.157973
v -0.4682064 -0.5597822 -0.157973
v -0.5438436 -0.5597822 -0.0445158
v -0.5438436 -0.7973901 0.0445158
v -0.5438436 -0.5597822 0.0445158
v 0.5438436 -0.7973901 0.0445158
v 0.4682064 -0.7973901 0.157973
v 0.4682064 -0.5597822 0.157973
v 0.5438436 -0.5597822 0.0445158
v -0.05228196 -0.5597823 0.1264564
v -0.4682064 -0.5597822 0.157973
v -0.1264564 -0.5597823 0.05228196
v -0.1264564 -0.5597821 0.3003739
v 0.1264564 -0.5597821 0.3003739
v 0.05228195 -0.5597823 0.1264564
v 0.4682064 -0.5597822 0.157973
v 0.1264564 -0.5597823 0.05228196
v -0.5438436 -0.5597822 0.0445158
v -0.1264564 -0.5597823 -0.05228194
v -0.1264564 -0.5597823 0.05228196
v -0.4682064 -0.5597822 0.157973
v -0.5438436 -0.5597822 -0.0445158
v -0.4682064 -0.5597822 -0.157973
v -0.05228195 -0.5597823 -0.1264564
v -0.1264564 -0.5597823 -0.05228194
v -0.5438436 -0.5597822 0.0445158
v -0.4682064 -0.5597822 -0.157973
v -0.1264564 -0.5597822 -0.3003738
v -0.05228195 -0.5597823 -0.1264564
v 0.05228196 -0.5597823 -0.1264564
v 0.1264564 -0.5597822 -0.3003738
v 0.1264564 -0.5597823 -0.05228194
v 0.4682064 -0.5597822 -0.157973
v -0.2693739 -0.7591904 -0.02408366
v -0.2693739 -0.7591904 0.0240838
v -0.2693739 -3.817125 0.02408368
v -0.2693739 -3.817125 -0.02408379
v -0.1041981 -4.182513 -0.01510676
v -0.1041981 -4.182513 0.01510666
v 0.3784134 -4.393503 -0.006129766
v 0.3784134 -4.393503 0.006129625
v -0.01719567 -0.7591902 0.1138439
v 0.2349826 -0.7591904 0.0240838
v 0.2290921 -3.818716 0.02408368
v -0.01719567 -3.817125 0.1138438
v 0.1157427 -4.14047 0.06729329
v 0.2718046 -4.073612 0.01510665
v 0.3702725 -4.329837 0.02074279
v 0.3621317 -4.266172 0.006129605
v 0.2349826 -0.7591904 0.0240838
v 0.2349826 -0.7591904 -0.02408366
v 0.2290921 -3.818716 -0.02408379
v 0.2290921 -3.818716 0.02408368
v 0.2718046 -4.073612 0.01510665
v 0.2718046 -4.073612 -0.01510678
v 0.3621317 -4.266172 0.006129605
v 0.3621317 -4.266172 -0.006129785
v -0.01719567 -0.7591902 -0.1138438
v -0.2693739 -0.7591904 -0.02408366
v -0.2693739 -3.817125 -0.02408379
v -0.01719567 -3.817125 -0.1138439
v 0.1157426 -4.14047 -0.06729341
v -0.1041981 -4.182513 -0.01510676
v 0.3702725 -4.329837 -0.02074295
v 0.3784134 -4.393503 -0.006129766
v -0.01719567 -0.7591902 0.1138439
v 0.2349826 -0.7591904 -0.02408366
v 0.2349826 -0.7591904 0.0240838
v -0.01719567 -0.7591902 -0.1138438
v -0.2693739 -0.7591904 0.0240838
v -0.2693739 -0.7591904 -0.02408366
v 0.3702725 -4.329837 0.02074279
v 0.3784134 -4.393503 -0.006129766
v 0.3784134 -4.393503 0.006129625
v 0.3702725 -4.329837 -0.02074295
v 0.3621317 -4.266172 0.006129605
v 0.3621317 -4.266172 -0.006129785
v 0.1157426 -4.14047 -0.06729341
v 0.3702725 -4.329837 -0.02074295
v 0.3621317 -4.266172 -0.006129785
v 0.2718046 -4.073612 -0.01510678
v -0.01719567 -3.817125 -0.1138439
v 0.2290921 -3.818716 -0.02408379
v 0.2349826 -0.7591904 -0.02408366
v -0.01719567 -0.7591902 -0.1138438
v 0.1157427 -4.14047 0.06729329
v 0.3702725 -4.329837 0.02074279
v 0.3784134 -4.393503 0.006129625
v -0.1041981 -4.182513 0.01510666
v -0.01719567 -3.817125 0.1138438
v -0.2693739 -3.817125 0.02408368
v -0.2693739 -0.7591904 0.0240838
v -0.01719567 -0.7591902 0.1138439
vt 0.2819824 0.6816406
vt 0.2819824 0.6826172
vt 0.2819824 0.6821289
vt 0.2819824 0.6816406
vt 0.2819824 0.6826172
vt 0.2819824 0.6826172
vt 0.2819824 0.6816406
vt 0.2819824 0.6821289
vt 0.2819824 0.6826172
vt 0.2819824 0.6826172
vt 0.2819824 0.6816406
vt 0.2819824 0.6826172
vt 0.2819824 0.6826172
vt 0.2819824 0.6826172
vt 0.2817383 0.7016602
vt 0.2817383 0.7006836
vt 0.2817383 0.7006836
vt 0.2817383 0.7006836
vt 0.2817383 0.7021484
vt 0.2817383 0.7016602
vt 0.2817383 0.7006836
vt 0.2817383 0.7006836
vt 0.2817383 0.7021484
vt 0.2817383 0.7006836
vt 0.2817383 0.7006836
vt 0.2817383 0.7021484
vt 0.2817383 0.7001953
vt 0.2817383 0.7006836
vt 0.2819824 0.6816406
vt 0.2819824 0.6816406
vt 0.2817383 0.7006836
vt 0.2817383 0.7006836
vt 0.2819824 0.6826172
vt 0.2819824 0.6826172
vt 0.2817383 0.7001953
vt 0.2817383 0.699707
vt 0.2819824 0.6826172
vt 0.2819824 0.6826172
vt 0.2817383 0.7006836
vt 0.2819824 0.6826172
vt 0.2819824 0.6826172
vt 0.2817383 0.7006836
vt 0.2817383 0.7006836
vt 0.2807617 0.7524414
vt 0.2817383 0.7016602
vt 0.2817383 0.7016602
vt 0.2807617 0.7529297
vt 0.2817383 0.7016602
vt 0.2807617 0.7539063
vt 0.2817383 0.699707
vt 0.2817383 0.699707
vt 0.2819824 0.6821289
vt 0.2819824 0.6826172
vt 0.2819824 0.6821289
vt 0.2819824 0.6816406
vt 0.2819824 0.6816406
vt 0.2819824 0.6816406
vt 0.2819824 0.6816406
vt 0.2817383 0.7006836
vt 0.2817383 0.7006836
vt 0.2819824 0.6821289
vt 0.2819824 0.6816406
vt 0.2819824 0.6816406
vt 0.2817383 0.699707
vt 0.2817383 0.7001953
vt 0.2819824 0.6816406
vt 0.2817383 0.699707
vt 0.2819824 0.6816406
vt 0.2807617 0.7539063
vt 0.2817383 0.7021484
vt 0.2817383 0.7016602
vt 0.2807617 0.7539063
vt 0.2817383 0.7021484
vt 0.2807617 0.753418
vt 0.2807617 0.753418
vt 0.2807617 0.7529297
vt 0.2817383 0.7016602
vt 0.2817383 0.7021484
vt 0.2807617 0.7524414
vt 0.2810059 0.7519531
vt 0.2807617 0.7524414
vt 0.2807617 0.7529297
vt 0.2807617 0.753418
vt 0.2807617 0.753418
vt 0.2807617 0.7529297
vt 0.2807617 0.7524414
vt 0.2807617 0.7539063
vt 0.2807617 0.7539063
vt 0.2817383 0.7016602
vt 0.2817383 0.7016602
vt 0.2810059 0.7519531
vt 0.2807617 0.7524414
vt 0.2807617 0.7529297
vt 0.2807617 0.7524414
vt 0.2817383 0.7016602
vt 0.2817383 0.7016602
vt 0.2807617 0.7524414
vt 0.2810059 0.7519531
vt 0.2817383 0.7016602
vt 0.2817383 0.7016602
vt 0.2819824 0.6816406
vt 0.2819824 0.6821289
vt 0.2817383 0.699707
vt 0.2817383 0.699707
vt 0.2819824 0.6816406
vt 0.2817383 0.699707
vt 0.2819824 0.6826172
vt 0.2819824 0.6821289
vt 0.2817383 0.7006836
vt 0.2817383 0.7006836
vt 0.2817383 0.7016602
vt 0.2817383 0.699707
vt 0.2817383 0.7016602
vt 0.2817383 0.7001953
vt 0.2817383 0.7006836
vt 0.2817383 0.7021484
vt 0.2817383 0.7006836
vt 0.2817383 0.7021484
vt 0.2817383 0.699707
vt 0.2817383 0.7016602
vt 0.2817383 0.7016602
vt 0.2817383 0.699707
vt 0.2817383 0.699707
vt 0.2817383 0.699707
vt 0.2817383 0.7016602
vt 0.2817383 0.7016602
vt 0.2817383 0.699707
vt 0.2817383 0.699707
vt 0.2817383 0.699707
vt 0.2817383 0.7016602
vt 0.2817383 0.7016602
vt 0.2817383 0.7001953
vt 0.2817383 0.7016602
vt 0.2817383 0.7006836
vt 0.1134033 0.265625
vt 0.1134033 0.265625
vt 0.02171326 0.265625
vt 0.02171326 0.265625
vt 0.01338196 0.265625
vt 0.01338196 0.265625
vt 0.005054474 0.265625
vt 0.005054474 0.265625
vt 0.5341797 0.265625
vt 0.5341797 0.265625
vt 0.4226074 0.265625
vt 0.4226074 0.265625
vt 0.4123535 0.265625
vt 0.4123535 0.265625
vt 0.4020996 0.265625
vt 0.4020996 0.265625
vt 0.5341797 0.265625
vt 0.5341797 0.265625
vt 0.4226074 0.265625
vt 0.4226074 0.265625
vt 0.4123535 0.265625
vt 0.4123535 0.265625
vt 0.4020996 0.265625
vt 0.4020996 0.265625
vt 0.1134033 0.265625
vt 0.1134033 0.265625
vt 0.02171326 0.265625
vt 0.02171326 0.265625
vt 0.01338196 0.265625
vt 0.01338196 0.265625
vt 0.005054474 0.265625
vt 0.005054474 0.265625
vt 0.06225586 0.6430664
vt 0.06222534 0.6425781
vt 0.06222534 0.6425781
vt 0.06219482 0.6425781
vt 0.06222534 0.6425781
vt 0.06222534 0.6425781
vt 0.4020996 0.265625
vt 0.4020996 0.265625
vt 0.4020996 0.265625
vt 0.4020996 0.265625
vt 0.4020996 0.265625
vt 0.4020996 0.265625
vt 0.4123535 0.265625
vt 0.4020996 0.265625
vt 0.4020996 0.265625
vt 0.4123535 0.265625
vt 0.4226074 0.265625
vt 0.4226074 0.265625
vt 0.5341797 0.265625
vt 0.5341797 0.265625
vt 0.01338196 0.265625
vt 0.005054474 0.265625
vt 0.005054474 0.265625
vt 0.01338196 0.265625
vt 0.02171326 0.265625
vt 0.02171326 0.265625
vt 0.1134033 0.265625
vt 0.1134033 0.265625
vn 0 -1 0
vn 0 -1 0
vn -1.192093E-07 -1 0
vn 0 -1 0
vn 0 -1 0
vn 0 -1 0
vn 0 -1 0
vn 0 -1 0
vn 0 -1 0
vn 0 -1 0
vn 0 -1 0
vn 0 -1 0
vn 0 -1 0
vn 0 -1 0
vn -2.980232E-07 1 2.384186E-07
vn -3.576279E-07 1 1.192093E-07
vn -4.172325E-07 1 0
vn -4.172325E-07 1 0
vn -4.172325E-07 1 -3.576279E-07
vn -2.980232E-07 1 2.384186E-07
vn -4.172325E-07 1 0
vn -4.172325E-07 1 0
vn -4.172325E-07 1 -3.576279E-07
vn -4.172325E-07 1 0
vn -4.172325E-07 1 -1.788139E-07
vn -4.172325E-07 1 -3.576279E-07
vn -0.196167 -3.576279E-07 0.9804688
vn 0.196167 -4.172325E-07 0.9804688
vn 0.196167 -4.172325E-07 0.9804688
vn -0.196167 -3.576279E-07 0.9804688
vn 0.9570313 0 0.2897949
vn 0.9570313 0 -0.2897949
vn 0.9570313 0 -0.2897949
vn 0.9570313 0 0.2897949
vn 0.196167 4.172325E-07 -0.9804688
vn -0.196167 3.576279E-07 -0.9804688
vn -0.196167 3.576279E-07 -0.9804688
vn 0.196167 4.172325E-07 -0.9804688
vn 0.6357422 1.788139E-07 -0.7719727
vn 0.6357422 1.788139E-07 -0.7719727
vn 0.9570313 0 -0.2897949
vn 0.9570313 0 -0.2897949
vn 0.6357422 1.788139E-07 -0.7719727
vn -0.9238281 0 -0.3825684
vn -0.9238281 0 0.3825684
vn -0.9238281 0 -0.3825684
vn -0.9238281 0 0.3825684
vn -0.3825684 0 0.9238281
vn -0.3825684 0 0.9238281
vn -0.196167 3.576279E-07 -0.9804688
vn -0.6357422 1.192093E-07 -0.7719727
vn -0.6357422 1.192093E-07 -0.7719727
vn -0.196167 3.576279E-07 -0.9804688
vn -1.192093E-07 -1 0
vn -1.192093E-07 -1 0
vn 0 -1 0
vn -1.192093E-07 -1 0
vn -1.192093E-07 -1 0
vn 0.196167 -4.172325E-07 0.9804688
vn 0.6357422 -1.788139E-07 0.7719727
vn 0.6357422 -1.788139E-07 0.7719727
vn 0.196167 -4.172325E-07 0.9804688
vn -0.196167 -3.576279E-07 0.9804688
vn -0.6357422 -1.192093E-07 0.7719727
vn -0.196167 -3.576279E-07 0.9804688
vn -0.6357422 -1.192093E-07 0.7719727
vn -0.9570313 0 0.2897949
vn -0.9570313 0 0.2897949
vn -0.3825684 0 0.9238281
vn 0.3825684 0 0.9238281
vn -0.3825684 0 0.9238281
vn 0.3825684 0 0.9238281
vn 0.9238281 0 0.3825684
vn 0.9238281 0 0.3825684
vn 0.9238281 0 0.3825684
vn 0.9238281 0 -0.3825684
vn 0.9238281 0 -0.3825684
vn 0.9238281 0 0.3825684
vn 0 1 0
vn 0 1 0
vn 0 1 0
vn 0 1 0
vn 0 1 0
vn 0 1 0
vn 0 1 0
vn 0 1 0
vn 0 1 0
vn 0 1 0
vn -0.9238281 0 -0.3825684
vn -0.3825684 0 -0.9238281
vn -0.3825684 0 -0.9238281
vn -0.9238281 0 -0.3825684
vn 0.9238281 0 -0.3825684
vn 0.3825684 0 -0.9238281
vn 0.3825684 0 -0.9238281
vn 0.9238281 0 -0.3825684
vn 0.3825684 0 -0.9238281
vn -0.3825684 0 -0.9238281
vn -0.3825684 0 -0.9238281
vn 0.3825684 0 -0.9238281
vn -0.9570313 0 -0.2897949
vn -0.6357422 1.192093E-07 -0.7719727
vn -0.6357422 1.192093E-07 -0.7719727
vn -0.9570313 0 -0.2897949
vn -0.9570313 0 0.2897949
vn -0.9570313 0 0.2897949
vn 0.9570313 0 0.2897949
vn 0.6357422 -1.788139E-07 0.7719727
vn 0.6357422 -1.788139E-07 0.7719727
vn 0.9570313 0 0.2897949
vn 2.384186E-07 1 -8.940697E-07
vn 4.768372E-07 1 -2.980232E-07
vn 4.768372E-07 1 -4.172325E-07
vn 2.384186E-07 1 -8.34465E-07
vn -2.384186E-07 1 -8.34465E-07
vn -2.384186E-07 1 -8.940697E-07
vn -4.172325E-07 1 -1.788139E-07
vn -4.172325E-07 1 -3.576279E-07
vn 4.172325E-07 1 0
vn 3.576279E-07 1 0
vn 4.768372E-07 1 -4.172325E-07
vn 4.768372E-07 1 -2.980232E-07
vn 2.980232E-07 1 1.788139E-07
vn 2.980232E-07 1 2.384186E-07
vn 1.192093E-07 1 5.364418E-07
vn 3.576279E-07 1 0
vn 4.172325E-07 1 0
vn 2.980232E-07 1 2.384186E-07
vn 1.192093E-07 1 6.556511E-07
vn 1.192093E-07 1 5.364418E-07
vn 0 1 5.960464E-07
vn 0 1 5.960464E-07
vn -2.980232E-07 1 2.384186E-07
vn -3.576279E-07 1 1.192093E-07
vn -1 0 0
vn -1 0 0
vn -0.9780273 -0.2092285 0
vn -0.9780273 -0.2092285 0
vn -0.7060547 -0.7080078 0
vn -0.7060547 -0.7080078 0
vn -0.4006348 -0.9165039 0
vn -0.4006348 -0.9165039 0
vn 0.3388672 -0.000326395 0.940918
vn 0.3388672 -0.000326395 0.940918
vn 0.3349609 0.005123138 0.9423828
vn 0.3356934 0.004043579 0.9418945
vn 0.3212891 0.06008911 0.9448242
vn 0.3190918 0.07073975 0.9453125
vn 0.3041992 0.1376953 0.9423828
vn 0.3041992 0.1376953 0.9423828
vn 1 -0.001925468 0
vn 1 -0.001925468 0
vn 0.996582 0.08099365 0
vn 0.996582 0.08099365 0
vn 0.9555664 0.2944336 0
vn 0.9555664 0.2944336 0
vn 0.9052734 0.4248047 0
vn 0.9052734 0.4248047 0
vn -0.3354492 0 -0.9418945
vn -0.3354492 0 -0.9418945
vn -0.3076172 -0.0826416 -0.9477539
vn -0.2995605 -0.1051636 -0.9482422
vn -0.1772461 -0.2895508 -0.9404297
vn -0.2288818 -0.2341309 -0.9448242
vn -0.1192627 -0.3486328 -0.9296875
vn -0.1192627 -0.3486328 -0.9296875
vn 0 1 0
vn 8.34465E-07 1 0
vn 8.34465E-07 1 0
vn 0 1 0
vn -8.34465E-07 1 0
vn -8.34465E-07 1 0
vn 0.9916992 0.1268311 0
vn 0.9916992 0.1268311 0
vn 0.9916992 0.1268311 0
vn 0.9916992 0.1268311 0
vn 0.9916992 0.1268311 0
vn 0.9916992 0.1268311 0
vn 0.3212891 0.06008911 -0.9448242
vn 0.3041992 0.1376953 -0.9423828
vn 0.3041992 0.1376953 -0.9423828
vn 0.3190918 0.07073975 -0.9453125
vn 0.3356934 0.004043579 -0.9418945
vn 0.3349609 0.005123138 -0.9423828
vn 0.3388672 -0.0003261566 -0.940918
vn 0.3388672 -0.0003261566 -0.940918
vn -0.1772461 -0.2895508 0.9404297
vn -0.1192627 -0.3486328 0.9296875
vn -0.1192627 -0.3486328 0.9296875
vn -0.2288818 -0.2341309 0.9448242
vn -0.2995605 -0.1051636 0.9482422
vn -0.3076172 -0.0826416 0.9477539
vn -0.3354492 0 0.9418945
vn -0.3354492 0 0.9418945
g Katana_01_0
f 3/3/3 2/2/2 1/1/1
f 6/6/6 5/5/5 4/4/4
f 9/9/9 8/8/8 7/7/7
f 11/11/11 10/10/10 7/7/7
f 10/10/10 12/12/12 7/7/7
f 7/7/7 12/12/12 13/13/13
f 13/13/13 14/14/14 7/7/7
f 17/17/17 16/16/16 15/15/15
f 20/20/20 19/19/19 18/18/18
f 23/23/23 22/22/22 21/21/21
f 26/26/26 25/25/25 24/24/24
f 29/29/29 28/28/28 27/27/27
f 30/30/30 29/29/29 27/27/27
f 33/33/33 32/32/32 31/31/31
f 34/34/34 33/33/33 31/31/31
f 37/37/37 36/36/36 35/35/35
f 38/38/38 37/37/37 35/35/35
f 35/35/35 39/39/39 38/38/38
f 39/39/39 40/40/40 38/38/38
f 42/42/42 41/41/41 40/40/40
f 43/43/43 42/42/42 40/40/40
f 46/46/46 45/45/45 44/44/44
f 45/45/45 47/47/47 44/44/44
f 45/45/45 48/48/48 47/47/47
f 48/48/48 49/49/49 47/47/47
f 52/52/52 51/51/51 50/50/50
f 53/53/53 52/52/52 50/50/50
f 56/56/56 55/55/55 54/54/54
f 56/56/56 57/57/57 55/55/55
f 56/56/56 58/58/58 57/57/57
f 61/61/61 60/60/60 59/59/59
f 62/62/62 61/61/61 59/59/59
f 65/65/65 64/64/64 63/63/63
f 64/64/64 66/66/66 63/63/63
f 64/64/64 67/67/67 66/66/66
f 67/67/67 68/68/68 66/66/66
f 71/71/71 70/70/70 69/69/69
f 70/70/70 72/72/72 69/69/69
f 70/70/70 73/73/73 72/72/72
f 73/73/73 74/74/74 72/72/72
f 77/77/77 76/76/76 75/75/75
f 78/78/78 77/77/77 75/75/75
f 81/81/81 80/80/80 79/79/79
f 79/79/79 82/82/82 81/81/81
f 79/79/79 83/83/83 82/82/82
f 86/86/86 85/85/85 84/84/84
f 85/85/85 87/87/87 84/84/84
f 85/85/85 88/88/88 87/87/87
f 91/91/91 90/90/90 89/89/89
f 92/92/92 91/91/91 89/89/89
f 95/95/95 94/94/94 93/93/93
f 96/96/96 95/95/95 93/93/93
f 99/99/99 98/98/98 97/97/97
f 100/100/100 99/99/99 97/97/97
f 103/103/103 102/102/102 101/101/101
f 104/104/104 103/103/103 101/101/101
f 101/101/101 105/105/105 104/104/104
f 105/105/105 106/106/106 104/104/104
f 109/109/109 108/108/108 107/107/107
f 110/110/110 109/109/109 107/107/107
f 113/113/113 112/112/112 111/111/111
f 112/112/112 114/114/114 111/111/111
f 111/111/111 114/114/114 115/115/115
f 116/116/116 111/111/111 115/115/115
f 115/115/115 117/117/117 116/116/116
f 117/117/117 118/118/118 116/116/116
f 121/121/121 120/120/120 119/119/119
f 122/122/122 121/121/121 119/119/119
f 125/125/125 124/124/124 123/123/123
f 123/123/123 126/126/126 125/125/125
f 123/123/123 127/127/127 126/126/126
f 130/130/130 129/129/129 128/128/128
f 130/130/130 131/131/131 129/129/129
f 131/131/131 132/132/132 129/129/129
f 132/132/132 131/131/131 133/133/133
f 134/134/134 132/132/132 133/133/133
g Katana_01_1
f 137/137/137 136/136/136 135/135/135
f 138/138/138 137/137/137 135/135/135
f 138/138/138 139/139/139 137/137/137
f 139/139/139 140/140/140 137/137/137
f 139/139/139 141/141/141 140/140/140
f 141/141/141 142/142/142 140/140/140
f 145/145/145 144/144/144 143/143/143
f 146/146/146 145/145/145 143/143/143
f 146/146/146 147/147/147 145/145/145
f 147/147/147 148/148/148 145/145/145
f 147/147/147 149/149/149 148/148/148
f 149/149/149 150/150/150 148/148/148
f 153/153/153 152/152/152 151/151/151
f 154/154/154 153/153/153 151/151/151
f 154/154/154 155/155/155 153/153/153
f 155/155/155 156/156/156 153/153/153
f 155/155/155 157/157/157 156/156/156
f 157/157/157 158/158/158 156/156/156
f 161/161/161 160/160/160 159/159/159
f 162/162/162 161/161/161 159/159/159
f 162/162/162 163/163/163 161/161/161
f 163/163/163 164/164/164 161/161/161
f 163/163/163 165/165/165 164/164/164
f 165/165/165 166/166/166 164/164/164
f 169/169/169 168/168/168 167/167/167
f 168/168/168 170/170/170 167/167/167
f 167/167/167 170/170/170 171/171/171
f 170/170/170 172/172/172 171/171/171
f 175/175/175 174/174/174 173/173/173
f 174/174/174 176/176/176 173/173/173
f 173/173/173 176/176/176 177/177/177
f 176/176/176 178/178/178 177/177/177
f 181/181/181 180/180/180 179/179/179
f 182/182/182 181/181/181 179/179/179
f 182/182/182 179/179/179 183/183/183
f 184/184/184 182/182/182 183/183/183
f 184/184/184 183/183/183 185/185/185
f 183/183/183 186/186/186 185/185/185
f 189/189/189 188/188/188 187/187/187
f 190/190/190 189/189/189 187/187/187
f 190/190/190 187/187/187 191/191/191
f 192/192/192 190/190/190 191/191/191
f 192/192/192 191/191/191 193/193/193
f 191/191/191 194/194/194 193/193/193
