g MES_Portal-Color-Change
v -2.452665 0.1561447 -0.005
v 2.452665 0.1561447 -0.005
v 2.452665 3.571425 -0.005
v -2.452665 3.571425 -0.005
v -2.452665 0.1561447 0.005
v -2.452665 3.571425 0.005
v 2.452665 3.571425 0.005
v 2.452665 0.1561447 0.005
vt 0.09997559 0.09997559
vt 0.8999023 0.09997559
vt 0.8999023 0.8999023
vt 0.09997559 0.8999023
vt 0.09997559 0.09997559
vt 0.09997559 0.8999023
vt 0.8999023 0.8999023
vt 0.8999023 0.09997559
vn 0 0 -1
vn 0 0 -1
vn 0 0 -1
vn 0 0 -1
vn 0 0 1
vn 0 0 1
vn 0 0 1
vn 0 0 1
g MES_Portal-Color-Change_0
f 3/3/3 2/2/2 1/1/1
f 4/4/4 3/3/3 1/1/1
f 7/7/7 6/6/6 5/5/5
f 8/8/8 7/7/7 5/5/5
