g MES_Necklace_Ring-Breack
v -0.1873597 2.449294E-17 -0.3972682
v -0.3519136 -0.09999999 -0.4567949
v -0.3519136 2.449294E-17 -0.43
v -0.1771057 -0.09999999 -0.4220234
v -0.04785776 2.449294E-17 -0.3040559
v -0.3519136 -0.1732051 -0.53
v -0.0289109 -0.09999999 -0.3230028
v 0.04535455 2.449294E-17 -0.1645539
v -0.1490913 -0.1732051 -0.4896561
v -0.3519136 -0.2 -0.63
v 0.07010981 -0.09999999 -0.1748078
v 0.07808635 2.449294E-17 0
v 0.02285287 -0.1732051 -0.3747666
v -0.110823 -0.2 -0.5820441
v -0.3519136 -0.1732051 -0.73
v 0.1048813 -0.09999999 0
v 0.04535449 2.449294E-17 0.164554
v 0.1377425 -0.1732051 -0.2028222
v 0.09356356 -0.2 -0.4454773
v -0.07255459 -0.1732051 -0.674432
v -0.3519136 -0.09999999 -0.8032051
v 0.07010975 -0.09999999 0.174808
v -0.04785791 2.449294E-17 0.3040561
v 0.1780863 -0.1732051 0
v 0.2301305 -0.2 -0.2410905
v 0.1642742 -0.1732051 -0.516188
v -0.04454019 -0.09999999 -0.7420647
v -0.3519136 0 -0.83
v -0.02891105 -0.09999999 0.323003
v -0.1873597 2.449294E-17 0.3972682
v 0.1377424 -0.1732051 0.2028224
v 0.2780863 -0.2 0
v 0.3225184 -0.1732051 -0.2793589
v 0.216038 -0.09999999 -0.5679518
v -0.03428623 0 -0.7668199
v -0.3519136 0.09999999 -0.8032051
v -0.1771057 -0.09999999 0.4220234
v -0.3519136 2.449294E-17 0.43
v -0.3519136 -0.09999999 0.4567949
v 0.02285272 -0.1732051 0.3747668
v -0.1490913 -0.1732051 0.4896561
v -0.3519136 -0.1732051 0.53
v -0.04454019 0.09999999 -0.7420647
v -0.3519136 0.1732051 -0.73
v 0.2349849 0 -0.5868987
v 0.2301303 -0.2 0.2410908
v -0.110823 -0.2 0.5820441
v -0.3519136 -0.2 0.63
v 0.09356337 -0.2 0.4454775
v -0.07255459 0.1732051 -0.674432
v -0.3519136 0.2 -0.63
v 0.3780864 -0.1732051 0
v -0.07255459 -0.1732051 0.674432
v -0.3519136 -0.1732051 0.73
v 0.164274 -0.1732051 0.5161883
v 0.3225183 -0.1732051 0.2793592
v 0.3901511 -0.09999999 -0.3073732
v -0.04454019 -0.09999999 0.7420647
v -0.3519136 -0.09999999 0.8032051
v 0.2160378 -0.09999999 0.5679521
v 0.3901509 -0.09999999 0.3073736
v 0.4512914 -0.09999999 0
v 0.4149064 0 -0.3176272
v -0.03428623 0 0.7668199
v -0.3519136 0 0.83
v 0.2349847 0 0.586899
v 0.4149062 0 0.3176275
v 0.4780863 0 0
v 0.216038 0.09999999 -0.5679518
v -0.04454019 0.09999999 0.7420647
v -0.3519136 0.09999999 0.8032051
v 0.2160378 0.09999999 0.5679521
v 0.3901509 0.09999999 0.3073736
v 0.3901511 0.09999999 -0.3073732
v 0.4512914 0.09999999 0
v 0.1642742 0.1732051 -0.516188
v -0.07255459 0.1732051 0.674432
v -0.3519136 0.1732051 0.73
v 0.164274 0.1732051 0.5161883
v 0.3225183 0.1732051 0.2793592
v 0.3225184 0.1732051 -0.2793589
v 0.3780864 0.1732051 0
v -0.110823 0.2 -0.5820441
v -0.3519136 0.1732051 -0.53
v -0.110823 0.2 0.5820441
v -0.3519136 0.2 0.63
v 0.09356337 0.2 0.4454775
v 0.2301303 0.2 0.2410908
v 0.2780863 0.2 0
v 0.2301305 0.2 -0.2410905
v -0.1490913 0.1732051 -0.4896561
v -0.3519136 0.09999999 -0.4567949
v -0.1490913 0.1732051 0.4896561
v -0.3519136 0.1732051 0.53
v 0.02285272 0.1732051 0.3747668
v 0.1377424 0.1732051 0.2028224
v 0.1780863 0.1732051 0
v -0.1771057 0.09999999 0.4220234
v -0.3519136 0.09999999 0.4567949
v -0.02891105 0.09999999 0.323003
v -0.1873597 2.449294E-17 0.3972682
v -0.3519136 2.449294E-17 0.43
v -0.04785791 2.449294E-17 0.3040561
v 0.04535449 2.449294E-17 0.164554
v 0.07010975 0.09999999 0.174808
v 0.07808635 2.449294E-17 0
v 0.1048813 0.09999999 0
v 0.04535455 2.449294E-17 -0.1645539
v 0.07010981 0.09999999 -0.1748078
v -0.04785776 2.449294E-17 -0.3040559
v 0.1377425 0.1732051 -0.2028222
v -0.0289109 0.09999999 -0.3230028
v -0.1873597 2.449294E-17 -0.3972682
v 0.02285287 0.1732051 -0.3747666
v -0.1771057 0.09999999 -0.4220234
v -0.3519136 2.449294E-17 -0.43
v 0.09356356 0.2 -0.4454773
v -0.3519136 -0.1732051 -0.53
v -0.3519136 -0.2 -0.63
v -0.3519136 -0.1732051 -0.73
v -0.3519136 -0.09999999 -0.4567949
v -0.3519136 -0.09999999 -0.8032051
v -0.3519136 2.449294E-17 -0.43
v -0.3519136 0 -0.83
v -0.3519136 0.09999999 -0.8032051
v -0.3519136 0.09999999 -0.4567949
v -0.3519136 0.1732051 -0.53
v -0.3519136 0.1732051 -0.73
v -0.3519136 0.2 -0.63
v -0.3519136 -0.1732051 0.73
v -0.3519136 -0.2 0.63
v -0.3519136 -0.1732051 0.53
v -0.3519136 -0.09999999 0.8032051
v -0.3519136 -0.09999999 0.4567949
v -0.3519136 0 0.83
v -0.3519136 2.449294E-17 0.43
v -0.3519136 0.09999999 0.8032051
v -0.3519136 0.09999999 0.4567949
v -0.3519136 0.1732051 0.73
v -0.3519136 0.1732051 0.53
v -0.3519136 0.2 0.63
vt 0.6875 2.220446E-16
vt 0.75 0.08333334
vt 0.75 2.220446E-16
vt 0.6875 0.08333334
vt 0.625 2.220446E-16
vt 0.75 0.1666667
vt 0.625 0.08333334
vt 0.5625 2.220446E-16
vt 0.6875 0.1666667
vt 0.75 0.25
vt 0.5625 0.08333334
vt 0.5 2.220446E-16
vt 0.625 0.1666667
vt 0.6875 0.25
vt 0.75 0.3333333
vt 0.5 0.08333334
vt 0.4375 2.220446E-16
vt 0.5625 0.1666667
vt 0.625 0.25
vt 0.6875 0.3333333
vt 0.75 0.4166667
vt 0.4375 0.08333334
vt 0.375 2.220446E-16
vt 0.5 0.1666667
vt 0.5625 0.25
vt 0.625 0.3333333
vt 0.6875 0.4166667
vt 0.75 0.5
vt 0.375 0.08333334
vt 0.3125 2.220446E-16
vt 0.4375 0.1666667
vt 0.5 0.25
vt 0.5625 0.3333333
vt 0.625 0.4166667
vt 0.6875 0.5
vt 0.75 0.5833333
vt 0.3125 0.08333334
vt 0.25 2.220446E-16
vt 0.25 0.08333334
vt 0.375 0.1666667
vt 0.3125 0.1666667
vt 0.25 0.1666667
vt 0.6875 0.5833333
vt 0.75 0.6666667
vt 0.625 0.5
vt 0.4375 0.25
vt 0.3125 0.25
vt 0.25 0.25
vt 0.375 0.25
vt 0.6875 0.6666667
vt 0.75 0.75
vt 0.5 0.3333333
vt 0.3125 0.3333333
vt 0.25 0.3333333
vt 0.375 0.3333333
vt 0.4375 0.3333333
vt 0.5625 0.4166667
vt 0.3125 0.4166667
vt 0.25 0.4166667
vt 0.375 0.4166667
vt 0.4375 0.4166667
vt 0.5 0.4166667
vt 0.5625 0.5
vt 0.3125 0.5
vt 0.25 0.5
vt 0.375 0.5
vt 0.4375 0.5
vt 0.5 0.5
vt 0.625 0.5833333
vt 0.3125 0.5833333
vt 0.25 0.5833333
vt 0.375 0.5833333
vt 0.4375 0.5833333
vt 0.5625 0.5833333
vt 0.5 0.5833333
vt 0.625 0.6666667
vt 0.3125 0.6666667
vt 0.25 0.6666667
vt 0.375 0.6666667
vt 0.4375 0.6666667
vt 0.5625 0.6666667
vt 0.5 0.6666667
vt 0.6875 0.75
vt 0.75 0.8333333
vt 0.3125 0.75
vt 0.25 0.75
vt 0.375 0.75
vt 0.4375 0.75
vt 0.5 0.75
vt 0.5625 0.75
vt 0.6875 0.8333333
vt 0.75 0.9166667
vt 0.3125 0.8333333
vt 0.25 0.8333333
vt 0.375 0.8333333
vt 0.4375 0.8333333
vt 0.5 0.8333333
vt 0.3125 0.9166667
vt 0.25 0.9166667
vt 0.375 0.9166667
vt 0.3125 1
vt 0.25 1
vt 0.375 1
vt 0.4375 1
vt 0.4375 0.9166667
vt 0.5 1
vt 0.5 0.9166667
vt 0.5625 1
vt 0.5625 0.9166667
vt 0.625 1
vt 0.5625 0.8333333
vt 0.625 0.9166667
vt 0.6875 1
vt 0.625 0.8333333
vt 0.6875 0.9166667
vt 0.75 1
vt 0.625 0.75
vt 0.75 0.1666667
vt 0.75 0.25
vt 0.75 0.3333333
vt 0.75 0.08333334
vt 0.75 0.4166667
vt 0.75 2.220446E-16
vt 0.75 0.5
vt 0.75 0.5833333
vt 0.75 0.9166667
vt 0.75 0.8333333
vt 0.75 0.6666667
vt 0.75 0.75
vt 0.25 0.3333333
vt 0.25 0.25
vt 0.25 0.1666667
vt 0.25 0.4166667
vt 0.25 0.08333334
vt 0.25 0.5
vt 0.25 2.220446E-16
vt 0.25 0.5833333
vt 0.25 0.9166667
vt 0.25 0.6666667
vt 0.25 0.8333333
vt 0.25 0.75
vn -0.3826835 0 0.9238794
vn -2.117455E-05 -0.5144625 0.8575129
vn 2.405047E-05 9.619629E-06 1
vn -0.3281556 -0.5144641 0.7922377
vn -0.7071068 0 0.7071066
vn -2.031773E-05 -0.879987 0.4749977
vn -0.6063524 -0.5144641 0.6063524
vn -0.9238795 0 0.3826834
vn -0.1817733 -0.8799877 0.4388395
vn -1.596985E-05 -0.9994776 -0.03232132
vn -0.7922377 -0.5144642 0.3281556
vn -1 0 0
vn -0.3358732 -0.8799877 0.3358731
vn 0.01236885 -0.9994776 -0.02986097
vn -7.353723E-06 -0.8520486 -0.5234627
vn -0.8575119 -0.5144641 0
vn -0.9238794 0 -0.3826837
vn -0.4388394 -0.8799877 0.1817732
vn 0.02285462 -0.9994776 -0.02285462
vn 0.2003191 -0.852051 -0.483613
vn 1.071394E-05 -0.4865527 -0.8736513
vn -0.7922375 -0.5144641 -0.3281559
vn -0.7071066 0 -0.7071069
vn -0.4749964 -0.8799877 0
vn 0.02986106 -0.9994776 -0.01236887
vn 0.3701413 -0.852051 -0.3701413
vn 0.3343326 -0.4865498 -0.8071499
vn -2.394617E-05 -9.613112E-06 -1
vn -0.6063523 -0.5144641 -0.6063526
vn -0.3826834 0 -0.9238795
vn -0.4388394 -0.8799877 -0.1817734
vn 0.03232134 -0.9994776 0
vn 0.4836128 -0.852051 -0.2003191
vn 0.6177658 -0.4865498 -0.6177658
vn 0.3826835 1.084959E-07 -0.9238795
vn 1.068413E-05 0.4865527 -0.8736513
vn -0.3281556 -0.5144641 -0.7922378
vn 2.405047E-05 -9.619629E-06 -1
vn -2.120435E-05 -0.5144624 -0.857513
vn -0.3358731 -0.8799877 -0.3358732
vn -0.1817733 -0.8799877 -0.4388395
vn -2.031773E-05 -0.8799871 -0.4749976
vn 0.3343326 0.4865499 -0.8071499
vn -7.353723E-06 0.8520486 -0.5234628
vn 0.7071068 1.084959E-07 -0.7071068
vn 0.02986101 -0.9994776 0.01236887
vn 0.01236877 -0.9994776 0.02986097
vn -1.597032E-05 -0.9994776 0.03232135
vn 0.02285455 -0.9994776 0.02285463
vn 0.2003191 0.8520509 -0.483613
vn -1.597777E-05 0.9994776 -0.03232135
vn 0.5234588 -0.852051 0
vn 0.200319 -0.852051 0.4836129
vn -7.368624E-06 -0.8520486 0.5234628
vn 0.3701411 -0.852051 0.3701414
vn 0.4836129 -0.852051 0.2003192
vn 0.8071499 -0.4865498 -0.3343324
vn 0.3343324 -0.4865498 0.8071501
vn 1.068413E-05 -0.4865527 0.8736513
vn 0.6177655 -0.48655 0.617766
vn 0.8071498 -0.48655 0.3343327
vn 0.8736528 -0.4865499 1.178405E-07
vn 0.9238795 0 -0.3826834
vn 0.3826833 0 0.9238795
vn -2.394617E-05 9.613112E-06 1
vn 0.7071065 0 0.707107
vn 0.9238794 0 0.3826837
vn 1 0 1.239953E-07
vn 0.6177658 0.4865499 -0.6177657
vn 0.3343324 0.4865498 0.8071499
vn 1.071394E-05 0.4865527 0.8736513
vn 0.6177655 0.48655 0.617766
vn 0.8071498 0.48655 0.3343327
vn 0.8071499 0.4865499 -0.3343325
vn 0.8736528 0.4865499 1.178405E-07
vn 0.3701413 0.852051 -0.3701413
vn 0.200319 0.852051 0.4836129
vn -7.353723E-06 0.8520486 0.5234627
vn 0.3701412 0.852051 0.3701414
vn 0.4836129 0.852051 0.2003192
vn 0.4836128 0.852051 -0.200319
vn 0.5234588 0.852051 0
vn 0.01236882 0.9994776 -0.02986097
vn -2.032518E-05 0.8799871 0.4749976
vn 0.01236881 0.9994776 0.02986094
vn -1.59773E-05 0.9994776 0.03232132
vn 0.0228546 0.9994776 0.02285462
vn 0.02986103 0.9994776 0.01236887
vn 0.03232135 0.9994776 0
vn 0.02986103 0.9994776 -0.01236886
vn -0.1817733 0.8799877 0.4388395
vn -2.120435E-05 0.5144624 0.857513
vn -0.1817733 0.8799877 -0.4388395
vn -2.031773E-05 0.879987 -0.4749977
vn -0.3358731 0.8799877 -0.3358732
vn -0.4388394 0.8799877 -0.1817734
vn -0.4749964 0.8799877 0
vn -0.3281556 0.5144641 -0.7922378
vn -2.117455E-05 0.5144625 -0.8575129
vn -0.6063524 0.5144641 -0.6063527
vn -0.3826834 0 -0.9238795
vn 2.405047E-05 -9.619629E-06 -1
vn -0.7071066 0 -0.7071069
vn -0.9238794 0 -0.3826837
vn -0.7922375 0.5144641 -0.3281559
vn -1 0 0
vn -0.8575119 0.5144641 0
vn -0.9238795 0 0.3826834
vn -0.7922377 0.5144642 0.3281556
vn -0.7071068 0 0.7071066
vn -0.4388395 0.8799877 0.1817733
vn -0.6063525 0.5144641 0.6063524
vn -0.3826835 0 0.9238794
vn -0.3358732 0.8799877 0.3358732
vn -0.3281558 0.5144641 0.7922377
vn 2.405047E-05 9.619629E-06 1
vn 0.02285458 0.9994776 -0.02285462
vn -0.9964064 0.07345314 -0.04217779
vn -0.9999832 -0.00580051 1.529697E-06
vn -0.9956384 -0.08096056 -0.04636312
vn -0.988432 0.07615217 -0.1311604
vn -0.9879991 -0.0776559 -0.1335193
vn -0.9843615 -7.051975E-06 -0.1761603
vn -0.9843615 9.849668E-06 -0.1761603
vn -0.9879991 0.07765586 -0.1335193
vn -0.988432 -0.0761522 -0.1311604
vn -0.9964064 -0.07345316 -0.04217777
vn -0.9956384 0.08096055 -0.04636314
vn -0.9999832 0.00580051 1.528417E-06
vn -0.9956384 -0.08096055 0.04636314
vn -0.9999832 -0.00580051 -1.528417E-06
vn -0.9964064 0.07345316 0.04217777
vn -0.9879991 -0.07765586 0.1335193
vn -0.988432 0.0761522 0.1311604
vn -0.9843615 -9.849668E-06 0.1761603
vn -0.9843615 7.051975E-06 0.1761603
vn -0.9879991 0.0776559 0.1335193
vn -0.988432 -0.07615217 0.1311604
vn -0.9956384 0.08096056 0.04636312
vn -0.9964064 -0.07345314 0.04217779
vn -0.9999832 0.00580051 -1.529697E-06
g MES_Necklace_Ring-Breack_0
f 3/3/3 2/2/2 1/1/1
f 2/2/2 4/4/4 1/1/1
f 1/1/1 4/4/4 5/5/5
f 2/2/2 6/6/6 4/4/4
f 4/4/4 7/7/7 5/5/5
f 5/5/5 7/7/7 8/8/8
f 6/6/6 9/9/9 4/4/4
f 4/4/4 9/9/9 7/7/7
f 6/6/6 10/10/10 9/9/9
f 7/7/7 11/11/11 8/8/8
f 8/8/8 11/11/11 12/12/12
f 9/9/9 13/13/13 7/7/7
f 7/7/7 13/13/13 11/11/11
f 10/10/10 14/14/14 9/9/9
f 9/9/9 14/14/14 13/13/13
f 10/10/10 15/15/15 14/14/14
f 11/11/11 16/16/16 12/12/12
f 12/12/12 16/16/16 17/17/17
f 13/13/13 18/18/18 11/11/11
f 11/11/11 18/18/18 16/16/16
f 14/14/14 19/19/19 13/13/13
f 13/13/13 19/19/19 18/18/18
f 15/15/15 20/20/20 14/14/14
f 14/14/14 20/20/20 19/19/19
f 15/15/15 21/21/21 20/20/20
f 16/16/16 22/22/22 17/17/17
f 17/17/17 22/22/22 23/23/23
f 18/18/18 24/24/24 16/16/16
f 16/16/16 24/24/24 22/22/22
f 19/19/19 25/25/25 18/18/18
f 18/18/18 25/25/25 24/24/24
f 20/20/20 26/26/26 19/19/19
f 19/19/19 26/26/26 25/25/25
f 21/21/21 27/27/27 20/20/20
f 20/20/20 27/27/27 26/26/26
f 21/21/21 28/28/28 27/27/27
f 22/22/22 29/29/29 23/23/23
f 23/23/23 29/29/29 30/30/30
f 24/24/24 31/31/31 22/22/22
f 22/22/22 31/31/31 29/29/29
f 25/25/25 32/32/32 24/24/24
f 24/24/24 32/32/32 31/31/31
f 26/26/26 33/33/33 25/25/25
f 25/25/25 33/33/33 32/32/32
f 27/27/27 34/34/34 26/26/26
f 26/26/26 34/34/34 33/33/33
f 28/28/28 35/35/35 27/27/27
f 27/27/27 35/35/35 34/34/34
f 28/28/28 36/36/36 35/35/35
f 29/29/29 37/37/37 30/30/30
f 30/30/30 37/37/37 38/38/38
f 37/37/37 39/39/39 38/38/38
f 31/31/31 40/40/40 29/29/29
f 29/29/29 40/40/40 37/37/37
f 37/37/37 41/41/41 39/39/39
f 40/40/40 41/41/41 37/37/37
f 41/41/41 42/42/42 39/39/39
f 36/36/36 43/43/43 35/35/35
f 36/36/36 44/44/44 43/43/43
f 35/35/35 45/45/45 34/34/34
f 35/35/35 43/43/43 45/45/45
f 31/31/31 46/46/46 40/40/40
f 32/32/32 46/46/46 31/31/31
f 41/41/41 47/47/47 42/42/42
f 47/47/47 48/48/48 42/42/42
f 40/40/40 49/49/49 41/41/41
f 46/46/46 49/49/49 40/40/40
f 49/49/49 47/47/47 41/41/41
f 44/44/44 50/50/50 43/43/43
f 44/44/44 51/51/51 50/50/50
f 32/32/32 52/52/52 46/46/46
f 33/33/33 52/52/52 32/32/32
f 47/47/47 53/53/53 48/48/48
f 53/53/53 54/54/54 48/48/48
f 49/49/49 55/55/55 47/47/47
f 55/55/55 53/53/53 47/47/47
f 46/46/46 56/56/56 49/49/49
f 52/52/52 56/56/56 46/46/46
f 56/56/56 55/55/55 49/49/49
f 33/33/33 57/57/57 52/52/52
f 34/34/34 57/57/57 33/33/33
f 34/34/34 45/45/45 57/57/57
f 53/53/53 58/58/58 54/54/54
f 58/58/58 59/59/59 54/54/54
f 55/55/55 60/60/60 53/53/53
f 60/60/60 58/58/58 53/53/53
f 56/56/56 61/61/61 55/55/55
f 61/61/61 60/60/60 55/55/55
f 52/52/52 62/62/62 56/56/56
f 57/57/57 62/62/62 52/52/52
f 62/62/62 61/61/61 56/56/56
f 45/45/45 63/63/63 57/57/57
f 57/57/57 63/63/63 62/62/62
f 58/58/58 64/64/64 59/59/59
f 64/64/64 65/65/65 59/59/59
f 60/60/60 66/66/66 58/58/58
f 66/66/66 64/64/64 58/58/58
f 61/61/61 67/67/67 60/60/60
f 67/67/67 66/66/66 60/60/60
f 62/62/62 68/68/68 61/61/61
f 63/63/63 68/68/68 62/62/62
f 68/68/68 67/67/67 61/61/61
f 45/45/45 69/69/69 63/63/63
f 43/43/43 69/69/69 45/45/45
f 43/43/43 50/50/50 69/69/69
f 64/64/64 70/70/70 65/65/65
f 70/70/70 71/71/71 65/65/65
f 66/66/66 72/72/72 64/64/64
f 72/72/72 70/70/70 64/64/64
f 67/67/67 73/73/73 66/66/66
f 73/73/73 72/72/72 66/66/66
f 63/63/63 74/74/74 68/68/68
f 69/69/69 74/74/74 63/63/63
f 68/68/68 75/75/75 67/67/67
f 75/75/75 73/73/73 67/67/67
f 74/74/74 75/75/75 68/68/68
f 50/50/50 76/76/76 69/69/69
f 69/69/69 76/76/76 74/74/74
f 70/70/70 77/77/77 71/71/71
f 77/77/77 78/78/78 71/71/71
f 72/72/72 79/79/79 70/70/70
f 79/79/79 77/77/77 70/70/70
f 73/73/73 80/80/80 72/72/72
f 80/80/80 79/79/79 72/72/72
f 74/74/74 81/81/81 75/75/75
f 76/76/76 81/81/81 74/74/74
f 75/75/75 82/82/82 73/73/73
f 82/82/82 80/80/80 73/73/73
f 81/81/81 82/82/82 75/75/75
f 50/50/50 83/83/83 76/76/76
f 51/51/51 83/83/83 50/50/50
f 51/51/51 84/84/84 83/83/83
f 77/77/77 85/85/85 78/78/78
f 85/85/85 86/86/86 78/78/78
f 79/79/79 87/87/87 77/77/77
f 87/87/87 85/85/85 77/77/77
f 80/80/80 88/88/88 79/79/79
f 88/88/88 87/87/87 79/79/79
f 82/82/82 89/89/89 80/80/80
f 89/89/89 88/88/88 80/80/80
f 81/81/81 90/90/90 82/82/82
f 90/90/90 89/89/89 82/82/82
f 84/84/84 91/91/91 83/83/83
f 84/84/84 92/92/92 91/91/91
f 85/85/85 93/93/93 86/86/86
f 93/93/93 94/94/94 86/86/86
f 87/87/87 95/95/95 85/85/85
f 95/95/95 93/93/93 85/85/85
f 88/88/88 96/96/96 87/87/87
f 96/96/96 95/95/95 87/87/87
f 89/89/89 97/97/97 88/88/88
f 97/97/97 96/96/96 88/88/88
f 93/93/93 98/98/98 94/94/94
f 98/98/98 99/99/99 94/94/94
f 95/95/95 100/100/100 93/93/93
f 100/100/100 98/98/98 93/93/93
f 98/98/98 101/101/101 99/99/99
f 101/101/101 102/102/102 99/99/99
f 103/103/103 101/101/101 98/98/98
f 100/100/100 103/103/103 98/98/98
f 104/104/104 103/103/103 100/100/100
f 105/105/105 100/100/100 95/95/95
f 105/105/105 104/104/104 100/100/100
f 96/96/96 105/105/105 95/95/95
f 106/106/106 104/104/104 105/105/105
f 107/107/107 105/105/105 96/96/96
f 107/107/107 106/106/106 105/105/105
f 97/97/97 107/107/107 96/96/96
f 108/108/108 106/106/106 107/107/107
f 109/109/109 108/108/108 107/107/107
f 109/109/109 107/107/107 97/97/97
f 110/110/110 108/108/108 109/109/109
f 111/111/111 109/109/109 97/97/97
f 111/111/111 97/97/97 89/89/89
f 90/90/90 111/111/111 89/89/89
f 112/112/112 110/110/110 109/109/109
f 112/112/112 109/109/109 111/111/111
f 113/113/113 110/110/110 112/112/112
f 114/114/114 111/111/111 90/90/90
f 114/114/114 112/112/112 111/111/111
f 115/115/115 113/113/113 112/112/112
f 115/115/115 112/112/112 114/114/114
f 116/116/116 113/113/113 115/115/115
f 92/92/92 116/116/116 115/115/115
f 92/92/92 115/115/115 91/91/91
f 91/91/91 115/115/115 114/114/114
f 117/117/117 114/114/114 90/90/90
f 91/91/91 114/114/114 117/117/117
f 117/117/117 90/90/90 81/81/81
f 83/83/83 91/91/91 117/117/117
f 76/76/76 117/117/117 81/81/81
f 83/83/83 117/117/117 76/76/76
f 120/120/120 119/119/119 118/118/118
f 118/118/118 121/121/121 120/120/120
f 121/121/121 122/122/122 120/120/120
f 121/121/121 123/123/123 122/122/122
f 123/123/123 124/124/124 122/122/122
f 123/123/123 125/125/125 124/124/124
f 123/123/123 126/126/126 125/125/125
f 126/126/126 127/127/127 125/125/125
f 127/127/127 128/128/128 125/125/125
f 127/127/127 129/129/129 128/128/128
f 132/132/132 131/131/131 130/130/130
f 130/130/130 133/133/133 132/132/132
f 133/133/133 134/134/134 132/132/132
f 133/133/133 135/135/135 134/134/134
f 135/135/135 136/136/136 134/134/134
f 135/135/135 137/137/137 136/136/136
f 137/137/137 138/138/138 136/136/136
f 137/137/137 139/139/139 138/138/138
f 139/139/139 140/140/140 138/138/138
f 139/139/139 141/141/141 140/140/140
