g MES_Base-SpotLight
v 0 4.077991E-08 -0.2503053
v 0.09578767 0.06000002 -0.2312519
v 0 0.06000003 -0.2503053
v 0.09578767 3.767571E-08 -0.2312519
v 0.1769925 0.06000002 -0.1769925
v 0.1769925 2.883574E-08 -0.1769925
v 0.2312519 0.06 -0.09578766
v 0.2312519 1.560579E-08 -0.09578767
v 0.2503053 0.05999998 1.959202E-08
v 0.2503053 -1.599356E-15 9.816779E-09
v 0.2312519 0.05999997 0.0957877
v 0.2312519 -1.56058E-08 0.0957877
v 0.1769925 0.05999995 0.1769925
v 0.1769925 -2.883574E-08 0.1769925
v 0.09578767 0.05999995 0.2312519
v 0.09578767 -3.767571E-08 0.2312519
v 0 0.05999995 0.2503053
v 0 -4.077991E-08 0.2503053
v 0.1769925 0.05999995 0.1769925
v 0.09578767 0.05999995 0.2312519
v 0 0.05999995 0.2503053
v 0.2312519 0.05999997 0.0957877
v 0.2503053 0.05999998 1.959202E-08
v 0.2312519 0.06 -0.09578766
v 0.1769925 0.06000002 -0.1769925
v 0.09578767 0.06000002 -0.2312519
v 0 0.06000003 -0.2503053
v -0.09578767 0.06000002 -0.2312519
v -0.1769925 0.06000002 -0.1769925
v -0.2312519 0.06 -0.09578766
v -0.2503053 0.05999998 1.959202E-08
v -0.2312519 0.05999997 0.0957877
v -0.1769925 0.05999995 0.1769925
v -0.09578767 0.05999995 0.2312519
v 0 -4.077991E-08 0.2503053
v 0.09578767 -3.767571E-08 0.2312519
v 0.1769925 -2.883574E-08 0.1769925
v 0.2312519 -1.56058E-08 0.0957877
v 0.2503053 -1.599356E-15 9.816779E-09
v 0.2312519 1.560579E-08 -0.09578767
v 0.1769925 2.883574E-08 -0.1769925
v 0.09578767 3.767571E-08 -0.2312519
v 0 4.077991E-08 -0.2503053
v -0.09578767 3.767571E-08 -0.2312519
v -0.1769925 2.883574E-08 -0.1769925
v -0.2312519 1.560579E-08 -0.09578767
v -0.2503053 -1.599356E-15 9.816779E-09
v -0.2312519 -1.56058E-08 0.0957877
v -0.1769925 -2.883574E-08 0.1769925
v -0.09578767 -3.767571E-08 0.2312519
v 0.1887328 0.05801491 -0.09687677
v 0.1328815 0.1275414 -0.08950243
v 0.1328815 0.05801491 -0.09687677
v 0.1887328 0.1275414 -0.08950243
v 0.1328815 0.1864831 -0.06850218
v 0.1887328 0.1864831 -0.06850218
v 0.1328815 0.2258667 -0.03707308
v 0.1887328 0.2258667 -0.03707307
v 0.1328815 0.2396963 7.281659E-08
v 0.1887328 0.2396963 7.593668E-08
v 0.1328815 0.2258667 0.03707322
v 0.1887328 0.2258667 0.03707322
v 0.1328815 0.1864831 0.0685023
v 0.1887327 0.1864831 0.0685023
v 0.1328814 0.1275413 0.08950252
v 0.1887327 0.1275413 0.08950252
v 0.1328814 0.05801484 0.09687681
v 0.1887327 0.05801484 0.09687681
v 0.1328814 0.1275413 0.08950252
v 0.1328814 0.05801484 0.09687681
v 0.1328815 0.05801491 -0.09687677
v 0.1328815 0.1275414 -0.08950243
v 0.1328815 0.1864831 0.0685023
v 0.1328815 0.1864831 -0.06850218
v 0.1328815 0.2258667 0.03707322
v 0.1328815 0.2258667 -0.03707308
v 0.1328815 0.2396963 7.281659E-08
v 0.1887328 0.05801491 -0.09687677
v 0.1887327 0.05801484 0.09687681
v 0.1887327 0.1275413 0.08950252
v 0.1887328 0.1275414 -0.08950243
v 0.1887327 0.1864831 0.0685023
v 0.1887328 0.1864831 -0.06850218
v 0.1887328 0.2258667 0.03707322
v 0.1887328 0.2258667 -0.03707307
v 0.1887328 0.2396963 7.593668E-08
v 0 4.077991E-08 -0.2503053
v 0 0.06000003 -0.2503053
v -0.09578767 0.06000002 -0.2312519
v -0.09578767 3.767571E-08 -0.2312519
v -0.1769925 0.06000002 -0.1769925
v -0.1769925 2.883574E-08 -0.1769925
v -0.2312519 0.06 -0.09578766
v -0.2312519 1.560579E-08 -0.09578767
v -0.2503053 0.05999998 1.959202E-08
v -0.2503053 -1.599356E-15 9.816779E-09
v -0.2312519 0.05999997 0.0957877
v -0.2312519 -1.56058E-08 0.0957877
v -0.1769925 0.05999995 0.1769925
v -0.1769925 -2.883574E-08 0.1769925
v -0.09578767 0.05999995 0.2312519
v -0.09578767 -3.767571E-08 0.2312519
v 0 0.05999995 0.2503053
v 0 -4.077991E-08 0.2503053
v -0.1887328 0.05801491 -0.09687677
v -0.1328815 0.05801491 -0.09687677
v -0.1328815 0.1275414 -0.08950243
v -0.1887328 0.1275414 -0.08950243
v -0.1328815 0.1864831 -0.06850218
v -0.1887328 0.1864831 -0.06850218
v -0.1328815 0.2258667 -0.03707308
v -0.1887328 0.2258667 -0.03707307
v -0.1328815 0.2396963 7.281659E-08
v -0.1887328 0.2396963 7.593668E-08
v -0.1328815 0.2258667 0.03707322
v -0.1887328 0.2258667 0.03707322
v -0.1328815 0.1864831 0.0685023
v -0.1887327 0.1864831 0.0685023
v -0.1328814 0.1275413 0.08950252
v -0.1887327 0.1275413 0.08950252
v -0.1328814 0.05801484 0.09687681
v -0.1887327 0.05801484 0.09687681
v -0.1328815 0.05801491 -0.09687677
v -0.1328814 0.05801484 0.09687681
v -0.1328814 0.1275413 0.08950252
v -0.1328815 0.1275414 -0.08950243
v -0.1328815 0.1864831 0.0685023
v -0.1328815 0.1864831 -0.06850218
v -0.1328815 0.2258667 0.03707322
v -0.1328815 0.2258667 -0.03707308
v -0.1328815 0.2396963 7.281659E-08
v -0.1887327 0.1275413 0.08950252
v -0.1887327 0.05801484 0.09687681
v -0.1887328 0.05801491 -0.09687677
v -0.1887328 0.1275414 -0.08950243
v -0.1887327 0.1864831 0.0685023
v -0.1887328 0.1864831 -0.06850218
v -0.1887328 0.2258667 0.03707322
v -0.1887328 0.2258667 -0.03707307
v -0.1887328 0.2396963 7.593668E-08
vt 1 0.5
vt 0.9375 1
vt 1 1
vt 0.9375 0.5
vt 0.875 1
vt 0.875 0.5
vt 0.8125 1
vt 0.8125 0.5
vt 0.75 1
vt 0.75 0.5
vt 0.6875 1
vt 0.6875 0.5
vt 0.625 1
vt 0.625 0.5
vt 0.5625 1
vt 0.5625 0.5
vt 0.5 1
vt 0.5 0.5
vt 0.625 1
vt 0.5625 1
vt 0.5 1
vt 0.6875 1
vt 0.75 1
vt 0.8125 1
vt 0.875 1
vt 0.9375 1
vt 1 1
vt 0.9375 1
vt 0.875 1
vt 0.8125 1
vt 0.75 1
vt 0.6875 1
vt 0.625 1
vt 0.5625 1
vt 0.5 0.5
vt 0.5625 0.5
vt 0.625 0.5
vt 0.6875 0.5
vt 0.75 0.5
vt 0.8125 0.5
vt 0.875 0.5
vt 0.9375 0.5
vt 1 0.5
vt 0.9375 0.5
vt 0.875 0.5
vt 0.8125 0.5
vt 0.75 0.5
vt 0.6875 0.5
vt 0.625 0.5
vt 0.5625 0.5
vt 1 0.5
vt 0.9375 1
vt 1 1
vt 0.9375 0.5
vt 0.875 1
vt 0.875 0.5
vt 0.8125 1
vt 0.8125 0.5
vt 0.75 1
vt 0.75 0.5
vt 0.6875 1
vt 0.6875 0.5
vt 0.625 1
vt 0.625 0.5
vt 0.5625 1
vt 0.5625 0.5
vt 0.5 1
vt 0.5 0.5
vt 0.5625 1
vt 0.5 1
vt 1 1
vt 0.9375 1
vt 0.625 1
vt 0.875 1
vt 0.6875 1
vt 0.8125 1
vt 0.75 1
vt 1 0.5
vt 0.5 0.5
vt 0.5625 0.5
vt 0.9375 0.5
vt 0.625 0.5
vt 0.875 0.5
vt 0.6875 0.5
vt 0.8125 0.5
vt 0.75 0.5
vt 1 0.5
vt 1 1
vt 0.9375 1
vt 0.9375 0.5
vt 0.875 1
vt 0.875 0.5
vt 0.8125 1
vt 0.8125 0.5
vt 0.75 1
vt 0.75 0.5
vt 0.6875 1
vt 0.6875 0.5
vt 0.625 1
vt 0.625 0.5
vt 0.5625 1
vt 0.5625 0.5
vt 0.5 1
vt 0.5 0.5
vt 1 0.5
vt 1 1
vt 0.9375 1
vt 0.9375 0.5
vt 0.875 1
vt 0.875 0.5
vt 0.8125 1
vt 0.8125 0.5
vt 0.75 1
vt 0.75 0.5
vt 0.6875 1
vt 0.6875 0.5
vt 0.625 1
vt 0.625 0.5
vt 0.5625 1
vt 0.5625 0.5
vt 0.5 1
vt 0.5 0.5
vt 1 1
vt 0.5 1
vt 0.5625 1
vt 0.9375 1
vt 0.625 1
vt 0.875 1
vt 0.6875 1
vt 0.8125 1
vt 0.75 1
vt 0.5625 0.5
vt 0.5 0.5
vt 1 0.5
vt 0.9375 0.5
vt 0.625 0.5
vt 0.875 0.5
vt 0.6875 0.5
vt 0.8125 0.5
vt 0.75 0.5
vn 0 0 -1
vn 0.3825684 1.788139E-07 -0.9238281
vn 0 0 -1
vn 0.3825684 1.788139E-07 -0.9238281
vn 0.7070313 1.788139E-07 -0.7070313
vn 0.7070313 1.788139E-07 -0.7070313
vn 0.9238281 0 -0.3825684
vn 0.9238281 0 -0.3825684
vn 1 0 0
vn 1 0 0
vn 0.9238281 0 0.3825684
vn 0.9238281 0 0.3825684
vn 0.7070313 -2.384186E-07 0.7070313
vn 0.7070313 -2.384186E-07 0.7070313
vn 0.3825684 -2.980232E-07 0.9238281
vn 0.3825684 -2.980232E-07 0.9238281
vn 0 -2.980232E-07 1
vn 0 -2.980232E-07 1
vn 0 1 1.788139E-07
vn 0 1 1.788139E-07
vn 0 1 1.788139E-07
vn 0 1 1.788139E-07
vn 0 1 1.788139E-07
vn 0 1 1.788139E-07
vn 0 1 1.788139E-07
vn 0 1 1.788139E-07
vn 0 1 1.788139E-07
vn 0 1 1.788139E-07
vn 0 1 1.788139E-07
vn 0 1 1.788139E-07
vn 0 1 1.788139E-07
vn 0 1 1.788139E-07
vn 0 1 1.788139E-07
vn 0 1 1.788139E-07
vn 0 -1 -1.788139E-07
vn 0 -1 -1.788139E-07
vn 0 -1 -1.788139E-07
vn 0 -1 -1.788139E-07
vn 0 -1 -1.788139E-07
vn 0 -1 -1.788139E-07
vn 0 -1 -1.788139E-07
vn 0 -1 -1.788139E-07
vn 0 -1 -1.788139E-07
vn 0 -1 -1.788139E-07
vn 0 -1 -1.788139E-07
vn 0 -1 -1.788139E-07
vn 0 -1 -1.788139E-07
vn 0 -1 -1.788139E-07
vn 0 -1 -1.788139E-07
vn 0 -1 -1.788139E-07
vn 0 0.1054688 -0.9946289
vn 0 0.2220459 -0.9750977
vn 0 0.1054688 -0.9946289
vn 0 0.2220459 -0.9750977
vn 0 0.4863281 -0.8735352
vn 0 0.4863281 -0.8735352
vn 2.384186E-07 0.8095703 -0.5869141
vn 2.384186E-07 0.8095703 -0.5869141
vn 0 1 0
vn 0 1 0
vn -2.384186E-07 0.8095703 0.5869141
vn -2.384186E-07 0.8095703 0.5869141
vn 0 0.4863281 0.8735352
vn 0 0.4863281 0.8735352
vn 0 0.2220459 0.9750977
vn 0 0.2220459 0.9750977
vn 0 0.1054688 0.9946289
vn 0 0.1054688 0.9946289
vn -1 1.192093E-07 -3.576279E-07
vn -1 1.192093E-07 -3.576279E-07
vn -1 1.192093E-07 -3.576279E-07
vn -1 1.192093E-07 -3.576279E-07
vn -1 1.192093E-07 -3.576279E-07
vn -1 1.192093E-07 -3.576279E-07
vn -1 1.192093E-07 -3.576279E-07
vn -1 1.192093E-07 -3.576279E-07
vn -1 1.192093E-07 -3.576279E-07
vn 1 -1.192093E-07 2.980232E-07
vn 1 -1.192093E-07 2.980232E-07
vn 1 -1.192093E-07 2.980232E-07
vn 1 -1.192093E-07 2.980232E-07
vn 1 -1.192093E-07 2.980232E-07
vn 1 -1.192093E-07 2.980232E-07
vn 1 -1.192093E-07 2.980232E-07
vn 1 -1.192093E-07 2.980232E-07
vn 1 -1.192093E-07 2.980232E-07
vn 0 0 -1
vn 0 0 -1
vn -0.3825684 1.788139E-07 -0.9238281
vn -0.3825684 1.788139E-07 -0.9238281
vn -0.7070313 1.788139E-07 -0.7070313
vn -0.7070313 1.788139E-07 -0.7070313
vn -0.9238281 0 -0.3825684
vn -0.9238281 0 -0.3825684
vn -1 0 0
vn -1 0 0
vn -0.9238281 0 0.3825684
vn -0.9238281 0 0.3825684
vn -0.7070313 -2.384186E-07 0.7070313
vn -0.7070313 -2.384186E-07 0.7070313
vn -0.3825684 -2.980232E-07 0.9238281
vn -0.3825684 -2.980232E-07 0.9238281
vn 0 -2.980232E-07 1
vn 0 -2.980232E-07 1
vn 0 0.1054688 -0.9946289
vn 0 0.1054688 -0.9946289
vn 0 0.2220459 -0.9750977
vn 0 0.2220459 -0.9750977
vn 0 0.4863281 -0.8735352
vn 0 0.4863281 -0.8735352
vn -2.980232E-07 0.8095703 -0.5869141
vn -2.980232E-07 0.8095703 -0.5869141
vn 0 1 0
vn 0 1 0
vn 2.384186E-07 0.8095703 0.5869141
vn 2.384186E-07 0.8095703 0.5869141
vn 0 0.4863281 0.8735352
vn 0 0.4863281 0.8735352
vn 0 0.2220459 0.9750977
vn 0 0.2220459 0.9750977
vn 0 0.1054688 0.9946289
vn 0 0.1054688 0.9946289
vn 1 1.192093E-07 -3.576279E-07
vn 1 1.192093E-07 -3.576279E-07
vn 1 1.192093E-07 -3.576279E-07
vn 1 1.192093E-07 -3.576279E-07
vn 1 1.192093E-07 -3.576279E-07
vn 1 1.192093E-07 -3.576279E-07
vn 1 1.192093E-07 -3.576279E-07
vn 1 1.192093E-07 -3.576279E-07
vn 1 1.192093E-07 -3.576279E-07
vn -1 -1.192093E-07 4.172325E-07
vn -1 -1.192093E-07 4.172325E-07
vn -1 -1.192093E-07 4.172325E-07
vn -1 -1.192093E-07 4.172325E-07
vn -1 -1.192093E-07 4.172325E-07
vn -1 -1.192093E-07 4.172325E-07
vn -1 -1.192093E-07 4.172325E-07
vn -1 -1.192093E-07 4.172325E-07
vn -1 -1.192093E-07 4.172325E-07
g MES_Base-SpotLight_0
f 3/3/3 2/2/2 1/1/1
f 2/2/2 4/4/4 1/1/1
f 2/2/2 5/5/5 4/4/4
f 5/5/5 6/6/6 4/4/4
f 5/5/5 7/7/7 6/6/6
f 7/7/7 8/8/8 6/6/6
f 7/7/7 9/9/9 8/8/8
f 9/9/9 10/10/10 8/8/8
f 9/9/9 11/11/11 10/10/10
f 11/11/11 12/12/12 10/10/10
f 11/11/11 13/13/13 12/12/12
f 13/13/13 14/14/14 12/12/12
f 13/13/13 15/15/15 14/14/14
f 15/15/15 16/16/16 14/14/14
f 15/15/15 17/17/17 16/16/16
f 17/17/17 18/18/18 16/16/16
f 21/21/21 20/20/20 19/19/19
f 21/21/21 19/19/19 22/22/22
f 21/21/21 22/22/22 23/23/23
f 21/21/21 23/23/23 24/24/24
f 21/21/21 24/24/24 25/25/25
f 21/21/21 25/25/25 26/26/26
f 26/26/26 27/27/27 21/21/21
f 21/21/21 27/27/27 28/28/28
f 28/28/28 29/29/29 21/21/21
f 29/29/29 30/30/30 21/21/21
f 30/30/30 31/31/31 21/21/21
f 31/31/31 32/32/32 21/21/21
f 32/32/32 33/33/33 21/21/21
f 33/33/33 34/34/34 21/21/21
f 37/37/37 36/36/36 35/35/35
f 38/38/38 37/37/37 35/35/35
f 39/39/39 38/38/38 35/35/35
f 40/40/40 39/39/39 35/35/35
f 41/41/41 40/40/40 35/35/35
f 42/42/42 41/41/41 35/35/35
f 35/35/35 43/43/43 42/42/42
f 44/44/44 43/43/43 35/35/35
f 35/35/35 45/45/45 44/44/44
f 35/35/35 46/46/46 45/45/45
f 35/35/35 47/47/47 46/46/46
f 35/35/35 48/48/48 47/47/47
f 35/35/35 49/49/49 48/48/48
f 35/35/35 50/50/50 49/49/49
f 53/53/53 52/52/52 51/51/51
f 52/52/52 54/54/54 51/51/51
f 52/52/52 55/55/55 54/54/54
f 55/55/55 56/56/56 54/54/54
f 55/55/55 57/57/57 56/56/56
f 57/57/57 58/58/58 56/56/56
f 57/57/57 59/59/59 58/58/58
f 59/59/59 60/60/60 58/58/58
f 59/59/59 61/61/61 60/60/60
f 61/61/61 62/62/62 60/60/60
f 61/61/61 63/63/63 62/62/62
f 63/63/63 64/64/64 62/62/62
f 63/63/63 65/65/65 64/64/64
f 65/65/65 66/66/66 64/64/64
f 65/65/65 67/67/67 66/66/66
f 67/67/67 68/68/68 66/66/66
f 71/71/71 70/70/70 69/69/69
f 69/69/69 72/72/72 71/71/71
f 69/69/69 73/73/73 72/72/72
f 73/73/73 74/74/74 72/72/72
f 73/73/73 75/75/75 74/74/74
f 75/75/75 76/76/76 74/74/74
f 75/75/75 77/77/77 76/76/76
f 80/80/80 79/79/79 78/78/78
f 78/78/78 81/81/81 80/80/80
f 81/81/81 82/82/82 80/80/80
f 81/81/81 83/83/83 82/82/82
f 83/83/83 84/84/84 82/82/82
f 83/83/83 85/85/85 84/84/84
f 85/85/85 86/86/86 84/84/84
f 89/89/89 88/88/88 87/87/87
f 90/90/90 89/89/89 87/87/87
f 91/91/91 89/89/89 90/90/90
f 92/92/92 91/91/91 90/90/90
f 93/93/93 91/91/91 92/92/92
f 94/94/94 93/93/93 92/92/92
f 95/95/95 93/93/93 94/94/94
f 96/96/96 95/95/95 94/94/94
f 97/97/97 95/95/95 96/96/96
f 98/98/98 97/97/97 96/96/96
f 99/99/99 97/97/97 98/98/98
f 100/100/100 99/99/99 98/98/98
f 101/101/101 99/99/99 100/100/100
f 102/102/102 101/101/101 100/100/100
f 103/103/103 101/101/101 102/102/102
f 104/104/104 103/103/103 102/102/102
f 107/107/107 106/106/106 105/105/105
f 108/108/108 107/107/107 105/105/105
f 109/109/109 107/107/107 108/108/108
f 110/110/110 109/109/109 108/108/108
f 111/111/111 109/109/109 110/110/110
f 112/112/112 111/111/111 110/110/110
f 113/113/113 111/111/111 112/112/112
f 114/114/114 113/113/113 112/112/112
f 115/115/115 113/113/113 114/114/114
f 116/116/116 115/115/115 114/114/114
f 117/117/117 115/115/115 116/116/116
f 118/118/118 117/117/117 116/116/116
f 119/119/119 117/117/117 118/118/118
f 120/120/120 119/119/119 118/118/118
f 121/121/121 119/119/119 120/120/120
f 122/122/122 121/121/121 120/120/120
f 125/125/125 124/124/124 123/123/123
f 123/123/123 126/126/126 125/125/125
f 126/126/126 127/127/127 125/125/125
f 126/126/126 128/128/128 127/127/127
f 128/128/128 129/129/129 127/127/127
f 128/128/128 130/130/130 129/129/129
f 130/130/130 131/131/131 129/129/129
f 134/134/134 133/133/133 132/132/132
f 132/132/132 135/135/135 134/134/134
f 132/132/132 136/136/136 135/135/135
f 136/136/136 137/137/137 135/135/135
f 136/136/136 138/138/138 137/137/137
f 138/138/138 139/139/139 137/137/137
f 138/138/138 140/140/140 139/139/139
