g MES_StickMan-Head_LNR
v 0.06596466 -0.06299993 0.06634384
v 0.09328821 0.039775 7.115221E-08
v 0.09328821 -0.0629999 3.710297E-08
v 0.06596466 0.03977498 0.06634387
v 0 -0.06299993 0.0936673
v 0 0.03977497 0.09366735
v 0 0.07419047 0.1625324
v 0.1407572 0.0741905 0.08126623
v 0.1625324 0.07419034 5.046887E-08
v 0.08126618 0.07419048 0.1407572
v 0 0.1353645 0.2237066
v 0.1118533 0.1353645 0.1937356
v 0 0.2124486 0.2629829
v 0.1937356 0.1353646 0.1118533
v 0.2237066 0.1353646 7.366373E-08
v 0.1314914 0.2124486 0.2277498
v 0 0.2978967 0.2765166
v 0.2277498 0.2124486 0.1314915
v 0.2629828 0.2124487 9.272974E-08
v 0.1382582 0.2978967 0.2394704
v 0 0.3833452 0.2629829
v 0.2394703 0.2978968 0.1382584
v 0.2765165 0.2978969 1.058006E-07
v 0.1314914 0.3833449 0.2277499
v 0 0.4604292 0.2237067
v 0.2277498 0.3833449 0.1314916
v 0.2629828 0.383345 1.355125E-07
v 0.1118533 0.4604292 0.1937357
v 0 0.5216035 0.1625325
v 0.1937356 0.4604293 0.1118534
v 0.2237066 0.4604293 1.550416E-07
v 0.08126618 0.5216035 0.1407573
v 0 0.5608798 0.08544852
v 0.1407572 0.5216036 0.08126631
v 0.1625324 0.5216034 1.54235E-07
v 0.04272418 0.5608798 0.07400061
v 0 0.5744136 2.173256E-07
v 0.07400046 0.5608798 0.04272434
v 0.08544836 0.5608798 1.686423E-07
v 0.06596466 -0.06299987 -0.06558544
v 0 0.03977504 -0.09290886
v 0 -0.06299987 -0.09422226
v 0.06596466 0.03977503 -0.06558541
v 0.09328821 -0.0629999 3.710297E-08
v 0.09328821 0.039775 7.115221E-08
v 0.1625324 0.07419034 5.046887E-08
v 0.08126618 0.07419039 -0.1407571
v 0 0.07419041 -0.1625323
v 0.1407572 0.07419037 -0.08126612
v 0.2237066 0.1353646 7.366373E-08
v 0.1937356 0.1353647 -0.1118532
v 0.2629828 0.2124487 9.272974E-08
v 0.1118533 0.1353647 -0.1937355
v 0 0.1353647 -0.2237066
v 0.2277498 0.2124487 -0.1314913
v 0.2765165 0.2978969 1.058006E-07
v 0.1314914 0.2124486 -0.2277498
v 0 0.2124486 -0.2629827
v 0.2394704 0.2978969 -0.1382582
v 0.2629828 0.383345 1.355125E-07
v 0.1382583 0.297897 -0.2394702
v 0 0.297897 -0.2765163
v 0.2277499 0.383345 -0.1314913
v 0.2237066 0.4604293 1.550416E-07
v 0.1314914 0.383345 -0.2277497
v 0 0.383345 -0.2629827
v 0.1937356 0.4604293 -0.1118531
v 0.1625324 0.5216034 1.54235E-07
v 0.1118533 0.4604294 -0.1937354
v 0 0.4604294 -0.2237064
v 0.1407572 0.5216034 -0.08126603
v 0.08544836 0.5608798 1.686423E-07
v 0.08126618 0.5216035 -0.140757
v 0 0.5216035 -0.1625322
v 0.07400046 0.5608798 -0.04272402
v 0 0.5744136 2.173256E-07
v 0.04272419 0.5608798 -0.07400029
v 0 0.5608798 -0.0854482
v -0.06596466 -0.06299993 0.06634384
v -0.09328821 -0.0629999 3.710297E-08
v -0.09328821 0.039775 7.115221E-08
v -0.06596466 0.03977498 0.06634387
v 0 -0.06299993 0.0936673
v 0 0.03977497 0.09366735
v 0 0.07419047 0.1625324
v -0.1407572 0.0741905 0.08126623
v -0.1625324 0.07419034 5.046887E-08
v -0.08126618 0.07419048 0.1407572
v 0 0.1353645 0.2237066
v -0.1118533 0.1353645 0.1937356
v 0 0.2124486 0.2629829
v -0.1937356 0.1353646 0.1118533
v -0.2237066 0.1353646 7.366373E-08
v -0.1314914 0.2124486 0.2277498
v 0 0.2978967 0.2765166
v -0.2277498 0.2124486 0.1314915
v -0.2629828 0.2124487 9.272974E-08
v -0.1382582 0.2978967 0.2394704
v 0 0.3833452 0.2629829
v -0.2394703 0.2978968 0.1382584
v -0.2765165 0.2978969 1.058006E-07
v -0.1314914 0.3833449 0.2277499
v 0 0.4604292 0.2237067
v -0.2277498 0.3833449 0.1314916
v -0.2629828 0.383345 1.355125E-07
v -0.1118533 0.4604292 0.1937357
v 0 0.5216035 0.1625325
v -0.1937356 0.4604293 0.1118534
v -0.2237066 0.4604293 1.550416E-07
v -0.08126618 0.5216035 0.1407573
v 0 0.5608798 0.08544852
v -0.1407572 0.5216036 0.08126631
v -0.1625324 0.5216034 1.54235E-07
v -0.04272418 0.5608798 0.07400061
v 0 0.5744136 2.173256E-07
v -0.07400046 0.5608798 0.04272434
v -0.08544836 0.5608798 1.686423E-07
v -0.06596466 -0.06299987 -0.06558544
v 0 -0.06299987 -0.09422226
v 0 0.03977504 -0.09290886
v -0.06596466 0.03977503 -0.06558541
v -0.09328821 -0.0629999 3.710297E-08
v -0.09328821 0.039775 7.115221E-08
v -0.1625324 0.07419034 5.046887E-08
v -0.08126618 0.07419039 -0.1407571
v 0 0.07419041 -0.1625323
v -0.1407572 0.07419037 -0.08126612
v -0.2237066 0.1353646 7.366373E-08
v -0.1937356 0.1353647 -0.1118532
v -0.2629828 0.2124487 9.272974E-08
v -0.1118533 0.1353647 -0.1937355
v 0 0.1353647 -0.2237066
v -0.2277498 0.2124487 -0.1314913
v -0.2765165 0.2978969 1.058006E-07
v -0.1314914 0.2124486 -0.2277498
v 0 0.2124486 -0.2629827
v -0.2394704 0.2978969 -0.1382582
v -0.2629828 0.383345 1.355125E-07
v -0.1382583 0.297897 -0.2394702
v 0 0.297897 -0.2765163
v -0.2277499 0.383345 -0.1314913
v -0.2237066 0.4604293 1.550416E-07
v -0.1314914 0.383345 -0.2277497
v 0 0.383345 -0.2629827
v -0.1937356 0.4604293 -0.1118531
v -0.1625324 0.5216034 1.54235E-07
v -0.1118533 0.4604294 -0.1937354
v 0 0.4604294 -0.2237064
v -0.1407572 0.5216034 -0.08126603
v -0.08544836 0.5608798 1.686423E-07
v -0.08126618 0.5216035 -0.140757
v 0 0.5216035 -0.1625322
v -0.07400046 0.5608798 -0.04272402
v 0 0.5744136 2.173256E-07
v -0.04272419 0.5608798 -0.07400029
v 0 0.5608798 -0.0854482
v 0.06596466 -0.06299987 -0.06558544
v 0 -0.06299987 -0.09422226
v -0.06596466 -0.06299987 -0.06558544
v 0.09328821 -0.0629999 3.710297E-08
v -0.09328821 -0.0629999 3.710297E-08
v 0.06596466 -0.06299993 0.06634384
v -0.06596466 -0.06299993 0.06634384
v 0 -0.06299993 0.0936673
vt 0.06280518 0.03111267
vt 0.06292725 0.03117371
vt 0.06292725 0.03112793
vt 0.06280518 0.03117371
vt 0.06262207 0.03109741
vt 0.06262207 0.03117371
vt 0.06262207 0.03128052
vt 0.06304932 0.03128052
vt 0.06311035 0.03128052
vt 0.06286621 0.03128052
vt 0.06262207 0.03146362
vt 0.06298828 0.03146362
vt 0.06262207 0.03170776
vt 0.06323242 0.03146362
vt 0.06335449 0.03146362
vt 0.06304932 0.03170776
vt 0.06262207 0.03198242
vt 0.06335449 0.03170776
vt 0.06347656 0.03170776
vt 0.06304932 0.03198242
vt 0.06262207 0.03225708
vt 0.06335449 0.03198242
vt 0.06347656 0.03198242
vt 0.06304932 0.03225708
vt 0.06262207 0.03250122
vt 0.06335449 0.03225708
vt 0.06347656 0.03225708
vt 0.06298828 0.03250122
vt 0.06262207 0.03268433
vt 0.06323242 0.03250122
vt 0.06335449 0.03250122
vt 0.06286621 0.03268433
vt 0.06262207 0.0328064
vt 0.06304932 0.03268433
vt 0.06311035 0.03268433
vt 0.06274414 0.0328064
vt 0.06262207 0.03286743
vt 0.06286621 0.0328064
vt 0.06286621 0.0328064
vt 0.06280518 0.03111267
vt 0.06262207 0.03117371
vt 0.06262207 0.03108215
vt 0.06280518 0.03117371
vt 0.06292725 0.03112793
vt 0.06292725 0.03117371
vt 0.06311035 0.03128052
vt 0.06286621 0.03128052
vt 0.06262207 0.03128052
vt 0.06304932 0.03128052
vt 0.06335449 0.03146362
vt 0.06323242 0.03146362
vt 0.06347656 0.03170776
vt 0.06298828 0.03146362
vt 0.06262207 0.03146362
vt 0.06335449 0.03170776
vt 0.06347656 0.03198242
vt 0.06304932 0.03170776
vt 0.06262207 0.03170776
vt 0.06335449 0.03198242
vt 0.06347656 0.03225708
vt 0.06304932 0.03198242
vt 0.06262207 0.03198242
vt 0.06335449 0.03225708
vt 0.06335449 0.03250122
vt 0.06304932 0.03225708
vt 0.06262207 0.03225708
vt 0.06323242 0.03250122
vt 0.06311035 0.03268433
vt 0.06298828 0.03250122
vt 0.06262207 0.03250122
vt 0.06304932 0.03268433
vt 0.06286621 0.0328064
vt 0.06286621 0.03268433
vt 0.06262207 0.03268433
vt 0.06286621 0.0328064
vt 0.06262207 0.03286743
vt 0.06274414 0.0328064
vt 0.06262207 0.0328064
vt 0.06280518 0.03111267
vt 0.06292725 0.03112793
vt 0.06292725 0.03117371
vt 0.06280518 0.03117371
vt 0.06262207 0.03109741
vt 0.06262207 0.03117371
vt 0.06262207 0.03128052
vt 0.06304932 0.03128052
vt 0.06311035 0.03128052
vt 0.06286621 0.03128052
vt 0.06262207 0.03146362
vt 0.06298828 0.03146362
vt 0.06262207 0.03170776
vt 0.06323242 0.03146362
vt 0.06335449 0.03146362
vt 0.06304932 0.03170776
vt 0.06262207 0.03198242
vt 0.06335449 0.03170776
vt 0.06347656 0.03170776
vt 0.06304932 0.03198242
vt 0.06262207 0.03225708
vt 0.06335449 0.03198242
vt 0.06347656 0.03198242
vt 0.06304932 0.03225708
vt 0.06262207 0.03250122
vt 0.06335449 0.03225708
vt 0.06347656 0.03225708
vt 0.06298828 0.03250122
vt 0.06262207 0.03268433
vt 0.06323242 0.03250122
vt 0.06335449 0.03250122
vt 0.06286621 0.03268433
vt 0.06262207 0.0328064
vt 0.06304932 0.03268433
vt 0.06311035 0.03268433
vt 0.06274414 0.0328064
vt 0.06262207 0.03286743
vt 0.06286621 0.0328064
vt 0.06286621 0.0328064
vt 0.06280518 0.03111267
vt 0.06262207 0.03108215
vt 0.06262207 0.03117371
vt 0.06280518 0.03117371
vt 0.06292725 0.03112793
vt 0.06292725 0.03117371
vt 0.06311035 0.03128052
vt 0.06286621 0.03128052
vt 0.06262207 0.03128052
vt 0.06304932 0.03128052
vt 0.06335449 0.03146362
vt 0.06323242 0.03146362
vt 0.06347656 0.03170776
vt 0.06298828 0.03146362
vt 0.06262207 0.03146362
vt 0.06335449 0.03170776
vt 0.06347656 0.03198242
vt 0.06304932 0.03170776
vt 0.06262207 0.03170776
vt 0.06335449 0.03198242
vt 0.06347656 0.03225708
vt 0.06304932 0.03198242
vt 0.06262207 0.03198242
vt 0.06335449 0.03225708
vt 0.06335449 0.03250122
vt 0.06304932 0.03225708
vt 0.06262207 0.03225708
vt 0.06323242 0.03250122
vt 0.06311035 0.03268433
vt 0.06298828 0.03250122
vt 0.06262207 0.03250122
vt 0.06304932 0.03268433
vt 0.06286621 0.0328064
vt 0.06286621 0.03268433
vt 0.06262207 0.03268433
vt 0.06286621 0.0328064
vt 0.06262207 0.03286743
vt 0.06274414 0.0328064
vt 0.06262207 0.0328064
vt 0.06280518 0.03111267
vt 0.06262207 0.03108215
vt 0.06280518 0.03111267
vt 0.06292725 0.03112793
vt 0.06292725 0.03112793
vt 0.06280518 0.03111267
vt 0.06280518 0.03111267
vt 0.06262207 0.03109741
vn 0.7080078 -2.384186E-07 0.706543
vn 0.7929688 -0.609375 -0.001293182
vn 1 0 -0.002031326
vn 0.5620117 -0.6069336 0.5615234
vn 0 -2.980232E-07 1
vn 0 -0.6083984 0.7939453
vn 0 -0.8061523 0.5917969
vn 0.5209961 -0.7998047 0.2980957
vn 0.5908203 -0.8066406 -0.0001089573
vn 0.2983398 -0.7993164 0.5214844
vn 0 -0.5756836 0.8173828
vn 0.4086914 -0.5756836 0.7080078
vn 0 -0.3017578 0.9536133
vn 0.7080078 -0.5756836 0.4086914
vn 0.8173828 -0.5756836 -5.960464E-08
vn 0.4768066 -0.3017578 0.8256836
vn 0 -4.768372E-07 1
vn 0.8256836 -0.3017578 0.4768066
vn 0.9536133 -0.3017578 -5.960464E-08
vn 0.5 -3.576279E-07 0.8662109
vn 0 0.3017578 0.9536133
vn 0.8662109 -1.192093E-07 0.5
vn 1 -5.960464E-08 1.192093E-07
vn 0.4768066 0.3017578 0.8256836
vn -5.960464E-08 0.5756836 0.8173828
vn 0.8256836 0.3017578 0.4768066
vn 0.9536133 0.3017578 2.980232E-07
vn 0.4086914 0.5756836 0.7080078
vn 0 0.796875 0.6044922
vn 0.7080078 0.5756836 0.4086914
vn 0.8173828 0.5756836 5.960464E-08
vn 0.3022461 0.796875 0.5234375
vn 5.960464E-08 0.9433594 0.3322754
vn 0.5234375 0.796875 0.3022461
vn 0.6044922 0.796875 -4.172325E-07
vn 0.1661377 0.9433594 0.2875977
vn 0 1 1.192093E-07
vn 0.2875977 0.9433594 0.1661377
vn 0.3322754 0.9433594 -4.172325E-07
vn 0.715332 0.01308441 -0.6982422
vn 0 -0.6083984 -0.7939453
vn -8.940697E-07 0.0275116 -0.9995117
vn 0.5634766 -0.6064453 -0.5610352
vn 1 0 -0.002031326
vn 0.7929688 -0.609375 -0.001293182
vn 0.5908203 -0.8066406 -0.0001089573
vn 0.2976074 -0.800293 -0.5200195
vn 0 -0.8071289 -0.590332
vn 0.5205078 -0.800293 -0.2980957
vn 0.8173828 -0.5756836 -5.960464E-08
vn 0.7080078 -0.5756836 -0.4086914
vn 0.9536133 -0.3017578 -5.960464E-08
vn 0.4086914 -0.5756836 -0.7080078
vn 0 -0.5756836 -0.8173828
vn 0.8256836 -0.3017578 -0.4768066
vn 1 -5.960464E-08 1.192093E-07
vn 0.4768066 -0.3017578 -0.8256836
vn 0 -0.3017578 -0.9536133
vn 0.8662109 1.192093E-07 -0.5
vn 0.9536133 0.3017578 2.980232E-07
vn 0.5 3.576279E-07 -0.8662109
vn 0 4.768372E-07 -1
vn 0.8256836 0.3017578 -0.4768066
vn 0.8173828 0.5756836 5.960464E-08
vn 0.4768066 0.3017578 -0.8256836
vn 0 0.3017578 -0.9536133
vn 0.7080078 0.5756836 -0.4086914
vn 0.6044922 0.796875 -4.172325E-07
vn 0.4086914 0.5756836 -0.7080078
vn 0 0.5756836 -0.8173828
vn 0.5234375 0.796875 -0.3022461
vn 0.3322754 0.9433594 -4.172325E-07
vn 0.3022461 0.796875 -0.5234375
vn 5.960464E-08 0.796875 -0.6044922
vn 0.2875977 0.9433594 -0.1661377
vn 0 1 1.192093E-07
vn 0.1661377 0.9433594 -0.2875977
vn 0 0.9433594 -0.3322754
vn -0.7080078 -2.384186E-07 0.706543
vn -1 0 -0.002031326
vn -0.7929688 -0.609375 -0.001293182
vn -0.5620117 -0.6069336 0.5615234
vn 0 -2.980232E-07 1
vn 0 -0.6083984 0.7939453
vn 0 -0.8061523 0.5917969
vn -0.5209961 -0.7998047 0.2980957
vn -0.5908203 -0.8066406 -0.0001089573
vn -0.2983398 -0.7993164 0.5214844
vn 0 -0.5756836 0.8173828
vn -0.4086914 -0.5756836 0.7080078
vn 0 -0.3017578 0.9536133
vn -0.7080078 -0.5756836 0.4086914
vn -0.8173828 -0.5756836 -5.960464E-08
vn -0.4768066 -0.3017578 0.8256836
vn 0 -4.768372E-07 1
vn -0.8256836 -0.3017578 0.4768066
vn -0.9536133 -0.3017578 0
vn -0.5 -3.576279E-07 0.8662109
vn 0 0.3017578 0.9536133
vn -0.8662109 -1.192093E-07 0.5
vn -1 -5.960464E-08 1.192093E-07
vn -0.4768066 0.3017578 0.8256836
vn -5.960464E-08 0.5756836 0.8173828
vn -0.8256836 0.3017578 0.4768066
vn -0.9536133 0.3017578 2.980232E-07
vn -0.4086914 0.5756836 0.7080078
vn 0 0.796875 0.6044922
vn -0.7080078 0.5756836 0.4086914
vn -0.8173828 0.5756836 5.960464E-08
vn -0.3022461 0.796875 0.5234375
vn 5.960464E-08 0.9433594 0.3322754
vn -0.5234375 0.796875 0.3022461
vn -0.6044922 0.796875 -4.768372E-07
vn -0.1661377 0.9433594 0.2875977
vn 0 1 1.192093E-07
vn -0.2875977 0.9433594 0.1661377
vn -0.3322754 0.9433594 -4.172325E-07
vn -0.715332 0.01308441 -0.6982422
vn -8.940697E-07 0.0275116 -0.9995117
vn 0 -0.6083984 -0.7939453
vn -0.5634766 -0.6064453 -0.5610352
vn -1 0 -0.002031326
vn -0.7929688 -0.609375 -0.001293182
vn -0.5908203 -0.8066406 -0.0001089573
vn -0.2976074 -0.800293 -0.5200195
vn 0 -0.8071289 -0.590332
vn -0.5205078 -0.800293 -0.2980957
vn -0.8173828 -0.5756836 -5.960464E-08
vn -0.7080078 -0.5756836 -0.4086914
vn -0.9536133 -0.3017578 0
vn -0.4086914 -0.5756836 -0.7080078
vn 0 -0.5756836 -0.8173828
vn -0.8256836 -0.3017578 -0.4768066
vn -1 -5.960464E-08 1.192093E-07
vn -0.4768066 -0.3017578 -0.8256836
vn 0 -0.3017578 -0.9536133
vn -0.8662109 1.192093E-07 -0.5
vn -0.9536133 0.3017578 2.980232E-07
vn -0.5 3.576279E-07 -0.8662109
vn 0 4.768372E-07 -1
vn -0.8256836 0.3017578 -0.4768066
vn -0.8173828 0.5756836 5.960464E-08
vn -0.4768066 0.3017578 -0.8256836
vn 0 0.3017578 -0.9536133
vn -0.7080078 0.5756836 -0.4086914
vn -0.6044922 0.796875 -4.768372E-07
vn -0.4086914 0.5756836 -0.7080078
vn 0 0.5756836 -0.8173828
vn -0.5234375 0.796875 -0.3022461
vn -0.3322754 0.9433594 -4.172325E-07
vn -0.3022461 0.796875 -0.5234375
vn 5.960464E-08 0.796875 -0.6044922
vn -0.2875977 0.9433594 -0.1661377
vn 0 1 1.192093E-07
vn -0.1661377 0.9433594 -0.2875977
vn 0 0.9433594 -0.3322754
vn -0.01116943 -1 0.002550125
vn 6.556511E-07 -1 0.01797485
vn 0.01116943 -1 0.002550125
vn 0 -1 -3.576279E-07
vn 0 -1 -3.576279E-07
vn 0 -1 -3.576279E-07
vn 0 -1 -3.576279E-07
vn 0 -1 -3.576279E-07
g MES_StickMan-Head_LNR_0
f 3/3/3 2/2/2 1/1/1
f 2/2/2 4/4/4 1/1/1
f 1/1/1 4/4/4 5/5/5
f 4/4/4 6/6/6 5/5/5
f 7/7/7 6/6/6 4/4/4
f 8/8/8 4/4/4 2/2/2
f 9/9/9 8/8/8 2/2/2
f 10/10/10 7/7/7 4/4/4
f 8/8/8 10/10/10 4/4/4
f 11/11/11 7/7/7 10/10/10
f 12/12/12 11/11/11 10/10/10
f 12/12/12 10/10/10 8/8/8
f 13/13/13 11/11/11 12/12/12
f 14/14/14 8/8/8 9/9/9
f 14/14/14 12/12/12 8/8/8
f 15/15/15 14/14/14 9/9/9
f 16/16/16 13/13/13 12/12/12
f 16/16/16 12/12/12 14/14/14
f 17/17/17 13/13/13 16/16/16
f 18/18/18 14/14/14 15/15/15
f 18/18/18 16/16/16 14/14/14
f 19/19/19 18/18/18 15/15/15
f 20/20/20 17/17/17 16/16/16
f 20/20/20 16/16/16 18/18/18
f 21/21/21 17/17/17 20/20/20
f 22/22/22 18/18/18 19/19/19
f 22/22/22 20/20/20 18/18/18
f 23/23/23 22/22/22 19/19/19
f 24/24/24 21/21/21 20/20/20
f 24/24/24 20/20/20 22/22/22
f 25/25/25 21/21/21 24/24/24
f 26/26/26 22/22/22 23/23/23
f 26/26/26 24/24/24 22/22/22
f 27/27/27 26/26/26 23/23/23
f 28/28/28 25/25/25 24/24/24
f 28/28/28 24/24/24 26/26/26
f 29/29/29 25/25/25 28/28/28
f 30/30/30 26/26/26 27/27/27
f 30/30/30 28/28/28 26/26/26
f 31/31/31 30/30/30 27/27/27
f 32/32/32 29/29/29 28/28/28
f 32/32/32 28/28/28 30/30/30
f 33/33/33 29/29/29 32/32/32
f 34/34/34 30/30/30 31/31/31
f 34/34/34 32/32/32 30/30/30
f 35/35/35 34/34/34 31/31/31
f 36/36/36 33/33/33 32/32/32
f 36/36/36 32/32/32 34/34/34
f 37/37/37 33/33/33 36/36/36
f 38/38/38 34/34/34 35/35/35
f 38/38/38 36/36/36 34/34/34
f 37/37/37 36/36/36 38/38/38
f 39/39/39 38/38/38 35/35/35
f 37/37/37 38/38/38 39/39/39
f 42/42/42 41/41/41 40/40/40
f 41/41/41 43/43/43 40/40/40
f 40/40/40 43/43/43 44/44/44
f 43/43/43 45/45/45 44/44/44
f 46/46/46 45/45/45 43/43/43
f 47/47/47 43/43/43 41/41/41
f 48/48/48 47/47/47 41/41/41
f 49/49/49 46/46/46 43/43/43
f 47/47/47 49/49/49 43/43/43
f 50/50/50 46/46/46 49/49/49
f 51/51/51 50/50/50 49/49/49
f 51/51/51 49/49/49 47/47/47
f 52/52/52 50/50/50 51/51/51
f 53/53/53 47/47/47 48/48/48
f 53/53/53 51/51/51 47/47/47
f 54/54/54 53/53/53 48/48/48
f 55/55/55 52/52/52 51/51/51
f 55/55/55 51/51/51 53/53/53
f 56/56/56 52/52/52 55/55/55
f 57/57/57 53/53/53 54/54/54
f 57/57/57 55/55/55 53/53/53
f 58/58/58 57/57/57 54/54/54
f 59/59/59 56/56/56 55/55/55
f 59/59/59 55/55/55 57/57/57
f 60/60/60 56/56/56 59/59/59
f 61/61/61 57/57/57 58/58/58
f 61/61/61 59/59/59 57/57/57
f 62/62/62 61/61/61 58/58/58
f 63/63/63 60/60/60 59/59/59
f 63/63/63 59/59/59 61/61/61
f 64/64/64 60/60/60 63/63/63
f 65/65/65 61/61/61 62/62/62
f 65/65/65 63/63/63 61/61/61
f 66/66/66 65/65/65 62/62/62
f 67/67/67 64/64/64 63/63/63
f 67/67/67 63/63/63 65/65/65
f 68/68/68 64/64/64 67/67/67
f 69/69/69 65/65/65 66/66/66
f 69/69/69 67/67/67 65/65/65
f 70/70/70 69/69/69 66/66/66
f 71/71/71 68/68/68 67/67/67
f 71/71/71 67/67/67 69/69/69
f 72/72/72 68/68/68 71/71/71
f 73/73/73 69/69/69 70/70/70
f 73/73/73 71/71/71 69/69/69
f 74/74/74 73/73/73 70/70/70
f 75/75/75 72/72/72 71/71/71
f 75/75/75 71/71/71 73/73/73
f 76/76/76 72/72/72 75/75/75
f 77/77/77 73/73/73 74/74/74
f 77/77/77 75/75/75 73/73/73
f 76/76/76 75/75/75 77/77/77
f 78/78/78 77/77/77 74/74/74
f 76/76/76 77/77/77 78/78/78
f 81/81/81 80/80/80 79/79/79
f 82/82/82 81/81/81 79/79/79
f 82/82/82 79/79/79 83/83/83
f 84/84/84 82/82/82 83/83/83
f 84/84/84 85/85/85 82/82/82
f 82/82/82 86/86/86 81/81/81
f 86/86/86 87/87/87 81/81/81
f 85/85/85 88/88/88 82/82/82
f 88/88/88 86/86/86 82/82/82
f 85/85/85 89/89/89 88/88/88
f 89/89/89 90/90/90 88/88/88
f 88/88/88 90/90/90 86/86/86
f 89/89/89 91/91/91 90/90/90
f 86/86/86 92/92/92 87/87/87
f 90/90/90 92/92/92 86/86/86
f 92/92/92 93/93/93 87/87/87
f 91/91/91 94/94/94 90/90/90
f 90/90/90 94/94/94 92/92/92
f 91/91/91 95/95/95 94/94/94
f 92/92/92 96/96/96 93/93/93
f 94/94/94 96/96/96 92/92/92
f 96/96/96 97/97/97 93/93/93
f 95/95/95 98/98/98 94/94/94
f 94/94/94 98/98/98 96/96/96
f 95/95/95 99/99/99 98/98/98
f 96/96/96 100/100/100 97/97/97
f 98/98/98 100/100/100 96/96/96
f 100/100/100 101/101/101 97/97/97
f 99/99/99 102/102/102 98/98/98
f 98/98/98 102/102/102 100/100/100
f 99/99/99 103/103/103 102/102/102
f 100/100/100 104/104/104 101/101/101
f 102/102/102 104/104/104 100/100/100
f 104/104/104 105/105/105 101/101/101
f 103/103/103 106/106/106 102/102/102
f 102/102/102 106/106/106 104/104/104
f 103/103/103 107/107/107 106/106/106
f 104/104/104 108/108/108 105/105/105
f 106/106/106 108/108/108 104/104/104
f 108/108/108 109/109/109 105/105/105
f 107/107/107 110/110/110 106/106/106
f 106/106/106 110/110/110 108/108/108
f 107/107/107 111/111/111 110/110/110
f 108/108/108 112/112/112 109/109/109
f 110/110/110 112/112/112 108/108/108
f 112/112/112 113/113/113 109/109/109
f 111/111/111 114/114/114 110/110/110
f 110/110/110 114/114/114 112/112/112
f 111/111/111 115/115/115 114/114/114
f 112/112/112 116/116/116 113/113/113
f 114/114/114 116/116/116 112/112/112
f 114/114/114 115/115/115 116/116/116
f 116/116/116 117/117/117 113/113/113
f 116/116/116 115/115/115 117/117/117
f 120/120/120 119/119/119 118/118/118
f 121/121/121 120/120/120 118/118/118
f 121/121/121 118/118/118 122/122/122
f 123/123/123 121/121/121 122/122/122
f 123/123/123 124/124/124 121/121/121
f 121/121/121 125/125/125 120/120/120
f 125/125/125 126/126/126 120/120/120
f 124/124/124 127/127/127 121/121/121
f 127/127/127 125/125/125 121/121/121
f 124/124/124 128/128/128 127/127/127
f 128/128/128 129/129/129 127/127/127
f 127/127/127 129/129/129 125/125/125
f 128/128/128 130/130/130 129/129/129
f 125/125/125 131/131/131 126/126/126
f 129/129/129 131/131/131 125/125/125
f 131/131/131 132/132/132 126/126/126
f 130/130/130 133/133/133 129/129/129
f 129/129/129 133/133/133 131/131/131
f 130/130/130 134/134/134 133/133/133
f 131/131/131 135/135/135 132/132/132
f 133/133/133 135/135/135 131/131/131
f 135/135/135 136/136/136 132/132/132
f 134/134/134 137/137/137 133/133/133
f 133/133/133 137/137/137 135/135/135
f 134/134/134 138/138/138 137/137/137
f 135/135/135 139/139/139 136/136/136
f 137/137/137 139/139/139 135/135/135
f 139/139/139 140/140/140 136/136/136
f 138/138/138 141/141/141 137/137/137
f 137/137/137 141/141/141 139/139/139
f 138/138/138 142/142/142 141/141/141
f 139/139/139 143/143/143 140/140/140
f 141/141/141 143/143/143 139/139/139
f 143/143/143 144/144/144 140/140/140
f 142/142/142 145/145/145 141/141/141
f 141/141/141 145/145/145 143/143/143
f 142/142/142 146/146/146 145/145/145
f 143/143/143 147/147/147 144/144/144
f 145/145/145 147/147/147 143/143/143
f 147/147/147 148/148/148 144/144/144
f 146/146/146 149/149/149 145/145/145
f 145/145/145 149/149/149 147/147/147
f 146/146/146 150/150/150 149/149/149
f 147/147/147 151/151/151 148/148/148
f 149/149/149 151/151/151 147/147/147
f 151/151/151 152/152/152 148/148/148
f 150/150/150 153/153/153 149/149/149
f 149/149/149 153/153/153 151/151/151
f 150/150/150 154/154/154 153/153/153
f 151/151/151 155/155/155 152/152/152
f 153/153/153 155/155/155 151/151/151
f 153/153/153 154/154/154 155/155/155
f 155/155/155 156/156/156 152/152/152
f 155/155/155 154/154/154 156/156/156
f 159/159/159 158/158/158 157/157/157
f 157/157/157 160/160/160 159/159/159
f 160/160/160 161/161/161 159/159/159
f 160/160/160 162/162/162 161/161/161
f 162/162/162 163/163/163 161/161/161
f 162/162/162 164/164/164 163/163/163
