g MES_WallCube
v 0.4447555 0.9721158 -0.4447555
v 0.4447555 0.9447554 -0.4721158
v 0.4721158 0.9447554 -0.4447555
v -0.4469929 0.1058752 0.4858554
v -0.4447555 0.05524447 0.4721158
v -0.4721158 0.05524447 0.4447555
v -0.4858554 0.1058752 0.4469929
v -0.4858554 0.05300707 0.3941247
v -0.4721158 0.05524447 0.4447555
v -0.4447555 0.0278841 0.4447555
v -0.4469929 0.01414452 0.3941247
v -0.4447555 0.0278841 0.4447555
v -0.4721158 0.05524447 0.4447555
v -0.4447555 0.05524447 0.4721158
v -0.3941247 0.01414452 0.4469929
v -0.3941247 0.05300707 0.4858554
v 0.3941247 0.05300707 0.4858554
v 0.3941247 0.01414452 0.4469929
v -0.3941248 0 0.3941248
v -0.4469929 0.01414452 0.3941247
v 0.3941248 0 0.3941248
v 0.4447555 0.0278841 0.4447555
v -0.3941248 0 -0.3941248
v -0.4469929 0.01414452 -0.3941247
v -0.4858554 0.05300707 0.3941247
v -0.4858554 0.05300707 -0.3941247
v -0.4721158 0.05524447 -0.4447555
v -0.4447555 0.0278841 -0.4447555
v -0.4447555 0.05524447 -0.4721158
v -0.3941247 0.01414452 -0.4469929
v 0.3941248 0 -0.3941248
v 0.3941247 0.01414452 -0.4469929
v -0.3941247 0.05300707 -0.4858554
v 0.3941247 0.05300707 -0.4858554
v 0.4447555 0.05524447 -0.4721158
v 0.4447555 0.0278841 -0.4447555
v 0.4721158 0.05524447 -0.4447555
v 0.4469929 0.01414452 -0.3941247
v 0.4469929 0.01414452 0.3941247
v 0.4858554 0.05300707 -0.3941247
v 0.4721158 0.05524447 0.4447555
v 0.4447555 0.05524447 0.4721158
v 0.4858554 0.05300707 0.3941247
v 0.4858554 0.05300707 0.3941247
v 0.5 0.1058752 -0.3941248
v 0.5 0.1058752 0.3941248
v 0.4721158 0.05524447 0.4447555
v 0.4858554 0.1058752 0.4469929
v 0.4447555 0.05524447 0.4721158
v 0.4469929 0.1058752 0.4858554
v 0.4721158 0.05524447 -0.4447555
v 0.4447555 0.0278841 -0.4447555
v 0.4469929 0.01414452 -0.3941247
v 0.4858554 0.1058752 -0.4469929
v 0.5 0.8941247 0.3941248
v 0.4858554 0.8941247 0.4469929
v 0.4469929 0.8941247 0.4858554
v 0.4721158 0.9447554 0.4447555
v 0.4469929 0.1058752 0.4858554
v 0.5 0.8941247 -0.3941248
v 0.4858554 0.9469929 0.3941247
v 0.4447555 0.9721158 0.4447555
v 0.4469929 0.9858555 0.3941247
v 0.4858554 0.9469929 -0.3941247
v 0.4469929 0.9858555 -0.3941247
v 0.4721158 0.9447554 -0.4447555
v 0.4469929 0.9858555 0.3941247
v 0.4858554 0.8941247 -0.4469929
v 0.4447555 0.9447554 -0.4721158
v 0.4469929 0.8941247 -0.4858554
v 0.4469929 0.1058752 -0.4858554
v 0.4469929 0.8941247 -0.4858554
v 0.3941248 1 -0.3941248
v 0.3941248 1 0.3941248
v 0.4447555 0.9721158 0.4447555
v 0.3941247 0.9858555 0.4469929
v -0.3941247 0.9858555 0.4469929
v -0.3941248 1 0.3941248
v -0.4447555 0.9721158 0.4447555
v -0.4469929 0.9858555 0.3941247
v -0.4469929 0.9858555 -0.3941247
v -0.3941248 1 -0.3941248
v -0.4447555 0.9721158 -0.4447555
v -0.3941247 0.9858555 -0.4469929
v 0.3941247 0.9858555 -0.4469929
v 0.4447555 0.9721158 -0.4447555
v 0.4721158 0.9447554 -0.4447555
v 0.4858554 0.9469929 -0.3941247
v -0.4469929 0.9858555 0.3941247
v -0.4447555 0.9721158 0.4447555
v -0.4721158 0.9447554 0.4447555
v -0.4858554 0.9469929 0.3941247
v -0.4447555 0.9447554 0.4721158
v -0.4721158 0.9447554 0.4447555
v -0.4447555 0.9721158 0.4447555
v -0.3941247 0.9469929 0.4858554
v -0.3941247 0.9858555 0.4469929
v 0.3941247 0.9858555 0.4469929
v 0.3941247 0.9469929 0.4858554
v -0.3941248 0.8941247 0.5
v -0.4469929 0.8941247 0.4858554
v 0.3941248 0.8941247 0.5
v 0.4447555 0.9447554 0.4721158
v -0.3941248 0.1058752 0.5
v -0.4469929 0.1058752 0.4858554
v -0.4447555 0.05524447 0.4721158
v -0.3941247 0.05300707 0.4858554
v 0.3941248 0.1058752 0.5
v 0.3941247 0.05300707 0.4858554
v 0.4447555 0.05524447 0.4721158
v 0.4721158 0.9447554 0.4447555
v 0.4858554 0.8941247 0.4469929
v -0.4858554 0.1058752 -0.4469929
v -0.4447555 0.05524447 -0.4721158
v -0.4469929 0.1058752 -0.4858554
v -0.4721158 0.05524447 -0.4447555
v -0.5 0.1058752 -0.3941248
v -0.4858554 0.05300707 -0.3941247
v -0.5 0.1058752 0.3941248
v -0.4858554 0.05300707 0.3941247
v -0.4721158 0.05524447 0.4447555
v -0.4858554 0.1058752 0.4469929
v -0.4858554 0.8941247 -0.4469929
v -0.5 0.8941247 -0.3941248
v -0.4469929 0.8941247 -0.4858554
v -0.4721158 0.9447554 -0.4447555
v -0.4469929 0.1058752 -0.4858554
v -0.5 0.8941247 0.3941248
v -0.4858554 0.9469929 -0.3941247
v -0.4447555 0.9721158 -0.4447555
v -0.4469929 0.9858555 -0.3941247
v -0.4469929 0.9858555 0.3941247
v -0.4858554 0.9469929 0.3941247
v -0.4721158 0.9447554 0.4447555
v -0.4858554 0.8941247 0.4469929
v -0.4469929 0.1058752 0.4858554
v -0.4447555 0.9447554 0.4721158
v -0.4469929 0.8941247 0.4858554
v -0.3941248 0.1058752 -0.5
v -0.4447555 0.05524447 -0.4721158
v -0.3941247 0.05300707 -0.4858554
v 0.3941247 0.05300707 -0.4858554
v -0.3941248 0.8941247 -0.5
v 0.3941248 0.1058752 -0.5
v 0.4447555 0.05524447 -0.4721158
v 0.3941248 0.8941247 -0.5
v 0.4721158 0.05524447 -0.4447555
v 0.4858554 0.1058752 -0.4469929
v 0.4447555 0.9447554 -0.4721158
v 0.3941247 0.9469929 -0.4858554
v 0.4447555 0.9721158 -0.4447555
v 0.3941247 0.9858555 -0.4469929
v -0.3941247 0.9858555 -0.4469929
v -0.3941247 0.9469929 -0.4858554
v -0.4447555 0.9447554 -0.4721158
v -0.4721158 0.9447554 -0.4447555
v -0.4858554 0.8941247 -0.4469929
v -0.3941247 0.05300707 -0.4858554
v -0.4447555 0.05524447 -0.4721158
v -0.4447555 0.0278841 -0.4447555
v -0.3941247 0.01414452 -0.4469929
v -0.3941247 0.9858555 -0.4469929
v -0.4447555 0.9447554 -0.4721158
v -0.3941247 0.9469929 -0.4858554
v -0.4447555 0.9721158 -0.4447555
v -0.4721158 0.9447554 -0.4447555
v 0.3941247 0.05300707 0.4858554
v 0.4447555 0.05524447 0.4721158
v 0.4447555 0.0278841 0.4447555
v 0.3941247 0.01414452 0.4469929
v 0.3941247 0.9858555 0.4469929
v 0.4447555 0.9447554 0.4721158
v 0.3941247 0.9469929 0.4858554
v 0.4447555 0.9721158 0.4447555
v 0.4721158 0.9447554 0.4447555
vt 0.6181641 0.5136719
vt 0.6113281 0.5
vt 0.625 0.5136719
vt 0.4013672 0.003536224
vt 0.388916 0.006969452
vt 0.388916 0
vt 0.4013672 0
vt 0.12854 0.7236328
vt 0.131958 0.7363281
vt 0.125 0.7363281
vt 0.125 0.7236328
vt 0.1387939 0.7363281
vt 0.125 0.7363281
vt 0.1387939 0.75
vt 0.1514893 0.7368164
vt 0.1514893 0.75
vt 0.3486328 0.75
vt 0.3486328 0.7368164
vt 0.1514893 0.7236328
vt 0.1383057 0.7236328
vt 0.3486328 0.7236328
vt 0.361084 0.7363281
vt 0.1514893 0.5263672
vt 0.1383057 0.5263672
vt 0.125 0.7236328
vt 0.125 0.5263672
vt 0.125 0.5136719
vt 0.1387939 0.5136719
vt 0.1387939 0.5
vt 0.1514893 0.5131836
vt 0.3486328 0.5263672
vt 0.3486328 0.5131836
vt 0.1514893 0.5
vt 0.3486328 0.5
vt 0.361084 0.5
vt 0.361084 0.5136719
vt 0.375 0.5136719
vt 0.3618164 0.5263672
vt 0.3618164 0.7236328
vt 0.3881836 0.5263672
vt 0.375 0.7363281
vt 0.361084 0.75
vt 0.375 0.7236328
vt 0.3881836 0.7236328
vt 0.4013672 0.5263672
vt 0.4013672 0.7236328
vt 0.388916 0.7363281
vt 0.4013672 0.7368164
vt 0.388916 0.75
vt 0.4013672 0.75
vt 0.388916 0.5136719
vt 0.375 0.5136719
vt 0.375 0.5263672
vt 0.4013672 0.5131836
vt 0.5986328 0.7236328
vt 0.5986328 0.7368164
vt 0.5986328 0.7631836
vt 0.6113281 0.7363281
vt 0.4013672 0.7631836
vt 0.5986328 0.5263672
vt 0.6118164 0.7236328
vt 0.625 0.7363281
vt 0.625 0.7236328
vt 0.6118164 0.5263672
vt 0.6381836 0.5263672
vt 0.6113281 0.5136719
vt 0.6381836 0.7236328
vt 0.5986328 0.5131836
vt 0.6113281 0.5
vt 0.5986328 0.5
vt 0.4013672 0.4868164
vt 0.5986328 0.4868164
vt 0.6513672 0.5263672
vt 0.6513672 0.7236328
vt 0.6386719 0.7363281
vt 0.6513672 0.7368164
vt 0.8486328 0.7368164
vt 0.8486328 0.7236328
vt 0.8613281 0.7363281
vt 0.8618164 0.7236328
vt 0.8618164 0.5263672
vt 0.8486328 0.5263672
vt 0.8613281 0.5136719
vt 0.8486328 0.5131836
vt 0.6513672 0.5131836
vt 0.6386719 0.5136719
vt 0.625 0.5136719
vt 0.625 0.5263672
vt 0.621582 0.026474
vt 0.6181641 0.0138092
vt 0.625 0.0138092
vt 0.625 0.026474
vt 0.6113281 0.9863281
vt 0.6113281 1
vt 0.625 0.9863281
vt 0.6118164 0.9736328
vt 0.625 0.9736328
vt 0.625 0.7763672
vt 0.6118164 0.7763672
vt 0.5986328 0.9736328
vt 0.5986328 0.9868164
vt 0.5986328 0.7763672
vt 0.6113281 0.7636719
vt 0.4013672 0.9736328
vt 0.4013672 0.9868164
vt 0.388916 0.9863281
vt 0.3881836 0.9736328
vt 0.4013672 0.7763672
vt 0.3881836 0.7763672
vt 0.388916 0.7636719
vt 0.6113281 0.75
vt 0.5986328 0.75
vt 0.4013672 0.2366943
vt 0.388916 0.25
vt 0.4013672 0.25
vt 0.388916 0.2362061
vt 0.4013672 0.2235107
vt 0.3881836 0.2235107
vt 0.4013672 0.026474
vt 0.3881836 0.026474
vt 0.388916 0.0138092
vt 0.4013672 0.01325226
vt 0.5986328 0.2366943
vt 0.5986328 0.2235107
vt 0.5986328 0.2631836
vt 0.6113281 0.2362061
vt 0.4013672 0.2631836
vt 0.5986328 0.026474
vt 0.6118164 0.2235107
vt 0.625 0.2362061
vt 0.625 0.2235107
vt 0.625 0.026474
vt 0.6118164 0.026474
vt 0.6113281 0.0138092
vt 0.5986328 0.01325226
vt 0.4013672 0
vt 0.6113281 0
vt 0.5986328 0
vt 0.4013672 0.2763672
vt 0.388916 0.263916
vt 0.3881836 0.2763672
vt 0.3881836 0.4736328
vt 0.5986328 0.2763672
vt 0.4013672 0.4736328
vt 0.388916 0.486084
vt 0.5986328 0.4736328
vt 0.388916 0.5
vt 0.4013672 0.5
vt 0.6113281 0.486084
vt 0.6118164 0.4736328
vt 0.625 0.486084
vt 0.625 0.4736328
vt 0.625 0.2763672
vt 0.6118164 0.2763672
vt 0.6113281 0.263916
vt 0.6113281 0.25
vt 0.5986328 0.25
vt 0.1514893 0.503418
vt 0.1387939 0.5068359
vt 0.1387939 0.5
vt 0.1514893 0.5
vt 0.621582 0.2763672
vt 0.625 0.263916
vt 0.625 0.2763672
vt 0.6181641 0.263916
vt 0.6113281 0.25
vt 0.3486328 0.746582
vt 0.361084 0.7431641
vt 0.361084 0.75
vt 0.3486328 0.75
vt 0.621582 0.7763672
vt 0.625 0.7636719
vt 0.625 0.7763672
vt 0.6181641 0.7636719
vt 0.6113281 0.75
vn 0.4472656 0.7744141 -0.4472656
vn 0.4472656 0.4472656 -0.7744141
vn 0.7744141 0.4472656 -0.4472656
vn -0.4914551 -0.121582 0.8623047
vn -0.4472656 -0.4472656 0.7744141
vn -0.7744141 -0.4472656 0.4472656
vn -0.8623047 -0.121582 0.4914551
vn -0.8623047 -0.4914551 0.121582
vn -0.7744141 -0.4472656 0.4472656
vn -0.4472656 -0.7744141 0.4472656
vn -0.4914551 -0.8623047 0.121582
vn -0.4472656 -0.7744141 0.4472656
vn -0.7744141 -0.4472656 0.4472656
vn -0.4472656 -0.4472656 0.7744141
vn -0.121582 -0.8623047 0.4914551
vn -0.121582 -0.4914551 0.8623047
vn 0.121582 -0.4914551 0.8623047
vn 0.121582 -0.8623047 0.4914551
vn -0.1296387 -0.9829102 0.1296387
vn -0.4914551 -0.8623047 0.121582
vn 0.1296387 -0.9829102 0.1296387
vn 0.4472656 -0.7744141 0.4472656
vn -0.1296387 -0.9829102 -0.1296387
vn -0.4914551 -0.8623047 -0.121582
vn -0.8623047 -0.4914551 0.121582
vn -0.8623047 -0.4914551 -0.121582
vn -0.7744141 -0.4472656 -0.4472656
vn -0.4472656 -0.7744141 -0.4472656
vn -0.4472656 -0.4472656 -0.7744141
vn -0.121582 -0.8623047 -0.4914551
vn 0.1296387 -0.9829102 -0.1296387
vn 0.121582 -0.8623047 -0.4914551
vn -0.121582 -0.4914551 -0.8623047
vn 0.121582 -0.4914551 -0.8623047
vn 0.4472656 -0.4472656 -0.7744141
vn 0.4472656 -0.7744141 -0.4472656
vn 0.7744141 -0.4472656 -0.4472656
vn 0.4914551 -0.8623047 -0.121582
vn 0.4914551 -0.8623047 0.121582
vn 0.8623047 -0.4914551 -0.121582
vn 0.7744141 -0.4472656 0.4472656
vn 0.4472656 -0.4472656 0.7744141
vn 0.8623047 -0.4914551 0.121582
vn 0.8623047 -0.4914551 0.121582
vn 0.9829102 -0.1296387 -0.1296387
vn 0.9829102 -0.1296387 0.1296387
vn 0.7744141 -0.4472656 0.4472656
vn 0.8623047 -0.121582 0.4914551
vn 0.4472656 -0.4472656 0.7744141
vn 0.4914551 -0.121582 0.8623047
vn 0.7744141 -0.4472656 -0.4472656
vn 0.4472656 -0.7744141 -0.4472656
vn 0.4914551 -0.8623047 -0.121582
vn 0.8623047 -0.121582 -0.4914551
vn 0.9829102 0.1296387 0.1296387
vn 0.8623047 0.121582 0.4914551
vn 0.4914551 0.121582 0.8623047
vn 0.7744141 0.4472656 0.4472656
vn 0.4914551 -0.121582 0.8623047
vn 0.9829102 0.1296387 -0.1296387
vn 0.8623047 0.4914551 0.121582
vn 0.4472656 0.7744141 0.4472656
vn 0.4914551 0.8623047 0.121582
vn 0.8623047 0.4914551 -0.121582
vn 0.4914551 0.8623047 -0.121582
vn 0.7744141 0.4472656 -0.4472656
vn 0.4914551 0.8623047 0.121582
vn 0.8623047 0.121582 -0.4914551
vn 0.4472656 0.4472656 -0.7744141
vn 0.4914551 0.121582 -0.8623047
vn 0.4914551 -0.121582 -0.8623047
vn 0.4914551 0.121582 -0.8623047
vn 0.1296387 0.9829102 -0.1296387
vn 0.1296387 0.9829102 0.1296387
vn 0.4472656 0.7744141 0.4472656
vn 0.121582 0.8623047 0.4914551
vn -0.121582 0.8623047 0.4914551
vn -0.1296387 0.9829102 0.1296387
vn -0.4472656 0.7744141 0.4472656
vn -0.4914551 0.8623047 0.121582
vn -0.4914551 0.8623047 -0.121582
vn -0.1296387 0.9829102 -0.1296387
vn -0.4472656 0.7744141 -0.4472656
vn -0.121582 0.8623047 -0.4914551
vn 0.121582 0.8623047 -0.4914551
vn 0.4472656 0.7744141 -0.4472656
vn 0.7744141 0.4472656 -0.4472656
vn 0.8623047 0.4914551 -0.121582
vn -0.4914551 0.8623047 0.121582
vn -0.4472656 0.7744141 0.4472656
vn -0.7744141 0.4472656 0.4472656
vn -0.8623047 0.4914551 0.121582
vn -0.4472656 0.4472656 0.7744141
vn -0.7744141 0.4472656 0.4472656
vn -0.4472656 0.7744141 0.4472656
vn -0.121582 0.4914551 0.8623047
vn -0.121582 0.8623047 0.4914551
vn 0.121582 0.8623047 0.4914551
vn 0.121582 0.4914551 0.8623047
vn -0.1296387 0.1296387 0.9829102
vn -0.4914551 0.121582 0.8623047
vn 0.1296387 0.1296387 0.9829102
vn 0.4472656 0.4472656 0.7744141
vn -0.1296387 -0.1296387 0.9829102
vn -0.4914551 -0.121582 0.8623047
vn -0.4472656 -0.4472656 0.7744141
vn -0.121582 -0.4914551 0.8623047
vn 0.1296387 -0.1296387 0.9829102
vn 0.121582 -0.4914551 0.8623047
vn 0.4472656 -0.4472656 0.7744141
vn 0.7744141 0.4472656 0.4472656
vn 0.8623047 0.121582 0.4914551
vn -0.8623047 -0.121582 -0.4914551
vn -0.4472656 -0.4472656 -0.7744141
vn -0.4914551 -0.121582 -0.8623047
vn -0.7744141 -0.4472656 -0.4472656
vn -0.9829102 -0.1296387 -0.1296387
vn -0.8623047 -0.4914551 -0.121582
vn -0.9829102 -0.1296387 0.1296387
vn -0.8623047 -0.4914551 0.121582
vn -0.7744141 -0.4472656 0.4472656
vn -0.8623047 -0.121582 0.4914551
vn -0.8623047 0.121582 -0.4914551
vn -0.9829102 0.1296387 -0.1296387
vn -0.4914551 0.121582 -0.8623047
vn -0.7744141 0.4472656 -0.4472656
vn -0.4914551 -0.121582 -0.8623047
vn -0.9829102 0.1296387 0.1296387
vn -0.8623047 0.4914551 -0.121582
vn -0.4472656 0.7744141 -0.4472656
vn -0.4914551 0.8623047 -0.121582
vn -0.4914551 0.8623047 0.121582
vn -0.8623047 0.4914551 0.121582
vn -0.7744141 0.4472656 0.4472656
vn -0.8623047 0.121582 0.4914551
vn -0.4914551 -0.121582 0.8623047
vn -0.4472656 0.4472656 0.7744141
vn -0.4914551 0.121582 0.8623047
vn -0.1296387 -0.1296387 -0.9829102
vn -0.4472656 -0.4472656 -0.7744141
vn -0.121582 -0.4914551 -0.8623047
vn 0.121582 -0.4914551 -0.8623047
vn -0.1296387 0.1296387 -0.9829102
vn 0.1296387 -0.1296387 -0.9829102
vn 0.4472656 -0.4472656 -0.7744141
vn 0.1296387 0.1296387 -0.9829102
vn 0.7744141 -0.4472656 -0.4472656
vn 0.8623047 -0.121582 -0.4914551
vn 0.4472656 0.4472656 -0.7744141
vn 0.121582 0.4914551 -0.8623047
vn 0.4472656 0.7744141 -0.4472656
vn 0.121582 0.8623047 -0.4914551
vn -0.121582 0.8623047 -0.4914551
vn -0.121582 0.4914551 -0.8623047
vn -0.4472656 0.4472656 -0.7744141
vn -0.7744141 0.4472656 -0.4472656
vn -0.8623047 0.121582 -0.4914551
vn -0.121582 -0.4914551 -0.8623047
vn -0.4472656 -0.4472656 -0.7744141
vn -0.4472656 -0.7744141 -0.4472656
vn -0.121582 -0.8623047 -0.4914551
vn -0.121582 0.8623047 -0.4914551
vn -0.4472656 0.4472656 -0.7744141
vn -0.121582 0.4914551 -0.8623047
vn -0.4472656 0.7744141 -0.4472656
vn -0.7744141 0.4472656 -0.4472656
vn 0.121582 -0.4914551 0.8623047
vn 0.4472656 -0.4472656 0.7744141
vn 0.4472656 -0.7744141 0.4472656
vn 0.121582 -0.8623047 0.4914551
vn 0.121582 0.8623047 0.4914551
vn 0.4472656 0.4472656 0.7744141
vn 0.121582 0.4914551 0.8623047
vn 0.4472656 0.7744141 0.4472656
vn 0.7744141 0.4472656 0.4472656
g MES_WallCube_0
f 3/3/3 2/2/2 1/1/1
f 6/6/6 5/5/5 4/4/4
f 7/7/7 6/6/6 4/4/4
f 10/10/10 9/9/9 8/8/8
f 11/11/11 10/10/10 8/8/8
f 14/14/14 13/13/13 12/12/12
f 14/14/14 12/12/12 15/15/15
f 16/16/16 14/14/14 15/15/15
f 17/17/17 16/16/16 15/15/15
f 18/18/18 17/17/17 15/15/15
f 15/15/15 12/12/12 19/19/19
f 18/18/18 15/15/15 19/19/19
f 12/12/12 20/20/20 19/19/19
f 21/21/21 18/18/18 19/19/19
f 22/22/22 18/18/18 21/21/21
f 19/19/19 20/20/20 23/23/23
f 21/21/21 19/19/19 23/23/23
f 20/20/20 24/24/24 23/23/23
f 20/20/20 25/25/25 24/24/24
f 25/25/25 26/26/26 24/24/24
f 26/26/26 27/27/27 24/24/24
f 27/27/27 28/28/28 24/24/24
f 24/24/24 28/28/28 23/23/23
f 27/27/27 29/29/29 28/28/28
f 28/28/28 30/30/30 23/23/23
f 23/23/23 30/30/30 31/31/31
f 31/31/31 21/21/21 23/23/23
f 30/30/30 32/32/32 31/31/31
f 30/30/30 33/33/33 32/32/32
f 33/33/33 34/34/34 32/32/32
f 34/34/34 35/35/35 32/32/32
f 35/35/35 36/36/36 32/32/32
f 32/32/32 36/36/36 31/31/31
f 35/35/35 37/37/37 36/36/36
f 36/36/36 38/38/38 31/31/31
f 31/31/31 38/38/38 21/21/21
f 38/38/38 39/39/39 21/21/21
f 39/39/39 22/22/22 21/21/21
f 38/38/38 40/40/40 39/39/39
f 41/41/41 22/22/22 39/39/39
f 41/41/41 42/42/42 22/22/22
f 43/43/43 41/41/41 39/39/39
f 40/40/40 44/44/44 39/39/39
f 40/40/40 45/45/45 44/44/44
f 45/45/45 46/46/46 44/44/44
f 47/47/47 44/44/44 46/46/46
f 48/48/48 47/47/47 46/46/46
f 49/49/49 47/47/47 48/48/48
f 50/50/50 49/49/49 48/48/48
f 40/40/40 51/51/51 45/45/45
f 52/52/52 51/51/51 40/40/40
f 53/53/53 52/52/52 40/40/40
f 51/51/51 54/54/54 45/45/45
f 55/55/55 46/46/46 45/45/45
f 48/48/48 46/46/46 56/56/56
f 46/46/46 55/55/55 56/56/56
f 48/48/48 56/56/56 57/57/57
f 58/58/58 56/56/56 55/55/55
f 59/59/59 48/48/48 57/57/57
f 45/45/45 54/54/54 60/60/60
f 60/60/60 55/55/55 45/45/45
f 61/61/61 58/58/58 55/55/55
f 62/62/62 58/58/58 61/61/61
f 63/63/63 62/62/62 61/61/61
f 61/61/61 55/55/55 64/64/64
f 55/55/55 60/60/60 64/64/64
f 61/61/61 64/64/64 65/65/65
f 66/66/66 64/64/64 60/60/60
f 67/67/67 61/61/61 65/65/65
f 54/54/54 68/68/68 60/60/60
f 68/68/68 66/66/66 60/60/60
f 69/69/69 66/66/66 68/68/68
f 70/70/70 69/69/69 68/68/68
f 54/54/54 71/71/71 68/68/68
f 71/71/71 72/72/72 68/68/68
f 67/67/67 65/65/65 73/73/73
f 74/74/74 67/67/67 73/73/73
f 75/75/75 67/67/67 74/74/74
f 76/76/76 75/75/75 74/74/74
f 77/77/77 76/76/76 74/74/74
f 78/78/78 77/77/77 74/74/74
f 78/78/78 74/74/74 73/73/73
f 79/79/79 77/77/77 78/78/78
f 80/80/80 79/79/79 78/78/78
f 81/81/81 80/80/80 78/78/78
f 82/82/82 81/81/81 78/78/78
f 82/82/82 78/78/78 73/73/73
f 83/83/83 81/81/81 82/82/82
f 84/84/84 83/83/83 82/82/82
f 85/85/85 84/84/84 82/82/82
f 73/73/73 85/85/85 82/82/82
f 86/86/86 85/85/85 73/73/73
f 65/65/65 86/86/86 73/73/73
f 87/87/87 86/86/86 65/65/65
f 88/88/88 87/87/87 65/65/65
f 91/91/91 90/90/90 89/89/89
f 92/92/92 91/91/91 89/89/89
f 95/95/95 94/94/94 93/93/93
f 95/95/95 93/93/93 96/96/96
f 97/97/97 95/95/95 96/96/96
f 97/97/97 96/96/96 98/98/98
f 96/96/96 99/99/99 98/98/98
f 96/96/96 93/93/93 100/100/100
f 96/96/96 100/100/100 99/99/99
f 93/93/93 101/101/101 100/100/100
f 100/100/100 102/102/102 99/99/99
f 103/103/103 99/99/99 102/102/102
f 100/100/100 101/101/101 104/104/104
f 101/101/101 105/105/105 104/104/104
f 105/105/105 106/106/106 104/104/104
f 106/106/106 107/107/107 104/104/104
f 100/100/100 104/104/104 108/108/108
f 108/108/108 104/104/104 107/107/107
f 102/102/102 100/100/100 108/108/108
f 109/109/109 108/108/108 107/107/107
f 109/109/109 110/110/110 108/108/108
f 110/110/110 59/59/59 108/108/108
f 108/108/108 59/59/59 102/102/102
f 59/59/59 57/57/57 102/102/102
f 57/57/57 103/103/103 102/102/102
f 111/111/111 103/103/103 57/57/57
f 112/112/112 111/111/111 57/57/57
f 115/115/115 114/114/114 113/113/113
f 114/114/114 116/116/116 113/113/113
f 113/113/113 116/116/116 117/117/117
f 116/116/116 118/118/118 117/117/117
f 119/119/119 117/117/117 118/118/118
f 120/120/120 119/119/119 118/118/118
f 120/120/120 121/121/121 119/119/119
f 121/121/121 122/122/122 119/119/119
f 113/113/113 117/117/117 123/123/123
f 124/124/124 117/117/117 119/119/119
f 117/117/117 124/124/124 123/123/123
f 113/113/113 123/123/123 125/125/125
f 126/126/126 123/123/123 124/124/124
f 127/127/127 113/113/113 125/125/125
f 128/128/128 119/119/119 122/122/122
f 128/128/128 124/124/124 119/119/119
f 129/129/129 126/126/126 124/124/124
f 130/130/130 126/126/126 129/129/129
f 131/131/131 130/130/130 129/129/129
f 131/131/131 129/129/129 132/132/132
f 129/129/129 133/133/133 132/132/132
f 129/129/129 124/124/124 133/133/133
f 124/124/124 128/128/128 133/133/133
f 134/134/134 133/133/133 128/128/128
f 135/135/135 128/128/128 122/122/122
f 135/135/135 134/134/134 128/128/128
f 135/135/135 122/122/122 136/136/136
f 137/137/137 134/134/134 135/135/135
f 138/138/138 135/135/135 136/136/136
f 138/138/138 137/137/137 135/135/135
f 140/140/140 127/127/127 139/139/139
f 141/141/141 140/140/140 139/139/139
f 141/141/141 139/139/139 142/142/142
f 139/139/139 127/127/127 143/143/143
f 127/127/127 125/125/125 143/143/143
f 139/139/139 144/144/144 142/142/142
f 145/145/145 142/142/142 144/144/144
f 143/143/143 146/146/146 139/139/139
f 146/146/146 144/144/144 139/139/139
f 71/71/71 145/145/145 144/144/144
f 147/147/147 145/145/145 71/71/71
f 148/148/148 147/147/147 71/71/71
f 71/71/71 144/144/144 72/72/72
f 144/144/144 146/146/146 72/72/72
f 149/149/149 72/72/72 146/146/146
f 150/150/150 149/149/149 146/146/146
f 151/151/151 149/149/149 150/150/150
f 152/152/152 151/151/151 150/150/150
f 152/152/152 150/150/150 153/153/153
f 150/150/150 154/154/154 153/153/153
f 150/150/150 146/146/146 154/154/154
f 146/146/146 143/143/143 154/154/154
f 155/155/155 154/154/154 143/143/143
f 125/125/125 155/155/155 143/143/143
f 156/156/156 155/155/155 125/125/125
f 157/157/157 156/156/156 125/125/125
f 160/160/160 159/159/159 158/158/158
f 161/161/161 160/160/160 158/158/158
f 164/164/164 163/163/163 162/162/162
f 163/163/163 165/165/165 162/162/162
f 163/163/163 166/166/166 165/165/165
f 169/169/169 168/168/168 167/167/167
f 170/170/170 169/169/169 167/167/167
f 173/173/173 172/172/172 171/171/171
f 172/172/172 174/174/174 171/171/171
f 172/172/172 175/175/175 174/174/174
