g MES_Tube-Propeller
v 1.841705E-08 7.029962 -0.03710747
v 0.01420038 7.029962 -0.03428285
v -4.028768E-08 7.034847 -6.718572E-08
v 3.764476E-08 7.015639 -0.07168608
v 0.02743305 7.015639 -0.06622933
v 0.02623888 7.029962 -0.02623898
v -4.028768E-08 7.034847 -6.718572E-08
v -0.027433 7.015639 -0.06622933
v -0.01420036 7.029962 -0.03428285
v -4.028768E-08 7.034847 -6.718572E-08
v -8.090895E-10 6.992855 -0.1013794
v -0.03879614 6.992855 -0.09366238
v 0.05068965 7.015639 -0.05068975
v 0.03879619 6.992855 -0.09366238
v 0.03428274 7.029962 -0.01420048
v -4.028768E-08 7.034847 -6.718572E-08
v -0.05068962 7.015639 -0.05068978
v -0.07168596 6.992855 -0.07168614
v -0.02623885 7.029962 -0.02623899
v -4.028768E-08 7.034847 -6.718572E-08
v -0.04751537 6.963161 -0.1147125
v -8.090895E-10 6.963161 -0.1241639
v -0.08779703 6.963161 -0.08779722
v 0.07168601 6.992855 -0.0716861
v 0.06622923 7.015639 -0.02743314
v 0.04751544 6.963161 -0.1147125
v 0.03710737 7.029962 -1.020841E-07
v -4.028768E-08 7.034847 -6.718572E-08
v -0.0529965 6.928583 -0.1279452
v -0.09792486 6.928583 -0.09792507
v -8.090895E-10 6.928583 -0.1384869
v -0.1147124 6.963161 -0.0475156
v -0.127945 6.928583 -0.05299676
v -0.09366225 6.992855 -0.03879633
v -0.0662292 7.015639 -0.02743318
v -0.03428273 7.029962 -0.0142005
v -4.028768E-08 7.034847 -6.718572E-08
v -0.1241638 6.963161 -1.661764E-07
v -0.1013793 6.992855 -1.512215E-07
v -0.1384867 6.928583 -1.875405E-07
v -0.07168599 7.015639 -1.362667E-07
v -0.03710737 7.029962 -1.202436E-07
v -4.028768E-08 7.034847 -6.718572E-08
v -0.143372 6.891475 -1.789949E-07
v -0.1324584 6.891475 -0.05486627
v -0.1324584 -0.5747511 -0.05486627
v -0.143372 -0.5747511 -1.789949E-07
v -0.1013793 -0.5747511 -0.1013795
v -0.1013793 6.891475 -0.1013795
v -0.05486603 -0.5747511 -0.1324586
v -0.05486603 6.891475 -0.1324586
v -8.090895E-10 -0.5747511 -0.1433722
v -8.090895E-10 6.891475 -0.1433722
v 0.05486611 -0.5747511 -0.1324586
v 0.05299659 6.928583 -0.1279452
v 0.05486611 6.891475 -0.1324586
v 0.1013794 -0.5747511 -0.1013794
v 0.08779708 6.963161 -0.08779718
v 0.09792493 6.928583 -0.09792501
v 0.1013794 6.891475 -0.1013794
v 0.1324585 -0.5747511 -0.05486619
v 0.09366228 6.992855 -0.03879628
v 0.1147124 6.963161 -0.04751553
v 0.1279451 6.928583 -0.05299667
v 0.1324585 6.891475 -0.05486619
v 0.143372 -0.5747511 -8.499278E-08
v 0.071686 7.015639 -9.994766E-08
v 0.1013793 6.992855 -9.567485E-08
v 0.1241638 6.963161 -8.926562E-08
v 0.1384867 6.928583 -8.071997E-08
v 0.143372 6.891475 -8.499278E-08
v 0.1324585 -0.5747511 0.05486602
v 0.03428274 7.029962 0.01420028
v -4.028768E-08 7.034847 -6.718572E-08
v 0.06622922 7.015639 0.02743295
v 0.09366225 6.992855 0.03879609
v 0.1147124 6.963161 0.04751535
v 0.127945 6.928583 0.05299651
v 0.1324585 6.891475 0.05486602
v 0.1013793 -0.5747511 0.1013792
v 0.02623887 7.029962 0.02623877
v -4.028768E-08 7.034847 -6.718572E-08
v 0.05068964 7.015639 0.05068956
v 0.07168598 6.992855 0.0716859
v 0.08779705 6.963161 0.08779698
v 0.09792487 6.928583 0.09792484
v 0.1013793 6.891475 0.1013792
v 0.05486605 -0.5747511 0.1324584
v 0.01420037 7.029962 0.03428264
v -4.028768E-08 7.034847 -6.718572E-08
v 0.02743302 7.015639 0.06622913
v 0.03879615 6.992855 0.09366217
v 0.04751539 6.963161 0.1147123
v 0.05299652 6.928583 0.127945
v 0.05486605 6.891475 0.1324584
v -5.20845E-08 -0.5747511 0.1433719
v -1.042449E-08 7.029962 0.03710727
v -4.028768E-08 7.034847 -6.718572E-08
v -2.217475E-08 7.015639 0.07168589
v -2.858398E-08 6.992855 0.1013792
v -4.353886E-08 6.963161 0.1241637
v -6.490297E-08 6.928583 0.1384866
v -5.20845E-08 6.891475 0.1433719
v -0.05486615 -0.5747511 0.1324583
v -0.01420039 7.029962 0.03428263
v -4.028768E-08 7.034847 -6.718572E-08
v -0.02743306 7.015639 0.0662291
v -0.03879621 6.992855 0.09366216
v -0.04751548 6.963161 0.1147123
v -0.05299664 6.928583 0.1279449
v -0.05486615 6.891475 0.1324583
v -0.1013794 -0.5747511 0.1013792
v -0.02623888 7.029962 0.02623876
v -4.028768E-08 7.034847 -6.718572E-08
v -0.05068967 7.015639 0.05068953
v -0.07168602 6.992855 0.07168587
v -0.08779711 6.963161 0.08779694
v -0.09792496 6.928583 0.09792475
v -0.1013794 6.891475 0.1013792
v -0.1324585 -0.5747511 0.05486593
v -0.03428274 7.029962 0.01420026
v -4.028768E-08 7.034847 -6.718572E-08
v -0.06622923 7.015639 0.02743291
v -0.09366228 6.992855 0.03879604
v -0.03710737 7.029962 -1.202436E-07
v -4.028768E-08 7.034847 -6.718572E-08
v -0.07168599 7.015639 -1.362667E-07
v -0.1013793 6.992855 -1.512215E-07
v -0.1147124 6.963161 0.04751528
v -0.1241638 6.963161 -1.661764E-07
v -0.1279451 6.928583 0.0529964
v -0.1384867 6.928583 -1.875405E-07
v -0.1324585 6.891475 0.05486593
v -0.143372 6.891475 -1.789949E-07
v -0.143372 -0.5747511 -1.789949E-07
vt 0.75 0.9165039
vt 0.6875 0.9165039
vt 0.71875 1
vt 0.75 0.8334961
vt 0.6875 0.8334961
vt 0.625 0.9165039
vt 0.65625 1
vt 0.8125 0.8334961
vt 0.8125 0.9165039
vt 0.78125 1
vt 0.75 0.75
vt 0.8125 0.75
vt 0.625 0.8334961
vt 0.6875 0.75
vt 0.5625 0.9165039
vt 0.59375 1
vt 0.875 0.8334961
vt 0.875 0.75
vt 0.875 0.9165039
vt 0.84375 1
vt 0.8125 0.6665039
vt 0.75 0.6665039
vt 0.875 0.6665039
vt 0.625 0.75
vt 0.5625 0.8334961
vt 0.6875 0.6665039
vt 0.5 0.9165039
vt 0.53125 1
vt 0.8125 0.5834961
vt 0.875 0.5834961
vt 0.75 0.5834961
vt 0.9375 0.6665039
vt 0.9375 0.5834961
vt 0.9375 0.75
vt 0.9375 0.8334961
vt 0.9375 0.9165039
vt 0.90625 1
vt 1 0.6665039
vt 1 0.75
vt 1 0.5834961
vt 1 0.8334961
vt 1 0.9165039
vt 0.96875 1
vt 1 0.5
vt 0.9375 0.5
vt 0.9375 0.5
vt 1 0.5
vt 0.875 0.5
vt 0.875 0.5
vt 0.8125 0.5
vt 0.8125 0.5
vt 0.75 0.5
vt 0.75 0.5
vt 0.6875 0.5
vt 0.6875 0.5834961
vt 0.6875 0.5
vt 0.625 0.5
vt 0.625 0.6665039
vt 0.625 0.5834961
vt 0.625 0.5
vt 0.5625 0.5
vt 0.5625 0.75
vt 0.5625 0.6665039
vt 0.5625 0.5834961
vt 0.5625 0.5
vt 0.5 0.5
vt 0.5 0.8334961
vt 0.5 0.75
vt 0.5 0.6665039
vt 0.5 0.5834961
vt 0.5 0.5
vt 0.4375 0.5
vt 0.4375 0.9165039
vt 0.46875 1
vt 0.4375 0.8334961
vt 0.4375 0.75
vt 0.4375 0.6665039
vt 0.4375 0.5834961
vt 0.4375 0.5
vt 0.375 0.5
vt 0.375 0.9165039
vt 0.40625 1
vt 0.375 0.8334961
vt 0.375 0.75
vt 0.375 0.6665039
vt 0.375 0.5834961
vt 0.375 0.5
vt 0.3125 0.5
vt 0.3125 0.9165039
vt 0.34375 1
vt 0.3125 0.8334961
vt 0.3125 0.75
vt 0.3125 0.6665039
vt 0.3125 0.5834961
vt 0.3125 0.5
vt 0.25 0.5
vt 0.25 0.9165039
vt 0.28125 1
vt 0.25 0.8334961
vt 0.25 0.75
vt 0.25 0.6665039
vt 0.25 0.5834961
vt 0.25 0.5
vt 0.1875 0.5
vt 0.1875 0.9165039
vt 0.21875 1
vt 0.1875 0.8334961
vt 0.1875 0.75
vt 0.1875 0.6665039
vt 0.1875 0.5834961
vt 0.1875 0.5
vt 0.125 0.5
vt 0.125 0.9165039
vt 0.15625 1
vt 0.125 0.8334961
vt 0.125 0.75
vt 0.125 0.6665039
vt 0.125 0.5834961
vt 0.125 0.5
vt 0.0625 0.5
vt 0.0625 0.9165039
vt 0.09375 1
vt 0.0625 0.8334961
vt 0.0625 0.75
vt 0 0.9165039
vt 0.03125 1
vt 0 0.8334961
vt 0 0.75
vt 0.0625 0.6665039
vt 0 0.6665039
vt 0.0625 0.5834961
vt 0 0.5834961
vt 0.0625 0.5
vt 0 0.5
vt 0 0.5
vn 5.364418E-06 0.9619141 -0.2739258
vn 0.1047974 0.9619141 -0.2531738
vn 1.549721E-06 1 1.788139E-07
vn 4.351139E-06 0.8588867 -0.512207
vn 0.1959229 0.8588867 -0.4731445
vn 0.1937256 0.9619141 -0.1937256
vn 1.549721E-06 1 1.788139E-07
vn -0.1959229 0.8588867 -0.4731445
vn -0.1047974 0.9619141 -0.2531738
vn 1.549721E-06 1 1.788139E-07
vn -1.192093E-07 0.6992188 -0.7148438
vn -0.2736816 0.6992188 -0.6606445
vn 0.3620605 0.8588867 -0.3620605
vn 0.2736816 0.6992188 -0.6606445
vn 0.2531738 0.9619141 -0.1047974
vn 1.549721E-06 1 1.788139E-07
vn -0.3620605 0.8588867 -0.3620605
vn -0.5058594 0.6992188 -0.5058594
vn -0.1937256 0.9619141 -0.1937256
vn 1.549721E-06 1 1.788139E-07
vn -0.3330078 0.4931641 -0.8037109
vn -1.132488E-06 0.4931641 -0.8701172
vn -0.6152344 0.4931641 -0.6152344
vn 0.5058594 0.6992188 -0.5058594
vn 0.4731445 0.8588867 -0.1959229
vn 0.3330078 0.4931641 -0.8037109
vn 0.2739258 0.9619141 1.192093E-07
vn 1.549721E-06 1 1.788139E-07
vn -0.3701172 0.2548828 -0.8935547
vn -0.6835938 0.2548828 -0.6835938
vn -3.576279E-07 0.2548828 -0.9667969
vn -0.8037109 0.4931641 -0.3330078
vn -0.8935547 0.2548828 -0.3701172
vn -0.6606445 0.6992188 -0.2736816
vn -0.4731445 0.8588867 -0.1959229
vn -0.2531738 0.9619141 -0.1047974
vn 1.549721E-06 1 1.788139E-07
vn -0.8701172 0.4931641 -2.563E-06
vn -0.7148438 0.6992188 -4.768372E-07
vn -0.9667969 0.2548828 -7.748604E-07
vn -0.512207 0.8588867 1.192093E-07
vn -0.2739258 0.9619141 -2.980232E-07
vn 1.549721E-06 1 1.788139E-07
vn -0.9980469 0.06488037 8.34465E-07
vn -0.921875 0.06488037 -0.3818359
vn -0.9238281 0 -0.3825684
vn -1 0 -4.172325E-07
vn -0.7070313 0 -0.7070313
vn -0.7055664 0.06488037 -0.7055664
vn -0.3825684 0 -0.9238281
vn -0.3818359 0.06488037 -0.921875
vn -1.192093E-07 0 -1
vn 5.364418E-07 0.06488037 -0.9980469
vn 0.3825684 0 -0.9238281
vn 0.3701172 0.2548828 -0.8935547
vn 0.3818359 0.06488037 -0.921875
vn 0.7070313 0 -0.7070313
vn 0.6152344 0.4931641 -0.6152344
vn 0.6835938 0.2548828 -0.6835938
vn 0.7055664 0.06488037 -0.7055664
vn 0.9238281 0 -0.3825684
vn 0.6606445 0.6992188 -0.2736816
vn 0.8037109 0.4931641 -0.3330078
vn 0.8935547 0.2548828 -0.3701172
vn 0.921875 0.06488037 -0.3818359
vn 1 0 2.384186E-07
vn 0.512207 0.8588867 4.768372E-07
vn 0.7148438 0.6992188 2.384186E-07
vn 0.8701172 0.4931641 2.384186E-07
vn 0.9667969 0.2548828 -1.192093E-07
vn 0.9980469 0.06488037 -2.384186E-07
vn 0.9238281 0 0.3825684
vn 0.2531738 0.9619141 0.1047974
vn 1.549721E-06 1 1.788139E-07
vn 0.4731445 0.8588867 0.1959229
vn 0.6606445 0.6992188 0.2736816
vn 0.8037109 0.4931641 0.3330078
vn 0.8935547 0.2548828 0.3701172
vn 0.921875 0.06488037 0.3818359
vn 0.7070313 0 0.7070313
vn 0.1937256 0.9619141 0.1937256
vn 1.549721E-06 1 1.788139E-07
vn 0.3620605 0.8588867 0.3620605
vn 0.5058594 0.6992188 0.5058594
vn 0.6152344 0.4931641 0.6152344
vn 0.6835938 0.2548828 0.6835938
vn 0.7055664 0.06488037 0.7055664
vn 0.3825684 0 0.9238281
vn 0.1047974 0.9619141 0.2531738
vn 1.549721E-06 1 1.788139E-07
vn 0.1959229 0.8588867 0.4731445
vn 0.2736816 0.6992188 0.6606445
vn 0.3330078 0.4931641 0.8037109
vn 0.3701172 0.2548828 0.8935547
vn 0.3818359 0.06488037 0.921875
vn -2.384186E-07 0 1
vn -1.245737E-05 0.9619141 0.2739258
vn 1.549721E-06 1 1.788139E-07
vn 3.278255E-06 0.8588867 0.512207
vn 5.185604E-06 0.6992188 0.7148438
vn 3.159046E-06 0.4931641 0.8701172
vn 1.788139E-07 0.2548828 0.9667969
vn -7.748604E-07 0.06488037 0.9980469
vn -0.3825684 0 0.9238281
vn -0.1047974 0.9619141 0.2531738
vn 1.549721E-06 1 1.788139E-07
vn -0.1959229 0.8588867 0.4731445
vn -0.2736816 0.6992188 0.6606445
vn -0.3330078 0.4931641 0.8037109
vn -0.3701172 0.2548828 0.8935547
vn -0.3818359 0.06488037 0.921875
vn -0.7070313 0 0.7070313
vn -0.1937256 0.9619141 0.1937256
vn 1.549721E-06 1 1.788139E-07
vn -0.3620605 0.8588867 0.3620605
vn -0.5058594 0.6992188 0.5058594
vn -0.6152344 0.4931641 0.6152344
vn -0.6835938 0.2548828 0.6835938
vn -0.7055664 0.06488037 0.7055664
vn -0.9238281 0 0.3825684
vn -0.2531738 0.9619141 0.1047974
vn 1.549721E-06 1 1.788139E-07
vn -0.4731445 0.8588867 0.1959229
vn -0.6606445 0.6992188 0.2736816
vn -0.2739258 0.9619141 -2.980232E-07
vn 1.549721E-06 1 1.788139E-07
vn -0.512207 0.8588867 1.192093E-07
vn -0.7148438 0.6992188 -4.768372E-07
vn -0.8037109 0.4931641 0.3330078
vn -0.8701172 0.4931641 -2.563E-06
vn -0.8935547 0.2548828 0.3701172
vn -0.9667969 0.2548828 -7.748604E-07
vn -0.921875 0.06488037 0.3818359
vn -0.9980469 0.06488037 8.34465E-07
vn -1 0 -4.172325E-07
g MES_Tube-Propeller_0
f 3/3/3 2/2/2 1/1/1
f 1/1/1 2/2/2 4/4/4
f 2/2/2 5/5/5 4/4/4
f 2/2/2 6/6/6 5/5/5
f 7/7/7 6/6/6 2/2/2
f 1/1/1 4/4/4 8/8/8
f 9/9/9 1/1/1 8/8/8
f 10/10/10 1/1/1 9/9/9
f 4/4/4 5/5/5 11/11/11
f 8/8/8 4/4/4 12/12/12
f 4/4/4 11/11/11 12/12/12
f 6/6/6 13/13/13 5/5/5
f 5/5/5 14/14/14 11/11/11
f 5/5/5 13/13/13 14/14/14
f 6/6/6 15/15/15 13/13/13
f 16/16/16 15/15/15 6/6/6
f 9/9/9 8/8/8 17/17/17
f 8/8/8 12/12/12 18/18/18
f 17/17/17 8/8/8 18/18/18
f 19/19/19 9/9/9 17/17/17
f 20/20/20 9/9/9 19/19/19
f 12/12/12 11/11/11 21/21/21
f 11/11/11 14/14/14 22/22/22
f 11/11/11 22/22/22 21/21/21
f 18/18/18 12/12/12 23/23/23
f 12/12/12 21/21/21 23/23/23
f 13/13/13 24/24/24 14/14/14
f 15/15/15 25/25/25 13/13/13
f 13/13/13 25/25/25 24/24/24
f 14/14/14 26/26/26 22/22/22
f 14/14/14 24/24/24 26/26/26
f 15/15/15 27/27/27 25/25/25
f 28/28/28 27/27/27 15/15/15
f 21/21/21 22/22/22 29/29/29
f 23/23/23 21/21/21 30/30/30
f 21/21/21 29/29/29 30/30/30
f 22/22/22 26/26/26 31/31/31
f 22/22/22 31/31/31 29/29/29
f 18/18/18 23/23/23 32/32/32
f 23/23/23 30/30/30 33/33/33
f 32/32/32 23/23/23 33/33/33
f 34/34/34 18/18/18 32/32/32
f 17/17/17 18/18/18 34/34/34
f 35/35/35 17/17/17 34/34/34
f 19/19/19 17/17/17 35/35/35
f 36/36/36 19/19/19 35/35/35
f 37/37/37 19/19/19 36/36/36
f 34/34/34 32/32/32 38/38/38
f 39/39/39 34/34/34 38/38/38
f 35/35/35 34/34/34 39/39/39
f 38/38/38 32/32/32 40/40/40
f 32/32/32 33/33/33 40/40/40
f 41/41/41 35/35/35 39/39/39
f 36/36/36 35/35/35 41/41/41
f 42/42/42 36/36/36 41/41/41
f 43/43/43 36/36/36 42/42/42
f 40/40/40 33/33/33 44/44/44
f 33/33/33 45/45/45 44/44/44
f 33/33/33 30/30/30 45/45/45
f 45/45/45 46/46/46 44/44/44
f 46/46/46 47/47/47 44/44/44
f 48/48/48 46/46/46 45/45/45
f 30/30/30 49/49/49 45/45/45
f 49/49/49 48/48/48 45/45/45
f 30/30/30 29/29/29 49/49/49
f 50/50/50 48/48/48 49/49/49
f 29/29/29 51/51/51 49/49/49
f 51/51/51 50/50/50 49/49/49
f 52/52/52 50/50/50 51/51/51
f 29/29/29 31/31/31 51/51/51
f 53/53/53 52/52/52 51/51/51
f 31/31/31 53/53/53 51/51/51
f 54/54/54 52/52/52 53/53/53
f 31/31/31 55/55/55 53/53/53
f 26/26/26 55/55/55 31/31/31
f 56/56/56 54/54/54 53/53/53
f 55/55/55 56/56/56 53/53/53
f 57/57/57 54/54/54 56/56/56
f 26/26/26 58/58/58 55/55/55
f 24/24/24 58/58/58 26/26/26
f 55/55/55 59/59/59 56/56/56
f 58/58/58 59/59/59 55/55/55
f 60/60/60 57/57/57 56/56/56
f 59/59/59 60/60/60 56/56/56
f 61/61/61 57/57/57 60/60/60
f 24/24/24 62/62/62 58/58/58
f 25/25/25 62/62/62 24/24/24
f 58/58/58 63/63/63 59/59/59
f 62/62/62 63/63/63 58/58/58
f 59/59/59 64/64/64 60/60/60
f 63/63/63 64/64/64 59/59/59
f 65/65/65 61/61/61 60/60/60
f 64/64/64 65/65/65 60/60/60
f 66/66/66 61/61/61 65/65/65
f 25/25/25 67/67/67 62/62/62
f 27/27/27 67/67/67 25/25/25
f 62/62/62 68/68/68 63/63/63
f 67/67/67 68/68/68 62/62/62
f 63/63/63 69/69/69 64/64/64
f 68/68/68 69/69/69 63/63/63
f 64/64/64 70/70/70 65/65/65
f 69/69/69 70/70/70 64/64/64
f 71/71/71 66/66/66 65/65/65
f 70/70/70 71/71/71 65/65/65
f 72/72/72 66/66/66 71/71/71
f 27/27/27 73/73/73 67/67/67
f 74/74/74 73/73/73 27/27/27
f 67/67/67 75/75/75 68/68/68
f 73/73/73 75/75/75 67/67/67
f 68/68/68 76/76/76 69/69/69
f 75/75/75 76/76/76 68/68/68
f 69/69/69 77/77/77 70/70/70
f 76/76/76 77/77/77 69/69/69
f 70/70/70 78/78/78 71/71/71
f 77/77/77 78/78/78 70/70/70
f 79/79/79 72/72/72 71/71/71
f 78/78/78 79/79/79 71/71/71
f 80/80/80 72/72/72 79/79/79
f 73/73/73 81/81/81 75/75/75
f 82/82/82 81/81/81 73/73/73
f 75/75/75 83/83/83 76/76/76
f 81/81/81 83/83/83 75/75/75
f 76/76/76 84/84/84 77/77/77
f 83/83/83 84/84/84 76/76/76
f 77/77/77 85/85/85 78/78/78
f 84/84/84 85/85/85 77/77/77
f 78/78/78 86/86/86 79/79/79
f 85/85/85 86/86/86 78/78/78
f 87/87/87 80/80/80 79/79/79
f 86/86/86 87/87/87 79/79/79
f 88/88/88 80/80/80 87/87/87
f 81/81/81 89/89/89 83/83/83
f 90/90/90 89/89/89 81/81/81
f 83/83/83 91/91/91 84/84/84
f 89/89/89 91/91/91 83/83/83
f 84/84/84 92/92/92 85/85/85
f 91/91/91 92/92/92 84/84/84
f 85/85/85 93/93/93 86/86/86
f 92/92/92 93/93/93 85/85/85
f 86/86/86 94/94/94 87/87/87
f 93/93/93 94/94/94 86/86/86
f 95/95/95 88/88/88 87/87/87
f 94/94/94 95/95/95 87/87/87
f 96/96/96 88/88/88 95/95/95
f 89/89/89 97/97/97 91/91/91
f 98/98/98 97/97/97 89/89/89
f 91/91/91 99/99/99 92/92/92
f 97/97/97 99/99/99 91/91/91
f 92/92/92 100/100/100 93/93/93
f 99/99/99 100/100/100 92/92/92
f 93/93/93 101/101/101 94/94/94
f 100/100/100 101/101/101 93/93/93
f 94/94/94 102/102/102 95/95/95
f 101/101/101 102/102/102 94/94/94
f 103/103/103 96/96/96 95/95/95
f 102/102/102 103/103/103 95/95/95
f 104/104/104 96/96/96 103/103/103
f 97/97/97 105/105/105 99/99/99
f 106/106/106 105/105/105 97/97/97
f 99/99/99 107/107/107 100/100/100
f 105/105/105 107/107/107 99/99/99
f 100/100/100 108/108/108 101/101/101
f 107/107/107 108/108/108 100/100/100
f 101/101/101 109/109/109 102/102/102
f 108/108/108 109/109/109 101/101/101
f 102/102/102 110/110/110 103/103/103
f 109/109/109 110/110/110 102/102/102
f 111/111/111 104/104/104 103/103/103
f 110/110/110 111/111/111 103/103/103
f 112/112/112 104/104/104 111/111/111
f 105/105/105 113/113/113 107/107/107
f 114/114/114 113/113/113 105/105/105
f 107/107/107 115/115/115 108/108/108
f 113/113/113 115/115/115 107/107/107
f 108/108/108 116/116/116 109/109/109
f 115/115/115 116/116/116 108/108/108
f 109/109/109 117/117/117 110/110/110
f 116/116/116 117/117/117 109/109/109
f 110/110/110 118/118/118 111/111/111
f 117/117/117 118/118/118 110/110/110
f 119/119/119 112/112/112 111/111/111
f 118/118/118 119/119/119 111/111/111
f 120/120/120 112/112/112 119/119/119
f 113/113/113 121/121/121 115/115/115
f 122/122/122 121/121/121 113/113/113
f 115/115/115 123/123/123 116/116/116
f 121/121/121 123/123/123 115/115/115
f 116/116/116 124/124/124 117/117/117
f 123/123/123 124/124/124 116/116/116
f 121/121/121 125/125/125 123/123/123
f 126/126/126 125/125/125 121/121/121
f 125/125/125 127/127/127 123/123/123
f 123/123/123 127/127/127 124/124/124
f 127/127/127 128/128/128 124/124/124
f 124/124/124 129/129/129 117/117/117
f 124/124/124 128/128/128 129/129/129
f 117/117/117 129/129/129 118/118/118
f 128/128/128 130/130/130 129/129/129
f 129/129/129 131/131/131 118/118/118
f 129/129/129 130/130/130 131/131/131
f 118/118/118 131/131/131 119/119/119
f 130/130/130 132/132/132 131/131/131
f 131/131/131 133/133/133 119/119/119
f 131/131/131 132/132/132 133/133/133
f 133/133/133 120/120/120 119/119/119
f 132/132/132 134/134/134 133/133/133
f 135/135/135 120/120/120 133/133/133
f 134/134/134 135/135/135 133/133/133
