g MES_Cloud
v -3.2547 2.159496 -2.166626
v -5.596797 3.1334 -0.663559
v -5.067417 2.433472 -2.62471
v -3.34611 3.030235 -0.565033
v -2.015996 0.8971825 -1.919785
v -4.767467 3.268669 1.799652
v -1.4847 1.769238 -0.634552
v 0.1092726 1.240498 -2.069077
v -3.018775 3.206856 1.250977
v -3.728369 2.57066 3.408554
v -2.509576 1.893063 2.884033
v -1.144788 1.9422 0.89711
v -0.811205 1.493927 2.487549
v 0.5351442 2.26329 -0.9884644
v 2.002822 1.312592 -2.384903
v 0.933235 2.679501 0.4642792
v 1.203015 1.72747 2.151245
v 2.449078 2.266922 -1.241974
v 3.482635 0.8851738 -2.39888
v 2.866569 2.566067 0.187027
v 3.195025 1.770554 1.802612
v 4.046495 1.153625 -1.395813
v 4.526651 1.289814 -0.001617432
v 4.764575 1.349052 1.258514
v 4.479417 0.6996803 -3.408249
v 6.057494 1.45808 -2.188614
v 6.998416 1.633465 -0.2616577
v 2.121272 0.4232521 -3.354843
v 2.002822 1.312592 -2.384903
v 6.603137 1.172356 1.96579
v 3.195025 1.770554 1.802612
v -0.07880145 0.3417664 -2.840973
v 0.1092726 1.240498 -2.069077
v 3.864277 0.7332268 3.912598
v 1.203015 1.72747 2.151245
v -2.470599 0.3553619 -3.033356
v -2.015996 0.8971825 -1.919785
v 1.498585 0.8463821 3.905899
v -0.811205 1.493927 2.487549
v -4.012465 0.5973358 -3.127991
v -3.2547 2.159496 -2.166626
v -0.7732787 0.6166153 4.012207
v -2.509576 1.893063 2.884033
v -6.536119 1.2103 -3.690994
v -5.067417 2.433472 -2.62471
v -2.367893 1.022079 4.391418
v -3.728369 2.57066 3.408554
v -3.970127 1.633568 4.887817
v -2.235764 -0.04833221 4.653076
v -3.855825 0.2465439 5.267319
v -0.6218331 -0.3337135 4.434341
v 1.542652 0.04473495 4.061722
v -2.165281 -1.161364 4.800873
v -3.894872 -0.9526577 4.909576
v -0.4991046 -1.300251 4.720367
v -2.124286 -1.975971 3.089813
v -3.188115 -1.750957 3.219589
v -1.147157 -1.85648 3.004593
v 1.252173 -1.808857 2.591873
v 1.564566 -0.8465233 4.060745
v 3.543146 -2.065796 1.997513
v 3.878585 -1.778587 3.975418
v 7.207527 -1.815514 1.193542
v 4.016877 -0.7977619 4.636093
v 7.953891 -1.398039 2.022415
v 9.281047 0.1161842 3.04895
v 10.59002 0.6884651 -0.7695313
v 10.20245 -1.344425 -0.8469543
v 8.711611 -1.750273 -1.270462
v 8.849372 0.410881 -3.3452
v 8.376295 -1.143559 -3.129608
v 5.877357 0.0400238 -5.052963
v 3.255118 -2.057148 0.08120728
v 3.543146 -2.065796 1.997513
v 5.488462 -1.787895 -2.115601
v 6.88412 -1.17765 -5.255783
v 2.153003 -0.5834141 -3.675201
v 0.8328608 -2.166372 0.5616455
v 1.252173 -1.808857 2.591873
v 2.84889 -2.132845 -1.644531
v 5.000121 -1.847399 -3.317017
v 2.429235 -1.902798 -2.970047
v 2.429235 -1.902798 -2.970047
v 0.1424484 -1.791214 -2.473068
v 0.3596244 -2.047693 -1.293488
v -2.28549 -1.719273 -2.609848
v 2.190001 -1.581539 -3.979797
v 0.1424484 -1.791214 -2.473068
v -1.953729 -2.186575 -0.8209839
v -3.391692 -1.729498 -2.628143
v -0.02600753 -1.030821 -3.041016
v -2.28549 -1.719273 -2.609848
v -1.532955 -2.160725 1.094681
v -1.147157 -1.85648 3.004593
v -3.37844 -2.024523 -0.7540131
v -6.494595 -1.922604 -2.465973
v -7.307543 -2.192171 -0.1486359
v -2.947417 -2.086803 1.361221
v -2.124286 -1.975971 3.089813
v -4.431463 -1.970169 1.677307
v -3.188115 -1.750957 3.219589
v -2.689935 -0.8835182 -3.503189
v -3.391692 -1.729498 -2.628143
v -0.05467867 -0.4346657 -2.944641
v -2.644218 -0.2894745 -3.31073
v -4.250181 -1.393942 -4.032196
v -6.494595 -1.922604 -2.465973
v -4.077575 -0.2079926 -3.533173
v -6.529365 -1.208946 -3.133209
v -7.307543 -2.192171 -0.1486359
v -7.094108 0.219326 -3.435715
v -8.808265 -1.47596 -0.4604492
v -4.431463 -1.970169 1.677307
v -8.685785 0.7132912 -0.6316071
v -8.345857 -0.5660629 2.648499
v -3.188115 -1.750957 3.219589
v -3.894872 -0.9526577 4.909576
v -8.023326 0.8975067 2.841339
v -3.855825 0.2465439 5.267319
v -7.548831 2.154602 -0.7000122
v -5.596797 3.1334 -0.663559
v -6.979702 2.110886 2.632858
v -3.970127 1.633568 4.887817
v -4.767467 3.268669 1.799652
v -3.728369 2.57066 3.408554
vt 0.8334961 0.5
vt 0.875 0.5834961
vt 0.875 0.5
vt 0.8334961 0.5834961
vt 0.7915039 0.5
vt 0.875 0.6665039
vt 0.7915039 0.5834961
vt 0.75 0.5
vt 0.8334961 0.6665039
vt 0.875 0.75
vt 0.8334961 0.75
vt 0.7915039 0.6665039
vt 0.7915039 0.75
vt 0.75 0.5834961
vt 0.7084961 0.5
vt 0.75 0.6665039
vt 0.75 0.75
vt 0.7084961 0.5834961
vt 0.625 0.5
vt 0.7084961 0.6665039
vt 0.7084961 0.75
vt 0.625 0.5834961
vt 0.625 0.6665039
vt 0.625 0.75
vt 0.5415039 0.5
vt 0.5415039 0.5834961
vt 0.5415039 0.6665039
vt 0.5415039 0.416748
vt 0.625 0.416748
vt 0.5415039 0.75
vt 0.625 0.8334961
vt 0.5415039 0.375
vt 0.625 0.375
vt 0.5415039 0.8334961
vt 0.625 0.875
vt 0.5415039 0.333252
vt 0.625 0.333252
vt 0.5415039 0.875
vt 0.625 0.9165039
vt 0.5415039 0.291748
vt 0.625 0.291748
vt 0.5415039 0.9165039
vt 0.625 0.9584961
vt 0.5415039 0.25
vt 0.625 0.25
vt 0.5415039 0.9584961
vt 0.625 1
vt 0.5415039 1
vt 0.5 0.9584961
vt 0.5 1
vt 0.5 0.9165039
vt 0.5 0.875
vt 0.458252 0.9584961
vt 0.458252 1
vt 0.458252 0.9165039
vt 0.375 0.9584961
vt 0.375 1
vt 0.375 0.9165039
vt 0.375 0.875
vt 0.458252 0.875
vt 0.375 0.8334961
vt 0.458252 0.8334961
vt 0.375 0.75
vt 0.5 0.8334961
vt 0.458252 0.75
vt 0.5 0.75
vt 0.5 0.6665039
vt 0.458252 0.6665039
vt 0.375 0.6665039
vt 0.5 0.5834961
vt 0.458252 0.5834961
vt 0.5 0.5
vt 0.291748 0.6665039
vt 0.291748 0.75
vt 0.375 0.5834961
vt 0.458252 0.5
vt 0.5 0.416748
vt 0.25 0.6665039
vt 0.25 0.75
vt 0.291748 0.5834961
vt 0.375 0.5
vt 0.291748 0.5
vt 0.375 0.416748
vt 0.25 0.5
vt 0.25 0.5834961
vt 0.208374 0.5
vt 0.458252 0.416748
vt 0.375 0.375
vt 0.208374 0.5834961
vt 0.166626 0.5
vt 0.458252 0.375
vt 0.375 0.333252
vt 0.208374 0.6665039
vt 0.208374 0.75
vt 0.166626 0.5834961
vt 0.125 0.5
vt 0.125 0.5834961
vt 0.166626 0.6665039
vt 0.166626 0.75
vt 0.125 0.6665039
vt 0.125 0.75
vt 0.458252 0.333252
vt 0.375 0.291748
vt 0.5 0.375
vt 0.5 0.333252
vt 0.458252 0.291748
vt 0.375 0.25
vt 0.5 0.291748
vt 0.458252 0.25
vt 0.375 0.166626
vt 0.5 0.25
vt 0.458252 0.166626
vt 0.375 0.08331299
vt 0.5 0.166626
vt 0.458252 0.08331299
vt 0.375 0
vt 0.458252 0
vt 0.5 0.08331299
vt 0.5 0
vt 0.5415039 0.166626
vt 0.625 0.166626
vt 0.5415039 0.08331299
vt 0.5415039 0
vt 0.625 0.08331299
vt 0.625 0
vn 0.3701172 0.6870117 -0.6254883
vn -0.2218018 0.956543 -0.1894531
vn 0.01211548 0.7661133 -0.6425781
vn 0.3054199 0.909668 -0.2817383
vn 0.1828613 0.7475586 -0.6386719
vn -0.1011963 0.9677734 0.230835
vn 0.1553955 0.9072266 -0.390625
vn -0.1500244 0.7685547 -0.6220703
vn 0.3442383 0.934082 0.09570313
vn 0.1646729 0.8632813 0.4768066
vn 0.4094238 0.8164063 0.4067383
vn 0.1567383 0.9790039 0.130127
vn 0.1412354 0.8891602 0.4355469
vn -0.1706543 0.9033203 -0.394043
vn 0.007110596 0.7827148 -0.6225586
vn -0.08831787 0.9882813 0.1235352
vn -0.01266479 0.8955078 0.4445801
vn 0.2012939 0.8710938 -0.447998
vn 0.06246948 0.8886719 -0.4543457
vn 0.295166 0.9550781 0.01693726
vn 0.196167 0.9223633 0.3322754
vn 0.1397705 0.9428711 -0.3022461
vn 0.206665 0.9780273 -0.01879883
vn 0.1804199 0.9663086 0.1829834
vn -0.1270752 0.8461914 -0.5175781
vn 0.006958008 0.9672852 -0.2543945
vn 0.1157837 0.9931641 0.01763916
vn -0.1781006 0.6347656 -0.7519531
vn 0.007110596 0.7827148 -0.6225586
vn 0.1639404 0.909668 0.3820801
vn 0.196167 0.9223633 0.3322754
vn -0.09436035 0.5283203 -0.84375
vn -0.1500244 0.7685547 -0.6220703
vn 0.09356689 0.7402344 0.6660156
vn -0.01266479 0.8955078 0.4445801
vn 0.177002 0.4870605 -0.8554688
vn 0.1828613 0.7475586 -0.6386719
vn 0.006958008 0.671875 0.7402344
vn 0.1412354 0.8891602 0.4355469
vn 0.2260742 0.347168 -0.9101563
vn 0.3701172 0.6870117 -0.6254883
vn 0.161499 0.628418 0.7607422
vn 0.4094238 0.8164063 0.4067383
vn -0.2612305 0.4768066 -0.8393555
vn 0.01211548 0.7661133 -0.6425781
vn 0.388916 0.5703125 0.7231445
vn 0.1646729 0.8632813 0.4768066
vn 0.00100708 0.6083984 0.793457
vn 0.237915 0.1831055 0.9541016
vn -0.07873535 0.1168213 0.9902344
vn 0.1529541 0.253418 0.9550781
vn 0.007415771 0.1785889 0.9838867
vn 0.06329346 -0.5292969 0.8461914
vn -0.1949463 -0.5512695 0.8110352
vn 0.1767578 -0.4934082 0.8515625
vn -0.02981567 -0.9667969 0.2546387
vn -0.1523438 -0.940918 0.3027344
vn 0.06561279 -0.9638672 0.2578125
vn 0.008392334 -0.9667969 0.2563477
vn -0.006774902 -0.5551758 0.831543
vn 0.00668335 -0.9868164 0.1607666
vn 0.03799438 -0.7958984 0.6040039
vn 0.1486816 -0.9829102 0.1106567
vn 0.09741211 -0.05389404 0.9936523
vn 0.4260254 -0.8061523 0.4106445
vn 0.6757813 0.1953125 0.7109375
vn 0.9145508 0.3955078 -0.08276367
vn 0.715332 -0.6933594 -0.08654785
vn 0.1832275 -0.9760742 -0.1190186
vn 0.5864258 0.515625 -0.6245117
vn 0.5595703 -0.609375 -0.5620117
vn 0.005615234 0.4775391 -0.878418
vn 0.03128052 -0.9995117 0.00567627
vn 0.00668335 -0.9868164 0.1607666
vn 0.114563 -0.9882813 -0.1002197
vn 0.3547363 -0.4870605 -0.7978516
vn -0.2966309 0.2910156 -0.909668
vn 0.01339722 -0.9985352 0.05084229
vn 0.008392334 -0.9667969 0.2563477
vn 0.01809692 -0.996582 -0.07904053
vn 0.07958984 -0.9794922 -0.1862793
vn -0.07836914 -0.9570313 -0.2790527
vn -0.07836914 -0.9570313 -0.2790527
vn -0.08148193 -0.9082031 -0.4104004
vn -0.01281738 -0.9931641 -0.1157227
vn 0.05575562 -0.8823242 -0.4675293
vn -0.2751465 -0.5009766 -0.8203125
vn -0.08148193 -0.9082031 -0.4104004
vn -0.03234863 -0.9936523 -0.1087646
vn 0.07165527 -0.934082 -0.3496094
vn -0.1147461 -0.3015137 -0.9467773
vn 0.05575562 -0.8823242 -0.4675293
vn 0.004058838 -0.9980469 0.06045532
vn 0.06561279 -0.9638672 0.2578125
vn -0.02005005 -0.9970703 -0.07434082
vn -0.2132568 -0.9228516 -0.3210449
vn -0.270752 -0.9614258 0.04656982
vn -0.0395813 -0.9960938 0.07794189
vn -0.02981567 -0.9667969 0.2546387
vn -0.1325684 -0.9707031 0.2008057
vn -0.1523438 -0.940918 0.3027344
vn 0.2186279 -0.2180176 -0.9511719
vn 0.07165527 -0.934082 -0.3496094
vn -0.07281494 0.2330322 -0.9697266
vn 0.1520996 0.3098145 -0.9384766
vn 0.001922607 -0.4523926 -0.8920898
vn -0.2132568 -0.9228516 -0.3210449
vn 0.06173706 0.2159424 -0.9746094
vn -0.4333496 -0.4921875 -0.7548828
vn -0.270752 -0.9614258 0.04656982
vn -0.5727539 0.1364746 -0.8081055
vn -0.8364258 -0.5351563 -0.1176147
vn -0.1325684 -0.9707031 0.2008057
vn -0.9370117 0.2841797 -0.2036133
vn -0.7412109 -0.4140625 0.527832
vn -0.1523438 -0.940918 0.3027344
vn -0.1949463 -0.5512695 0.8110352
vn -0.7802734 0.2792969 0.5595703
vn -0.07873535 0.1168213 0.9902344
vn -0.6425781 0.7470703 -0.1697998
vn -0.2218018 0.956543 -0.1894531
vn -0.5478516 0.7075195 0.4462891
vn 0.00100708 0.6083984 0.793457
vn -0.1011963 0.9677734 0.230835
vn 0.1646729 0.8632813 0.4768066
g MES_Cloud_0
f 3/3/3 2/2/2 1/1/1
f 2/2/2 4/4/4 1/1/1
f 1/1/1 4/4/4 5/5/5
f 2/2/2 6/6/6 4/4/4
f 4/4/4 7/7/7 5/5/5
f 5/5/5 7/7/7 8/8/8
f 6/6/6 9/9/9 4/4/4
f 4/4/4 9/9/9 7/7/7
f 6/6/6 10/10/10 9/9/9
f 10/10/10 11/11/11 9/9/9
f 9/9/9 11/11/11 12/12/12
f 9/9/9 12/12/12 7/7/7
f 11/11/11 13/13/13 12/12/12
f 7/7/7 14/14/14 8/8/8
f 7/7/7 12/12/12 14/14/14
f 8/8/8 14/14/14 15/15/15
f 12/12/12 13/13/13 16/16/16
f 12/12/12 16/16/16 14/14/14
f 13/13/13 17/17/17 16/16/16
f 14/14/14 18/18/18 15/15/15
f 14/14/14 16/16/16 18/18/18
f 15/15/15 18/18/18 19/19/19
f 16/16/16 17/17/17 20/20/20
f 16/16/16 20/20/20 18/18/18
f 17/17/17 21/21/21 20/20/20
f 18/18/18 20/20/20 22/22/22
f 18/18/18 22/22/22 19/19/19
f 20/20/20 21/21/21 23/23/23
f 20/20/20 23/23/23 22/22/22
f 21/21/21 24/24/24 23/23/23
f 19/19/19 22/22/22 25/25/25
f 22/22/22 23/23/23 26/26/26
f 22/22/22 26/26/26 25/25/25
f 23/23/23 24/24/24 27/27/27
f 23/23/23 27/27/27 26/26/26
f 19/19/19 25/25/25 28/28/28
f 29/29/29 19/19/19 28/28/28
f 24/24/24 30/30/30 27/27/27
f 24/24/24 31/31/31 30/30/30
f 29/29/29 28/28/28 32/32/32
f 33/33/33 29/29/29 32/32/32
f 31/31/31 34/34/34 30/30/30
f 31/31/31 35/35/35 34/34/34
f 33/33/33 32/32/32 36/36/36
f 37/37/37 33/33/33 36/36/36
f 35/35/35 38/38/38 34/34/34
f 35/35/35 39/39/39 38/38/38
f 37/37/37 36/36/36 40/40/40
f 41/41/41 37/37/37 40/40/40
f 39/39/39 42/42/42 38/38/38
f 39/39/39 43/43/43 42/42/42
f 41/41/41 40/40/40 44/44/44
f 45/45/45 41/41/41 44/44/44
f 43/43/43 46/46/46 42/42/42
f 43/43/43 47/47/47 46/46/46
f 47/47/47 48/48/48 46/46/46
f 46/46/46 48/48/48 49/49/49
f 48/48/48 50/50/50 49/49/49
f 42/42/42 46/46/46 51/51/51
f 46/46/46 49/49/49 51/51/51
f 38/38/38 42/42/42 52/52/52
f 42/42/42 51/51/51 52/52/52
f 49/49/49 50/50/50 53/53/53
f 50/50/50 54/54/54 53/53/53
f 51/51/51 49/49/49 55/55/55
f 49/49/49 53/53/53 55/55/55
f 53/53/53 54/54/54 56/56/56
f 54/54/54 57/57/57 56/56/56
f 53/53/53 56/56/56 58/58/58
f 55/55/55 53/53/53 58/58/58
f 55/55/55 58/58/58 59/59/59
f 51/51/51 55/55/55 60/60/60
f 60/60/60 55/55/55 59/59/59
f 52/52/52 51/51/51 60/60/60
f 60/60/60 59/59/59 61/61/61
f 62/62/62 60/60/60 61/61/61
f 52/52/52 60/60/60 62/62/62
f 62/62/62 61/61/61 63/63/63
f 64/64/64 52/52/52 62/62/62
f 38/38/38 52/52/52 64/64/64
f 34/34/34 38/38/38 64/64/64
f 64/64/64 62/62/62 65/65/65
f 65/65/65 62/62/62 63/63/63
f 34/34/34 64/64/64 66/66/66
f 66/66/66 64/64/64 65/65/65
f 30/30/30 34/34/34 66/66/66
f 30/30/30 66/66/66 67/67/67
f 27/27/27 30/30/30 67/67/67
f 66/66/66 65/65/65 68/68/68
f 67/67/67 66/66/66 68/68/68
f 65/65/65 63/63/63 69/69/69
f 68/68/68 65/65/65 69/69/69
f 27/27/27 67/67/67 70/70/70
f 26/26/26 27/27/27 70/70/70
f 67/67/67 68/68/68 71/71/71
f 70/70/70 67/67/67 71/71/71
f 26/26/26 70/70/70 72/72/72
f 25/25/25 26/26/26 72/72/72
f 69/69/69 63/63/63 73/73/73
f 63/63/63 74/74/74 73/73/73
f 68/68/68 69/69/69 75/75/75
f 71/71/71 68/68/68 75/75/75
f 70/70/70 71/71/71 76/76/76
f 72/72/72 70/70/70 76/76/76
f 25/25/25 72/72/72 77/77/77
f 28/28/28 25/25/25 77/77/77
f 73/73/73 74/74/74 78/78/78
f 74/74/74 79/79/79 78/78/78
f 69/69/69 73/73/73 80/80/80
f 75/75/75 69/69/69 80/80/80
f 71/71/71 75/75/75 81/81/81
f 76/76/76 71/71/71 81/81/81
f 81/81/81 75/75/75 82/82/82
f 75/75/75 80/80/80 82/82/82
f 76/76/76 81/81/81 83/83/83
f 82/82/82 80/80/80 84/84/84
f 80/80/80 73/73/73 85/85/85
f 80/80/80 85/85/85 84/84/84
f 73/73/73 78/78/78 85/85/85
f 84/84/84 85/85/85 86/86/86
f 87/87/87 76/76/76 83/83/83
f 72/72/72 76/76/76 87/87/87
f 87/87/87 83/83/83 88/88/88
f 77/77/77 72/72/72 87/87/87
f 85/85/85 89/89/89 86/86/86
f 85/85/85 78/78/78 89/89/89
f 86/86/86 89/89/89 90/90/90
f 91/91/91 87/87/87 88/88/88
f 77/77/77 87/87/87 91/91/91
f 91/91/91 88/88/88 92/92/92
f 78/78/78 93/93/93 89/89/89
f 78/78/78 79/79/79 93/93/93
f 79/79/79 94/94/94 93/93/93
f 89/89/89 95/95/95 90/90/90
f 89/89/89 93/93/93 95/95/95
f 90/90/90 95/95/95 96/96/96
f 95/95/95 97/97/97 96/96/96
f 93/93/93 94/94/94 98/98/98
f 93/93/93 98/98/98 95/95/95
f 95/95/95 98/98/98 97/97/97
f 94/94/94 99/99/99 98/98/98
f 98/98/98 100/100/100 97/97/97
f 98/98/98 99/99/99 100/100/100
f 99/99/99 101/101/101 100/100/100
f 102/102/102 91/91/91 92/92/92
f 102/102/102 92/92/92 103/103/103
f 104/104/104 91/91/91 102/102/102
f 104/104/104 77/77/77 91/91/91
f 28/28/28 77/77/77 104/104/104
f 32/32/32 28/28/28 104/104/104
f 32/32/32 104/104/104 105/105/105
f 105/105/105 104/104/104 102/102/102
f 36/36/36 32/32/32 105/105/105
f 106/106/106 102/102/102 103/103/103
f 105/105/105 102/102/102 106/106/106
f 106/106/106 103/103/103 107/107/107
f 36/36/36 105/105/105 108/108/108
f 108/108/108 105/105/105 106/106/106
f 40/40/40 36/36/36 108/108/108
f 109/109/109 106/106/106 107/107/107
f 108/108/108 106/106/106 109/109/109
f 109/109/109 107/107/107 110/110/110
f 40/40/40 108/108/108 111/111/111
f 111/111/111 108/108/108 109/109/109
f 44/44/44 40/40/40 111/111/111
f 112/112/112 109/109/109 110/110/110
f 111/111/111 109/109/109 112/112/112
f 112/112/112 110/110/110 113/113/113
f 44/44/44 111/111/111 114/114/114
f 114/114/114 111/111/111 112/112/112
f 115/115/115 112/112/112 113/113/113
f 114/114/114 112/112/112 115/115/115
f 115/115/115 113/113/113 116/116/116
f 117/117/117 115/115/115 116/116/116
f 118/118/118 115/115/115 117/117/117
f 118/118/118 114/114/114 115/115/115
f 119/119/119 118/118/118 117/117/117
f 120/120/120 44/44/44 114/114/114
f 120/120/120 114/114/114 118/118/118
f 45/45/45 44/44/44 120/120/120
f 121/121/121 45/45/45 120/120/120
f 122/122/122 118/118/118 119/119/119
f 122/122/122 120/120/120 118/118/118
f 121/121/121 120/120/120 122/122/122
f 123/123/123 122/122/122 119/119/119
f 124/124/124 121/121/121 122/122/122
f 124/124/124 122/122/122 123/123/123
f 125/125/125 124/124/124 123/123/123
