g MES_StickMan-Hair
v -0.1130759 -0.06505699 0.1353102
v -0.1130758 0.05259061 -0.141051
v -0.07995671 0.1273727 -0.112754
v -0.07995676 0.009725269 0.1636072
v -0.07995676 -0.1398388 0.1070132
v -6.556603E-08 0.1583484 -0.1010331
v -1.094825E-07 0.04070076 0.175328
v -0.0799567 -0.02219133 -0.1693482
v -8.751201E-08 -0.1708147 0.09529207
v -0.2307754 0.3516615 -0.3122019
v -1.226404E-07 0.4410649 -0.2783721
v -0.3263655 0.1358208 -0.3938741
v 0.07995663 0.1273727 -0.112754
v 0.07995658 0.009725269 0.1636072
v 0.2307752 0.3516615 -0.3122019
v -4.359553E-08 -0.05316721 -0.181069
v -0.2307754 -0.08001881 -0.4755467
v 0.0799566 -0.1398388 0.1070132
v -0.2081302 0.3671399 -0.6183848
v -1.001281E-07 0.4532953 -0.6153183
v 0.20813 0.3671399 -0.6183848
v -0.2943403 0.1591408 -0.6257874
v 0.3263654 0.1358208 -0.3938741
v 0.1130758 0.05259061 -0.141051
v 0.1130757 -0.06505699 0.1353102
v 0.07995663 -0.02219133 -0.1693482
v -5.922795E-08 -0.1694229 -0.5093765
v 0.2307753 -0.08001881 -0.4755467
v 0.2943403 0.1591408 -0.6257874
v -0.2081302 -0.04885736 -0.6331907
v 0.20813 -0.04885736 -0.6331907
v -7.123445E-08 -0.1350133 -0.6362569
v 0.2845874 0.1021177 -0.7974802
v 0.2012336 -0.0911348 -0.7413696
v -6.272638E-08 -0.1711828 -0.7181277
v -0.2012338 -0.0911348 -0.7413696
v -0.2845874 0.1021177 -0.7974802
v 0.2012337 0.2953707 -0.8535917
v -0.2012338 0.2953707 -0.8535917
v -6.364191E-08 0.3754183 -0.8768332
v -5.312011E-08 -0.2393648 -0.7594361
v -0.1500334 -0.2010487 -0.8083645
v 0.1500334 -0.2010487 -0.8083645
v -0.2121793 -0.108545 -0.9264878
v 0.2121793 -0.108545 -0.9264878
v -0.1500334 -0.01604144 -1.044612
v 0.1500334 -0.01604144 -1.044612
v -2.122116E-08 0.02227446 -1.09354
v -0.094266 -0.3779093 -0.8017939
v -2.876007E-08 -0.3773494 -0.7627518
v -0.1333122 -0.3792602 -0.8960502
v 0.09426597 -0.3779093 -0.8017939
v -0.09426598 -0.3806116 -0.990307
v -1.595313E-10 -0.3811713 -1.029349
v 0.09426598 -0.3806116 -0.990307
v 0.1333122 -0.3792602 -0.8960502
v -0.07010406 -0.7307743 -0.7664806
v -0.09914208 -0.731779 -0.8365774
v -0.07010403 -0.7327841 -0.9066745
v 7.095932E-08 -0.7332004 -0.9357095
v 4.968956E-08 -0.7303579 -0.7374455
v 0.07010417 -0.7327841 -0.9066745
v 0.09914222 -0.731779 -0.8365774
v 0.07010415 -0.7307743 -0.7664806
v -0.06621492 -0.9419439 -0.8430045
v -0.046821 -0.9426152 -0.8898209
v 6.984386E-08 -0.9428931 -0.9092128
v 0.04682112 -0.9426152 -0.8898209
v -0.04682102 -0.9412729 -0.7961882
v 0.06621505 -0.9419439 -0.8430045
v 5.563823E-08 -0.9409948 -0.7767965
v 0.04682111 -0.9412729 -0.7961882
v 1.88229E-07 -1.14686 -0.9859405
v -0.02014403 -1.151683 -0.979131
v 0.0201444 -1.151683 -0.979131
v 0.02848841 -1.163325 -0.9626915
v -0.02848803 -1.163325 -0.9626915
v 0.0201444 -1.174967 -0.9462522
v -0.02014403 -1.174967 -0.9462522
v 1.836986E-07 -1.179789 -0.9394429
vt 0.4899902 0.25
vt 0.4899902 0.25
vt 0.4196777 0.4196777
vt 0.4196777 0.4196777
vt 0.4196777 0.08032227
vt 0.25 0.4899902
vt 0.25 0.4899902
vt 0.4196777 0.08032227
vt 0.25 0.01000214
vt 0.4196777 0.4196777
vt 0.25 0.4899902
vt 0.4899902 0.25
vt 0.08032227 0.4196777
vt 0.08032227 0.4196777
vt 0.08032227 0.4196777
vt 0.25 0.01000214
vt 0.4196777 0.08032227
vt 0.08032227 0.08032227
vt 0.4196777 0.4196777
vt 0.25 0.4899902
vt 0.08032227 0.4196777
vt 0.4899902 0.25
vt 0.01000214 0.25
vt 0.01000214 0.25
vt 0.01000214 0.25
vt 0.08032227 0.08032227
vt 0.25 0.01000214
vt 0.08032227 0.08032227
vt 0.01000214 0.25
vt 0.4196777 0.08032227
vt 0.08032227 0.08032227
vt 0.25 0.01000214
vt 0.01000214 0.25
vt 0.08032227 0.08032227
vt 0.25 0.01000214
vt 0.4196777 0.08032227
vt 0.4899902 0.25
vt 0.08032227 0.4196777
vt 0.4196777 0.4196777
vt 0.25 0.4899902
vt 0.25 0.01000214
vt 0.4196777 0.08032227
vt 0.08032227 0.08032227
vt 0.4899902 0.25
vt 0.01000214 0.25
vt 0.4196777 0.4196777
vt 0.08032227 0.4196777
vt 0.25 0.4899902
vt 0.4196777 0.08032227
vt 0.25 0.01000214
vt 0.4899902 0.25
vt 0.08032227 0.08032227
vt 0.4196777 0.4196777
vt 0.25 0.4899902
vt 0.08032227 0.4196777
vt 0.01000214 0.25
vt 0.4196777 0.08032227
vt 0.4899902 0.25
vt 0.4196777 0.4196777
vt 0.25 0.4899902
vt 0.25 0.01000214
vt 0.08032227 0.4196777
vt 0.01000214 0.25
vt 0.08032227 0.08032227
vt 0.4899902 0.25
vt 0.4196777 0.4196777
vt 0.25 0.4899902
vt 0.08032227 0.4196777
vt 0.4196777 0.08032227
vt 0.01000214 0.25
vt 0.25 0.01000214
vt 0.08032227 0.08032227
vt 0.25 0.4899902
vt 0.4196777 0.4196777
vt 0.08032227 0.4196777
vt 0.01000214 0.25
vt 0.4899902 0.25
vt 0.08032227 0.08032227
vt 0.4196777 0.08032227
vt 0.25 0.01000214
vn -0.7763672 -0.2302246 0.5864258
vn -0.9331055 -0.1184082 0.3400879
vn -0.6542969 0.4924316 0.5742188
vn -0.5463867 0.2770996 0.7900391
vn -0.5512695 -0.7421875 0.3813477
vn 0 0.7426758 0.6699219
vn -1.192093E-07 0.4858398 0.8740234
vn -0.6655273 -0.7397461 0.1018066
vn 0 -0.9550781 0.2961426
vn -0.6894531 0.5991211 0.4074707
vn 0 0.8754883 0.4836426
vn -0.9707031 -0.0647583 0.2321777
vn 0.6542969 0.4924316 0.5742188
vn 0.5463867 0.2770996 0.7900391
vn 0.6894531 0.5991211 0.4074707
vn 0 -1 0.001763344
vn -0.6845703 -0.7250977 0.07397461
vn 0.5512695 -0.7421875 0.3813477
vn -0.675293 0.7270508 -0.1251221
vn 0 0.9916992 -0.1274414
vn 0.675293 0.7270508 -0.1251221
vn -0.9931641 0.06015015 -0.09869385
vn 0.9707031 -0.0647583 0.2321777
vn 0.9331055 -0.1184082 0.3400879
vn 0.7763672 -0.2302246 0.5864258
vn 0.6655273 -0.7397461 0.1018066
vn 0 -1 0.01537323
vn 0.6845703 -0.7250977 0.07397461
vn 0.9931641 0.06015015 -0.09869385
vn -0.7456055 -0.6660156 -0.009857178
vn 0.7456055 -0.6660156 -0.009857178
vn 0 -0.9975586 0.06848145
vn 0.9790039 -0.02220154 -0.2017822
vn 0.7563477 -0.5932617 0.276123
vn 0 -0.7749023 0.6323242
vn -0.7563477 -0.5932617 0.276123
vn -0.9790039 -0.02220154 -0.2017822
vn 0.6611328 0.5629883 -0.4960938
vn -0.6611328 0.5629883 -0.4960938
vn 0 0.8027344 -0.5961914
vn 0 -0.3154297 0.9487305
vn -0.7338867 -0.3813477 0.5620117
vn 0.7338867 -0.3813477 0.5620117
vn -0.9423828 -0.2165527 -0.2548828
vn 0.9423828 -0.2165527 -0.2548828
vn -0.6010742 0.08746338 -0.7944336
vn 0.6010742 0.08746338 -0.7944336
vn 0 0.2142334 -0.9765625
vn -0.6923828 -0.06726074 0.7182617
vn 0 0.007987976 1
vn -0.9804688 -0.1895752 -0.05337524
vn 0.6923828 -0.06726074 0.71875
vn -0.6391602 -0.2161865 -0.7382813
vn 0 -0.2141113 -0.9770508
vn 0.6391602 -0.2161865 -0.7382813
vn 0.9804688 -0.1895752 -0.05337524
vn -0.6923828 -0.07336426 0.7177734
vn -0.9921875 -0.121582 0.02632141
vn -0.7099609 -0.1727295 -0.6826172
vn 0 -0.1945801 -0.980957
vn 0 -0.05441284 0.9985352
vn 0.7099609 -0.1727295 -0.6826172
vn 0.9921875 -0.121582 0.02632141
vn 0.6923828 -0.07336426 0.7177734
vn -0.9829102 -0.1807861 0.03759766
vn -0.7363281 0.02238464 -0.6762695
vn 0 0.1244507 -0.9921875
vn 0.7363281 0.02238464 -0.6762695
vn -0.6591797 -0.3208008 0.6796875
vn 0.9829102 -0.1807861 0.03759766
vn 0 -0.3649902 0.9311523
vn 0.6591797 -0.3208008 0.6796875
vn 1.192093E-07 -0.19104 -0.9814453
vn -0.5068359 -0.3068848 -0.8056641
vn 0.5068359 -0.3068848 -0.8056641
vn 0.7270508 -0.5952148 -0.342041
vn -0.7270508 -0.5952148 -0.342041
vn 0.4943848 -0.8618164 0.1136475
vn -0.4943848 -0.8618164 0.1136475
vn 1.788139E-07 -0.9589844 0.2841797
g MES_StickMan-Hair_0
f 3/3/3 2/2/2 1/1/1
f 4/4/4 3/3/3 1/1/1
f 1/1/1 2/2/2 5/5/5
f 4/4/4 1/1/1 5/5/5
f 6/6/6 3/3/3 4/4/4
f 7/7/7 4/4/4 5/5/5
f 7/7/7 6/6/6 4/4/4
f 2/2/2 8/8/8 5/5/5
f 7/7/7 5/5/5 9/9/9
f 5/5/5 8/8/8 9/9/9
f 3/3/3 10/10/10 2/2/2
f 6/6/6 11/11/11 3/3/3
f 11/11/11 10/10/10 3/3/3
f 2/2/2 12/12/12 8/8/8
f 10/10/10 12/12/12 2/2/2
f 13/13/13 6/6/6 7/7/7
f 14/14/14 7/7/7 9/9/9
f 14/14/14 13/13/13 7/7/7
f 15/15/15 11/11/11 6/6/6
f 13/13/13 15/15/15 6/6/6
f 8/8/8 16/16/16 9/9/9
f 12/12/12 17/17/17 8/8/8
f 8/8/8 17/17/17 16/16/16
f 14/14/14 9/9/9 18/18/18
f 9/9/9 16/16/16 18/18/18
f 10/10/10 19/19/19 12/12/12
f 11/11/11 20/20/20 10/10/10
f 20/20/20 19/19/19 10/10/10
f 15/15/15 21/21/21 11/11/11
f 21/21/21 20/20/20 11/11/11
f 12/12/12 22/22/22 17/17/17
f 19/19/19 22/22/22 12/12/12
f 23/23/23 15/15/15 13/13/13
f 24/24/24 13/13/13 14/14/14
f 24/24/24 23/23/23 13/13/13
f 18/18/18 25/25/25 14/14/14
f 25/25/25 24/24/24 14/14/14
f 18/18/18 26/26/26 25/25/25
f 26/26/26 24/24/24 25/25/25
f 16/16/16 26/26/26 18/18/18
f 17/17/17 27/27/27 16/16/16
f 16/16/16 27/27/27 26/26/26
f 26/26/26 28/28/28 24/24/24
f 28/28/28 23/23/23 24/24/24
f 27/27/27 28/28/28 26/26/26
f 23/23/23 29/29/29 15/15/15
f 29/29/29 21/21/21 15/15/15
f 17/17/17 30/30/30 27/27/27
f 22/22/22 30/30/30 17/17/17
f 28/28/28 31/31/31 23/23/23
f 31/31/31 29/29/29 23/23/23
f 27/27/27 32/32/32 28/28/28
f 30/30/30 32/32/32 27/27/27
f 32/32/32 31/31/31 28/28/28
f 29/29/29 33/33/33 21/21/21
f 31/31/31 34/34/34 29/29/29
f 34/34/34 33/33/33 29/29/29
f 32/32/32 35/35/35 31/31/31
f 35/35/35 34/34/34 31/31/31
f 30/30/30 36/36/36 32/32/32
f 36/36/36 35/35/35 32/32/32
f 22/22/22 37/37/37 30/30/30
f 37/37/37 36/36/36 30/30/30
f 33/33/33 38/38/38 21/21/21
f 21/21/21 38/38/38 20/20/20
f 39/39/39 37/37/37 22/22/22
f 19/19/19 39/39/39 22/22/22
f 20/20/20 40/40/40 19/19/19
f 38/38/38 40/40/40 20/20/20
f 40/40/40 39/39/39 19/19/19
f 35/35/35 41/41/41 34/34/34
f 36/36/36 42/42/42 35/35/35
f 42/42/42 41/41/41 35/35/35
f 34/34/34 43/43/43 33/33/33
f 41/41/41 43/43/43 34/34/34
f 37/37/37 44/44/44 36/36/36
f 44/44/44 42/42/42 36/36/36
f 33/33/33 45/45/45 38/38/38
f 43/43/43 45/45/45 33/33/33
f 39/39/39 46/46/46 37/37/37
f 46/46/46 44/44/44 37/37/37
f 38/38/38 47/47/47 40/40/40
f 45/45/45 47/47/47 38/38/38
f 40/40/40 48/48/48 39/39/39
f 48/48/48 46/46/46 39/39/39
f 47/47/47 48/48/48 40/40/40
f 42/42/42 49/49/49 41/41/41
f 41/41/41 50/50/50 43/43/43
f 49/49/49 50/50/50 41/41/41
f 44/44/44 51/51/51 42/42/42
f 51/51/51 49/49/49 42/42/42
f 43/43/43 52/52/52 45/45/45
f 50/50/50 52/52/52 43/43/43
f 46/46/46 53/53/53 44/44/44
f 53/53/53 51/51/51 44/44/44
f 48/48/48 54/54/54 46/46/46
f 54/54/54 53/53/53 46/46/46
f 47/47/47 55/55/55 48/48/48
f 55/55/55 54/54/54 48/48/48
f 45/45/45 56/56/56 47/47/47
f 52/52/52 56/56/56 45/45/45
f 56/56/56 55/55/55 47/47/47
f 49/49/49 57/57/57 50/50/50
f 51/51/51 58/58/58 49/49/49
f 58/58/58 57/57/57 49/49/49
f 53/53/53 59/59/59 51/51/51
f 59/59/59 58/58/58 51/51/51
f 54/54/54 60/60/60 53/53/53
f 60/60/60 59/59/59 53/53/53
f 50/50/50 61/61/61 52/52/52
f 57/57/57 61/61/61 50/50/50
f 55/55/55 62/62/62 54/54/54
f 62/62/62 60/60/60 54/54/54
f 56/56/56 63/63/63 55/55/55
f 63/63/63 62/62/62 55/55/55
f 52/52/52 64/64/64 56/56/56
f 61/61/61 64/64/64 52/52/52
f 64/64/64 63/63/63 56/56/56
f 58/58/58 65/65/65 57/57/57
f 59/59/59 66/66/66 58/58/58
f 66/66/66 65/65/65 58/58/58
f 60/60/60 67/67/67 59/59/59
f 67/67/67 66/66/66 59/59/59
f 62/62/62 68/68/68 60/60/60
f 68/68/68 67/67/67 60/60/60
f 57/57/57 69/69/69 61/61/61
f 65/65/65 69/69/69 57/57/57
f 63/63/63 70/70/70 62/62/62
f 70/70/70 68/68/68 62/62/62
f 61/61/61 71/71/71 64/64/64
f 69/69/69 71/71/71 61/61/61
f 64/64/64 72/72/72 63/63/63
f 72/72/72 70/70/70 63/63/63
f 71/71/71 72/72/72 64/64/64
f 67/67/67 73/73/73 66/66/66
f 66/66/66 74/74/74 65/65/65
f 73/73/73 74/74/74 66/66/66
f 75/75/75 73/73/73 67/67/67
f 68/68/68 75/75/75 67/67/67
f 74/74/74 73/73/73 75/75/75
f 76/76/76 75/75/75 68/68/68
f 70/70/70 76/76/76 68/68/68
f 75/75/75 76/76/76 74/74/74
f 74/74/74 77/77/77 65/65/65
f 65/65/65 77/77/77 69/69/69
f 76/76/76 77/77/77 74/74/74
f 78/78/78 76/76/76 70/70/70
f 72/72/72 78/78/78 70/70/70
f 76/76/76 78/78/78 77/77/77
f 77/77/77 79/79/79 69/69/69
f 69/69/69 79/79/79 71/71/71
f 78/78/78 79/79/79 77/77/77
f 80/80/80 78/78/78 72/72/72
f 71/71/71 80/80/80 72/72/72
f 78/78/78 80/80/80 79/79/79
f 79/79/79 80/80/80 71/71/71
