g RabbyTail
v 0 -1 -0.8752767
v 0.3068021 -0.9009688 -1.182079
v -2.462023E-09 -0.9009688 -1.30916
v 0.5528382 -0.6234898 -1.428115
v 1.243914E-08 -0.6234898 -1.657108
v -0.3068021 -0.9009688 -1.182079
v 0 -1 -0.8752767
v 0.7818313 -0.6234898 -0.8752767
v 0.4338836 -0.9009688 -0.8752766
v 0 -1 -0.8752767
v 0.689378 -0.2225209 -1.564655
v 0.9749277 -0.2225209 -0.8752767
v -0.5528381 -0.6234898 -1.428115
v -0.4338837 -0.9009688 -0.8752766
v 0 -1 -0.8752767
v -0.7818312 -0.6234898 -0.8752767
v 1.243914E-08 -0.2225209 -1.850204
v -0.689378 -0.2225209 -1.564654
v -0.9749277 -0.2225209 -0.8752767
v -0.689378 0.2225209 -1.564654
v -0.9749277 0.2225209 -0.8752767
v 0 0.2225209 -1.850204
v 0.689378 0.2225209 -1.564655
v -0.5528381 0.6234898 -1.428115
v -0.7818312 0.6234898 -0.8752767
v 0 0.6234898 -1.657108
v -0.306802 0.9009688 -1.182079
v -0.4338835 0.9009688 -0.8752766
v -1.067701E-07 1 -0.8752766
v -2.462023E-09 0.9009688 -1.30916
v -1.067701E-07 1 -0.8752766
v 0.5528382 0.6234898 -1.428115
v 0.306802 0.9009688 -1.182079
v -1.067701E-07 1 -0.8752766
v 0.4338836 0.9009688 -0.8752767
v -1.067701E-07 1 -0.8752766
v 0.7818313 0.6234898 -0.8752767
v 0.9749277 0.2225209 -0.8752767
v 0.306802 0.9009688 -0.5684747
v -1.067701E-07 1 -0.8752766
v 0.5528382 0.6234898 -0.3224384
v 0.689378 0.2225209 -0.1858987
v -2.462023E-09 0.9009688 -0.4413931
v -1.067701E-07 1 -0.8752766
v 1.243914E-08 0.6234898 -0.09344541
v 0.689378 -0.2225209 -0.1858987
v -0.306802 0.9009688 -0.5684747
v -1.067701E-07 1 -0.8752766
v 1.243914E-08 0.2225209 0.09965097
v 0.5528382 -0.6234898 -0.3224384
v -0.5528381 0.6234898 -0.3224385
v 1.243914E-08 -0.2225209 0.09965097
v 0.306802 -0.9009688 -0.5684747
v 0 -1 -0.8752767
v -0.4338835 0.9009688 -0.8752766
v -1.067701E-07 1 -0.8752766
v -0.7818312 0.6234898 -0.8752767
v -0.689378 0.2225209 -0.1858987
v -0.9749277 0.2225209 -0.8752767
v -0.689378 -0.2225209 -0.1858987
v -0.9749277 -0.2225209 -0.8752767
v 1.243914E-08 -0.6234898 -0.09344541
v -0.5528381 -0.6234898 -0.3224385
v -0.7818312 -0.6234898 -0.8752767
v -2.462023E-09 -0.9009688 -0.441393
v 0 -1 -0.8752767
v -0.3068021 -0.9009688 -0.5684746
v 0 -1 -0.8752767
v -0.4338837 -0.9009688 -0.8752766
v 0 -1 -0.8752767
vt 0.6875 0
vt 0.625 0.1428223
vt 0.75 0.1428223
vt 0.625 0.2856445
vt 0.75 0.2856445
vt 0.875 0.1428223
vt 0.8125 0
vt 0.5 0.2856445
vt 0.5 0.1428223
vt 0.5625 0
vt 0.625 0.4284668
vt 0.5 0.4284668
vt 0.875 0.2856445
vt 1 0.1428223
vt 0.9375 0
vt 1 0.2856445
vt 0.75 0.4284668
vt 0.875 0.4284668
vt 1 0.4284668
vt 0.875 0.5712891
vt 1 0.5712891
vt 0.75 0.5712891
vt 0.625 0.5712891
vt 0.875 0.7143555
vt 1 0.7143555
vt 0.75 0.7143555
vt 0.875 0.8569336
vt 1 0.8569336
vt 0.9375 1
vt 0.75 0.8569336
vt 0.8125 1
vt 0.625 0.7143555
vt 0.625 0.8569336
vt 0.6875 1
vt 0.5 0.8569336
vt 0.5625 1
vt 0.5 0.7143555
vt 0.5 0.5712891
vt 0.375 0.8569336
vt 0.4375 1
vt 0.375 0.7143555
vt 0.375 0.5712891
vt 0.25 0.8569336
vt 0.3125 1
vt 0.25 0.7143555
vt 0.375 0.4284668
vt 0.125 0.8569336
vt 0.1875 1
vt 0.25 0.5712891
vt 0.375 0.2856445
vt 0.125 0.7143555
vt 0.25 0.4284668
vt 0.375 0.1428223
vt 0.4375 0
vt 0 0.8569336
vt 0.0625 1
vt 0 0.7143555
vt 0.125 0.5712891
vt 0 0.5712891
vt 0.125 0.4284668
vt 0 0.4284668
vt 0.25 0.2856445
vt 0.125 0.2856445
vt 0 0.2856445
vt 0.25 0.1428223
vt 0.3125 0
vt 0.125 0.1428223
vt 0.1875 0
vt 0 0.1428223
vt 0.0625 0
vn 0 -1 0
vn 0.3369141 -0.8789063 -0.3369141
vn 0 -0.8789063 -0.4765625
vn 0.5668945 -0.5981445 -0.5668945
vn 0 -0.5981445 -0.8012695
vn -0.3369141 -0.8789063 -0.3369141
vn 0 -1 0
vn 0.8012695 -0.5981445 0
vn 0.4765625 -0.8789063 0
vn 0 -1 0
vn 0.690918 -0.2115479 -0.690918
vn 0.9775391 -0.2115479 0
vn -0.5668945 -0.5981445 -0.5668945
vn -0.4765625 -0.8789063 0
vn 0 -1 0
vn -0.8012695 -0.5981445 0
vn 0 -0.2115479 -0.9775391
vn -0.690918 -0.2115479 -0.690918
vn -0.9775391 -0.2115479 0
vn -0.690918 0.2115479 -0.690918
vn -0.9775391 0.2115479 0
vn 0 0.2115479 -0.9775391
vn 0.690918 0.2115479 -0.690918
vn -0.5668945 0.5981445 -0.5668945
vn -0.8012695 0.5981445 0
vn 0 0.5981445 -0.8012695
vn -0.3369141 0.8789063 -0.3369141
vn -0.4765625 0.8789063 0
vn 0 1 0
vn 0 0.8789063 -0.4765625
vn 0 1 0
vn 0.5668945 0.5981445 -0.5668945
vn 0.3369141 0.8789063 -0.3369141
vn 0 1 0
vn 0.4765625 0.8789063 0
vn 0 1 0
vn 0.8012695 0.5981445 0
vn 0.9775391 0.2115479 0
vn 0.3369141 0.8789063 0.3369141
vn 0 1 0
vn 0.5668945 0.5981445 0.5668945
vn 0.690918 0.2115479 0.690918
vn 0 0.8789063 0.4765625
vn 0 1 0
vn 0 0.5981445 0.8012695
vn 0.690918 -0.2115479 0.690918
vn -0.3369141 0.8789063 0.3369141
vn 0 1 0
vn 0 0.2115479 0.9775391
vn 0.5668945 -0.5981445 0.5668945
vn -0.5668945 0.5981445 0.5668945
vn 0 -0.2115479 0.9775391
vn 0.3369141 -0.8789063 0.3369141
vn 0 -1 0
vn -0.4765625 0.8789063 0
vn 0 1 0
vn -0.8012695 0.5981445 0
vn -0.690918 0.2115479 0.690918
vn -0.9775391 0.2115479 0
vn -0.690918 -0.2115479 0.690918
vn -0.9775391 -0.2115479 0
vn 0 -0.5981445 0.8012695
vn -0.5668945 -0.5981445 0.5668945
vn -0.8012695 -0.5981445 0
vn 0 -0.8789063 0.4765625
vn 0 -1 0
vn -0.3369141 -0.8789063 0.3369141
vn 0 -1 0
vn -0.4765625 -0.8789063 0
vn 0 -1 0
g RabbyTail_0
f 3/3/3 2/2/2 1/1/1
f 4/4/4 2/2/2 3/3/3
f 5/5/5 4/4/4 3/3/3
f 5/5/5 3/3/3 6/6/6
f 6/6/6 3/3/3 7/7/7
f 4/4/4 8/8/8 2/2/2
f 8/8/8 9/9/9 2/2/2
f 2/2/2 9/9/9 10/10/10
f 11/11/11 4/4/4 5/5/5
f 12/12/12 8/8/8 4/4/4
f 11/11/11 12/12/12 4/4/4
f 13/13/13 5/5/5 6/6/6
f 13/13/13 6/6/6 14/14/14
f 14/14/14 6/6/6 15/15/15
f 16/16/16 13/13/13 14/14/14
f 17/17/17 5/5/5 13/13/13
f 17/17/17 11/11/11 5/5/5
f 18/18/18 13/13/13 16/16/16
f 18/18/18 17/17/17 13/13/13
f 19/19/19 18/18/18 16/16/16
f 20/20/20 18/18/18 19/19/19
f 21/21/21 20/20/20 19/19/19
f 22/22/22 17/17/17 18/18/18
f 20/20/20 22/22/22 18/18/18
f 23/23/23 11/11/11 17/17/17
f 22/22/22 23/23/23 17/17/17
f 24/24/24 20/20/20 21/21/21
f 25/25/25 24/24/24 21/21/21
f 26/26/26 22/22/22 20/20/20
f 24/24/24 26/26/26 20/20/20
f 27/27/27 24/24/24 25/25/25
f 28/28/28 27/27/27 25/25/25
f 29/29/29 27/27/27 28/28/28
f 27/27/27 30/30/30 24/24/24
f 30/30/30 26/26/26 24/24/24
f 31/31/31 30/30/30 27/27/27
f 26/26/26 32/32/32 22/22/22
f 32/32/32 23/23/23 22/22/22
f 30/30/30 33/33/33 26/26/26
f 33/33/33 32/32/32 26/26/26
f 34/34/34 33/33/33 30/30/30
f 33/33/33 35/35/35 32/32/32
f 36/36/36 35/35/35 33/33/33
f 32/32/32 37/37/37 23/23/23
f 35/35/35 37/37/37 32/32/32
f 37/37/37 38/38/38 23/23/23
f 23/23/23 38/38/38 11/11/11
f 38/38/38 12/12/12 11/11/11
f 35/35/35 39/39/39 37/37/37
f 40/40/40 39/39/39 35/35/35
f 37/37/37 41/41/41 38/38/38
f 39/39/39 41/41/41 37/37/37
f 38/38/38 42/42/42 12/12/12
f 41/41/41 42/42/42 38/38/38
f 39/39/39 43/43/43 41/41/41
f 44/44/44 43/43/43 39/39/39
f 43/43/43 45/45/45 41/41/41
f 41/41/41 45/45/45 42/42/42
f 42/42/42 46/46/46 12/12/12
f 12/12/12 46/46/46 8/8/8
f 43/43/43 47/47/47 45/45/45
f 48/48/48 47/47/47 43/43/43
f 45/45/45 49/49/49 42/42/42
f 42/42/42 49/49/49 46/46/46
f 46/46/46 50/50/50 8/8/8
f 8/8/8 50/50/50 9/9/9
f 47/47/47 51/51/51 45/45/45
f 45/45/45 51/51/51 49/49/49
f 49/49/49 52/52/52 46/46/46
f 46/46/46 52/52/52 50/50/50
f 50/50/50 53/53/53 9/9/9
f 9/9/9 53/53/53 54/54/54
f 47/47/47 55/55/55 51/51/51
f 56/56/56 55/55/55 47/47/47
f 55/55/55 57/57/57 51/51/51
f 51/51/51 58/58/58 49/49/49
f 51/51/51 57/57/57 58/58/58
f 49/49/49 58/58/58 52/52/52
f 57/57/57 59/59/59 58/58/58
f 58/58/58 59/59/59 60/60/60
f 58/58/58 60/60/60 52/52/52
f 59/59/59 61/61/61 60/60/60
f 52/52/52 62/62/62 50/50/50
f 50/50/50 62/62/62 53/53/53
f 52/52/52 60/60/60 62/62/62
f 60/60/60 61/61/61 63/63/63
f 60/60/60 63/63/63 62/62/62
f 61/61/61 64/64/64 63/63/63
f 62/62/62 65/65/65 53/53/53
f 62/62/62 63/63/63 65/65/65
f 53/53/53 65/65/65 66/66/66
f 63/63/63 64/64/64 67/67/67
f 63/63/63 67/67/67 65/65/65
f 65/65/65 67/67/67 68/68/68
f 64/64/64 69/69/69 67/67/67
f 67/67/67 69/69/69 70/70/70
